<svg width="1511" height="1133" viewBox="0 0 1511 1133" fill="none" xmlns="http://www.w3.org/2000/svg">
<g clip-path="url(#clip0_209_388)">
<rect width="1511" height="1133" rx="57" fill="white"/>
<rect y="-8" width="1511" height="1141" fill="url(#paint0_linear_209_388)"/>
<mask id="mask0_209_388" style="mask-type:luminance" maskUnits="userSpaceOnUse" x="-361" y="-164" width="1166" height="889">
<path d="M804.581 725L284.071 -157.772L-349.582 -164L-360.001 713.554L804.581 725Z" fill="white"/>
</mask>
<g mask="url(#mask0_209_388)">
<g opacity="0.7">
<g opacity="0.2">
<path d="M130.594 498.443H150.688L141.376 506.219H147.625L160 495.885L147.625 485.552H141.376L150.688 493.327H130.594V498.443Z" fill="#FAFAFA"/>
<path d="M41.7631 192.117H61.8573L52.6679 199.791H58.7942L71.1692 189.559L58.7942 179.226H52.6679L61.8573 186.899H41.7631V192.117Z" fill="#FAFAFA"/>
<path d="M-236.247 348.043V450.254V500.592C-236.247 523.101 -258.18 541.517 -285.258 541.517H-666.313V542.642H-285.258C-257.444 542.642 -234.9 523.817 -234.9 500.592V469.079V347.94C-234.9 325.431 -212.968 307.015 -185.889 307.015H-40.8191C-13.8635 307.015 8.19117 325.329 8.19117 347.94V418.639C8.19117 441.864 30.736 460.689 58.5493 460.689H240.5V459.564H58.5493C31.5937 459.564 9.53907 441.25 9.53907 418.639V347.94C9.53907 324.715 -13.0058 305.889 -40.8191 305.889H-185.889C-213.703 305.889 -236.247 324.715 -236.247 347.94V348.043Z" fill="#FAFAFA"/>
<path d="M-245.192 158.456H116.014V156.921H-245.192C-272.025 156.921 -293.957 138.709 -293.957 116.201V-113.902H-295.795V116.201C-295.795 139.528 -273.128 158.456 -245.192 158.456Z" fill="#FAFAFA"/>
<path d="M99.105 -47.2959V73.843C99.105 97.0682 76.5603 115.894 48.747 115.894H-96.3234C-124.137 115.894 -146.682 97.0682 -146.682 73.843V-47.2959C-146.682 -70.5211 -124.137 -89.3467 -96.3234 -89.3467H48.747C76.5603 -89.3467 99.105 -70.5211 99.105 -47.2959ZM-145.334 73.7408C-145.334 96.2497 -123.402 114.666 -96.3234 114.666H48.747C75.7026 114.666 97.7573 96.352 97.7573 73.7408V-47.3982C97.7573 -69.9072 75.8252 -88.3235 48.747 -88.3235H-96.3234C-123.279 -88.3235 -145.334 -70.0095 -145.334 -47.3982V73.7408Z" fill="#FAFAFA"/>
<path d="M148.973 419.048C150.321 419.048 151.546 418.127 151.546 416.899V410.76C151.546 409.635 150.443 408.612 148.973 408.612H141.621C140.274 408.612 139.048 409.533 139.048 410.76V416.899C139.048 418.025 140.151 419.048 141.621 419.048H148.973Z" fill="#FAFAFA"/>
<path d="M5.74045 25.1424H4.3927C4.3927 23.403 4.39276 21.5613 4.14771 19.822H5.49546C5.49546 21.5613 5.74045 23.403 5.74045 25.1424ZM5.74045 30.6672V36.0898H4.3927V30.6672H5.74045ZM5.74045 41.6148V47.0373H4.3927V41.6148H5.74045ZM5.74045 52.5622V57.9849H4.3927V52.5622H5.74045ZM5.74045 63.5098V68.9324H4.3927V63.5098H5.74045ZM5.74045 74.355V79.7776H4.3927V74.355H5.74045ZM5.74045 85.3025V90.7252H4.3927V85.3025H5.74045ZM5.74045 96.2501V101.673H4.3927V96.2501H5.74045ZM5.74045 107.198V112.62H4.3927V107.198H5.74045ZM5.74045 118.043V123.465H4.3927V118.043H5.74045ZM5.74045 128.99V134.413H4.3927V128.99H5.74045ZM5.74045 139.938V145.36H4.3927V139.938H5.74045ZM5.74045 150.885V156.308H4.3927V150.885H5.74045ZM5.74045 161.731V167.153H4.3927V161.731H5.74045ZM5.74045 172.678V178.101H4.3927V172.678H5.74045ZM5.74045 183.626V189.048H4.3927V183.626H5.74045ZM5.74045 194.573V199.996H4.3927V194.573H5.74045ZM5.74045 205.521V211.046H4.3927V205.521H5.74045ZM5.25047 216.468C5.00542 218.31 4.76031 220.151 4.2702 221.891L2.92245 221.686C3.29003 219.947 3.65752 218.105 3.90257 216.366H5.25047V216.468ZM4.63784 14.297L3.28994 14.5017C2.92236 12.7624 2.43229 10.9207 1.94219 9.18138L3.28994 8.87451C3.90257 10.6138 4.27026 12.4554 4.63784 14.297ZM2.79996 227.211C2.18733 228.95 1.45208 230.69 0.71693 232.429L-0.630822 232.02C0.104332 230.383 0.839426 228.643 1.45205 226.904L2.79996 227.211ZM1.20706 3.65656L-0.140689 4.06571C-0.875844 2.32639 -1.73352 0.689475 -2.5912 -0.947538L-1.36595 -1.4591C-0.508267 0.177909 0.349413 1.91723 1.08457 3.65656H1.20706ZM-1.85608 237.545C-2.83628 239.182 -3.81649 240.819 -4.91922 242.353L-6.14448 241.74C-5.04175 240.205 -4.06154 238.568 -3.08134 236.931L-1.85608 237.442V237.545ZM-4.30659 -6.37019L-5.53185 -5.75634C-6.63458 -7.29104 -7.73737 -8.82574 -8.96263 -10.3604L-7.85987 -10.9743C-6.63461 -9.43959 -5.40932 -7.90492 -4.30659 -6.2679V-6.37019ZM-8.59499 246.958C-9.82025 248.492 -11.2906 249.925 -12.6384 251.255L-13.741 250.538C-12.3932 249.208 -11.0455 247.776 -9.69775 246.241L-8.59499 246.958ZM-11.7806 -15.4761L-12.8834 -14.7598C-14.2312 -16.1922 -15.7015 -17.5223 -17.1718 -18.7501L-16.1915 -19.5686C-14.5987 -18.2386 -13.1284 -16.9085 -11.7806 -15.4761ZM-17.1718 255.347C-18.7646 256.677 -20.3575 257.905 -22.0728 259.031L-22.9304 258.11C-21.2151 256.984 -19.6224 255.756 -18.1521 254.529L-17.1718 255.347ZM-20.9701 -23.2519L-21.8278 -22.331C-23.4207 -23.4565 -25.136 -24.582 -26.9738 -25.7074L-26.1162 -26.6283C-24.2783 -25.6051 -22.5629 -24.3773 -20.9701 -23.2519ZM-27.3415 262.407C-29.1794 263.43 -31.0172 264.453 -32.9776 265.374L-33.7128 264.351C-31.8749 263.43 -30.037 262.509 -28.1991 261.486L-27.464 262.407H-27.3415ZM-31.7524 -29.6977L-32.4875 -28.6745C-34.3254 -29.5954 -36.2857 -30.4138 -38.2461 -31.2323L-37.6335 -32.2554C-35.6731 -31.4369 -33.7128 -30.6185 -31.8749 -29.6977H-31.7524ZM-38.7363 267.829C-40.6967 268.546 -42.7796 269.262 -44.8626 269.876L-45.3527 268.75C-43.2698 268.136 -41.3093 267.42 -39.3489 266.704L-38.7363 267.727V267.829ZM-43.6373 -34.5064L-44.1274 -33.3809C-46.0878 -33.9948 -48.1708 -34.6086 -50.2537 -35.1202L-49.8861 -36.2457C-47.8031 -35.7341 -45.7202 -35.1202 -43.6373 -34.5064ZM-51.234 271.615C-53.3169 272.127 -55.5223 272.434 -57.7278 272.741L-57.9729 271.615C-55.89 271.308 -53.6844 270.899 -51.6015 270.49L-51.234 271.615ZM-56.2575 -37.4735L-56.5025 -36.348C-58.5854 -36.6549 -60.791 -36.9618 -62.8739 -37.1665V-38.292C-60.5459 -38.0873 -58.3404 -37.8827 -56.2575 -37.4735ZM-64.2217 273.457C-66.4271 273.661 -68.6326 273.661 -70.8381 273.661V272.536C-68.6326 272.536 -66.5496 272.536 -64.3442 272.331V273.457H-64.2217ZM-69.3677 -38.5989V-37.4735H-75.8616V-38.5989H-69.3677ZM-77.4544 272.536V273.661H-83.9483V272.536H-77.4544ZM-82.478 -38.7012V-37.5758H-88.9718V-38.7012H-82.478ZM-90.5647 272.536V273.661H-97.0585V272.536H-90.5647ZM-95.5882 -38.7012V-37.5758H-102.082V-38.7012H-95.5882ZM-103.675 272.536V273.661H-110.169V272.536H-103.675ZM-108.698 -38.7012V-37.5758H-115.192V-38.7012H-108.698ZM-116.785 272.536V273.661H-123.279V272.536H-116.785ZM-121.686 -38.7012V-37.5758H-128.18V-38.7012H-121.686ZM-129.773 272.536V273.661H-136.267V272.536H-129.773ZM-134.796 -38.7012V-37.5758H-141.29V-38.7012H-134.796ZM-142.883 272.536V273.661H-149.377V272.536H-142.883ZM-147.907 -38.7012V-37.5758H-154.401V-38.7012H-147.907ZM-155.993 272.536V273.661H-162.487V272.536H-155.993ZM-161.017 -38.7012V-37.5758H-167.511V-38.7012H-161.017ZM-169.104 272.536V273.661H-175.597V272.536H-169.104ZM-174.005 -38.7012V-37.5758H-180.498V-38.7012H-174.005ZM-182.091 272.536V273.661H-188.585V272.536H-182.091ZM-187.115 -38.7012V-37.5758H-193.609V-38.7012H-187.115ZM-195.202 272.536V273.661H-201.695V272.536H-195.202ZM-200.225 -38.7012V-37.5758H-206.719V-38.7012H-200.225ZM-208.312 272.536V273.661H-214.806V272.536H-208.312ZM-213.335 -38.7012V-37.5758H-219.829V-38.7012H-213.335ZM-221.422 272.536V273.661H-227.916V272.536H-221.422ZM-226.323 -38.7012V-37.5758H-232.817V-38.7012H-226.323ZM-234.41 272.536V273.661H-240.904V272.536H-234.41ZM-239.433 -38.7012V-37.5758H-245.927V-38.7012H-239.433ZM-247.52 272.536V273.661H-254.014V272.536H-247.52ZM-252.544 -38.7012V-37.5758H-259.037V-38.7012H-252.544ZM-260.63 272.536V273.661H-267.124V272.536H-260.63ZM-265.654 -38.7012V-37.5758H-272.148V-38.7012H-265.654ZM-273.741 272.536V273.661H-280.234V272.536H-273.741ZM-278.764 -38.7012V-37.5758H-285.258V-38.7012H-278.764ZM-286.851 272.536V273.661H-293.345V272.536H-286.851ZM-291.752 -38.7012V-37.5758C-293.835 -37.5758 -296.04 -37.5757 -298.123 -37.3711V-38.4966C-296.04 -38.4966 -293.957 -38.7012 -291.752 -38.7012ZM-299.839 272.127V273.252C-302.167 273.047 -304.372 272.741 -306.455 272.434L-306.21 271.308C-304.127 271.615 -301.921 271.922 -299.839 272.127ZM-304.74 -36.5526C-306.822 -36.2457 -309.028 -35.8364 -311.111 -35.4272L-311.478 -36.5526C-309.396 -37.0642 -307.19 -37.3711 -304.985 -37.678L-304.74 -36.5526ZM-312.459 270.08L-312.826 271.206C-314.909 270.694 -316.992 270.08 -319.075 269.466L-318.585 268.341C-316.625 268.955 -314.542 269.569 -312.459 270.08ZM-317.237 -33.7901C-319.32 -33.1763 -321.28 -32.4601 -323.241 -31.7439L-323.854 -32.767C-321.893 -33.4832 -319.81 -34.1994 -317.727 -34.8133L-317.237 -33.6879V-33.7901ZM-324.589 266.295L-325.201 267.318C-327.162 266.499 -329.122 265.681 -330.96 264.658L-330.225 263.635C-328.387 264.555 -326.427 265.374 -324.466 266.192L-324.589 266.295ZM-329 -29.2884C-330.837 -28.3676 -332.675 -27.4467 -334.513 -26.4236L-335.248 -27.3444C-333.411 -28.3676 -331.573 -29.3907 -329.612 -30.3115L-328.877 -29.2884H-329ZM-335.739 260.77L-336.596 261.691C-338.434 260.668 -340.149 259.44 -341.742 258.314L-340.885 257.394C-339.292 258.519 -337.576 259.644 -335.739 260.77ZM-339.659 -23.1496C-341.375 -22.0242 -342.968 -20.7964 -344.438 -19.5686L-345.418 -20.3871C-343.825 -21.7171 -342.232 -22.945 -340.517 -24.0704L-339.659 -23.1496ZM-345.541 253.71L-346.521 254.529C-348.114 253.199 -349.584 251.869 -350.932 250.436L-349.829 249.72C-348.481 251.152 -347.011 252.482 -345.541 253.71ZM-348.849 -15.5784C-350.197 -14.2483 -351.544 -12.816 -352.892 -11.2813L-353.995 -11.9974C-352.77 -13.4298 -351.299 -14.9645 -349.951 -16.2945L-348.849 -15.5784ZM-353.75 245.321L-354.852 245.934C-356.078 244.4 -357.303 242.865 -358.406 241.228L-357.181 240.614C-356.078 242.149 -354.975 243.684 -353.75 245.218V245.321ZM-356.445 -6.88176C-357.548 -5.34706 -358.528 -3.7101 -359.509 -2.07308L-360.734 -2.58465C-359.754 -4.22166 -358.773 -5.85863 -357.548 -7.39333L-356.323 -6.77947L-356.445 -6.88176ZM-360.121 235.908L-361.346 236.419C-362.204 234.782 -363.062 233.043 -363.797 231.304L-362.449 230.894C-361.714 232.634 -360.856 234.271 -359.999 235.908H-360.121ZM-362.082 2.838C-362.817 4.47502 -363.552 6.21434 -364.164 7.95367L-365.512 7.64668C-364.9 5.90735 -364.164 4.16805 -363.429 2.42873L-362.082 2.838ZM-364.532 225.779L-365.88 226.086C-366.492 224.346 -366.86 222.505 -367.228 220.663L-365.88 220.458C-365.512 222.198 -365.022 224.039 -364.532 225.779ZM-365.635 13.2739C-366.002 15.0132 -366.37 16.855 -366.615 18.5943H-367.963C-367.718 16.6503 -367.473 14.8087 -366.983 13.0693L-365.635 13.2739ZM-366.738 215.138H-368.085C-368.085 213.501 -368.33 211.66 -368.33 209.818H-366.983C-366.983 211.66 -366.983 213.501 -366.738 215.24V215.138ZM-366.983 24.0168V29.4395H-368.33V23.9145H-366.983V24.0168ZM-366.983 34.9644V40.3869H-368.33V34.9644H-366.983ZM-366.983 45.9119V51.3345H-368.33V45.9119H-366.983ZM-366.983 56.7571V62.1797H-368.33V56.7571H-366.983ZM-366.983 67.7047V73.1272H-368.33V67.7047H-366.983ZM-366.983 78.6521V84.0748H-368.33V78.6521H-366.983ZM-366.983 89.5997V95.0223H-368.33V89.5997H-366.983ZM-366.983 100.445V105.867H-368.33V100.445H-366.983ZM-366.983 111.392V116.815H-368.33V111.392H-366.983ZM-366.983 122.34V127.763H-368.33V122.34H-366.983ZM-366.983 133.287V138.71H-368.33V133.287H-366.983ZM-366.983 144.133V149.555H-368.33V144.133H-366.983ZM-366.983 155.08V160.503H-368.33V155.08H-366.983ZM-366.983 166.028V171.45H-368.33V166.028H-366.983ZM-366.983 176.975V182.398H-368.33V176.975H-366.983ZM-366.983 187.923V193.345H-368.33V187.923H-366.983ZM-366.983 198.768V204.191H-368.33V198.768H-366.983Z" fill="#FAFAFA"/>
<path d="M145.052 413.216V414.342H141.744V413.216H145.052ZM128.879 413.216V414.342H135.373V413.216H128.879ZM116.014 413.216V414.342H122.508V413.216H116.014ZM103.026 413.216V414.342H109.52V413.216H103.026ZM90.0384 413.216V414.342H96.5323V413.216H90.0384ZM77.1732 413.216V414.342H83.6671V413.216H77.1732ZM64.1855 413.216V414.342H70.6793V413.216H64.1855ZM51.1978 413.216V414.342H57.6916V413.216H51.1978ZM38.3326 413.216V414.342H44.8264V413.216H38.3326ZM25.3448 413.216V414.342H31.8387V413.216H25.3448ZM12.4796 413.216V414.342H18.9735V413.216H12.4796ZM-0.508109 413.216V414.342H5.98581V413.216H-0.508109ZM-13.4958 413.216V414.342H-7.00188V413.216H-13.4958ZM-26.361 413.216V414.342H-19.8671V413.216H-26.361ZM-39.3487 413.216V414.342H-32.8549V413.216H-39.3487ZM-52.3364 413.216V414.342H-45.8426V413.216H-52.3364ZM-65.2016 413.216V414.342H-58.7078V413.216H-65.2016ZM-78.1894 413.216V414.342H-71.6955V413.216H-78.1894ZM-91.0546 413.216V414.342H-84.5607V413.216H-91.0546ZM-104.042 413.216V414.342H-97.5484V413.216H-104.042ZM-117.03 413.216V414.342H-110.536V413.216H-117.03ZM-129.895 413.216V414.342H-123.401V413.216H-129.895ZM-142.883 413.216V414.342H-136.389V413.216H-142.883ZM-155.871 413.216V414.342H-149.377V413.216H-155.871ZM-168.736 413.216V414.342H-162.242V413.216H-168.736ZM-181.724 413.216V414.342H-175.23V413.216H-181.724ZM-194.589 413.216V414.342H-188.095V413.216H-194.589ZM-207.577 413.216V414.342H-201.083V413.216H-207.577ZM-220.564 413.216V414.342H-214.07V413.216H-220.564ZM-233.429 413.216V414.342H-226.936V413.216H-233.429ZM-240.046 413.319C-242.251 413.319 -244.457 413.728 -246.54 414.137L-246.295 415.263C-244.212 414.853 -242.129 414.649 -240.046 414.444V413.319ZM-252.788 415.672C-254.871 416.286 -256.832 417.002 -258.792 417.923L-258.18 418.946C-256.342 418.127 -254.381 417.411 -252.298 416.797L-252.788 415.672ZM-264.428 420.788C-266.266 421.811 -267.859 423.038 -269.574 424.266L-268.594 425.085C-267.001 423.857 -265.409 422.731 -263.693 421.708L-264.551 420.788H-264.428ZM-273.985 428.154C-275.333 429.586 -276.681 431.019 -277.784 432.554L-276.558 433.167C-275.456 431.633 -274.23 430.2 -272.883 428.87L-273.985 428.154ZM-280.969 437.465C-281.827 439.102 -282.685 440.841 -283.297 442.58L-281.95 442.887C-281.337 441.148 -280.602 439.511 -279.744 437.874L-280.969 437.362V437.465ZM-284.645 447.901C-285.013 449.742 -285.135 451.482 -285.258 453.323H-283.91C-283.91 451.584 -283.665 449.844 -283.297 448.003L-284.645 447.798V447.901ZM-285.258 458.746V464.168H-283.91V458.746H-285.258ZM-285.258 469.591V475.014H-283.91V469.591H-285.258ZM-285.258 480.436V485.859H-283.91V480.436H-285.258ZM-285.258 491.179V496.602H-283.91V491.179H-285.258ZM-285.258 502.024V504.173V507.447H-283.91V505.298V502.024H-285.258ZM-285.38 512.972V518.394H-284.032V512.972H-285.38ZM-285.38 523.817V529.24H-284.032V523.817H-285.38ZM-285.38 534.765V540.187H-284.032V534.765H-285.38ZM-285.38 545.61V551.032H-284.032V545.61H-285.38ZM-285.38 556.455V561.878H-284.032V556.455H-285.38ZM-285.38 567.403V572.825H-284.032V567.403H-285.38ZM-285.38 578.248V583.67H-284.032V578.248H-285.38ZM-285.38 589.195V594.618H-284.032V589.195H-285.38ZM-285.38 600.04V605.463H-284.032V600.04H-285.38ZM-285.503 610.886C-285.748 612.625 -285.993 614.467 -286.483 616.206L-285.135 616.513C-284.645 614.774 -284.278 612.932 -284.155 611.09H-285.503V610.886ZM-288.443 621.322C-289.179 622.959 -290.036 624.698 -291.016 626.233L-289.791 626.744C-288.811 625.107 -287.831 623.368 -287.096 621.731L-288.443 621.322ZM-294.325 630.837C-295.55 632.269 -296.898 633.702 -298.368 635.032L-297.388 635.85C-295.918 634.52 -294.57 633.088 -293.222 631.553L-294.325 630.837ZM-302.901 638.817C-304.494 639.943 -306.21 641.068 -308.048 641.989L-307.312 643.012C-305.474 641.989 -303.759 640.863 -302.044 639.738L-302.901 638.817ZM-313.684 644.649C-315.644 645.468 -317.605 646.081 -319.688 646.695L-319.197 647.821C-317.114 647.207 -315.031 646.491 -313.071 645.774L-313.684 644.751V644.649ZM-325.814 648.025C-327.897 648.332 -330.102 648.639 -332.185 648.742V649.867C-329.857 649.867 -327.652 649.56 -325.569 649.151L-325.814 648.025ZM-345.173 648.742V649.867H-338.679V648.742H-345.173ZM-358.283 648.742V649.867H-351.789V648.742H-358.283ZM-371.271 648.742V649.867H-364.777V648.742H-371.271ZM-384.381 648.742V649.867H-377.887V648.742H-384.381ZM-397.369 648.742V649.867H-390.875V648.742H-397.369ZM-410.357 648.742V649.867H-403.863V648.742H-410.357ZM-423.467 648.742V649.867H-416.973V648.742H-423.467ZM-436.454 648.742V649.867H-429.961V648.742H-436.454ZM-449.565 648.742V649.867H-443.071V648.742H-449.565ZM-462.552 648.742V649.867H-456.059V648.742H-462.552ZM-475.663 648.742V649.867H-469.169V648.742H-475.663ZM-488.528 648.23L-488.773 649.355C-486.567 649.662 -484.362 649.867 -482.157 649.867V648.742C-484.239 648.742 -486.445 648.537 -488.528 648.23ZM-500.78 645.161L-501.393 646.184C-499.433 646.9 -497.35 647.616 -495.144 648.128L-494.777 647.002C-496.86 646.491 -498.82 645.877 -500.78 645.161ZM-511.808 639.533L-512.665 640.454C-510.95 641.58 -509.112 642.705 -507.274 643.626L-506.539 642.603C-508.377 641.682 -510.092 640.659 -511.808 639.533ZM-520.63 631.86L-521.732 632.576C-520.385 634.008 -519.037 635.441 -517.444 636.771L-516.464 635.952C-517.934 634.622 -519.404 633.292 -520.63 631.86ZM-526.878 622.549L-528.226 622.959C-527.368 624.698 -526.388 626.335 -525.408 627.972L-524.183 627.358C-525.286 625.823 -526.143 624.186 -527.001 622.549H-526.878ZM-530.187 612.113H-531.534C-531.289 614.057 -530.799 615.899 -530.309 617.638L-528.961 617.331C-529.451 615.592 -529.942 613.853 -530.187 612.011V612.113ZM-530.554 535.992H-531.902V541.415H-530.554V535.992ZM-531.902 546.94V552.362H-530.554V546.94H-531.902ZM-531.902 557.785V563.208H-530.554V557.785H-531.902ZM-531.902 568.733V574.155H-530.554V568.733H-531.902ZM-531.902 579.578V585H-530.554V579.578H-531.902ZM-531.902 590.423V595.846H-530.554V590.423H-531.902ZM-531.902 601.37V606.793H-530.554V601.37H-531.902ZM-532.392 525.147L-533.74 525.454C-533.127 527.193 -532.76 528.933 -532.392 530.672L-531.044 530.467C-531.289 528.626 -531.779 526.784 -532.392 525.045V525.147ZM-537.661 515.018L-538.886 515.632C-537.783 517.167 -536.803 518.804 -535.945 520.441L-534.72 519.929C-535.578 518.292 -536.558 516.553 -537.783 515.018H-537.661ZM-545.87 506.424L-546.85 507.242C-545.257 508.47 -543.787 509.8 -542.439 511.233L-541.336 510.516C-542.684 509.084 -544.277 507.754 -545.87 506.424ZM-556.53 499.978L-557.142 501.001C-555.304 501.82 -553.466 502.843 -551.751 503.866L-550.893 502.945C-552.731 501.82 -554.569 500.899 -556.53 499.978ZM-568.905 496.09L-569.272 497.216C-567.189 497.625 -565.106 498.136 -563.146 498.75L-562.656 497.625C-564.739 497.011 -566.822 496.499 -569.027 496.09H-568.905ZM-579.81 495.067H-582.015V496.192H-579.81C-578.339 496.192 -576.991 496.192 -575.521 496.397V495.272C-576.869 495.272 -578.339 495.067 -579.81 495.067ZM-595.003 495.067V496.192H-588.509V495.067H-595.003ZM-608.113 495.067V496.192H-601.619V495.067H-608.113ZM-621.101 495.067V496.192H-614.607V495.067H-621.101ZM-634.211 495.067V496.192H-627.717V495.067H-634.211ZM-647.199 495.067V496.192H-640.705V495.067H-647.199ZM-660.309 495.067V496.192H-653.815V495.067H-660.309ZM-673.297 495.067V496.192H-666.803V495.067H-673.297ZM-686.407 495.067V496.192H-679.913V495.067H-686.407ZM-699.395 495.067V496.192H-692.901V495.067H-699.395ZM-712.505 495.067V496.192H-706.011V495.067H-712.505ZM-724.757 495.067H-725.493V496.192H-718.876V495.067H-724.757ZM-732.109 495.579C-734.314 495.885 -736.397 496.295 -738.603 496.806L-738.235 497.932C-736.152 497.42 -734.069 497.011 -731.986 496.806L-732.231 495.681H-732.109V495.579ZM-744.729 498.648C-746.689 499.364 -748.65 500.285 -750.61 501.206L-749.875 502.229C-748.037 501.308 -746.199 500.49 -744.239 499.773L-744.852 498.75L-744.729 498.648ZM-756.001 504.377C-757.717 505.503 -759.31 506.833 -760.78 508.163L-759.8 508.982C-758.329 507.651 -756.737 506.424 -755.144 505.298L-756.001 504.377ZM-764.946 512.46C-766.171 513.995 -767.396 515.53 -768.377 517.167L-767.151 517.678C-766.171 516.143 -765.068 514.609 -763.843 513.074L-764.946 512.358V512.46ZM-771.072 522.18C-771.807 523.919 -772.42 525.659 -772.91 527.5L-771.562 527.705C-771.072 525.966 -770.459 524.226 -769.724 522.589L-771.072 522.18ZM-773.89 532.923C-773.89 534.048 -774.013 535.174 -774.013 536.197V538.346H-772.665V536.197C-772.665 535.174 -772.665 534.048 -772.542 532.923H-773.89ZM-774.135 543.87V549.293H-772.787V543.87H-774.135ZM-774.135 554.716V560.138H-772.787V554.716H-774.135ZM-774.135 565.663V571.086H-772.787V565.663H-774.135ZM-774.135 576.508V581.931H-772.787V576.508H-774.135ZM-774.135 587.456V592.878H-772.787V587.456H-774.135ZM-774.135 598.301V603.724H-772.787V598.301H-774.135ZM-774.135 609.249V614.671H-772.787V609.249H-774.135ZM-774.135 620.094V625.516H-772.787V620.094H-774.135ZM-774.135 631.041V636.464H-772.787V631.041H-774.135ZM-774.135 641.887V647.309H-772.787V641.887H-774.135ZM-774.135 652.732V658.154H-772.787V652.732H-774.135ZM-774.625 663.577C-774.993 665.316 -775.36 667.056 -775.973 668.795L-774.625 669.102C-774.013 667.363 -773.523 665.521 -773.278 663.679L-774.625 663.475V663.577ZM-778.179 673.808C-779.036 675.445 -780.016 677.082 -781.119 678.617L-779.894 679.231C-778.791 677.696 -777.811 675.957 -776.831 674.32L-778.056 673.808H-778.179ZM-784.672 683.119C-786.02 684.551 -787.368 685.881 -788.961 687.109L-787.981 687.928C-786.388 686.597 -784.917 685.267 -783.57 683.835L-784.672 683.119ZM-793.862 690.588C-795.577 691.713 -797.415 692.634 -799.253 693.555L-798.518 694.578C-796.68 693.657 -794.72 692.634 -793.004 691.508L-793.862 690.588ZM-804.889 695.908C-806.85 696.624 -808.933 697.136 -811.015 697.647L-810.648 698.773C-808.565 698.261 -806.482 697.647 -804.399 696.931L-804.889 695.806V695.908ZM-817.264 698.773C-819.347 698.977 -821.553 699.182 -823.636 699.182V700.307C-821.43 700.307 -819.225 700.308 -817.019 699.898L-817.264 698.773ZM-836.746 699.182V700.307H-830.252V699.182H-836.746ZM-849.856 699.182V700.307H-843.362V699.182H-849.856ZM-862.844 699.182V700.307H-856.35V699.182H-862.844ZM-875.832 699.182V700.307H-869.338V699.182H-875.832ZM-888.942 699.182V700.307H-882.448V699.182H-888.942ZM-901.93 699.182V700.307H-895.436V699.182H-901.93ZM-915.04 699.182V700.307H-908.546V699.182H-915.04ZM-928.027 699.182V700.307H-921.534V699.182H-928.027ZM-941.138 699.182V700.307H-934.644V699.182H-941.138ZM-954.125 699.182V700.307H-947.632V699.182H-954.125ZM-967.236 699.182V700.307H-960.742V699.182H-967.236ZM-979.978 698.159L-980.223 699.284C-978.14 699.694 -975.935 700.001 -973.73 700.103V698.977C-975.69 698.773 -977.895 698.568 -979.978 698.159ZM-992.108 694.578L-992.721 695.601C-990.761 696.42 -988.678 697.136 -986.717 697.852L-986.227 696.726C-988.188 696.113 -990.271 695.396 -992.108 694.578ZM-1002.65 688.439L-1003.63 689.36C-1002.03 690.588 -1000.2 691.713 -998.48 692.736L-997.745 691.815C-999.46 690.792 -1001.18 689.667 -1002.77 688.439H-1002.65ZM-1010.98 680.356L-1012.2 680.97C-1010.98 682.505 -1009.63 683.937 -1008.16 685.37L-1007.06 684.654C-1008.4 683.323 -1009.75 681.891 -1010.98 680.356ZM-1016.61 670.739L-1017.96 671.148C-1017.23 672.887 -1016.37 674.627 -1015.39 676.264L-1014.16 675.752C-1015.14 674.115 -1015.88 672.478 -1016.61 670.841V670.739ZM-1019.19 660.201H-1020.53C-1020.41 662.145 -1020.04 663.986 -1019.68 665.726L-1018.33 665.521C-1018.7 663.782 -1019.06 661.94 -1019.19 660.201ZM-1020.66 594.925V600.347H-1019.31V594.925H-1020.66ZM-1020.66 605.872V611.295H-1019.31V605.872H-1020.66ZM-1020.66 616.717V622.14H-1019.31V616.717H-1020.66ZM-1020.66 627.665V633.088H-1019.31V627.665H-1020.66ZM-1020.66 638.51V643.933H-1019.31V638.51H-1020.66ZM-1020.66 649.355V654.778H-1019.31V649.355H-1020.66ZM-1020.66 586.637V589.4H-1019.31V586.637H-1020.66Z" fill="#FAFAFA"/>
<path d="M249.934 455.574C249.934 453.835 248.219 452.403 246.136 452.403H235.109C233.026 452.403 231.31 453.835 231.31 455.574V464.782C231.31 466.522 233.026 467.954 235.109 467.954H246.136C248.219 467.954 249.934 466.522 249.934 464.782V455.574Z" fill="#FAFAFA"/>
<path d="M112.338 152.522H119.689C121.037 152.522 122.263 153.443 122.263 154.671V160.809C122.263 161.935 121.16 162.958 119.689 162.958H112.338C110.99 162.958 109.765 162.037 109.765 160.809V154.671C109.765 153.545 110.868 152.522 112.338 152.522Z" fill="#FAFAFA"/>
<path d="M102.046 -9.64478C103.393 -9.64478 104.619 -8.72398 104.619 -7.49622V-1.35742C104.619 -0.231977 103.516 0.79113 102.046 0.79113H94.694C93.3462 0.79113 92.1208 -0.129664 92.1208 -1.35742V-7.49622C92.1208 -8.62167 93.2237 -9.64478 94.694 -9.64478H102.046Z" fill="#FAFAFA"/>
</g>
<g opacity="0.2">
<path d="M441.663 169.735H447.054C448.28 169.735 449.26 170.553 449.26 171.576V176.078C449.26 177.101 448.28 177.92 447.054 177.92H441.663C440.438 177.92 439.458 177.101 439.458 176.078V171.576C439.458 170.553 440.438 169.735 441.663 169.735Z" fill="#FAFAFA"/>
<g opacity="0.7">
<path d="M419.854 171.679C419.854 170.655 420.834 169.837 422.059 169.837H427.45C428.676 169.837 429.656 170.655 429.656 171.679V176.18C429.656 177.203 428.676 178.022 427.45 178.022H422.059C420.834 178.022 419.854 177.203 419.854 176.18V171.679Z" fill="#FAFAFA"/>
</g>
<g opacity="0.5">
<path d="M402.455 169.735H407.846C409.071 169.735 410.052 170.553 410.052 171.576V176.078C410.052 177.101 409.071 177.92 407.846 177.92H402.455C401.23 177.92 400.25 177.101 400.25 176.078V171.576C400.25 170.553 401.23 169.735 402.455 169.735Z" fill="#FAFAFA"/>
</g>
<g opacity="0.4">
<path d="M382.728 169.735H388.12C389.345 169.735 390.325 170.553 390.325 171.576V176.078C390.325 177.101 389.345 177.92 388.12 177.92H382.728C381.503 177.92 380.523 177.101 380.523 176.078V171.576C380.523 170.553 381.503 169.735 382.728 169.735Z" fill="#FAFAFA"/>
</g>
<g opacity="0.2">
<path d="M360.919 171.679C360.919 170.656 361.899 169.837 363.124 169.837H368.515C369.741 169.837 370.721 170.656 370.721 171.679V176.181C370.721 177.204 369.741 178.022 368.515 178.022H363.124C361.899 178.022 360.919 177.204 360.919 176.181V171.679Z" fill="#FAFAFA"/>
</g>
<path d="M464.944 552.898H470.335C471.56 552.898 472.54 553.716 472.54 554.74V559.241C472.54 560.264 471.56 561.083 470.335 561.083H464.944C463.718 561.083 462.738 560.264 462.738 559.241V554.74C462.738 553.716 463.718 552.898 464.944 552.898Z" fill="#FAFAFA"/>
<g opacity="0.7">
<path d="M464.944 536.528H470.335C471.56 536.528 472.54 537.346 472.54 538.369V542.871C472.54 543.894 471.56 544.713 470.335 544.713H464.944C463.718 544.713 462.738 543.894 462.738 542.871V538.369C462.738 537.346 463.718 536.528 464.944 536.528Z" fill="#FAFAFA"/>
</g>
<g opacity="0.5">
<path d="M464.944 520.158H470.335C471.56 520.158 472.54 520.976 472.54 521.999V526.501C472.54 527.524 471.56 528.343 470.335 528.343H464.944C463.718 528.343 462.738 527.524 462.738 526.501V521.999C462.738 520.976 463.718 520.158 464.944 520.158Z" fill="#FAFAFA"/>
</g>
<g opacity="0.4">
<path d="M464.944 503.788H470.335C471.56 503.788 472.54 504.606 472.54 505.629V510.131C472.54 511.154 471.56 511.973 470.335 511.973H464.944C463.718 511.973 462.738 511.154 462.738 510.131V505.629C462.738 504.606 463.718 503.788 464.944 503.788Z" fill="#FAFAFA"/>
</g>
<g opacity="0.2">
<path d="M464.944 487.315H470.335C471.56 487.315 472.54 488.133 472.54 489.156V493.658C472.54 494.681 471.56 495.5 470.335 495.5H464.944C463.718 495.5 462.738 494.681 462.738 493.658V489.156C462.738 488.133 463.718 487.315 464.944 487.315Z" fill="#FAFAFA"/>
</g>
<path d="M657.431 426.029H677.525L668.213 433.805H674.462L686.837 423.472L674.462 413.138H668.213L677.525 420.914H657.431V426.029Z" fill="#FAFAFA"/>
<path d="M568.6 119.703H588.694L579.505 127.377H585.631L598.006 117.146L585.631 106.812H579.505L588.694 114.486H568.6V119.703Z" fill="#FAFAFA"/>
<path d="M114.397 323.512V306.732L105.208 314.406V309.29L117.583 298.957L129.958 309.29V314.406L120.646 306.732V323.512H114.397Z" fill="#FAFAFA"/>
<path d="M231.9 614.388V631.27L222.588 623.494V628.712L234.963 639.046L247.338 628.712V623.494L238.026 631.27V614.388H231.9Z" fill="#FAFAFA"/>
<path d="M-574.81 202.066H-218.75C-191.794 202.066 -169.74 220.38 -169.74 242.991V364.13C-169.74 387.355 -147.195 406.181 -119.382 406.181H64.0393C90.9949 406.181 113.05 424.495 113.05 447.106V568.245C113.05 590.754 91.1175 609.17 64.0393 609.17H-20.626V610.296H64.0393C91.8526 610.296 114.397 591.47 114.397 568.245V447.106C114.397 423.881 91.8526 405.055 64.0393 405.055H-119.504C-146.46 405.055 -168.514 386.741 -168.514 364.13V242.991C-168.514 219.766 -191.059 200.94 -218.873 200.94H-574.81V202.066Z" fill="#FAFAFA"/>
<path d="M-165.819 -451.409V-255.275C-165.819 -232.05 -143.151 -213.224 -115.461 -213.224H29.6097C56.5654 -213.224 78.62 -194.91 78.62 -172.299V-51.1596C78.62 -28.6507 56.6879 -10.2343 29.6097 -10.2343H-55.0556C-82.8689 -10.2343 -105.414 8.59132 -105.414 31.8164V152.955C-105.414 176.181 -82.8689 195.006 -55.0556 195.006H127.63C154.586 195.006 176.641 213.32 176.641 235.931V660.736H177.988V235.931C177.988 212.706 155.444 193.881 127.63 193.881H-55.1781C-82.1337 193.881 -104.188 175.567 -104.188 152.955V31.8164C-104.188 9.30752 -82.2562 -9.10887 -55.1781 -9.10887H29.4872C57.3005 -9.10887 79.8453 -27.9345 79.8453 -51.1596V-172.299C79.8453 -195.524 57.3005 -214.349 29.4872 -214.349H-115.583C-142.539 -214.349 -164.593 -232.663 -164.593 -255.275V-451.409C-164.593 -473.918 -142.661 -492.335 -115.583 -492.335H-30.918V-493.46H-115.583C-143.397 -493.46 -165.941 -474.634 -165.941 -451.409H-165.819Z" fill="#FAFAFA"/>
<path d="M290.589 275.629V377.84V428.178C290.589 450.687 268.657 469.104 241.579 469.104H-139.476V470.229H241.579C269.392 470.229 291.937 451.403 291.937 428.178V396.666V275.527C291.937 253.018 313.869 234.602 340.947 234.602H486.018C512.973 234.602 535.028 252.916 535.028 275.527V346.225C535.028 369.451 557.573 388.276 585.386 388.276H767.337V387.151H585.386C558.43 387.151 536.376 368.837 536.376 346.225V275.527C536.376 252.302 513.831 233.476 486.018 233.476H340.947C313.134 233.476 290.589 252.302 290.589 275.527V275.629Z" fill="#FAFAFA"/>
<path d="M281.645 86.0427H642.851V84.508H281.645C254.812 84.508 232.88 66.2964 232.88 43.7874V-186.315H231.042V43.7874C231.042 67.1149 253.709 86.0427 281.645 86.0427Z" fill="#FAFAFA"/>
<path d="M9.39268 132.697V253.836C9.39268 277.062 -13.1521 295.887 -40.9654 295.887H-186.036C-213.849 295.887 -236.394 277.062 -236.394 253.836V132.697C-236.394 109.472 -213.849 90.6467 -186.036 90.6467H-40.9654C-13.1521 90.6467 9.39268 109.472 9.39268 132.697ZM-235.046 253.836C-235.046 276.345 -213.114 294.762 -186.036 294.762H-40.9654C-14.0098 294.762 8.04485 276.448 8.04485 253.836V132.697C8.04485 110.189 -13.8872 91.7721 -40.9654 91.7721H-186.036C-212.991 91.7721 -235.046 110.086 -235.046 132.697V253.836Z" fill="#FAFAFA"/>
<path d="M625.942 -119.71V1.42947C625.942 24.6546 603.397 43.4802 575.584 43.4802H430.514C402.7 43.4802 380.156 24.6546 380.156 1.42947V-119.71C380.156 -142.935 402.7 -161.76 430.514 -161.76H575.584C603.397 -161.76 625.942 -142.935 625.942 -119.71ZM381.503 1.32718C381.503 23.8361 403.435 42.2525 430.514 42.2525H575.584C602.54 42.2525 624.594 23.9384 624.594 1.32718V-119.812C624.594 -142.321 602.662 -160.737 575.584 -160.737H430.514C403.558 -160.737 381.503 -142.423 381.503 -119.812V1.32718Z" fill="#FAFAFA"/>
<path d="M675.81 346.635C677.158 346.635 678.383 345.714 678.383 344.486V338.347C678.383 337.222 677.28 336.198 675.81 336.198H668.459C667.111 336.198 665.885 337.119 665.885 338.347V344.486C665.885 345.611 666.988 346.635 668.459 346.635H675.81Z" fill="#FAFAFA"/>
<path d="M515.424 626.768C516.771 626.768 517.997 625.847 517.997 624.619V618.48C517.997 617.355 516.894 616.332 515.424 616.332H508.072C506.724 616.332 505.499 617.253 505.499 618.48V624.619C505.499 625.745 506.602 626.768 508.072 626.768H515.424Z" fill="#FAFAFA"/>
<path d="M331.268 143.031C332.616 143.031 333.841 142.11 333.841 140.882V134.743C333.841 133.618 332.738 132.594 331.268 132.594H323.916C322.569 132.594 321.343 133.515 321.343 134.743V140.882C321.343 142.007 322.446 143.031 323.916 143.031H331.268Z" fill="#FAFAFA"/>
<path d="M79.9678 -35.9143V-30.4917H78.62V-35.9143H79.9678ZM79.9678 -24.9668V-19.5441H78.62V-24.9668H79.9678ZM79.9678 -14.1216V-8.69895H78.62V-14.1216H79.9678ZM79.9678 -3.17401V2.24852H78.62V-3.17401H79.9678ZM79.9678 7.77347V13.1961H78.62V7.77347H79.9678ZM79.9678 18.6187V24.0413H78.62V18.6187H79.9678ZM79.9678 29.5663V34.9888H78.62V29.5663H79.9678ZM79.9678 40.4114V45.8341H78.62V40.4114H79.9678ZM79.9678 51.3589V56.7816H78.62V51.3589H79.9678ZM79.9678 62.3065V67.729H78.62V62.3065H79.9678ZM79.9678 73.1517V78.5743H78.62V73.1517H79.9678ZM79.9678 84.0992V89.5218H78.62V84.0992H79.9678ZM79.9678 94.9445V100.367H78.62V94.9445H79.9678ZM79.9678 105.892V111.315H78.62V105.892H79.9678ZM79.9678 116.839V122.262H78.62V116.839H79.9678ZM79.9678 127.685V133.107H78.62V127.685H79.9678ZM79.9678 138.632V144.055H78.62V138.632H79.9678ZM79.9678 149.477V154.9H78.62V149.477H79.9678ZM79.9678 160.425V165.848H78.62V160.425H79.9678ZM79.9678 171.27V176.693H78.62V171.27H79.9678ZM79.9678 182.218V187.64H78.62V182.218H79.9678ZM79.9678 193.165V198.588H78.62V193.165H79.9678ZM79.9678 204.01V209.433H78.62V204.01H79.9678ZM79.9678 214.958V220.381H78.62V214.958H79.9678ZM79.9678 225.803V231.226H78.62V225.803H79.9678ZM79.9678 236.751V242.173H78.62V236.751H79.9678ZM79.9678 247.698C79.9678 249.54 79.7227 251.381 79.6002 253.121H78.2525C78.4975 251.177 78.62 249.438 78.62 247.596H79.9678V247.698ZM79.8453 -41.3369H78.4974C78.4974 -43.0762 78.2524 -44.9178 78.0074 -46.6572H79.3551C79.6002 -45.0201 79.7227 -43.1786 79.8453 -41.3369ZM78.7425 258.646C78.3749 260.487 78.0074 262.227 77.6398 264.068L76.292 263.864C76.7821 262.124 77.1497 260.283 77.3948 258.543L78.7425 258.748V258.646ZM78.3749 -52.2844L77.0272 -52.0798C76.6596 -53.8191 76.292 -55.6607 75.8019 -57.4001L77.1497 -57.707C77.6398 -55.9677 78.1299 -54.126 78.3749 -52.2844ZM76.0469 269.286C75.4343 271.026 74.8217 272.765 74.209 274.504L72.8613 274.095C73.5964 272.356 74.2091 270.616 74.6992 268.877L76.0469 269.184V269.286ZM75.4343 -62.925L74.0865 -62.618C73.4739 -64.3573 72.8613 -66.0967 72.1262 -67.7337L73.4739 -68.143C74.2091 -66.4036 74.8217 -64.6643 75.4343 -62.925ZM71.8811 279.722C71.0234 281.359 70.1657 283.099 69.308 284.736L68.0828 284.224C68.9404 282.587 69.7982 280.95 70.6558 279.211L72.0036 279.62L71.8811 279.722ZM71.0234 -73.2586L69.6757 -72.8493C68.818 -74.4864 67.9603 -76.1234 66.9801 -77.7604L68.2053 -78.272C69.1855 -76.635 70.0432 -74.9979 70.9009 -73.2586H71.0234ZM66.3674 289.647C65.3872 291.284 64.2845 292.818 63.0592 294.353L61.834 293.739C62.9367 292.204 64.0394 290.67 65.0196 289.033L66.2449 289.544H66.3674V289.647ZM65.2647 -83.1831L64.0394 -82.5691C62.9367 -84.1038 61.834 -85.7408 60.7312 -87.1732L61.9565 -87.7872C63.1817 -86.2525 64.2845 -84.6154 65.3873 -83.0807L65.2647 -83.1831ZM59.506 298.957C58.2807 300.492 56.933 301.924 55.5852 303.357L54.4824 302.64C55.8302 301.208 57.0555 299.776 58.2807 298.241L59.3835 298.855H59.506V298.957ZM58.1582 -92.3913L57.0555 -91.675C55.8302 -93.1074 54.4825 -94.5399 53.1347 -95.9722L54.2374 -96.6884C55.5852 -95.256 56.9329 -93.8236 58.2807 -92.2889L58.1582 -92.3913ZM51.4193 307.654C49.949 308.984 48.4787 310.416 47.0084 311.644L46.0281 310.826C47.4984 309.495 48.9688 308.165 50.4391 306.835L51.5418 307.654H51.4193ZM49.949 -100.883L48.9688 -100.065C47.4985 -101.395 46.0282 -102.725 44.4353 -103.953L45.4155 -104.771C47.0083 -103.543 48.4787 -102.213 49.949 -100.781V-100.883ZM42.2299 315.43C40.637 316.657 38.9217 317.885 37.2064 319.011L36.3487 318.09C38.064 316.964 39.6569 315.737 41.2497 314.509L42.2299 315.327V315.43ZM40.5145 -108.557L39.5343 -107.636C37.9415 -108.864 36.2261 -109.989 34.5108 -111.115L35.3685 -112.035C37.0838 -110.91 38.7992 -109.784 40.392 -108.557H40.5145ZM32.0603 322.387C30.3449 323.41 28.507 324.535 26.6691 325.456L25.934 324.433C27.7719 323.512 29.6097 322.387 31.3251 321.364L32.1828 322.285H32.0603V322.387ZM30.2224 -115.309L29.3647 -114.389C27.6493 -115.412 25.8114 -116.435 23.9735 -117.356L24.7087 -118.379C26.5466 -117.458 28.3845 -116.435 30.2224 -115.412V-115.309ZM21.0329 328.321C19.0725 329.242 17.2346 330.06 15.2742 330.879L14.6616 329.856C16.622 329.037 18.5824 328.219 20.4203 327.298L21.1554 328.321H21.0329ZM18.95 -121.039L18.3374 -120.016C16.4995 -120.834 14.5391 -121.653 12.5786 -122.471L13.1913 -123.494C15.1517 -122.778 17.1121 -121.857 19.0725 -121.039H18.95ZM9.14794 333.13C7.18753 333.846 5.1046 334.46 3.02166 335.074L2.53153 333.948C4.61446 333.334 6.5749 332.721 8.53532 332.004L9.02545 333.13H9.14794ZM7.18756 -125.643L6.69743 -124.518C4.73702 -125.234 2.65408 -125.848 0.571147 -126.359L1.06128 -127.485C3.14422 -126.871 5.22715 -126.257 7.18756 -125.643ZM-3.22712 336.813C-5.31006 337.325 -7.51553 337.836 -9.59847 338.245L-9.96603 337.12C-7.88309 336.711 -5.80019 336.301 -3.71725 335.79L-3.34969 336.915H-3.22712V336.813ZM-5.31007 -129.122L-5.67763 -127.996C-7.76057 -128.508 -9.84355 -128.917 -11.9265 -129.224L-11.6814 -130.349C-9.59848 -129.94 -7.39301 -129.531 -5.31007 -129.122ZM-15.9698 339.269C-18.1753 339.576 -20.2582 339.883 -22.4637 339.985V338.859C-20.5033 338.655 -18.2978 338.45 -16.2149 338.143L-15.9698 339.269ZM-18.1753 -131.373L-18.4203 -130.247C-20.5033 -130.554 -22.7087 -130.759 -24.9142 -130.861V-131.986C-22.5862 -131.782 -20.3808 -131.577 -18.2978 -131.373H-18.1753ZM-29.0801 340.496C-31.2855 340.496 -33.491 340.701 -35.6964 340.701H-35.9415V339.576H-35.6964C-33.491 339.576 -31.408 339.576 -29.2026 339.576V340.701H-29.0801V340.496ZM-31.2855 -132.396V-131.27H-37.9019V-132.396H-31.2855ZM-42.4353 339.473V340.599H-48.9293V339.473H-42.4353ZM-44.2732 -132.498V-131.373H-50.7671V-132.498H-44.2732ZM-55.4231 339.473V340.599H-61.9169V339.473H-55.4231ZM-57.3835 -132.498V-131.373H-63.8773V-132.498H-57.3835ZM-68.5334 339.473V340.599H-75.0272V339.473H-68.5334ZM-70.4937 -132.498V-131.373H-76.9876V-132.498H-70.4937ZM-81.5211 339.473V340.599H-88.0149V339.473H-81.5211ZM-83.4814 -132.498V-131.373H-89.9754V-132.498H-83.4814ZM-94.6313 339.473V340.599H-101.125V339.473H-94.6313ZM-96.5917 -132.498V-131.373H-103.086V-132.498H-96.5917ZM-107.742 339.473V340.599H-114.235V339.473H-107.742ZM-109.579 -132.498V-131.373H-116.073V-132.498H-109.579ZM-120.729 339.473V340.599H-127.223V339.473H-120.729ZM-122.69 -132.498V-131.373H-129.184V-132.498H-122.69ZM-133.84 339.473V340.599H-140.333V339.473H-133.84ZM-135.8 -132.498V-131.373H-142.294V-132.498H-135.8ZM-146.827 339.473V340.599H-153.321V339.473H-146.827ZM-148.788 -132.498V-131.373H-155.282V-132.498H-148.788ZM-159.937 339.473V340.599H-166.431V339.473H-159.937ZM-161.898 -132.498V-131.373H-168.392V-132.498H-161.898ZM-173.048 339.473V340.599H-179.542V339.473H-173.048ZM-174.886 -132.498V-131.373H-181.379V-132.498H-174.886ZM-186.035 339.473V340.599H-192.529V339.473H-186.035ZM-187.996 -132.498V-131.373H-194.49V-132.498H-187.996ZM-199.146 339.473V340.599H-205.64V339.473H-199.146ZM-201.106 -132.498V-131.373H-207.6V-132.498H-201.106ZM-212.133 339.473V340.599H-218.627V339.473H-212.133ZM-214.094 -132.498V-131.373H-220.588V-132.498H-214.094ZM-225.244 339.473V340.599H-231.738V339.473H-225.244ZM-227.204 -132.498V-131.373H-233.698V-132.498H-227.204ZM-238.231 339.473V340.599H-244.725V339.473H-238.231ZM-240.192 -132.498V-131.373H-246.686V-132.498H-240.192ZM-251.342 339.473V340.599H-257.835V339.473H-251.342ZM-253.302 -132.498V-131.373H-259.796V-132.498H-253.302ZM-264.452 339.473V340.599H-270.946V339.473H-264.452ZM-266.29 -132.498V-131.373H-272.784V-132.498H-266.29ZM-277.44 339.473V340.599H-283.933V339.473H-277.44ZM-279.4 -132.498V-131.373H-285.894V-132.498H-279.4ZM-290.55 339.473V340.599H-297.044V339.473H-290.55ZM-292.51 -132.498V-131.373H-299.004V-132.498H-292.51ZM-303.538 339.473V340.599H-310.031V339.473H-303.538ZM-305.498 -132.498V-131.373H-311.992V-132.498H-305.498ZM-316.648 339.473V340.599H-323.142V339.473H-316.648ZM-318.608 -132.498V-131.373H-325.102V-132.498H-318.608ZM-329.758 339.473V340.599H-336.252V339.473H-329.758ZM-331.596 -132.498V-131.373H-338.09V-132.498H-331.596ZM-342.746 339.473V340.599H-349.24V339.473H-342.746ZM-344.706 -132.498V-131.373H-351.2V-132.498H-344.706ZM-355.856 339.473V340.599H-362.35V339.473H-355.856ZM-357.816 -132.498V-131.373H-364.31V-132.498H-357.816ZM-368.844 339.473V340.599H-375.46V339.473H-368.844ZM-370.804 -132.498V-131.373H-370.927C-373.01 -131.373 -375.215 -131.373 -377.298 -131.373V-132.498C-375.215 -132.498 -373.132 -132.498 -370.927 -132.498H-370.804ZM-381.831 339.064V340.189C-384.159 339.985 -386.365 339.78 -388.448 339.473L-388.203 338.348C-386.12 338.655 -383.914 338.859 -381.709 338.962H-381.831V339.064ZM-383.792 -130.759C-385.875 -130.554 -388.08 -130.349 -390.163 -130.043L-390.408 -131.168C-388.203 -131.475 -386.12 -131.68 -383.914 -131.884V-130.759H-383.792ZM-394.697 337.427L-394.942 338.552C-397.025 338.143 -399.23 337.734 -401.313 337.222L-400.945 336.097C-398.863 336.608 -396.78 337.018 -394.697 337.325V337.427ZM-396.535 -128.917C-398.617 -128.508 -400.7 -128.099 -402.783 -127.587L-403.151 -128.712C-401.068 -129.224 -398.985 -129.633 -396.78 -130.043L-396.412 -128.917H-396.535ZM-407.194 334.562L-407.684 335.688C-409.767 335.074 -411.85 334.46 -413.811 333.846L-413.321 332.72C-411.36 333.437 -409.277 334.051 -407.194 334.562ZM-409.032 -125.848C-411.115 -125.234 -413.076 -124.62 -415.036 -123.904L-415.526 -125.029C-413.566 -125.745 -411.483 -126.359 -409.4 -126.973L-408.91 -125.848H-409.032ZM-419.202 330.572L-419.814 331.595C-421.775 330.777 -423.735 329.958 -425.696 329.14L-425.083 328.116C-423.245 328.935 -421.285 329.753 -419.324 330.572H-419.202ZM-421.04 -121.653C-423 -120.834 -424.96 -120.016 -426.798 -119.095L-427.534 -120.118C-425.573 -121.039 -423.613 -121.857 -421.652 -122.676L-421.04 -121.653ZM-430.597 325.456L-431.332 326.479C-433.17 325.559 -435.008 324.535 -436.845 323.512L-435.988 322.592C-434.272 323.615 -432.435 324.638 -430.597 325.559V325.456ZM-432.312 -116.435C-434.15 -115.514 -435.988 -114.491 -437.703 -113.365L-438.561 -114.286C-436.845 -115.309 -435.008 -116.435 -433.17 -117.356L-432.435 -116.333H-432.312V-116.435ZM-441.256 319.215L-442.114 320.136C-443.829 319.011 -445.545 317.885 -447.138 316.657L-446.157 315.737C-444.565 316.964 -442.849 318.09 -441.134 319.215H-441.256ZM-442.849 -110.091C-444.565 -108.966 -446.157 -107.738 -447.75 -106.613L-448.73 -107.431C-447.138 -108.659 -445.422 -109.887 -443.707 -111.012L-442.849 -110.091ZM-451.058 312.156L-452.039 312.974C-453.631 311.746 -455.102 310.416 -456.572 308.984L-455.592 308.165C-454.122 309.495 -452.651 310.825 -451.058 312.053V312.156ZM-452.406 -102.725C-453.877 -101.395 -455.347 -100.065 -456.817 -98.7347L-457.92 -99.5532C-456.45 -100.883 -454.979 -102.316 -453.509 -103.543L-452.529 -102.725H-452.406ZM-459.758 304.073L-460.861 304.789C-462.208 303.357 -463.556 301.924 -464.904 300.39L-463.801 299.673C-462.576 301.106 -461.228 302.538 -459.88 303.97L-459.758 304.073ZM-460.983 -94.6421C-462.331 -93.2097 -463.556 -91.7773 -464.781 -90.2426L-465.884 -90.9589C-464.659 -92.4936 -463.311 -93.9259 -461.963 -95.3583L-460.861 -94.6421H-460.983ZM-467.354 295.274L-468.58 295.888C-469.805 294.353 -470.908 292.818 -472.01 291.181L-470.785 290.567C-469.682 292.102 -468.58 293.739 -467.477 295.274H-467.354ZM-468.335 -85.7409C-469.437 -84.2062 -470.54 -82.6714 -471.52 -81.0344L-472.745 -81.546C-471.765 -83.183 -470.663 -84.7178 -469.437 -86.2525L-468.212 -85.6385H-468.335V-85.7409ZM-473.726 285.861L-474.951 286.373C-475.931 284.736 -476.789 283.099 -477.647 281.359L-476.299 280.95C-475.441 282.587 -474.583 284.224 -473.603 285.861H-473.726ZM-474.583 -76.2257C-475.441 -74.5887 -476.299 -72.9517 -477.156 -71.2124L-478.504 -71.6216C-477.647 -73.361 -476.789 -74.998 -475.931 -76.635L-474.706 -76.1234H-474.583V-76.2257ZM-478.749 275.834L-480.097 276.244C-480.832 274.504 -481.445 272.765 -482.057 271.026L-480.71 270.719C-480.097 272.458 -479.484 274.197 -478.749 275.834ZM-479.362 -66.0967C-480.097 -64.3574 -480.71 -62.6181 -481.2 -60.8787L-482.548 -61.1857C-481.935 -62.9251 -481.322 -64.6644 -480.587 -66.4037L-479.239 -65.9944H-479.362V-66.0967ZM-482.303 265.398L-483.65 265.705C-484.14 263.966 -484.508 262.124 -484.876 260.283L-483.528 260.078C-483.16 261.817 -482.793 263.659 -482.303 265.398ZM-482.67 -55.6608C-483.16 -53.9215 -483.528 -52.0797 -483.773 -50.3404L-485.121 -50.5451C-484.753 -52.3868 -484.385 -54.126 -483.895 -55.9676L-482.548 -55.7631H-482.67V-55.6608ZM-484.508 254.758H-485.856C-486.101 253.121 -486.223 251.279 -486.346 249.438H-484.998C-484.998 251.177 -484.753 253.018 -484.508 254.758ZM-484.63 -45.0202C-484.876 -43.2808 -484.998 -41.4392 -484.998 -39.5975H-486.346C-486.346 -41.4392 -486.101 -43.2808 -485.856 -45.1225H-484.508H-484.63V-45.0202ZM-485.121 -34.175V-28.7523H-486.468V-34.175H-485.121ZM-485.121 -23.2274V-17.8049H-486.468V-23.2274H-485.121ZM-485.121 -12.3822V-6.95967H-486.468V-12.3822H-485.121ZM-485.121 -1.43473V3.98793H-486.468V-1.43473H-485.121ZM-485.121 9.51287V14.9354H-486.468V9.51287H-485.121ZM-485.121 20.3581V25.7806H-486.468V20.3581H-485.121ZM-485.121 31.3055V36.7282H-486.468V31.3055H-485.121ZM-485.121 42.1507V47.5734H-486.468V42.1507H-485.121ZM-485.121 53.0983V58.5208H-486.468V53.0983H-485.121ZM-485.121 64.0458V69.4684H-486.468V64.0458H-485.121ZM-485.121 74.891V80.3136H-486.468V74.891H-485.121ZM-485.121 85.8386V91.2611H-486.468V85.8386H-485.121ZM-485.121 96.6838V102.106H-486.468V96.6838H-485.121ZM-485.121 107.631V113.054H-486.468V107.631H-485.121ZM-485.121 118.477V123.899H-486.468V118.477H-485.121ZM-485.121 129.424V134.847H-486.468V129.424H-485.121ZM-485.121 140.371V145.794H-486.468V140.371H-485.121ZM-485.121 151.217V156.639H-486.468V151.217H-485.121ZM-485.121 162.164V167.587H-486.468V162.164H-485.121ZM-485.121 173.009V178.432H-486.468V173.009H-485.121ZM-485.121 183.957V189.38H-486.468V183.957H-485.121ZM-485.121 194.905V200.327H-486.468V194.905H-485.121ZM-485.121 205.75V211.172H-486.468V205.75H-485.121ZM-485.121 216.697V222.12H-486.468V216.697H-485.121ZM-485.121 227.542V232.965H-486.468V227.542H-485.121ZM-485.121 238.49V243.913H-486.468V238.49H-485.121Z" fill="#FAFAFA"/>
<path d="M532.577 -47.271H531.23C531.23 -49.0103 531.23 -50.852 530.985 -52.5913H532.332C532.332 -50.852 532.577 -49.0103 532.577 -47.271ZM532.577 -41.7462V-36.3235H531.23V-41.7462H532.577ZM532.577 -30.7986V-25.376H531.23V-30.7986H532.577ZM532.577 -19.8511V-14.4284H531.23V-19.8511H532.577ZM532.577 -8.90349V-3.48096H531.23V-8.90349H532.577ZM532.577 1.9417V7.36423H531.23V1.9417H532.577ZM532.577 12.8892V18.3118H531.23V12.8892H532.577ZM532.577 23.8368V29.2593H531.23V23.8368H532.577ZM532.577 34.7842V40.2069H531.23V34.7842H532.577ZM532.577 45.6294V51.0521H531.23V45.6294H532.577ZM532.577 56.577V61.9996H531.23V56.577H532.577ZM532.577 67.5245V72.9472H531.23V67.5245H532.577ZM532.577 78.472V83.8946H531.23V78.472H532.577ZM532.577 89.3173V94.7398H531.23V89.3173H532.577ZM532.577 100.265V105.687H531.23V100.265H532.577ZM532.577 111.212V116.635H531.23V111.212H532.577ZM532.577 122.16V127.582H531.23V122.16H532.577ZM532.577 133.107V138.632H531.23V133.107H532.577ZM532.087 144.055C531.842 145.897 531.597 147.738 531.107 149.477L529.759 149.273C530.127 147.534 530.494 145.692 530.739 143.952H532.087V144.055ZM531.475 -58.1163L530.127 -57.9116C529.759 -59.6509 529.269 -61.4926 528.779 -63.232L530.127 -63.5388C530.739 -61.7995 531.107 -59.9579 531.475 -58.1163ZM529.637 154.798C529.024 156.537 528.289 158.276 527.554 160.016L526.206 159.606C526.941 157.969 527.676 156.23 528.289 154.491L529.637 154.798ZM528.044 -68.7568L526.696 -68.3476C525.961 -70.0869 525.103 -71.7239 524.246 -73.3609L525.471 -73.8724C526.329 -72.2354 527.186 -70.4961 527.921 -68.7568H528.044ZM524.981 165.131C524.001 166.768 523.02 168.405 521.918 169.94L520.692 169.326C521.795 167.792 522.775 166.155 523.756 164.518L524.981 165.029V165.131ZM522.53 -78.7835L521.305 -78.1697C520.202 -79.7044 519.1 -81.2391 517.874 -82.7738L518.977 -83.3876C520.202 -81.8529 521.428 -80.3182 522.53 -78.6812V-78.7835ZM518.242 174.544C517.017 176.079 515.546 177.511 514.199 178.841L513.096 178.125C514.444 176.795 515.791 175.363 517.139 173.828L518.242 174.544ZM515.056 -87.8894L513.954 -87.1732C512.606 -88.6056 511.135 -89.9356 509.665 -91.1634L510.645 -91.982C512.238 -90.6519 513.709 -89.3218 515.056 -87.8894ZM509.665 182.934C508.072 184.264 506.479 185.492 504.764 186.617L503.906 185.696C505.622 184.571 507.215 183.343 508.685 182.115L509.665 182.934ZM505.867 -95.6652L505.009 -94.7444C503.416 -95.8698 501.701 -96.9953 499.863 -98.1208L500.721 -99.0416C502.559 -98.0185 504.274 -96.7907 505.867 -95.6652ZM499.495 189.993C497.658 191.017 495.82 192.04 493.859 192.961L493.124 191.937C494.962 191.017 496.8 190.096 498.638 189.073L499.373 189.993H499.495ZM495.085 -102.111L494.349 -101.088C492.512 -102.009 490.551 -102.827 488.591 -103.646L489.203 -104.669C491.164 -103.85 493.124 -103.032 494.962 -102.111H495.085ZM488.101 195.416C486.14 196.132 484.057 196.849 481.974 197.462L481.484 196.337C483.567 195.723 485.528 195.007 487.488 194.291L488.101 195.314V195.416ZM483.2 -106.92L482.709 -105.794C480.749 -106.408 478.666 -107.022 476.583 -107.534L476.951 -108.659C479.034 -108.147 481.117 -107.534 483.2 -106.92ZM475.603 199.202C473.52 199.713 471.315 200.02 469.109 200.327L468.864 199.202C470.947 198.895 473.153 198.486 475.235 198.076L475.603 199.202ZM470.579 -109.887L470.334 -108.761C468.251 -109.068 466.046 -109.375 463.963 -109.58V-110.705C466.291 -110.501 468.496 -110.296 470.579 -109.887ZM462.615 201.043C460.41 201.248 458.204 201.248 455.999 201.248V200.123C458.204 200.123 460.287 200.123 462.493 199.918V201.043H462.615ZM457.469 -111.012V-109.887H450.975V-111.012H457.469ZM449.383 200.123V201.248H442.889V200.123H449.383ZM444.359 -111.115V-109.989H437.865V-111.115H444.359ZM436.272 200.123V201.248H429.778V200.123H436.272ZM431.249 -111.115V-109.989H424.755V-111.115H431.249ZM423.162 200.123V201.248H416.668V200.123H423.162ZM418.138 -111.115V-109.989H411.645V-111.115H418.138ZM410.052 200.123V201.248H403.558V200.123H410.052ZM405.151 -111.115V-109.989H398.657V-111.115H405.151ZM397.064 200.123V201.248H390.57V200.123H397.064ZM392.04 -111.115V-109.989H385.547V-111.115H392.04ZM383.954 200.123V201.248H377.46V200.123H383.954ZM378.93 -111.115V-109.989H372.436V-111.115H378.93ZM370.844 200.123V201.248H364.35V200.123H370.844ZM365.82 -111.115V-109.989H359.326V-111.115H365.82ZM357.733 200.123V201.248H351.239V200.123H357.733ZM352.832 -111.115V-109.989H346.338V-111.115H352.832ZM344.746 200.123V201.248H338.252V200.123H344.746ZM339.722 -111.115V-109.989H333.228V-111.115H339.722ZM331.635 200.123V201.248H325.142V200.123H331.635ZM326.612 -111.115V-109.989H320.118V-111.115H326.612ZM318.525 200.123V201.248H312.031V200.123H318.525ZM313.502 -111.115V-109.989H307.008V-111.115H313.502ZM305.415 200.123V201.248H298.921V200.123H305.415ZM300.514 -111.115V-109.989H294.02V-111.115H300.514ZM292.427 200.123V201.248H285.933V200.123H292.427ZM287.404 -111.115V-109.989H280.91V-111.115H287.404ZM279.317 200.123V201.248H272.823V200.123H279.317ZM274.293 -111.115V-109.989H267.799V-111.115H274.293ZM266.207 200.123V201.248H259.713V200.123H266.207ZM261.183 -111.115V-109.989H254.689V-111.115H261.183ZM253.096 200.123V201.248H246.603V200.123H253.096ZM248.073 -111.115V-109.989H241.579V-111.115H248.073ZM239.986 200.123V201.248H233.492V200.123H239.986ZM235.085 -111.115V-109.989C233.002 -109.989 230.797 -109.989 228.714 -109.784V-110.91C230.797 -110.91 232.88 -111.115 235.085 -111.115ZM226.998 199.713V200.839C224.67 200.634 222.465 200.327 220.382 200.02L220.627 198.895C222.71 199.202 224.915 199.509 226.998 199.713ZM222.097 -108.966C220.014 -108.659 217.809 -108.25 215.726 -107.841L215.358 -108.966C217.441 -109.478 219.647 -109.784 221.852 -110.091L222.097 -108.966ZM214.378 197.667L214.011 198.793C211.928 198.281 209.845 197.667 207.762 197.053L208.252 195.928C210.212 196.542 212.295 197.155 214.378 197.667ZM209.6 -106.203C207.517 -105.59 205.556 -104.873 203.596 -104.157L202.983 -105.18C204.944 -105.897 207.027 -106.613 209.11 -107.227L209.6 -106.101V-106.203ZM202.248 193.881L201.636 194.905C199.675 194.086 197.715 193.268 195.877 192.244L196.612 191.221C198.45 192.142 200.41 192.961 202.371 193.779L202.248 193.881ZM197.837 -101.702C195.999 -100.781 194.162 -99.86 192.324 -98.8369L191.589 -99.7578C193.426 -100.781 195.264 -101.804 197.225 -102.725L197.96 -101.702H197.837ZM191.098 188.356L190.241 189.277C188.403 188.254 186.687 187.026 185.095 185.901L185.952 184.98C187.545 186.106 189.261 187.231 191.098 188.356ZM187.178 -95.5629C185.462 -94.4375 183.869 -93.2097 182.399 -91.982L181.419 -92.8004C183.012 -94.1305 184.604 -95.3583 186.32 -96.4838L187.178 -95.5629ZM181.296 181.297L180.316 182.115C178.723 180.785 177.253 179.455 175.905 178.023L177.008 177.307C178.356 178.739 179.826 180.069 181.296 181.297ZM177.988 -87.9917C176.64 -86.6616 175.293 -85.2293 173.945 -83.6946L172.842 -84.4108C174.067 -85.8431 175.538 -87.3778 176.885 -88.7079L177.988 -87.9917ZM173.087 172.907L171.984 173.521C170.759 171.986 169.534 170.452 168.431 168.815L169.656 168.201C170.759 169.736 171.862 171.27 173.087 172.805V172.907ZM170.392 -79.2951C169.289 -77.7604 168.309 -76.1234 167.328 -74.4864L166.103 -74.998C167.083 -76.635 168.064 -78.272 169.289 -79.8067L170.514 -79.1928L170.392 -79.2951ZM166.716 163.494L165.49 164.006C164.633 162.369 163.775 160.63 163.04 158.89L164.388 158.481C165.123 160.22 165.981 161.857 166.838 163.494H166.716ZM164.755 -69.5753C164.02 -67.9383 163.285 -66.199 162.672 -64.4597L161.325 -64.7667C161.937 -66.506 162.672 -68.2453 163.408 -69.9846L164.755 -69.5753ZM162.305 153.365L160.957 153.672C160.344 151.933 159.977 150.091 159.609 148.25L160.957 148.045C161.325 149.784 161.815 151.626 162.305 153.365ZM161.202 -59.1394C160.835 -57.4001 160.467 -55.5584 160.222 -53.8191H158.874C159.119 -55.763 159.364 -57.6047 159.854 -59.344L161.202 -59.1394ZM160.099 142.725H158.752C158.752 141.088 158.507 139.246 158.507 137.405H159.854C159.854 139.246 159.854 141.088 160.099 142.827V142.725ZM159.854 -48.3965V-42.9739H158.507V-48.4988H159.854V-48.3965ZM159.854 -37.4489V-32.0264H158.507V-37.4489H159.854ZM159.854 -26.5014V-21.0788H158.507V-26.5014H159.854ZM159.854 -15.6563V-10.2336H158.507V-15.6563H159.854ZM159.854 -4.70867V0.713864H158.507V-4.70867H159.854ZM159.854 6.23881V11.6615H158.507V6.23881H159.854ZM159.854 17.1864V22.6089H158.507V17.1864H159.854ZM159.854 28.0316V33.4541H158.507V28.0316H159.854ZM159.854 38.9791V44.4017H158.507V38.9791H159.854ZM159.854 49.9267V55.3492H158.507V49.9267H159.854ZM159.854 60.8741V66.2968H158.507V60.8741H159.854ZM159.854 71.7193V77.142H158.507V71.7193H159.854ZM159.854 82.6669V88.0895H158.507V82.6669H159.854ZM159.854 93.6144V99.037H158.507V93.6144H159.854ZM159.854 104.562V109.985H158.507V104.562H159.854ZM159.854 115.509V120.932H158.507V115.509H159.854ZM159.854 126.355V131.777H158.507V126.355H159.854Z" fill="#FAFAFA"/>
<path d="M331.268 -231.537H329.92C329.92 -233.379 329.92 -235.118 329.675 -236.96H331.023C331.023 -235.221 331.268 -233.379 331.268 -231.537ZM331.268 -226.013V-220.488H329.92V-226.013H331.268ZM331.268 -215.065V-209.54H329.92V-215.065H331.268ZM331.268 -204.118V-198.593H329.92V-204.118H331.268ZM331.268 -193.17V-187.645H329.92V-193.068H331.268V-193.17ZM331.268 -182.222V-176.698H329.92V-182.222H331.268ZM331.268 -171.275V-165.852H329.92V-171.377H331.268V-171.275ZM331.268 -160.327V-154.905H329.92V-160.43H331.268V-160.327ZM331.268 -149.38V-143.855H329.92V-149.38H331.268ZM331.268 -138.432V-132.907H329.92V-138.432H331.268ZM331.268 -127.485V-121.96H329.92V-127.485H331.268ZM331.268 -116.537V-111.012H329.92V-116.537H331.268ZM331.268 -105.59V-100.065H329.92V-105.59H331.268ZM331.268 -94.6423V-89.1173H329.92V-94.6423H331.268ZM331.268 -83.6948V-78.1699H329.92V-83.6948H331.268ZM331.268 -72.7472V-67.2223H329.92V-72.7472H331.268ZM331.268 -61.7997V-56.2748H329.92V-61.6975H331.268V-61.7997ZM331.268 -50.8521V-45.3273H329.92V-50.8521H331.268ZM331.268 -39.9047V-34.3797H329.92V-39.9047H331.268ZM331.268 -28.9572C331.268 -27.1156 331.023 -25.2739 330.656 -23.4323H329.308C329.553 -25.3762 329.798 -27.2179 329.92 -28.9572H331.268ZM330.288 -242.485L328.94 -242.28C328.573 -244.02 328.205 -245.861 327.592 -247.601L328.94 -247.908C329.43 -246.168 329.92 -244.327 330.288 -242.485ZM329.553 -18.0096C329.063 -16.2703 328.573 -14.4287 327.96 -12.6894L326.612 -12.9962C327.225 -14.7356 327.715 -16.475 328.205 -18.2143L329.553 -18.0096ZM327.102 -253.228L325.755 -252.819C325.019 -254.558 324.284 -256.195 323.426 -257.934L324.774 -258.344C325.632 -256.707 326.367 -254.967 327.102 -253.126V-253.228ZM325.755 -7.47141C325.019 -5.73208 324.039 -4.09504 323.181 -2.45803L321.956 -2.9696C322.936 -4.60661 323.794 -6.24365 324.529 -7.98297L325.877 -7.5737L325.755 -7.47141ZM321.956 -263.357L320.731 -262.845C319.751 -264.482 318.648 -266.017 317.545 -267.552L318.771 -268.166C319.996 -266.631 321.099 -264.994 322.079 -263.357H321.956ZM319.996 2.45306C318.893 3.98776 317.668 5.62477 316.443 7.05716L315.34 6.34089C316.565 4.9085 317.79 3.3738 318.893 1.73679L320.118 2.35077L319.996 2.45306ZM314.85 -272.77L313.747 -272.054C312.399 -273.486 311.051 -274.918 309.704 -276.248L310.806 -277.067C312.277 -275.737 313.624 -274.202 314.972 -272.77H314.85ZM312.522 11.559C311.174 12.9914 309.581 14.3214 308.111 15.6515L307.131 14.8329C308.601 13.5029 310.071 12.1728 311.419 10.7404L312.522 11.4566V11.559ZM306.15 -280.955L305.17 -280.136C303.577 -281.364 301.984 -282.592 300.269 -283.717L301.127 -284.638C302.842 -283.513 304.435 -282.285 306.028 -280.955H306.15ZM303.332 19.437C301.739 20.6648 299.902 21.7903 298.186 22.9157L297.329 21.9949C299.044 20.8694 300.759 19.7439 302.352 18.6185L303.332 19.5393V19.437ZM295.981 -288.014L295.123 -287.094C293.408 -288.117 291.57 -289.14 289.609 -290.061L290.345 -291.084C292.182 -290.163 294.143 -289.14 295.858 -288.117H295.981V-288.014ZM292.673 26.0874C290.835 27.1105 288.874 28.0313 286.914 28.8498L286.301 27.8267C288.262 27.0082 290.099 26.0874 291.937 25.1666L292.673 26.1897V26.0874ZM284.586 -293.539L283.973 -292.516C282.013 -293.335 280.052 -294.051 277.969 -294.665L278.46 -295.79C280.542 -295.176 282.503 -294.358 284.463 -293.642L284.586 -293.539ZM281.033 31.2031C278.95 31.9193 276.867 32.5332 274.784 33.147L274.294 32.0216C276.377 31.4077 278.337 30.7938 280.42 30.0776L280.91 31.2031H281.033ZM272.333 -297.53L271.966 -296.404C269.883 -296.916 267.8 -297.325 265.717 -297.734L265.962 -298.86C268.167 -298.45 270.25 -298.041 272.333 -297.53ZM268.412 34.6817C266.329 35.091 264.124 35.5002 261.919 35.8072L261.674 34.6817C263.756 34.3748 265.962 34.0679 268.045 33.6586L268.412 34.784V34.6817ZM259.346 -299.78V-298.655C257.018 -298.86 254.812 -299.064 252.729 -299.167V-300.292C254.935 -300.292 257.263 -300.087 259.346 -299.78ZM255.425 36.421C253.219 36.421 251.014 36.6257 248.808 36.6257H248.563V35.5002H248.808C251.014 35.5002 253.097 35.5002 255.302 35.2956V36.421H255.425ZM246.235 -300.394V-299.269H239.619V-300.394H246.235ZM242.069 35.3979V36.5233H235.576V35.3979H242.069ZM233.125 -300.394V-299.269H226.509V-300.394H233.125ZM228.959 35.3979V36.5233H222.343V35.3979H228.959ZM220.015 -300.394V-299.269H213.521V-300.394H220.015ZM215.849 35.3979V36.5233H209.233V35.3979H215.849ZM206.905 -300.394V-299.269H200.411V-300.394H206.905ZM202.739 35.3979V36.5233H196.122V35.3979H202.739ZM193.794 -300.394V-299.269H187.178V-300.394H193.794ZM189.628 35.3979V36.5233H183.012V35.3979H189.628ZM180.684 -300.394V-299.269H174.19V-300.394H180.684ZM176.518 35.3979V36.5233H169.902V35.3979H176.518ZM167.451 -300.394V-299.269H160.835V-300.394H167.451ZM163.408 35.3979V36.5233H156.914V35.3979H163.408ZM154.464 -300.394V-299.269H147.847V-300.394H154.464ZM150.298 35.3979V36.5233H143.681V35.3979H150.298ZM141.231 -300.394V-299.269H134.614V-300.394H141.231ZM137.187 35.3979V36.5233H130.694V35.3979H137.187ZM128.121 -300.394V-299.269H121.627V-300.394H128.121ZM124.077 35.3979V36.5233H117.583V35.3979H124.077ZM115.01 -300.394V-299.269H108.516V-300.394H115.01ZM110.967 35.3979V36.5233H104.351V35.3979H110.967ZM101.9 -300.394V-299.269H95.2837V-300.394H101.9ZM97.8568 35.3979V36.5233H91.2403V35.3979H97.8568ZM88.7898 -300.394V-299.269H82.1734V-300.394H88.7898ZM84.7465 35.3979V36.5233H78.1301V35.3979H84.7465ZM75.6796 -300.394V-299.269H69.1857V-300.394H75.6796ZM71.6362 35.3979V36.5233H65.0198V35.3979H71.6362ZM62.5693 -300.394V-299.269H55.953V-300.394H62.5693ZM58.526 35.3979V36.5233H51.9096V35.3979H58.526ZM49.4591 -300.394V-299.269H42.8427V-300.394H49.4591ZM45.4157 35.3979V36.5233H38.7994V35.3979H45.4157ZM36.3489 -300.394V-299.269H29.7324V-300.394H36.3489ZM32.3055 35.3979V36.5233H25.6891V35.3979H32.3055ZM23.2386 -300.394V-299.269H16.6222V-300.394H23.2386ZM19.1953 35.3979V36.5233H12.5789V35.3979H19.1953ZM10.1283 -300.394V-299.269C8.0454 -299.269 5.83993 -299.269 3.75699 -299.064V-300.19C5.83993 -300.19 8.0454 -300.394 10.1283 -300.394ZM6.08501 35.3979V36.5233C3.87954 36.5233 1.55153 36.3187 -0.531409 36.0117V34.8863C1.79658 35.0909 4.00207 35.2956 6.08501 35.3979ZM-2.73686 -298.348C-4.81979 -298.041 -7.02527 -297.734 -9.10821 -297.325L-9.47577 -298.45C-7.39283 -298.86 -5.18738 -299.269 -2.98192 -299.576L-2.73686 -298.45V-298.348ZM-6.78019 33.9655L-7.02525 35.091C-9.23072 34.6818 -11.3137 34.2725 -13.3966 33.7609L-13.029 32.6355C-10.946 33.147 -8.86312 33.5562 -6.78019 33.9655ZM-15.357 -295.79C-17.4399 -295.176 -19.4003 -294.562 -21.4833 -293.846L-21.9734 -294.972C-19.8905 -295.688 -17.8075 -296.302 -15.7245 -296.916L-15.2345 -295.79H-15.357ZM-19.2778 30.8961L-19.7679 32.0216C-21.8508 31.4077 -23.8113 30.5891 -25.7717 29.8729L-25.159 28.8498C-23.1986 29.6683 -21.2382 30.3846 -19.1553 30.9985L-19.2778 30.8961ZM-27.3645 -291.595C-29.3249 -290.777 -31.1628 -289.856 -33.0007 -288.935L-33.7358 -289.958C-31.898 -290.982 -29.9375 -291.902 -27.9771 -292.721L-27.3645 -291.698V-291.595ZM-30.9178 26.1897L-31.6529 27.2128C-33.4908 26.292 -35.4512 25.2688 -37.1665 24.2457L-36.3088 23.325C-34.5935 24.3481 -32.7556 25.3712 -30.7952 26.292H-30.9178V26.1897ZM-38.3918 -285.866C-40.1072 -284.74 -41.8226 -283.615 -43.4154 -282.489L-44.3956 -283.41C-42.8027 -284.638 -40.9648 -285.764 -39.2495 -286.889L-38.3918 -285.968V-285.866ZM-41.5775 19.9486L-42.4351 20.8694C-44.1505 19.744 -45.7433 18.5163 -47.3362 17.1862L-46.356 16.3676C-44.7631 17.5954 -43.1703 18.8232 -41.5775 19.9486ZM-48.0714 -278.704C-49.5417 -277.374 -51.012 -276.044 -52.3598 -274.714L-53.4624 -275.43C-52.1147 -276.862 -50.5219 -278.192 -49.0515 -279.522L-48.0714 -278.704ZM-50.8894 12.3774L-51.9922 13.196C-53.4625 11.8659 -54.8102 10.3311 -56.158 8.89872L-55.0553 8.18258C-53.7075 9.61496 -52.3597 11.0473 -51.0119 12.3774H-50.8894ZM-56.4031 -270.314C-57.6283 -268.882 -58.8536 -267.347 -59.9564 -265.71L-61.1816 -266.324C-60.0789 -267.859 -58.8536 -269.496 -57.6283 -270.928L-56.5256 -270.212L-56.4031 -270.314ZM-58.6085 3.68077L-59.8338 4.29462C-61.059 2.75992 -62.1618 1.12296 -63.142 -0.514053L-61.9167 -1.02562C-60.9365 0.611393 -59.8338 2.14607 -58.7311 3.68077H-58.6085ZM-63.0195 -261.004C-63.9997 -259.367 -64.8574 -257.73 -65.5925 -255.99L-66.9403 -256.4C-66.2051 -258.139 -65.2249 -259.776 -64.3673 -261.413L-63.142 -260.901L-63.0195 -261.004ZM-64.6123 -5.93671L-65.9601 -5.52743C-66.8178 -7.26676 -67.5529 -9.00606 -68.2881 -10.7454L-66.9403 -11.1547C-66.2051 -9.41533 -65.47 -7.77832 -64.6123 -6.039V-5.93671ZM-67.6755 -250.875C-68.2881 -249.135 -68.7782 -247.396 -69.2683 -245.657L-70.616 -245.861C-70.1259 -247.601 -69.6358 -249.442 -69.0232 -251.182L-67.6755 -250.875ZM-68.7781 -16.168L-70.126 -15.861C-70.6161 -17.6004 -71.1061 -19.4421 -71.4737 -21.2837L-70.126 -21.4883C-69.7584 -19.749 -69.3908 -17.9074 -68.9007 -16.168H-68.7781ZM-70.371 -240.234C-70.6161 -238.495 -70.8611 -236.653 -70.9837 -234.811H-72.3314C-72.3314 -236.755 -72.0864 -238.597 -71.7188 -240.336H-70.371V-240.234ZM-70.7386 -26.9109H-72.0864C-72.0864 -28.6503 -72.3314 -30.4918 -72.3314 -32.2312H-70.9837C-70.9837 -30.3895 -70.9837 -28.5478 -70.7386 -26.8085V-26.9109ZM-70.9837 -229.389V-223.966H-72.3314V-229.389H-70.9837ZM-70.9837 -218.441V-212.916H-72.3314V-218.441H-70.9837ZM-70.9837 -207.494V-201.969H-72.3314V-207.494H-70.9837ZM-70.9837 -196.546V-191.021H-72.3314V-196.546H-70.9837ZM-70.9837 -185.599V-180.074H-72.3314V-185.599H-70.9837ZM-70.9837 -174.651V-169.126H-72.3314V-174.651H-70.9837ZM-70.9837 -163.704V-158.179H-72.3314V-163.704H-70.9837ZM-70.9837 -152.756V-147.231H-72.3314V-152.756H-70.9837ZM-70.9837 -141.809V-136.284H-72.3314V-141.809H-70.9837ZM-70.9837 -130.861V-125.336H-72.3314V-130.861H-70.9837ZM-70.9837 -119.914V-114.491H-72.3314V-120.016H-70.9837V-119.914ZM-70.9837 -108.966V-103.441H-72.3314V-108.966H-70.9837ZM-70.9837 -98.0187V-92.4937H-72.3314V-98.0187H-70.9837ZM-70.9837 -87.0711V-81.5461H-72.3314V-87.0711H-70.9837ZM-70.9837 -76.1236V-70.5987H-72.3314V-76.0213H-70.9837V-76.1236ZM-70.9837 -65.176V-59.6512H-72.3314V-65.176H-70.9837ZM-70.9837 -54.2285V-48.8059H-72.3314V-54.2285H-70.9837ZM-70.9837 -43.2811V-37.7561H-72.3314V-43.2811H-70.9837Z" fill="#FAFAFA"/>
<path d="M671.889 340.803V341.929H668.581V340.803H671.889ZM655.716 340.803V341.929H662.21V340.803H655.716ZM642.851 340.803V341.929H649.345V340.803H642.851ZM629.863 340.803V341.929H636.357V340.803H629.863ZM616.875 340.803V341.929H623.369V340.803H616.875ZM604.01 340.803V341.929H610.504V340.803H604.01ZM591.022 340.803V341.929H597.516V340.803H591.022ZM578.035 340.803V341.929H584.529V340.803H578.035ZM565.17 340.803V341.929H571.663V340.803H565.17ZM552.182 340.803V341.929H558.676V340.803H552.182ZM539.317 340.803V341.929H545.81V340.803H539.317ZM526.329 340.803V341.929H532.823V340.803H526.329ZM513.341 340.803V341.929H519.835V340.803H513.341ZM500.476 340.803V341.929H506.97V340.803H500.476ZM487.488 340.803V341.929H493.982V340.803H487.488ZM474.501 340.803V341.929H480.994V340.803H474.501ZM461.635 340.803V341.929H468.129V340.803H461.635ZM448.648 340.803V341.929H455.141V340.803H448.648ZM435.782 340.803V341.929H442.276V340.803H435.782ZM422.795 340.803V341.929H429.289V340.803H422.795ZM409.807 340.803V341.929H416.301V340.803H409.807ZM396.942 340.803V341.929H403.436V340.803H396.942ZM383.954 340.803V341.929H390.448V340.803H383.954ZM370.966 340.803V341.929H377.46V340.803H370.966ZM358.101 340.803V341.929H364.595V340.803H358.101ZM345.113 340.803V341.929H351.607V340.803H345.113ZM332.248 340.803V341.929H338.742V340.803H332.248ZM319.26 340.803V341.929H325.754V340.803H319.26ZM306.273 340.803V341.929H312.767V340.803H306.273ZM293.408 340.803V341.929H299.901V340.803H293.408ZM286.791 340.906C284.586 340.906 282.38 341.315 280.297 341.724L280.542 342.849C282.625 342.44 284.708 342.236 286.791 342.031V340.906ZM274.049 343.259C271.966 343.873 270.005 344.589 268.045 345.51L268.657 346.533C270.495 345.714 272.456 344.998 274.539 344.384L274.049 343.259ZM262.409 348.374C260.571 349.398 258.978 350.625 257.262 351.853L258.243 352.672C259.835 351.444 261.428 350.318 263.144 349.295L262.286 348.374H262.409ZM252.852 355.741C251.504 357.173 250.156 358.606 249.053 360.14L250.278 360.754C251.381 359.22 252.606 357.787 253.954 356.457L252.852 355.741ZM245.868 365.052C245.01 366.689 244.152 368.428 243.54 370.167L244.887 370.474C245.5 368.735 246.235 367.098 247.093 365.461L245.868 364.949V365.052ZM242.192 375.487C241.824 377.329 241.702 379.068 241.579 380.91H242.927C242.927 379.171 243.172 377.431 243.54 375.59L242.192 375.385V375.487ZM241.579 386.333V391.755H242.927V386.333H241.579ZM241.579 397.178V402.6H242.927V397.178H241.579ZM241.579 408.023V413.446H242.927V408.023H241.579ZM241.579 418.766V424.189H242.927V418.766H241.579ZM241.579 429.611V431.76V435.034H242.927V432.885V429.611H241.579ZM241.457 440.559V445.981H242.804V440.559H241.457ZM241.457 451.404V456.827H242.804V451.404H241.457ZM241.457 462.351V467.774H242.804V462.351H241.457ZM241.457 473.197V478.619H242.804V473.197H241.457ZM241.457 484.042V489.465H242.804V484.042H241.457ZM241.457 494.989V500.412H242.804V494.989H241.457ZM241.457 505.835V511.257H242.804V505.835H241.457ZM241.457 516.782V522.205H242.804V516.782H241.457ZM241.457 527.627V533.05H242.804V527.627H241.457ZM241.334 538.473C241.089 540.212 240.844 542.054 240.354 543.793L241.702 544.1C242.192 542.361 242.559 540.519 242.682 538.677H241.334V538.473ZM238.393 548.909C237.658 550.546 236.801 552.285 235.82 553.82L237.046 554.331C238.026 552.694 239.006 550.955 239.741 549.318L238.393 548.909ZM232.512 558.424C231.287 559.856 229.939 561.288 228.469 562.619L229.449 563.437C230.919 562.107 232.267 560.675 233.615 559.14L232.512 558.424ZM223.935 566.404C222.343 567.53 220.627 568.655 218.789 569.576L219.525 570.599C221.362 569.576 223.078 568.45 224.793 567.325L223.935 566.404ZM213.153 572.236C211.193 573.054 209.232 573.668 207.149 574.282L207.64 575.408C209.723 574.794 211.805 574.078 213.766 573.361L213.153 572.338V572.236ZM201.023 575.612C198.94 575.919 196.735 576.226 194.652 576.329V577.454C196.98 577.454 199.185 577.147 201.268 576.738L201.023 575.612ZM181.664 576.329V577.454H188.158V576.329H181.664ZM168.554 576.329V577.454H175.048V576.329H168.554ZM155.566 576.329V577.454H162.06V576.329H155.566ZM142.456 576.329V577.454H148.95V576.329H142.456ZM129.468 576.329V577.454H135.962V576.329H129.468ZM116.48 576.329V577.454H122.974V576.329H116.48ZM103.37 576.329V577.454H109.864V576.329H103.37ZM90.3825 576.329V577.454H96.8763V576.329H90.3825ZM77.2722 576.329V577.454H83.7661V576.329H77.2722ZM64.2845 576.329V577.454H70.7784V576.329H64.2845ZM51.1743 576.329V577.454H57.6681V576.329H51.1743ZM38.3091 575.817L38.064 576.942C40.2695 577.249 42.475 577.454 44.6804 577.454V576.329C42.5975 576.329 40.392 576.124 38.3091 575.817ZM26.0565 572.748L25.4439 573.771C27.4043 574.487 29.4873 575.203 31.6927 575.715L32.0603 574.589C29.9774 574.078 28.0169 573.464 26.0565 572.748ZM15.0292 567.12L14.1715 568.041C15.8869 569.166 17.7248 570.292 19.5627 571.213L20.2978 570.19C18.4599 569.269 16.7445 568.246 15.0292 567.12ZM6.20732 559.447L5.10464 560.163C6.45242 561.595 7.8002 563.028 9.39304 564.358L10.3732 563.539C8.90292 562.209 7.43258 560.879 6.20732 559.447ZM-0.0414556 550.136L-1.38921 550.545C-0.531528 552.285 0.448662 553.922 1.42887 555.559L2.65412 554.945C1.55139 553.41 0.693728 551.773 -0.163951 550.136H-0.0414556ZM-3.34966 539.7H-4.69742C-4.45237 541.644 -3.96226 543.486 -3.47216 545.225L-2.12441 544.918C-2.61451 543.179 -3.10461 541.44 -3.34966 539.598V539.7ZM-3.71723 463.579H-5.06498V469.002H-3.71723V463.579ZM-5.06498 474.527V479.949H-3.71723V474.527H-5.06498ZM-5.06498 485.372V490.795H-3.71723V485.372H-5.06498ZM-5.06498 496.319V501.742H-3.71723V496.319H-5.06498ZM-5.06498 507.165V512.587H-3.71723V507.165H-5.06498ZM-5.06498 518.01V523.432H-3.71723V518.01H-5.06498ZM-5.06498 528.957V534.38H-3.71723V528.957H-5.06498ZM-5.55511 452.734L-6.90286 453.041C-6.29024 454.78 -5.92269 456.52 -5.55511 458.259L-4.20736 458.054C-4.45241 456.213 -4.94248 454.371 -5.55511 452.632V452.734ZM-10.8237 442.605L-12.049 443.219C-10.9462 444.754 -9.96607 446.391 -9.10839 448.028L-7.88313 447.516C-8.74081 445.879 -9.72101 444.14 -10.9463 442.605H-10.8237ZM-19.0329 434.011L-20.0131 434.829C-18.4203 436.057 -16.95 437.387 -15.6022 438.819L-14.4995 438.103C-15.8473 436.671 -17.4401 435.341 -19.0329 434.011ZM-29.6927 427.565L-30.3053 428.588C-28.4674 429.407 -26.6295 430.43 -24.9142 431.453L-24.0565 430.532C-25.8943 429.407 -27.7323 428.486 -29.6927 427.565ZM-42.0677 423.677L-42.4353 424.802C-40.3524 425.212 -38.2694 425.723 -36.309 426.337L-35.819 425.212C-37.9019 424.598 -39.9849 424.086 -42.1903 423.677H-42.0677ZM-52.9726 422.654H-55.178V423.779H-52.9726C-51.5023 423.779 -50.1545 423.779 -48.6842 423.984V422.859C-50.0319 422.859 -51.5023 422.654 -52.9726 422.654ZM-68.1657 422.654V423.779H-61.6719V422.654H-68.1657ZM-81.276 422.654V423.779H-74.7821V422.654H-81.276ZM-94.2637 422.654V423.779H-87.7698V422.654H-94.2637ZM-107.374 422.654V423.779H-100.88V422.654H-107.374ZM-120.362 422.654V423.779H-113.868V422.654H-120.362ZM-133.472 422.654V423.779H-126.978V422.654H-133.472ZM-146.46 422.654V423.779H-139.966V422.654H-146.46ZM-159.57 422.654V423.779H-153.076V422.654H-159.57ZM-172.558 422.654V423.779H-166.064V422.654H-172.558ZM-185.668 422.654V423.779H-179.174V422.654H-185.668ZM-197.92 422.654H-198.656V423.779H-192.039V422.654H-197.92ZM-205.272 423.165C-207.477 423.472 -209.56 423.882 -211.766 424.393L-211.398 425.519C-209.315 425.007 -207.232 424.598 -205.149 424.393L-205.395 423.268H-205.272V423.165ZM-217.892 426.235C-219.853 426.951 -221.813 427.872 -223.773 428.793L-223.038 429.816C-221.2 428.895 -219.362 428.076 -217.402 427.36L-218.015 426.337L-217.892 426.235ZM-229.164 431.964C-230.88 433.09 -232.473 434.42 -233.943 435.75L-232.963 436.568C-231.492 435.238 -229.9 434.011 -228.307 432.885L-229.164 431.964ZM-238.109 440.047C-239.334 441.582 -240.559 443.117 -241.54 444.754L-240.314 445.265C-239.334 443.73 -238.231 442.196 -237.006 440.661L-238.109 439.945V440.047ZM-244.235 449.767C-244.97 451.506 -245.583 453.246 -246.073 455.087L-244.725 455.292C-244.235 453.553 -243.623 451.813 -242.887 450.176L-244.235 449.767ZM-247.053 460.51C-247.053 461.635 -247.176 462.761 -247.176 463.784V465.932H-245.828V463.784C-245.828 462.761 -245.828 461.635 -245.705 460.51H-247.053ZM-247.298 471.457V476.88H-245.951V471.457H-247.298ZM-247.298 482.303V487.725H-245.951V482.303H-247.298ZM-247.298 493.25V498.673H-245.951V493.25H-247.298ZM-247.298 504.095V509.518H-245.951V504.095H-247.298ZM-247.298 515.043V520.465H-245.951V515.043H-247.298ZM-247.298 525.888V531.311H-245.951V525.888H-247.298ZM-247.298 536.835V542.258H-245.951V536.835H-247.298ZM-247.298 547.681V553.103H-245.951V547.681H-247.298ZM-247.298 558.628V564.051H-245.951V558.628H-247.298ZM-247.298 569.473V574.896H-245.951V569.473H-247.298ZM-247.298 580.319V585.741H-245.951V580.319H-247.298ZM-247.788 591.164C-248.156 592.903 -248.524 594.643 -249.136 596.382L-247.788 596.689C-247.176 594.949 -246.686 593.108 -246.441 591.266L-247.788 591.062V591.164ZM-251.342 601.395C-252.199 603.032 -253.18 604.669 -254.282 606.204L-253.057 606.818C-251.954 605.283 -250.974 603.544 -249.994 601.907L-251.219 601.395H-251.342ZM-257.835 610.706C-259.183 612.138 -260.531 613.468 -262.124 614.696L-261.144 615.514C-259.551 614.184 -258.081 612.854 -256.733 611.422L-257.835 610.706ZM-267.025 618.175C-268.74 619.3 -270.578 620.221 -272.416 621.142L-271.681 622.165C-269.843 621.244 -267.883 620.221 -266.167 619.095L-267.025 618.175ZM-278.052 623.495C-280.013 624.211 -282.096 624.723 -284.179 625.234L-283.811 626.36C-281.728 625.848 -279.645 625.234 -277.562 624.518L-278.052 623.393V623.495ZM-290.427 626.36C-292.51 626.564 -294.716 626.769 -296.799 626.769V627.894C-294.593 627.894 -292.388 627.894 -290.182 627.485L-290.427 626.36ZM-309.909 626.769V627.894H-303.415V626.769H-309.909ZM-323.019 626.769V627.894H-316.525V626.769H-323.019ZM-336.007 626.769V627.894H-329.513V626.769H-336.007ZM-348.995 626.769V627.894H-342.501V626.769H-348.995ZM-362.105 626.769V627.894H-355.611V626.769H-362.105ZM-375.093 626.769V627.894H-368.599V626.769H-375.093ZM-388.203 626.769V627.894H-381.709V626.769H-388.203ZM-401.191 626.769V627.894H-394.697V626.769H-401.191ZM-414.301 626.769V627.894H-407.807V626.769H-414.301ZM-427.289 626.769V627.894H-420.795V626.769H-427.289ZM-440.399 626.769V627.894H-433.905V626.769H-440.399ZM-453.141 625.746L-453.386 626.871C-451.304 627.28 -449.098 627.587 -446.893 627.69V626.564C-448.853 626.36 -451.058 626.155 -453.141 625.746ZM-465.271 622.165L-465.884 623.188C-463.924 624.006 -461.841 624.723 -459.88 625.439L-459.39 624.313C-461.351 623.699 -463.434 622.983 -465.271 622.165ZM-475.809 616.026L-476.789 616.947C-475.196 618.175 -473.358 619.3 -471.643 620.323L-470.908 619.402C-472.623 618.379 -474.338 617.254 -475.931 616.026H-475.809ZM-484.14 607.943L-485.366 608.557C-484.14 610.092 -482.793 611.524 -481.322 612.957L-480.22 612.24C-481.567 610.91 -482.915 609.478 -484.14 607.943ZM-489.777 598.326L-491.124 598.735C-490.389 600.474 -489.532 602.214 -488.551 603.851L-487.326 603.339C-488.306 601.702 -489.041 600.065 -489.777 598.428V598.326ZM-492.35 587.788H-493.697C-493.575 589.732 -493.207 591.573 -492.84 593.313L-491.492 593.108C-491.86 591.368 -492.227 589.527 -492.35 587.788ZM-493.82 522.512V527.934H-492.472V522.512H-493.82ZM-493.82 533.459V538.882H-492.472V533.459H-493.82ZM-493.82 544.304V549.727H-492.472V544.304H-493.82ZM-493.82 555.252V560.675H-492.472V555.252H-493.82ZM-493.82 566.097V571.52H-492.472V566.097H-493.82ZM-493.82 576.942V582.365H-492.472V576.942H-493.82ZM-493.82 514.224V516.987H-492.472V514.224H-493.82Z" fill="#FAFAFA"/>
<path d="M328.327 136.995H326.979V142.418H328.327V136.995ZM328.327 147.84H326.979V153.263H328.327V147.84ZM328.327 158.583H326.979V164.006H328.327V158.583ZM328.327 169.428H326.979V174.851H328.327V169.428ZM328.327 180.274H326.979V185.696H328.327V180.274ZM328.327 191.016H326.979V196.439H328.327V191.016ZM328.327 201.862H326.979V207.284H328.327V201.862ZM328.327 212.707H326.979V218.129H328.327V212.707ZM328.327 223.45H326.979V228.872H328.327V223.45ZM328.327 234.295H326.979V239.718H328.327V234.295ZM328.327 245.038H326.979V250.461H328.327V245.038ZM328.327 255.985H326.979V261.408H328.327V255.985ZM328.327 266.831H326.979V272.253H328.327V266.831ZM328.327 277.676H326.979V283.098H328.327V277.676ZM328.327 288.623H326.979V294.046H328.327V288.623ZM328.327 299.469H326.979V304.891H328.327V299.469ZM328.327 310.416H326.979V315.839H328.327V310.416ZM328.327 321.261H326.979V326.684H328.327V321.261ZM328.327 332.209H326.979V337.631H328.327V332.209ZM328.327 343.054H326.979V348.477H328.327V343.054ZM328.327 353.899H326.979C326.979 355.741 327.225 357.583 327.592 359.424L328.94 359.22C328.572 357.48 328.327 355.639 328.327 353.899ZM330.41 364.54L329.062 364.847C329.675 366.586 330.41 368.325 331.39 370.065L332.616 369.553C331.758 367.916 331.023 366.279 330.41 364.54ZM335.679 374.26L334.454 374.874C335.556 376.408 336.904 377.943 338.252 379.375L339.355 378.659C338.007 377.227 336.782 375.794 335.679 374.26ZM343.765 382.649L342.785 383.468C344.378 384.696 346.093 385.923 347.809 387.049L348.666 386.128C346.951 385.105 345.358 383.877 343.765 382.649ZM354.058 388.993L353.323 390.016C355.283 390.937 357.243 391.755 359.326 392.369L359.816 391.244C357.856 390.527 355.896 389.811 354.058 388.89V388.993ZM365.943 392.983L365.575 394.108C367.658 394.518 369.863 394.927 372.069 395.132V394.006C370.109 393.801 368.026 393.495 365.943 392.983ZM463.105 394.313H456.857V395.438H463.35V394.313H463.105ZM450.363 394.313H443.869V395.438H450.363V394.313ZM437.375 394.313H430.881V395.438H437.375V394.313ZM424.265 394.313H417.771V395.438H424.265V394.313ZM411.277 394.313H404.783V395.438H411.277V394.313ZM398.167 394.313H391.673V395.438H398.167V394.313ZM385.179 394.313H378.685V395.438H385.179V394.313ZM469.967 394.722L469.722 395.848C471.805 396.052 474.01 396.462 475.971 396.973L476.338 395.848C474.255 395.336 472.05 394.927 469.844 394.722H469.967ZM482.71 397.689L482.097 398.712C484.057 399.429 486.018 400.247 487.856 401.168L488.591 400.145C486.753 399.224 484.793 398.303 482.71 397.587V397.689ZM493.982 403.419L493.124 404.34C494.84 405.465 496.432 406.693 497.903 408.023L498.883 407.205C497.413 405.874 495.697 404.647 493.982 403.419ZM503.049 411.399L501.946 412.116C503.171 413.548 504.397 415.083 505.377 416.617L506.602 416.106C505.622 414.469 504.397 412.934 503.049 411.399ZM509.298 421.119L507.95 421.528C508.685 423.165 509.298 424.905 509.788 426.644L511.135 426.337C510.645 424.598 510.033 422.756 509.298 421.017V421.119ZM512.238 431.862H510.89C510.89 433.09 511.135 434.318 511.135 435.545V437.387H512.483V435.545C512.483 434.318 512.483 433.09 512.238 431.862ZM512.361 442.81H511.013V448.232H512.361V442.81ZM512.361 453.655H511.013V459.077H512.361V453.655ZM512.361 464.602H511.013V470.025H512.361V464.602ZM512.361 475.447H511.013V480.87H512.361V475.447ZM512.361 486.395H511.013V491.818H512.361V486.395ZM512.361 497.24H511.013V502.663H512.361V497.24ZM512.361 508.188H511.013V513.61H512.361V508.188ZM512.361 519.033H511.013V524.456H512.361V519.033ZM512.361 529.878H511.013V535.301H512.361V529.878ZM512.361 540.826H511.013V546.248H512.361V540.826ZM512.361 551.876H511.013V557.298H512.361V551.876ZM512.361 562.721H511.013V568.143H512.361V562.721ZM512.361 573.668H511.013V579.091H512.361V573.668ZM512.361 584.514H511.013V589.936H512.361V584.514ZM512.361 595.461H511.013V600.884H512.361V595.461ZM512.361 606.306H511.013V611.729H512.361V606.306ZM512.361 617.151H511.013V622.574H512.361V617.151Z" fill="#FAFAFA"/>
<path d="M182.889 321.159C184.972 321.159 186.687 319.726 186.687 317.987V308.779C186.687 307.039 184.972 305.607 182.889 305.607H171.862C169.779 305.607 168.063 307.039 168.063 308.779V317.987C168.063 319.726 169.779 321.159 171.862 321.159H182.889Z" fill="#FAFAFA"/>
<path d="M182.889 668.615C184.972 668.615 186.687 667.182 186.687 665.443V656.235C186.687 654.496 184.972 653.063 182.889 653.063H171.862C169.779 653.063 168.063 654.496 168.063 656.235V665.443C168.063 667.182 169.779 668.615 171.862 668.615H182.889Z" fill="#FAFAFA"/>
<path d="M62.4464 477.493C64.5294 477.493 66.2447 476.061 66.2447 474.322V465.114C66.2447 463.374 64.5294 461.942 62.4464 461.942H51.4191C49.3362 461.942 47.6208 463.374 47.6208 465.114V474.322C47.6208 476.061 49.3362 477.493 51.4191 477.493H62.4464Z" fill="#FAFAFA"/>
<path d="M173.577 519.032H180.929C182.277 519.032 183.502 519.953 183.502 521.181V527.32C183.502 528.445 182.399 529.468 180.929 529.468H173.577C172.229 529.468 171.004 528.548 171.004 527.32V521.181C171.004 520.056 172.107 519.032 173.577 519.032Z" fill="#FAFAFA"/>
<path d="M41.9849 189.175H49.3364C50.6842 189.175 51.9095 190.095 51.9095 191.323V197.462C51.9095 198.587 50.8067 199.61 49.3364 199.61H41.9849C40.6371 199.61 39.4119 198.69 39.4119 197.462V191.323C39.4119 190.198 40.5146 189.175 41.9849 189.175Z" fill="#FAFAFA"/>
<path d="M287.649 308.268H295C296.348 308.268 297.573 309.188 297.573 310.416V316.555C297.573 317.68 296.471 318.703 295 318.703H287.649C286.301 318.703 285.076 317.783 285.076 316.555V310.416C285.076 309.291 286.179 308.268 287.649 308.268Z" fill="#FAFAFA"/>
<path d="M776.771 383.161C776.771 381.421 775.055 379.989 772.973 379.989H761.945C759.862 379.989 758.147 381.421 758.147 383.161V392.369C758.147 394.108 759.862 395.541 761.945 395.541H772.973C775.055 395.541 776.771 394.108 776.771 392.369V383.161Z" fill="#FAFAFA"/>
<path d="M423.775 229.486C423.775 227.746 422.059 226.314 419.976 226.314H408.949C406.866 226.314 405.151 227.746 405.151 229.486V238.694C405.151 240.433 406.866 241.866 408.949 241.866H419.976C422.059 241.866 423.775 240.433 423.775 238.694V229.486Z" fill="#FAFAFA"/>
<path d="M449.015 89.8285C449.015 91.5678 450.73 93.0002 452.813 93.0002H463.841C465.924 93.0002 467.639 91.5678 467.639 89.8285V80.6203C467.639 78.881 465.924 77.4485 463.841 77.4485H452.813C450.73 77.4485 449.015 78.881 449.015 80.6203V89.8285Z" fill="#FAFAFA"/>
<path d="M639.175 80.1084H646.527C647.874 80.1084 649.1 81.0292 649.1 82.257V88.3958C649.1 89.5212 647.997 90.5443 646.527 90.5443H639.175C637.827 90.5443 636.602 89.6235 636.602 88.3958V82.257C636.602 81.1315 637.705 80.1084 639.175 80.1084Z" fill="#FAFAFA"/>
</g>
</g>
</g>
</g>
<defs>
<linearGradient id="paint0_linear_209_388" x1="755.5" y1="-8" x2="755.5" y2="1133" gradientUnits="userSpaceOnUse">
<stop offset="0.0673077" stop-color="#263238" stop-opacity="0.98"/>
<stop offset="0.514423" stop-color="#3B5057"/>
<stop offset="0.899038" stop-color="#516E75"/>
</linearGradient>
<clipPath id="clip0_209_388">
<rect width="1511" height="1133" rx="57" fill="white"/>
</clipPath>
</defs>
</svg>
