<svg width="314" height="318" viewBox="0 0 314 318" fill="none" xmlns="http://www.w3.org/2000/svg">
<g filter="url(#filter0_df_24_2)">
<circle cx="157" cy="157" r="153" fill="url(#paint0_linear_24_2)" shape-rendering="crispEdges"/>
</g>
<path fill-rule="evenodd" clip-rule="evenodd" d="M156.1 293.8C232.15 293.8 293.8 232.15 293.8 156.1C293.8 80.0504 232.15 18.4 156.1 18.4C80.0504 18.4 18.4 80.0504 18.4 156.1C18.4 232.15 80.0504 293.8 156.1 293.8ZM156.1 273.55C220.966 273.55 273.55 220.966 273.55 156.1C273.55 91.2342 220.966 38.65 156.1 38.65C91.2341 38.65 38.65 91.2342 38.65 156.1C38.65 220.966 91.2341 273.55 156.1 273.55Z" fill="url(#paint1_linear_24_2)"/>
<defs>
<filter id="filter0_df_24_2" x="0" y="0" width="314" height="318" filterUnits="userSpaceOnUse" color-interpolation-filters="sRGB">
<feFlood flood-opacity="0" result="BackgroundImageFix"/>
<feColorMatrix in="SourceAlpha" type="matrix" values="0 0 0 0 0 0 0 0 0 0 0 0 0 0 0 0 0 0 127 0" result="hardAlpha"/>
<feOffset dy="4"/>
<feGaussianBlur stdDeviation="2"/>
<feComposite in2="hardAlpha" operator="out"/>
<feColorMatrix type="matrix" values="0 0 0 0 0 0 0 0 0 0 0 0 0 0 0 0 0 0 0.25 0"/>
<feBlend mode="normal" in2="BackgroundImageFix" result="effect1_dropShadow_24_2"/>
<feBlend mode="normal" in="SourceGraphic" in2="effect1_dropShadow_24_2" result="shape"/>
<feGaussianBlur stdDeviation="2" result="effect2_foregroundBlur_24_2"/>
</filter>
<linearGradient id="paint0_linear_24_2" x1="310" y1="8.29705" x2="3.99998" y2="305.703" gradientUnits="userSpaceOnUse">
<stop stop-color="#D9D9D9" stop-opacity="0.1"/>
<stop offset="1" stop-color="#737373" stop-opacity="0.4"/>
</linearGradient>
<linearGradient id="paint1_linear_24_2" x1="293.8" y1="22.2674" x2="18.4" y2="289.933" gradientUnits="userSpaceOnUse">
<stop stop-color="#FF8400" stop-opacity="0.59"/>
<stop offset="1" stop-color="#FF5500" stop-opacity="0.92"/>
</linearGradient>
</defs>
</svg>
