<svg width="854" height="617" viewBox="0 0 854 617" fill="none" xmlns="http://www.w3.org/2000/svg">
<path d="M712.771 257.682C642.675 191.597 691.43 158.965 622.944 117.187C578.662 90.1561 518.178 74.3533 437.589 91.9002C218.743 139.568 241.066 135.858 196.387 199.548C151.709 263.238 78.3777 245.644 110.214 332.301C142.05 418.957 68.6393 525.976 187.669 558.01C306.699 590.044 412.219 506.78 477.964 567.36C543.709 627.94 747.225 599.478 753.702 435.409C757.304 344.139 769.57 311.221 712.771 257.682Z" fill="#FBF2DF"/>
<path opacity="0.8" d="M325.01 223.245L324.334 222.878L323.923 222.625L308.798 214.175C308.798 213.837 308.798 213.499 308.798 213.161C308.798 195.388 302.543 182.91 292.733 177.67L263.687 161.587C255.699 157.165 245.302 157.587 233.907 163.897C228.625 166.886 223.793 170.553 219.546 174.797C217.679 172.952 215.566 171.351 213.261 170.037L185.243 154.63C174.964 148.095 161.219 148.236 146.065 156.602C114.287 174.206 88.5013 221.386 88.5013 262.087C88.4874 266.586 88.8508 271.079 89.588 275.522L85.5938 277.72C65.388 288.986 49 318.956 49 344.813C49 359.094 53.9928 369.29 61.893 373.656L91.262 389.937C97.6351 393.429 105.947 393.176 114.904 388.162L168.15 358.7L310.002 280.17C322.161 273.438 332 255.411 332 239.891C332.029 231.779 329.298 225.977 325.01 223.245Z" fill="#FE6601"/>
<path opacity="0.2" d="M325.01 223.245L324.334 222.878L323.923 222.625L308.798 214.175C308.798 213.837 308.798 213.499 308.798 213.161C308.798 195.388 302.543 182.91 292.733 177.67L263.687 161.587C255.699 157.165 245.302 157.587 233.907 163.897C228.625 166.886 223.793 170.553 219.546 174.797C217.679 172.952 215.566 171.351 213.261 170.037L185.243 154.63C174.964 148.095 161.219 148.236 146.065 156.602C114.287 174.206 88.5013 221.386 88.5013 262.087C88.4874 266.586 88.8508 271.079 89.588 275.522L85.5938 277.72C65.388 288.986 49 318.956 49 344.813C49 359.094 53.9928 369.29 61.893 373.656L91.262 389.937C97.6351 393.429 105.947 393.176 114.904 388.162L168.15 358.7L310.002 280.17C322.161 273.438 332 255.411 332 239.891C332.029 231.779 329.298 225.977 325.01 223.245Z" fill="white"/>
<path opacity="0.35" d="M292.763 177.727C284.833 173.474 274.524 173.952 263.393 180.205C257.823 183.368 252.749 187.276 248.327 191.81L221.69 176.966L219.076 175.53L219.722 174.882C223.984 170.645 228.813 166.97 234.083 163.953C245.478 157.672 255.875 157.249 263.863 161.672L292.763 177.727Z" fill="white"/>
<path opacity="0.8" d="M219.605 174.882C220.299 175.543 220.956 176.238 221.573 176.966L218.959 175.53L219.605 174.882Z" fill="white"/>
<path opacity="0.35" d="M212.615 169.727C202.6 164.376 189.619 164.995 175.434 172.854C161.249 180.713 147.827 194.937 137.724 211.724L108.355 195.528C118.429 178.628 131.615 164.545 146.035 156.63C161.16 148.18 174.934 148.18 185.214 154.658L212.615 169.727Z" fill="white"/>
<path opacity="0.35" d="M118.899 291.803L114.934 293.972C101.248 301.577 89.2652 317.829 83.0096 335.574L53.6406 319.35C58.2767 305.62 66.4722 293.243 77.4588 283.381L89.5296 275.579L118.899 291.803Z" fill="white"/>
<path d="M310.031 223.977L307.946 225.132C308.514 221.183 308.809 217.203 308.827 213.217C308.827 181.051 288.416 166.263 263.276 180.206C251.528 186.656 240.956 198.176 232.908 211.865C231.763 173.136 206.476 155.531 175.404 172.854C143.627 190.458 117.841 237.638 117.841 278.339C117.832 282.846 118.186 287.348 118.898 291.803L114.933 293.972C94.7273 305.239 78.3101 335.236 78.3101 361.094C78.3101 386.951 94.7273 399.401 114.933 388.19L168.15 358.699L310.002 280.17C322.161 273.438 332 255.411 332 239.891C332.029 224.399 322.19 217.245 310.031 223.977Z" fill="#FE6601"/>
<path opacity="0.7" d="M310.031 223.977L307.946 225.132C308.514 221.183 308.809 217.203 308.827 213.217C308.827 181.051 288.416 166.263 263.276 180.206C251.528 186.656 240.956 198.176 232.908 211.865C231.763 173.136 206.476 155.531 175.404 172.854C143.627 190.458 117.841 237.638 117.841 278.339C117.832 282.846 118.186 287.348 118.898 291.803L114.933 293.972C94.7273 305.239 78.3101 335.236 78.3101 361.094C78.3101 386.951 94.7273 399.401 114.933 388.19L168.15 358.699L310.002 280.17C322.161 273.438 332 255.411 332 239.891C332.029 224.399 322.19 217.245 310.031 223.977Z" fill="white"/>
<path opacity="0.7" d="M100.601 385.12C91.5852 385.12 85.917 375.684 85.917 361.094C85.917 337.94 100.954 310.083 118.781 300.225L122.746 298.028C124.059 297.301 125.113 296.209 125.768 294.897C126.424 293.585 126.65 292.114 126.417 290.676C125.757 286.595 125.433 282.47 125.448 278.339C125.448 240.032 149.56 195.528 179.252 179.079C184.99 175.628 191.573 173.685 198.342 173.445C214.377 173.445 224.774 188.233 225.478 212.062C225.514 213.641 226.091 215.163 227.12 216.396C228.149 217.628 229.573 218.5 231.171 218.879C232.769 219.257 234.452 219.12 235.961 218.489C237.47 217.857 238.719 216.767 239.517 215.386C247.241 202.288 257.138 192.007 267.124 186.43C271.426 183.82 276.369 182.343 281.456 182.149C293.585 182.149 301.397 194.345 301.397 213.133C301.386 216.798 301.121 220.458 300.604 224.09C300.414 225.423 300.617 226.782 301.193 228.01C301.768 229.238 302.692 230.286 303.858 231.035C305.025 231.784 306.388 232.203 307.791 232.245C309.194 232.287 310.581 231.95 311.794 231.272L313.879 230.117C315.373 229.212 317.079 228.68 318.843 228.568C322.837 228.568 324.716 234.202 324.716 239.835C324.716 252.82 316.376 268.396 306.508 273.889L111.174 381.965C108.016 383.877 104.392 384.965 100.66 385.12H100.601Z" fill="white"/>
<path d="M473.983 319.627L468.877 341.659C468.376 341.266 467.816 340.977 467.222 340.809C466.2 340.522 465.124 340.578 464.13 340.97C463.136 341.362 462.269 342.072 461.638 343.011C461.007 343.95 460.641 345.076 460.585 346.246C460.529 347.417 460.786 348.579 461.324 349.587C461.861 350.595 462.656 351.404 463.606 351.911C464.557 352.418 465.621 352.6 466.665 352.436C467.709 352.271 468.686 351.766 469.472 350.985C470.258 350.204 470.819 349.182 471.083 348.047L475.674 328.27L494.766 328.171L490.246 347.75C489.742 347.364 489.183 347.076 488.591 346.9C487.57 346.614 486.495 346.671 485.502 347.063C484.509 347.455 483.643 348.165 483.013 349.103C482.382 350.041 482.015 351.165 481.959 352.335C481.902 353.504 482.158 354.666 482.694 355.674C483.23 356.682 484.023 357.491 484.972 357.999C485.921 358.507 486.984 358.692 488.028 358.53C489.071 358.368 490.048 357.866 490.835 357.088C491.623 356.311 492.185 355.291 492.452 354.158L499.997 321.467L473.983 319.627Z" fill="#FE6601"/>
<path opacity="0.45" d="M473.983 319.627L468.877 341.659C468.376 341.266 467.816 340.977 467.222 340.809C466.2 340.522 465.124 340.578 464.13 340.97C463.136 341.362 462.269 342.072 461.638 343.011C461.007 343.95 460.641 345.076 460.585 346.246C460.529 347.417 460.786 348.579 461.324 349.587C461.861 350.595 462.656 351.404 463.606 351.911C464.557 352.418 465.621 352.6 466.665 352.436C467.709 352.271 468.686 351.766 469.472 350.985C470.258 350.204 470.819 349.182 471.083 348.047L475.674 328.27L494.766 328.171L490.246 347.75C489.742 347.364 489.183 347.076 488.591 346.9C487.57 346.614 486.495 346.671 485.502 347.063C484.509 347.455 483.643 348.165 483.013 349.103C482.382 350.041 482.015 351.165 481.959 352.335C481.902 353.504 482.158 354.666 482.694 355.674C483.23 356.682 484.023 357.491 484.972 357.999C485.921 358.507 486.984 358.692 488.028 358.53C489.071 358.368 490.048 357.866 490.835 357.088C491.623 356.311 492.185 355.291 492.452 354.158L499.997 321.467L473.983 319.627Z" fill="white"/>
<path d="M401.351 293.778L396.227 315.81C395.721 315.429 395.162 315.142 394.572 314.96C393.55 314.682 392.477 314.746 391.487 315.144C390.497 315.542 389.636 316.256 389.01 317.197C388.385 318.137 388.024 319.263 387.972 320.431C387.92 321.599 388.18 322.759 388.719 323.763C389.259 324.768 390.053 325.573 391.003 326.077C391.952 326.581 393.015 326.762 394.057 326.597C395.099 326.431 396.073 325.928 396.858 325.149C397.643 324.37 398.204 323.35 398.469 322.218L403.06 302.441L422.152 302.342L417.632 321.921C417.13 321.532 416.57 321.244 415.977 321.071C414.957 320.783 413.882 320.836 412.889 321.225C411.896 321.614 411.028 322.321 410.395 323.257C409.763 324.193 409.393 325.316 409.333 326.484C409.274 327.653 409.526 328.815 410.059 329.825C410.592 330.834 411.382 331.646 412.329 332.158C413.276 332.669 414.339 332.858 415.382 332.7C416.426 332.543 417.404 332.045 418.194 331.271C418.983 330.497 419.55 329.48 419.821 328.349L427.365 295.657L401.351 293.778Z" fill="#FE6601"/>
<path opacity="0.7" d="M401.351 293.778L396.227 315.81C395.721 315.429 395.162 315.142 394.572 314.96C393.55 314.682 392.477 314.746 391.487 315.144C390.497 315.542 389.636 316.256 389.01 317.197C388.385 318.137 388.024 319.263 387.972 320.431C387.92 321.599 388.18 322.759 388.719 323.763C389.259 324.768 390.053 325.573 391.003 326.077C391.952 326.581 393.015 326.762 394.057 326.597C395.099 326.431 396.073 325.928 396.858 325.149C397.643 324.37 398.204 323.35 398.469 322.218L403.06 302.441L422.152 302.342L417.632 321.921C417.13 321.532 416.57 321.244 415.977 321.071C414.957 320.783 413.882 320.836 412.889 321.225C411.896 321.614 411.028 322.321 410.395 323.257C409.763 324.193 409.393 325.316 409.333 326.484C409.274 327.653 409.526 328.815 410.059 329.825C410.592 330.834 411.382 331.646 412.329 332.158C413.276 332.669 414.339 332.858 415.382 332.7C416.426 332.543 417.404 332.045 418.194 331.271C418.983 330.497 419.55 329.48 419.821 328.349L427.365 295.657L401.351 293.778Z" fill="white"/>
<path d="M449.126 278.767C449.779 277.721 450.621 276.839 451.599 276.177C452.923 275.32 454.34 274.655 455.816 274.199C457.794 273.659 459.719 272.904 461.563 271.944C462.487 271.458 463.313 270.769 463.992 269.92C464.671 269.07 465.188 268.077 465.514 267C464.53 267.758 463.404 268.258 462.222 268.464C459.393 268.938 456.137 267.396 453.325 267.237C449.073 266.98 446.048 269.077 442.774 272.538C444.553 276.157 446.333 279.835 448.112 283.474C449.518 286.342 450.923 289.19 452.311 292.058C452.453 292.335 454.09 296.013 454.09 296.013C452.958 296.068 451.851 296.406 450.852 297.002C449.758 297.667 448.867 298.677 448.29 299.905C447.713 301.133 447.477 302.524 447.612 303.902C447.747 305.279 448.246 306.581 449.047 307.643C449.847 308.704 450.913 309.478 452.11 309.866C453.307 310.254 454.58 310.239 455.769 309.822C456.957 309.405 458.008 308.606 458.788 307.525C459.568 306.444 460.041 305.13 460.149 303.75C460.257 302.37 459.993 300.985 459.393 299.771L449.126 278.767Z" fill="#FE6601"/>
<path opacity="0.2" d="M449.126 278.767C449.779 277.721 450.621 276.839 451.599 276.177C452.923 275.32 454.34 274.655 455.816 274.199C457.794 273.659 459.719 272.904 461.563 271.944C462.487 271.458 463.313 270.769 463.992 269.92C464.671 269.07 465.188 268.077 465.514 267C464.53 267.758 463.404 268.258 462.222 268.464C459.393 268.938 456.137 267.396 453.325 267.237C449.073 266.98 446.048 269.077 442.774 272.538C444.553 276.157 446.333 279.835 448.112 283.474C449.518 286.342 450.923 289.19 452.311 292.058C452.453 292.335 454.09 296.013 454.09 296.013C452.958 296.068 451.851 296.406 450.852 297.002C449.758 297.667 448.867 298.677 448.29 299.905C447.713 301.133 447.477 302.524 447.612 303.902C447.747 305.279 448.246 306.581 449.047 307.643C449.847 308.704 450.913 309.478 452.11 309.866C453.307 310.254 454.58 310.239 455.769 309.822C456.957 309.405 458.008 308.606 458.788 307.525C459.568 306.444 460.041 305.13 460.149 303.75C460.257 302.37 459.993 300.985 459.393 299.771L449.126 278.767Z" fill="white"/>
<path d="M311.18 292.955C307.092 315.16 309.589 338.239 318.298 358.734C318.298 358.734 363.901 346.867 387.442 349.241C378.717 329.806 376.576 307.532 381.41 286.487C362.994 281.563 327.159 282.829 311.18 292.955Z" fill="#F5F5F5"/>
<path d="M321.02 352.781C314.331 334.972 312.343 315.414 315.29 296.396C329.169 288.96 357.673 287.14 375.787 290.463C372.726 308.376 374.281 326.886 380.271 343.861C359.773 343.881 331.179 350.328 321.02 352.781Z" fill="#FE6601"/>
<path opacity="0.7" d="M321.02 352.781C314.331 334.972 312.343 315.414 315.29 296.396C329.169 288.96 357.673 287.14 375.787 290.463C372.726 308.376 374.281 326.886 380.271 343.861C359.773 343.881 331.179 350.328 321.02 352.781Z" fill="white"/>
<path opacity="0.7" d="M356.072 299.936C354.93 299.67 353.739 299.901 352.746 300.582C351.753 301.263 351.033 302.341 350.734 303.595C350.633 304.212 350.646 304.846 350.772 305.458C350.898 306.069 351.134 306.646 351.467 307.153C351.8 307.66 352.222 308.086 352.708 308.406C353.194 308.726 353.733 308.933 354.293 309.014C355.435 309.29 356.63 309.063 357.625 308.381C358.621 307.699 359.34 306.614 359.631 305.355C359.732 304.738 359.719 304.104 359.593 303.492C359.467 302.88 359.23 302.304 358.897 301.797C358.565 301.29 358.142 300.863 357.657 300.544C357.171 300.224 356.632 300.017 356.072 299.936Z" fill="white"/>
<path opacity="0.7" d="M318.511 337.75L335.005 312.04L364.008 334.863L354.275 323.669L361.179 315.956L374.719 330.749C375.502 334.506 376.476 338.21 377.637 341.844C358.367 342.398 333.582 347.777 322.141 350.487C320.648 346.347 319.434 342.09 318.511 337.75Z" fill="white"/>
<path opacity="0.2" d="M310.468 330.472C311.804 340.282 314.468 349.81 318.368 358.734C318.368 358.734 326.375 356.756 337.407 354.422C332.683 345.27 329.567 335.202 328.226 324.756C322.166 326.072 316.223 327.985 310.468 330.472Z" fill="black"/>
<path d="M262 359.268C266.135 381.484 276.643 401.609 291.946 416.622C291.946 416.622 329.667 385.789 352.122 377.581C337.202 363.551 327.324 344.021 324.294 322.561C305.522 326.141 273.067 342.991 262 359.268Z" fill="#F5F5F5"/>
<path d="M292.266 409.957C279.779 396.527 270.985 379.427 266.911 360.652C277.035 347.757 302.497 333.557 320.451 328.672C323.999 346.441 331.979 362.74 343.475 375.703C324.721 384.78 300.718 403.252 292.266 409.957Z" fill="#FE6601"/>
<path opacity="0.7" d="M292.266 409.957C279.779 396.527 270.985 379.427 266.911 360.652C277.035 347.757 302.497 333.557 320.451 328.672C323.999 346.441 331.979 362.74 343.475 375.703C324.721 384.78 300.718 403.252 292.266 409.957Z" fill="white"/>
<path opacity="0.7" d="M305.717 346.017C304.585 346.289 303.589 347.028 302.928 348.085C302.268 349.143 301.993 350.439 302.158 351.713C302.286 352.323 302.524 352.898 302.858 353.403C303.192 353.908 303.615 354.333 304.1 354.651C304.586 354.969 305.125 355.174 305.685 355.254C306.244 355.333 306.812 355.286 307.354 355.114C308.494 354.86 309.502 354.125 310.165 353.063C310.828 352.001 311.096 350.695 310.913 349.418C310.785 348.808 310.547 348.233 310.213 347.728C309.879 347.223 309.457 346.798 308.971 346.48C308.485 346.162 307.946 345.957 307.387 345.877C306.827 345.798 306.259 345.845 305.717 346.017Z" fill="white"/>
<path opacity="0.7" d="M284.543 397.279L290.593 366.486L325.343 374.733L312.461 368.563L316.019 358.437L333.724 366.091C335.765 369.205 337.969 372.184 340.325 375.01C322.816 383.969 301.963 399.771 292.39 407.287C289.557 404.169 286.935 400.824 284.543 397.279Z" fill="white"/>
<path d="M432.165 432.172C414.265 432.172 396.579 422.006 390.28 415.143C376.75 396.136 368.578 373.105 366.793 348.949C370.476 349.344 374.159 349.542 377.771 349.542C405.119 349.542 422.877 338.032 427.592 334.512C433.677 377.151 464.192 403.396 469.459 407.687C463.659 417.477 453.445 425.368 439.211 431.123C438.517 431.42 437.805 431.677 437.094 431.914C435.456 432.098 433.811 432.184 432.165 432.172Z" fill="#FAFAFA"/>
<path d="M426.97 336.351C433.375 376.716 461.31 402.169 468.232 407.925C462.467 417.121 452.645 424.577 438.962 430.095C438.304 430.372 437.645 430.609 436.969 430.846C435.373 431.023 433.769 431.109 432.165 431.104C414.621 431.104 397.308 421.215 391.045 414.471C377.907 395.974 369.872 373.641 367.914 350.175C371.242 350.491 374.569 350.65 377.825 350.65C403.75 350.65 420.795 340.761 427.023 336.351M428.446 332.692C428.446 332.692 410.013 348.514 377.825 348.514C373.807 348.505 369.792 348.261 365.797 347.782C367.442 372.634 375.753 396.367 389.657 415.915C396.348 423.193 414.408 433.259 432.218 433.259C433.954 433.263 435.689 433.157 437.414 432.943C438.161 432.705 438.926 432.409 439.674 432.112C451.506 427.346 464.05 419.633 470.918 407.391C470.918 407.391 434.46 380.276 428.446 332.692Z" fill="#E0E0E0"/>
<path d="M425.154 345.785L431.578 367.184C426.289 372.494 419.699 375.936 412.646 377.072L406.792 354.704C413.372 353.072 419.607 350.043 425.154 345.785Z" fill="#FE6601"/>
<path opacity="0.7" d="M425.154 345.785L431.578 367.184C426.289 372.494 419.699 375.936 412.646 377.072L406.792 354.704C413.372 353.072 419.607 350.043 425.154 345.785Z" fill="white"/>
<path d="M378.02 359.372C386.698 359.467 395.359 358.525 403.856 356.563" stroke="#E0E0E0" stroke-width="0.812789" stroke-linecap="round" stroke-linejoin="round"/>
<path d="M380.351 370.704C389.076 370.611 397.767 369.484 406.276 367.342" stroke="#E0E0E0" stroke-width="0.812789" stroke-linecap="round" stroke-linejoin="round"/>
<path d="M384.106 381.977C392.506 381.663 400.854 380.384 409.016 378.16" stroke="#E0E0E0" stroke-width="0.812789" stroke-linecap="round" stroke-linejoin="round"/>
<path d="M389.088 392.775C408.287 391.351 423.891 386.585 434.745 377.408" stroke="#E0E0E0" stroke-width="0.812789" stroke-linecap="round" stroke-linejoin="round"/>
<path d="M395.102 402.96C414.265 401.082 429.763 395.939 440.456 386.486" stroke="#E0E0E0" stroke-width="0.812789" stroke-linecap="round" stroke-linejoin="round"/>
<path d="M401.917 412.335C421.062 409.981 436.471 404.424 446.969 394.753" stroke="#E0E0E0" stroke-width="0.812789" stroke-linecap="round" stroke-linejoin="round"/>
<path d="M409.354 420.661C428.464 417.873 443.766 411.959 454.086 402.011" stroke="#E0E0E0" stroke-width="0.812789" stroke-linecap="round" stroke-linejoin="round"/>
<path d="M417.201 427.781C436.275 424.518 451.488 418.248 461.684 408.004" stroke="#E0E0E0" stroke-width="0.812789" stroke-linecap="round" stroke-linejoin="round"/>
<path d="M437.361 432.943C427.824 433.437 421.347 423.054 420.511 415.914C414.763 419.87 400.28 422.56 389.604 415.914C399.159 427.642 426.382 435.771 437.361 432.943Z" fill="#EBEBEB"/>
<path opacity="0.7" d="M424.728 348.454C419.72 351.916 414.299 354.579 408.625 356.365L409.799 361.29C409.799 361.29 409.799 358.857 410.974 358.442C413.963 357.354 416.739 356.108 416.739 356.108C416.739 356.108 419.71 365.858 420.102 367.975C420.229 368.442 420.271 368.933 420.225 369.419C420.179 369.904 420.046 370.375 419.833 370.803C419.621 371.23 419.334 371.606 418.989 371.909C418.644 372.211 418.248 372.433 417.824 372.563L418.233 373.532C420.995 372.402 423.633 370.929 426.098 369.141L425.76 368.37C425.76 368.37 422.735 369.675 421.845 367.164C420.956 364.652 418.411 355.297 418.411 355.297C418.411 355.297 422.432 353.062 423.393 352.449C423.934 352.148 424.559 352.089 425.138 352.284C425.717 352.479 426.207 352.913 426.507 353.498L424.728 348.454Z" fill="white"/>
<path d="M566.365 413.136C559.81 391.392 547.094 372.594 530.12 359.559C530.12 359.559 495.53 395.534 473.858 406.748C490.332 418.882 502.331 437.196 507.665 458.346C526.188 452.215 556.97 430.994 566.365 413.136Z" fill="#F5F5F5"/>
<path d="M530.511 366.244C544.495 378.086 555.154 394.111 561.24 412.443C552.45 426.742 528.305 444.384 510.886 451.642C505.386 434.301 495.606 419.031 482.666 407.578C500.601 395.85 522.718 374.115 530.511 366.244Z" fill="#FE6601"/>
<path opacity="0.7" d="M530.511 366.244C544.495 378.086 555.154 394.111 561.24 412.443C552.45 426.742 528.305 444.384 510.886 451.642C505.386 434.301 495.606 419.031 482.666 407.578C500.601 395.85 522.718 374.115 530.511 366.244Z" fill="white"/>
<path opacity="0.7" d="M523.75 424.152C521.136 417.44 516.952 411.628 511.633 407.321C519.294 405.44 526.549 401.905 532.985 396.918C532.985 396.918 534.96 408.488 523.75 424.152Z" fill="white"/>
<path d="M577.407 217.135C566.545 204.68 560.172 153.985 570.757 144.104H624.645C635.23 153.96 628.857 204.655 617.995 217.123L617.696 217.455L617.319 217.874C617.02 218.207 616.687 218.527 616.344 218.847L616.078 219.081C615.812 219.315 615.557 219.549 615.257 219.771C614.809 220.136 614.343 220.474 613.861 220.781C604.927 226.584 590.441 226.584 581.508 220.781C581.022 220.474 580.552 220.137 580.1 219.771C579.823 219.562 579.579 219.34 579.335 219.118L579.014 218.835C578.691 218.521 578.384 218.188 578.094 217.837L577.662 217.369L577.407 217.135Z" fill="#FE6601"/>
<g opacity="0.7">
<path d="M577.407 217.135C566.545 204.68 560.172 153.985 570.757 144.104H624.645C635.23 153.96 628.857 204.655 617.995 217.123L617.696 217.455L617.319 217.874C617.02 218.207 616.687 218.527 616.344 218.847L616.078 219.081C615.812 219.315 615.557 219.549 615.257 219.771C614.809 220.136 614.343 220.474 613.861 220.781C604.927 226.584 590.441 226.584 581.508 220.781C581.022 220.474 580.552 220.137 580.1 219.771C579.823 219.562 579.579 219.34 579.335 219.118L579.014 218.835C578.691 218.521 578.384 218.188 578.094 217.837L577.662 217.369L577.407 217.135Z" fill="white"/>
</g>
<path d="M619.968 140.125C632.27 148.108 632.27 161.068 619.968 169.027C607.665 176.985 587.736 177.01 575.445 169.027C563.153 161.044 563.142 148.084 575.445 140.125C587.747 132.167 607.676 132.154 619.968 140.125Z" fill="#FE6601"/>
<g opacity="0.85">
<path d="M619.968 140.125C632.27 148.108 632.27 161.068 619.968 169.027C607.665 176.985 587.736 177.01 575.445 169.027C563.153 161.044 563.142 148.084 575.445 140.125C587.747 132.167 607.676 132.154 619.968 140.125Z" fill="white"/>
</g>
<path d="M614.06 143.92C623.082 149.784 623.082 159.282 614.06 165.146C605.038 171.01 590.386 170.998 581.353 165.146C572.319 159.294 572.319 149.784 581.353 143.92C590.386 138.056 605.027 138.105 614.06 143.92Z" fill="#FE6601"/>
<g opacity="0.75">
<path d="M614.06 143.92C623.082 149.784 623.082 159.282 614.06 165.146C605.038 171.01 590.386 170.998 581.353 165.146C572.319 159.294 572.319 149.784 581.353 143.92C590.386 138.056 605.027 138.105 614.06 143.92Z" fill="white"/>
</g>
<path d="M581.352 154.034C590.385 148.182 605.027 148.182 614.06 154.034C616.247 155.373 618.105 157.29 619.469 159.615C618.105 161.94 616.247 163.856 614.06 165.195C605.027 171.047 590.385 171.047 581.352 165.195C579.165 163.856 577.307 161.94 575.943 159.615C577.307 157.29 579.165 155.373 581.352 154.034Z" fill="#FAFAFA"/>
<path d="M598.942 152.211C600.142 152.447 601.352 152.616 602.567 152.716C607.089 152.937 612.642 150.437 617.618 147.985C620.943 146.371 625.377 144.178 627.449 140.396C628.491 138.536 628.89 135.961 627.915 134.236C626.94 132.512 624.501 131.883 624.036 129.666C627.516 127.091 631.983 126.955 634.953 123.506C637.082 120.801 638.49 117.491 639.021 113.946C639.431 111.839 639.431 108.957 638.433 107.318C637.247 105.384 634.842 105.544 632.781 105.79C632.249 105.895 631.703 105.861 631.185 105.692C630.921 105.586 630.694 105.392 630.535 105.136C630.376 104.879 630.293 104.574 630.298 104.263C630.366 103.862 630.518 103.485 630.741 103.162C630.965 102.839 631.253 102.579 631.584 102.403C632.858 101.479 634.222 100.752 635.452 99.7415C636.771 98.7616 637.789 97.3556 638.367 95.713C638.843 93.6858 638.793 91.5501 638.223 89.5532C637.569 86.2156 636.737 82.9244 635.729 79.6975C635.485 78.9214 633.678 71.0738 633.933 70.9999C626.718 71.2217 619.303 74.1661 612.597 77.9851C608.851 80.1164 603.52 83.9724 602.434 89.3684C602.174 90.867 602.215 92.4111 602.556 93.8897C602.735 94.536 602.95 95.1696 603.199 95.7869C603.332 96.1811 603.875 97.6965 602.955 97.1914C602.75 97.0586 602.582 96.8671 602.467 96.637L598.909 90.9453C598.612 90.3402 598.156 89.8502 597.601 89.5409C596.404 89.0481 593.567 90.5634 590.851 94.4687C589.126 97.1857 588.162 100.409 588.08 103.733C587.792 108.944 589.189 113.86 590.463 118.64L587.249 114.944C583.492 110.669 582.816 120.746 582.927 122.841C583.281 128.348 585.265 136.479 587.759 140.852C590.663 145.928 594.088 150.178 598.942 152.211Z" fill="#FE6601"/>
<path opacity="0.3" d="M598.942 152.211C600.142 152.447 601.352 152.616 602.567 152.716C607.089 152.937 612.642 150.437 617.618 147.985C620.943 146.371 625.377 144.178 627.449 140.396C628.491 138.536 628.89 135.961 627.915 134.236C626.94 132.512 624.501 131.883 624.036 129.666C627.516 127.091 631.983 126.955 634.953 123.506C637.082 120.801 638.49 117.491 639.021 113.946C639.431 111.839 639.431 108.957 638.433 107.318C637.247 105.384 634.842 105.544 632.781 105.79C632.249 105.895 631.703 105.861 631.185 105.692C630.921 105.586 630.694 105.392 630.535 105.136C630.376 104.879 630.293 104.574 630.298 104.263C630.366 103.862 630.518 103.485 630.741 103.162C630.965 102.839 631.253 102.579 631.584 102.403C632.858 101.479 634.222 100.752 635.452 99.7415C636.771 98.7616 637.789 97.3556 638.367 95.713C638.843 93.6858 638.793 91.5501 638.223 89.5532C637.569 86.2156 636.737 82.9244 635.729 79.6975C635.485 78.9214 633.678 71.0738 633.933 70.9999C626.718 71.2217 619.303 74.1661 612.597 77.9851C608.851 80.1164 603.52 83.9724 602.434 89.3684C602.174 90.867 602.215 92.4111 602.556 93.8897C602.735 94.536 602.95 95.1696 603.199 95.7869C603.332 96.1811 603.875 97.6965 602.955 97.1914C602.75 97.0586 602.582 96.8671 602.467 96.637L598.909 90.9453C598.612 90.3402 598.156 89.8502 597.601 89.5409C596.404 89.0481 593.567 90.5634 590.851 94.4687C589.126 97.1857 588.162 100.409 588.08 103.733C587.792 108.944 589.189 113.86 590.463 118.64L587.249 114.944C583.492 110.669 582.816 120.746 582.927 122.841C583.281 128.348 585.265 136.479 587.759 140.852C590.663 145.928 594.088 150.178 598.942 152.211Z" fill="white"/>
<path d="M604.063 125.181C602.823 117.088 599.984 109.401 595.75 102.673L595.662 102.513C595.582 102.364 595.555 102.189 595.583 102.019C595.612 101.849 595.695 101.696 595.817 101.589C595.869 101.535 595.931 101.494 595.998 101.469C596.066 101.444 596.138 101.437 596.209 101.446C596.28 101.455 596.348 101.482 596.408 101.524C596.469 101.565 596.52 101.622 596.559 101.688L596.648 101.836C600.597 108.175 603.363 115.33 604.783 122.878C611.034 103.166 621.309 83.1716 627.272 76.9502C627.323 76.887 627.385 76.8364 627.455 76.8018C627.525 76.7672 627.6 76.7493 627.677 76.7493C627.753 76.7493 627.828 76.7672 627.898 76.8018C627.968 76.8364 628.03 76.887 628.081 76.9502C628.17 77.1049 628.208 77.2891 628.187 77.4713C628.167 77.6535 628.09 77.8221 627.97 77.9481C622.085 84.1079 611.943 103.819 605.803 123.272C616.199 114.266 626.629 115.227 626.74 115.239C626.813 115.251 626.882 115.279 626.945 115.322C627.007 115.365 627.061 115.422 627.102 115.489C627.144 115.556 627.173 115.632 627.186 115.712C627.2 115.792 627.199 115.874 627.183 115.954C627.163 116.071 627.12 116.181 627.057 116.277C626.993 116.373 626.912 116.452 626.818 116.508C626.73 116.534 626.639 116.534 626.552 116.508C626.452 116.508 615.568 115.486 605.127 125.391C602.356 134.594 600.549 143.611 600.605 150.917C600.605 151.051 600.576 151.182 600.52 151.3C600.464 151.419 600.383 151.52 600.283 151.595C600.209 151.645 600.126 151.679 600.04 151.693C599.962 151.701 599.884 151.689 599.811 151.66C599.738 151.63 599.672 151.583 599.617 151.522C599.562 151.461 599.52 151.387 599.493 151.306C599.467 151.225 599.456 151.139 599.463 151.052C599.397 143.722 601.237 134.557 604.063 125.181Z" fill="white"/>
<path d="M599.286 162.054C598.965 162.226 596.427 162.867 596.072 162.941C592.037 163.705 587.017 162.411 582.494 161.068C579.513 160.194 575.501 158.986 573.506 156.141C572.975 155.479 572.634 154.658 572.525 153.78C572.417 152.902 572.546 152.009 572.896 151.213C573.772 149.587 575.866 148.86 576.221 146.987C573.04 145.361 569.039 145.841 566.246 143.414C564.28 141.533 562.906 139.004 562.322 136.195C561.798 134.392 561.917 132.434 562.655 130.725C563.641 129.001 565.803 128.828 567.642 128.754C568.132 128.762 568.618 128.662 569.072 128.459C569.29 128.356 569.477 128.184 569.609 127.965C569.74 127.747 569.812 127.49 569.815 127.227C569.759 126.574 569.161 126.155 568.618 125.884C567.443 125.305 566.213 124.898 565.071 124.245C563.901 123.643 562.945 122.624 562.355 121.35C561.895 119.726 561.895 117.985 562.355 116.361C562.838 113.535 563.478 110.745 564.273 108.008C564.472 107.355 565.847 100.69 565.614 100.715C572.054 99.951 578.759 101.368 584.866 103.585C588.269 104.817 593.146 107.281 594.276 111.507C594.556 112.719 594.556 113.99 594.276 115.203C594.14 115.757 593.969 116.3 593.767 116.829C593.667 117.161 593.223 118.467 594.033 117.938C594.205 117.805 594.346 117.627 594.443 117.42L597.446 112.283C597.702 111.743 598.085 111.292 598.555 110.977C599.608 110.41 602.19 111.273 604.728 114.082C606.346 116.055 607.318 118.576 607.488 121.239C607.898 125.416 606.845 129.592 605.803 133.645L608.563 130.245C611.788 126.278 612.72 134.372 612.664 136.097C612.398 141.42 611.113 146.62 608.896 151.348C606.479 155.87 603.587 159.775 599.286 162.054Z" fill="#FE6601"/>
<path opacity="0.5" d="M599.286 162.054C598.965 162.226 596.427 162.867 596.072 162.941C592.037 163.705 587.017 162.411 582.494 161.068C579.513 160.194 575.501 158.986 573.506 156.141C572.975 155.479 572.634 154.658 572.525 153.78C572.417 152.902 572.546 152.009 572.896 151.213C573.772 149.587 575.866 148.86 576.221 146.987C573.04 145.361 569.039 145.841 566.246 143.414C564.28 141.533 562.906 139.004 562.322 136.195C561.798 134.392 561.917 132.434 562.655 130.725C563.641 129.001 565.803 128.828 567.642 128.754C568.132 128.762 568.618 128.662 569.072 128.459C569.29 128.356 569.477 128.184 569.609 127.965C569.74 127.747 569.812 127.49 569.815 127.227C569.759 126.574 569.161 126.155 568.618 125.884C567.443 125.305 566.213 124.898 565.071 124.245C563.901 123.643 562.945 122.624 562.355 121.35C561.895 119.726 561.895 117.985 562.355 116.361C562.838 113.535 563.478 110.745 564.273 108.008C564.472 107.355 565.847 100.69 565.614 100.715C572.054 99.951 578.759 101.368 584.866 103.585C588.269 104.817 593.146 107.281 594.276 111.507C594.556 112.719 594.556 113.99 594.276 115.203C594.14 115.757 593.969 116.3 593.767 116.829C593.667 117.161 593.223 118.467 594.033 117.938C594.205 117.805 594.346 117.627 594.443 117.42L597.446 112.283C597.702 111.743 598.085 111.292 598.555 110.977C599.608 110.41 602.19 111.273 604.728 114.082C606.346 116.055 607.318 118.576 607.488 121.239C607.898 125.416 606.845 129.592 605.803 133.645L608.563 130.245C611.788 126.278 612.72 134.372 612.664 136.097C612.398 141.42 611.113 146.62 608.896 151.348C606.479 155.87 603.587 159.775 599.286 162.054Z" fill="white"/>
<path d="M593.9 140.778C594.835 133.852 597.132 127.24 600.627 121.412L600.705 121.276C600.77 121.153 600.79 121.007 600.758 120.869C600.727 120.73 600.648 120.611 600.539 120.537C600.485 120.501 600.425 120.478 600.363 120.468C600.301 120.458 600.238 120.462 600.177 120.479C600.117 120.496 600.059 120.526 600.009 120.568C599.959 120.61 599.917 120.662 599.885 120.722L599.807 120.857C596.529 126.351 594.268 132.516 593.157 138.992C586.972 123.826 577.197 108.92 571.699 104.657C571.645 104.601 571.58 104.559 571.51 104.533C571.44 104.507 571.365 104.498 571.292 104.507C571.218 104.515 571.147 104.541 571.083 104.582C571.019 104.624 570.964 104.68 570.921 104.747C570.878 104.814 570.849 104.891 570.834 104.971C570.82 105.052 570.822 105.135 570.839 105.215C570.856 105.295 570.888 105.371 570.933 105.436C570.978 105.501 571.035 105.555 571.101 105.593C576.532 109.807 586.185 124.529 592.259 139.497C586.505 135.926 579.842 134.594 573.328 135.715C573.222 135.741 573.127 135.806 573.059 135.9C572.991 135.994 572.954 136.111 572.954 136.232C572.954 136.353 572.991 136.47 573.059 136.564C573.127 136.658 573.222 136.724 573.328 136.75C573.405 136.768 573.484 136.768 573.561 136.75C580.288 135.587 587.167 137.148 592.946 141.148C595.706 148.268 597.59 155.352 597.757 161.29C597.762 161.398 597.794 161.502 597.849 161.591C597.903 161.68 597.979 161.751 598.067 161.795C598.14 161.814 598.216 161.814 598.289 161.795C598.357 161.794 598.424 161.777 598.486 161.746C598.548 161.716 598.604 161.671 598.65 161.616C598.697 161.561 598.733 161.496 598.756 161.426C598.78 161.355 598.79 161.279 598.788 161.204C598.621 155.217 596.704 148.022 593.9 140.778Z" fill="white"/>
<path d="M704.141 372.294C704.171 371.941 704.119 371.585 703.99 371.26C703.861 370.936 703.658 370.654 703.402 370.442L698.497 367.292C698.198 367.142 697.869 367.083 697.543 367.12C697.217 367.157 696.905 367.289 696.64 367.504L621.395 415.726L619.371 408.21C619.213 407.532 618.819 406.951 618.276 406.595L613.347 403.472C612.985 403.24 612.574 403.118 612.156 403.118C611.738 403.118 611.328 403.24 610.966 403.472L578.63 424.222C577.865 424.776 577.23 425.522 576.775 426.401C576.319 427.279 576.057 428.265 576.01 429.278V549.04C575.977 549.391 576.025 549.746 576.15 550.07C576.275 550.394 576.473 550.678 576.725 550.893L581.606 554.042C581.899 554.167 582.214 554.21 582.525 554.169C582.837 554.127 583.134 554.002 583.392 553.804L701.426 478.056C702.193 477.504 702.832 476.758 703.292 475.88C703.751 475.002 704.017 474.015 704.069 473.001L704.141 372.294Z" fill="#FE6601"/>
<g opacity="0.5">
<path d="M618.228 406.515C617.866 406.283 617.455 406.161 617.037 406.161C616.619 406.161 616.208 406.283 615.846 406.515L583.534 427.292C582.772 427.845 582.136 428.588 581.677 429.462L576.748 426.313C577.186 425.415 577.826 424.658 578.605 424.116L610.941 403.472C611.303 403.24 611.714 403.117 612.132 403.117C612.55 403.117 612.96 403.24 613.322 403.472L618.228 406.515Z" fill="white"/>
<path d="M703.283 370.335C702.997 370.236 702.695 370.208 702.399 370.254C702.102 370.3 701.819 370.418 701.568 370.6L625.562 419.352C625.248 419.558 624.896 419.68 624.532 419.711C624.169 419.741 623.804 419.679 623.466 419.528C623.128 419.377 622.825 419.142 622.582 418.841C622.338 418.54 622.16 418.18 622.061 417.791L621.466 415.62L696.711 367.398C697.057 367.142 697.462 367.004 697.877 367.001C698.118 366.993 698.357 367.057 698.568 367.186L703.283 370.335Z" fill="white"/>
</g>
<path opacity="0.2" d="M581.272 553.751L581.534 554.068L576.772 550.998C576.58 550.86 576.424 550.668 576.319 550.442C576.306 550.328 576.306 550.212 576.319 550.098C576.22 549.793 576.171 549.47 576.177 549.145V429.251C576.166 429.136 576.166 429.021 576.177 428.906C576.177 428.668 576.177 428.43 576.177 428.165V427.821C576.287 427.449 576.423 427.086 576.581 426.736C576.581 426.604 576.581 426.498 576.748 426.392L581.677 429.542C581.207 430.416 580.945 431.409 580.915 432.427V552.269C580.903 552.445 580.903 552.622 580.915 552.798C580.904 552.886 580.904 552.975 580.915 553.063C580.915 553.063 580.915 553.063 580.915 553.221V553.407C581.014 553.545 581.135 553.662 581.272 553.751Z" fill="black"/>
<path d="M665.446 447.83C665.446 465.881 655.588 486.816 643.396 494.65C631.205 502.484 621.371 494.147 621.371 476.123C621.371 458.099 631.229 437.138 643.396 429.33C655.564 421.522 665.446 429.939 665.446 447.83Z" fill="#FAFAFA"/>
<path d="M655.422 446.957L644.969 438.17H644.731C644.547 438.057 644.356 437.959 644.159 437.879H643.707H643.397C643.302 437.867 643.206 437.867 643.111 437.879C643.025 437.865 642.936 437.865 642.849 437.879C642.787 437.864 642.722 437.864 642.659 437.879C642.46 437.954 642.269 438.052 642.088 438.17L641.73 438.434C641.568 438.61 641.424 438.805 641.302 439.017C641.302 439.017 641.159 439.149 641.111 439.255L630.658 461.461C630.34 462.138 630.276 462.928 630.481 463.658C630.687 464.387 631.144 464.996 631.753 465.351C632.13 465.561 632.546 465.67 632.968 465.669C633.455 465.69 633.937 465.557 634.359 465.285C634.78 465.013 635.124 464.614 635.349 464.134L640.921 452.303V483.64C640.983 484.354 641.281 485.017 641.759 485.499C642.237 485.981 642.859 486.249 643.504 486.249C644.15 486.249 644.772 485.981 645.25 485.499C645.727 485.017 646.026 484.354 646.088 483.64V446.242L652.398 451.535C652.664 451.808 652.979 452.015 653.321 452.144C653.664 452.274 654.027 452.322 654.387 452.286C654.747 452.25 655.097 452.131 655.413 451.936C655.73 451.741 656.006 451.475 656.225 451.154C656.443 450.834 656.599 450.466 656.682 450.074C656.765 449.683 656.773 449.277 656.706 448.881C656.64 448.486 656.5 448.111 656.295 447.779C656.09 447.448 655.825 447.168 655.517 446.957H655.422Z" fill="#FE6601"/>
<path d="M661 575C721.199 575 770 572.314 770 569C770 565.686 721.199 563 661 563C600.801 563 552 565.686 552 569C552 572.314 600.801 575 661 575Z" fill="#D1D3D4"/>
</svg>
