<?xml version="1.0" encoding="UTF-8"?>
<svg id="Layer_2" data-name="Layer 2" xmlns="http://www.w3.org/2000/svg" viewBox="0 0 897.21 800.34">
  <defs>
    <style>
      .cls-1 {
        fill: #f16723;
      }

      .cls-2 {
        fill: #010101;
      }
    </style>
  </defs>
  <g id="Layer_1-2" data-name="Layer 1">
    <g>
      <path class="cls-1" d="M90.04,523.43c1.16,2.84-.01,5.92-3.7,7.43-3.64,1.49-6.59.11-7.76-2.73-1.18-2.89-.03-5.9,3.61-7.39,3.69-1.51,6.66-.19,7.85,2.7ZM128.2,604.72c-2.5,1.94-2.7,5.13-.71,7.71,2,2.58,5.17,3.22,7.67,1.28,2.5-1.94,2.71-5.2.71-7.78-2-2.58-5.18-3.16-7.68-1.21ZM147.25,630.29c-1.67,2.22-1.56,4.87.37,6.94,1.93,2.07,4.53,2.33,6.9.85l-7.26-7.79ZM58.18,401.48c3.98-.1,6.18-2.5,6.1-5.62-.07-3.07-2.38-5.37-6.36-5.27-3.93.1-6.08,2.5-6.01,5.57.07,3.12,2.34,5.41,6.27,5.32ZM108.31,578.45c-2.05,1.88-2.42,4.51-.89,6.89,1.52,2.39,4.04,3.12,6.63,2.09l-5.74-8.98ZM244.14,88.37c2.73-1.51,3.7-4.62,1.78-8.1-1.9-3.45-5.02-4.24-7.76-2.74-2.69,1.48-3.72,4.57-1.82,8.02,1.92,3.49,5.11,4.3,7.8,2.82ZM315.14,57.15c3.14-.89,4.86-3.63,3.99-6.67-.87-3.05-3.75-4.42-6.89-3.53-3.14.89-4.92,3.59-4.05,6.64.87,3.05,3.81,4.46,6.95,3.56ZM90.21,257.53c1.41.62,2.92-.08,3.78-2.06.81-1.85.64-3.86-.96-5.34l-2.07-.9-1.58,3.6c-1.17,2.68-.63,4.07.82,4.71ZM285.79,68.9c2.91-1.13,4.28-4.08,2.84-7.8-1.42-3.67-4.41-4.87-7.32-3.74-2.86,1.11-4.3,4.04-2.87,7.7,1.44,3.71,4.49,4.95,7.36,3.83ZM588.98,636.41h134.39c-70.91,96.86-184.33,160.66-312.84,163.93h-10.32c-116.69,0-221.71-49.94-294.84-129.62-1.59-1.74-3.15-3.48-4.71-5.25-1.47-1.62-2.88-3.27-4.29-4.92-1.53-1.74-3.03-3.54-4.53-5.31-1.83-2.22-3.63-4.44-5.4-6.72-.42-.48-.81-1.02-1.2-1.53-1.74-2.16-3.42-4.35-5.07-6.54-2.43-3.24-4.83-6.54-7.17-9.87-1.23-1.74-2.46-3.45-3.63-5.22-.72-1.05-1.41-2.07-2.13-3.12-1.56-2.34-3.09-4.68-4.59-7.05-1.53-2.37-3-4.77-4.44-7.17-1.89-3.03-3.69-6.09-5.46-9.18-.18-.3-.33-.57-.51-.87-.51-.9-.99-1.8-1.5-2.7-.48-.81-.93-1.62-1.38-2.46-.48-.84-.93-1.65-1.35-2.49-.39-.72-.78-1.44-1.17-2.19-.27-.45-.51-.93-.75-1.38-1.08-2.04-2.13-4.08-3.18-6.15-.06-.12-.15-.27-.21-.42-.06-.12-.12-.21-.18-.33-1.05-2.1-2.1-4.23-3.12-6.36-.9-1.86-1.77-3.72-2.64-5.61-.42-.9-.84-1.8-1.23-2.7-.66-1.41-1.29-2.82-1.92-4.26-.99-2.28-1.98-4.56-2.94-6.87-.3-.78-.63-1.53-.96-2.31-1.08-2.64-2.16-5.31-3.18-8.01-.39-1.05-.78-2.1-1.17-3.15-.03-.06-.03-.09-.06-.15-.87-2.28-1.74-4.59-2.55-6.9-.93-2.61-1.8-5.22-2.7-7.83-3.48-10.53-6.54-21.27-9.12-32.19-1.29-5.43-2.49-10.92-3.57-16.41-4.86-24.87-7.38-50.57-7.38-76.88s2.55-52.04,7.38-76.97c1.08-5.52,2.28-11.01,3.57-16.47,2.61-10.92,5.67-21.66,9.12-32.19.9-2.61,1.77-5.22,2.7-7.83.81-2.31,1.65-4.62,2.55-6.9.39-1.11.81-2.22,1.23-3.3,1.02-2.7,2.1-5.37,3.18-8.01,1.26-3.09,2.55-6.15,3.9-9.18.63-1.44,1.26-2.85,1.92-4.26.39-.9.78-1.8,1.23-2.7.87-1.89,1.74-3.75,2.64-5.61,2.37-4.95,4.83-9.81,7.44-14.64.39-.72.78-1.47,1.17-2.19.75-1.44,1.56-2.88,2.37-4.29.75-1.35,1.5-2.7,2.25-4.02.03-.06.06-.12.12-.18,1.74-3.09,3.57-6.18,5.46-9.21,1.44-2.4,2.91-4.8,4.44-7.17,1.5-2.37,3.03-4.71,4.59-7.05.72-1.05,1.41-2.1,2.13-3.12,1.17-1.77,2.4-3.48,3.63-5.22,2.31-3.33,4.71-6.6,7.17-9.84,1.86-2.49,3.78-4.98,5.73-7.44,1.95-2.49,3.93-4.95,5.94-7.38,1.83-2.19,3.66-4.35,5.55-6.51.78-.93,1.59-1.83,2.4-2.76,1.83-2.1,3.69-4.17,5.58-6.21C178.51,49.94,283.53,0,400.22,0h10.32c128.51,3.27,241.92,67.07,312.84,163.93h-134.39c-16.5-13.23-34.44-24.75-53.51-34.32-40.74-20.46-86.66-31.98-135.25-31.98-71.33,0-136.99,24.84-188.77,66.29-34.56,27.66-62.93,62.75-82.67,102.83-11.79,23.91-20.52,49.55-25.65,76.49-.54,2.85-1.05,5.73-1.5,8.64-.48,2.85-.9,5.73-1.29,8.64-1.68,12.99-2.58,26.25-2.58,39.72,0,19.44,1.83,38.43,5.37,56.84,5.13,26.94,13.86,52.58,25.65,76.49,19.74,40.08,48.11,75.17,82.67,102.83,51.77,41.46,117.44,66.29,188.77,66.29,48.56,0,94.52-11.52,135.23-31.98,19.08-9.57,37.02-21.09,53.54-34.32ZM327.9,35.52l15.82,23.83c-.47,1.65-1.34,2.5-3.08,2.83-1.41.27-3.03-.02-4.24-.76l-1.93,6.86c1.97,1.1,5.15,1.42,7.84.92,5.05-.95,8.46-3.6,9.9-10.71l6.03-28.68-8.54,1.61-3.38,16.8-9.21-14.43-9.2,1.73ZM299.33,56.11c2.1,7.39,9.07,10.5,15.72,8.61,3.19-.91,5.45-2.6,6.59-5.07l.23.83c1.12,3.92-.26,6.61-4.97,7.95-2.96.84-6.66.8-9.21-.28l-1.44,7.05c3.66,1.31,8.55,1.11,13.35-.25,9.33-2.65,13.41-8.65,10.72-18.12l-5.81-20.46-8.36,2.38.87,3.05c-2.38-1.87-5.37-2.22-8.83-1.23-6.65,1.89-10.94,8.2-8.86,15.54ZM269.85,68.41c2.85,7.34,10.65,10.33,18.57,7.25,8.01-3.11,11.65-10.55,8.8-17.88-2.83-7.29-10.53-10.27-18.53-7.16-7.92,3.08-11.67,10.5-8.84,17.79ZM248.27,53.81l15.09,32.25,8.26-3.87-15.09-32.25-8.26,3.86ZM228.27,89.99c3.8,6.89,11.93,8.82,19.37,4.72,7.52-4.15,10.15-12.01,6.35-18.9-3.78-6.85-11.8-8.78-19.33-4.64-7.44,4.1-10.17,11.96-6.39,18.81ZM194.45,97.11l14.61,21.52,7.54-5.12-7.06-10.4c-2.43-3.57-1.58-6.35.84-7.99,2.19-1.48,4.42-1.09,6.53,2.01l7.52,11.08,7.55-5.12-8.35-12.31c-4.53-6.67-10.35-6.95-15.39-3.53-2.7,1.83-4.5,4.39-5,7.34l-1.59-2.34-7.19,4.88ZM161.49,111.42l22.7,27.47,7.03-5.81-8.01-9.7c-2.75-3.33-2.18-6.18.08-8.04,2.04-1.68,4.3-1.5,6.69,1.39l8.54,10.33,7.03-5.81-9.48-11.48c-5.14-6.22-10.96-5.95-15.67-2.07-2.37,1.96-3.87,4.44-4.23,7.17l-7.65-9.25-7.03,5.81ZM154.1,150.05c5.56,5.64,13.88,5.27,20.1-.86,4.21-4.14,5.57-9.19,3.67-13.65l-7.55,2.38c.83,2.62.27,4.65-1.24,6.14-2.26,2.22-5.58,2.4-8.42-.47-2.76-2.8-2.53-6.13-.27-8.35,1.5-1.48,3.54-2.01,6.15-1.14l2.5-7.52c-4.43-1.97-9.5-.68-13.71,3.46-6.22,6.13-6.73,14.44-1.24,20.02ZM133.97,173.27c5.9,5.06,14.14,4.23,20.17-2.79,3.22-3.75,4.5-7.45,4.02-11.16l-6.91.39c0,2.35-.54,4.09-2.2,6.02-2.19,2.55-4.82,3.26-7.32,2.12l12.32-14.34c-.52-.51-1.11-1.14-1.62-1.58-6.52-5.59-14.29-4.05-19.29,1.78-5.35,6.22-5.09,14.47.84,19.57ZM100.41,184.4l6.08,4.44,6.08-8.33,21.05,15.37,5.61-7.67-21.05-15.37,6.06-8.3-6.09-4.44-17.75,24.3ZM74.99,224.54l31.65,16.33,4.18-8.1-31.65-16.33-4.18,8.1ZM72.96,258.4l6.9-.33c-.56-2.18-.24-5.08.76-7.37,1.44-3.29,3.52-4.32,6-3.4l-2.08,4.75c-3.23,7.38-1.92,11.78,2.48,13.71,4.13,1.81,8.73.05,11.23-5.67,1.52-3.47,1.37-6.36-.39-8.55l3.08,1.35,3.41-7.78-13.23-5.79c-7.56-3.31-12.94-.37-16.32,7.36-1.64,3.74-2.44,8.2-1.83,11.72ZM65.35,271.87l24.46,8.89,3.12-8.57-24.46-8.89-3.12,8.57ZM64.28,285.22l-2.98-.92-2.55,8.3,24.87,7.62,2.67-8.72-11.42-3.5c-4.36-1.33-5.4-4.31-4.32-7.85.2-.64.41-1.18.74-1.93l-7.85-2.4c-1.12,3.67-.86,6.91.84,9.39ZM57.74,270.18c2.57.93,5.31-.42,6.46-3.58,1.15-3.16-.08-5.96-2.79-6.94-2.57-.94-5.18.47-6.32,3.63-1.15,3.16.08,5.96,2.65,6.89ZM47.98,311.72l6.57,1.59-.89,3.68,6.62,1.6.89-3.69,8.49,2.05c6.49,1.57,10.57-1.45,12.13-7.93.57-2.33.65-4.73.04-6.5l-6.73.69c.33.87.37,1.91.14,2.89-.38,1.58-1.67,2.41-3.54,1.96l-8.4-2.03,1.4-5.78-6.62-1.6-1.4,5.78-6.58-1.59-2.14,8.86ZM50.38,435.13l-2.82.29.9,8.64,25.88-2.68-.94-9.07-12.51,1.3c-4.3.45-6.35-1.61-6.65-4.52-.27-2.63,1.14-4.41,4.86-4.8l13.32-1.38-.94-9.07-14.8,1.53c-8.02.83-11.03,5.83-10.4,11.89.34,3.25,1.74,6.05,4.1,7.88ZM69.8,334.43c-.53,3.12-2.02,6.42-3.89,8.54l5.69,3.74c1.99-2.24,3.84-6.55,4.58-10.9,1.42-8.33-1.53-13.31-6.26-14.11-10.17-1.73-8.91,14.01-12.45,13.41-.95-.16-1.61-1.39-1.1-4.42.39-2.27,1.29-4.74,3.15-7.06l-5.64-3.73c-1.85,2.31-3.29,6.16-3.9,9.75-1.37,8.04,1.56,13.12,6.39,13.94,10.26,1.75,8.91-14.06,12.37-13.47,1.09.18,1.58,1.29,1.07,4.32ZM45.21,374.82l14.49,1.23c8.22.7,12.25-3.63,12.79-9.99.25-2.96-.56-5.83-2.55-7.97l2.77.24.74-8.65-25.92-2.21-.77,9.08,12.48,1.06c4.35.37,5.93,2.72,5.7,5.4-.23,2.73-1.94,4.17-5.96,3.83l-13.01-1.11-.77,9.09ZM47.22,390.99c-1.78,1.77-2.58,4.24-2.51,7.26.17,7.1,5.44,12.68,13.69,12.48,8.3-.2,13.34-6.03,13.17-13.13-.08-3.36-1.1-5.88-3.2-7.55l2.59-.06-.21-8.68-35.59.85.22,9.11,11.85-.28ZM77.02,455.96l-1.64-9.36-33.08,5.8,1.64,9.36,33.08-5.8ZM73.44,512.42l-1.18-3.6,17.33-5.67-2.83-8.67-17.33,5.67-1.85-5.66-6.47,2.12,1.92,5.88-.55.18c-2.19.72-3.58.01-4.18-1.81-.3-.91-.29-1.97-.12-2.84l-6.81-.15c-.4,1.69-.08,4.06.6,6.16,2.16,6.61,7.24,9.04,13.17,7.1l.64-.21,1.18,3.6,6.48-2.12ZM96.74,520.69c-3.26-7.95-10.76-11.46-18.04-8.47-7.24,2.97-10.08,10.72-6.82,18.66,3.22,7.86,10.72,11.48,17.95,8.51,7.28-2.98,10.13-10.84,6.91-18.7ZM120.97,593.72c6.55-4.19,8.13-12.32,3.14-20.13-2.66-4.17-5.84-6.46-9.53-7.07l-1.62,6.73c2.25.67,3.76,1.7,5.13,3.84,1.81,2.83,1.73,5.56-.08,7.63l-10.19-15.94c-.63.35-1.41.73-1.98,1.09-7.24,4.63-8,12.52-3.87,18.99,4.42,6.92,12.39,9.05,18.99,4.84ZM140.81,621c6.07-4.7,6.36-12.33,2.12-17.8-2.03-2.62-4.44-4.09-7.16-4.23l.68-.53c3.23-2.5,6.24-2.22,9.24,1.65,1.88,2.43,3.22,5.88,3.18,8.65l7.07-1.29c-.16-3.89-2.16-8.35-5.22-12.29-5.94-7.67-13.03-9.22-20.81-3.19l-16.81,13.03,5.32,6.87,2.5-1.94c-.85,2.9-.05,5.81,2.15,8.66,4.24,5.46,11.69,7.09,17.73,2.42ZM142.91,641.68c5.6,6,13.82,6.66,19.54,1.33,5.68-5.3,5.76-13.58-.55-20.35-3.37-3.61-6.91-5.3-10.65-5.22l-.37,6.91c2.33.25,4,.99,5.74,2.85,2.29,2.46,2.71,5.15,1.3,7.51l-12.9-13.82c-.56.46-1.25.98-1.75,1.43-6.28,5.86-5.6,13.76-.37,19.37ZM156.71,668.38l24.45-25.9-6.63-6.26-24.45,25.9,6.63,6.26ZM168.65,678.92l23.33-26.91-6.89-5.97-23.33,26.91,6.89,5.97ZM209.88,682.5c4.75-6.27,3.21-14.49-3.56-19.63-6.85-5.19-15.1-4.4-19.86,1.88-4.73,6.24-3.23,14.36,3.62,19.55,6.77,5.13,15.07,4.43,19.8-1.8ZM230.39,679.28c-5.26-3.27-10.68-3.98-15.61-2.24l2.25,7.84c3.13-1.05,6.07-.86,8.8.83,4.69,2.91,5.92,8.19,2.88,13.09-3.04,4.89-8.32,6.13-13.01,3.21-2.73-1.7-4.2-4.24-4.65-7.52l-8.02,1.45c.62,5.19,3.67,9.73,8.93,13,9.05,5.62,19.51,3.59,24.91-5.09,5.39-8.68,2.57-18.96-6.48-24.58ZM286.96,708.23c-4.61-1.79-8.53-1.78-11.86-.09l2.66,6.39c2.21-.79,4.04-.85,6.41.07,3.13,1.22,4.68,3.47,4.44,6.21l-17.62-6.86c-.31.65-.71,1.42-.95,2.05-3.12,8.01.92,14.83,8.07,17.62,7.65,2.98,15.35,0,18.19-7.29,2.82-7.24-.7-14.74-9.33-18.1ZM320.81,757.04l9.82-34.24-8.77-2.52-3.47,12.09c-1.19,4.15-3.86,5.29-6.68,4.48-2.54-.73-3.67-2.7-2.64-6.3l3.69-12.88-8.77-2.51-4.1,14.31c-2.23,7.75,1.29,12.41,7.15,14.09,2.95.85,5.85.68,8.3-.57l-3.31,11.54,8.77,2.51ZM357.1,754.5l-10.13-1.93,4.87-25.59-9.33-1.78-4.87,25.59-10.09-1.92-1.41,7.4,29.55,5.62,1.41-7.4ZM280.41,727.56c2.64,1.03,5.1.13,6.59-2.23l-9.93-3.86c-.54,2.72.71,5.06,3.34,6.09ZM201.94,668.66c-2.49-1.89-5.73-1.51-8.13,1.67-2.38,3.14-1.84,6.32.65,8.2,2.45,1.86,5.69,1.55,8.07-1.59,2.41-3.18,1.86-6.42-.59-8.28ZM144.93,156.75c-2.39-1.42-5.01-1.01-6.85,1.13-1.84,2.15-1.81,4.77-.08,6.95l6.94-8.08ZM896.55,381.38c.61,13.7.87,25.58.48,33.31-2.31,45.91-23.4,85.65-61.31,111.5-18.66,12.72-38.38,19.06-59.46,23.95l-587.5-.03c-8.67-.18-18.03-5.87-18.44-15.09l-.05-203.79c5.58-53.38,83.65-52.43,88.58.91,2.85,30.87-2.78,66.29-.02,97.17.58,6.43,3.13,11.43,10,12.36,5.77.78,14.86.71,20.76.08,5.83-.62,9.9-3.92,10.76-9.87,1.9-84.47-16.72-169.52,63.33-223.82,12.41-8.42,44.52-23.74,59.12-23.4,11.26.26,14.27,6.92,15.07,16.8,2.88,35.33-2.15,74.34.04,110.06-.23,2.88-1.09,8.27-2.89,10.45-1.2,1.45-5,3.41-6.61,4.99-42.47,41.56-21.93,108.34,37.38,114.82h265.73c76.42-8.87,79.63-121.7-2.72-126.3-77.38-4.33-158.55,2.97-236.36-.08-15.5-2.28-24.99-11.24-28.71-26.31l.15-93.45c.91-4.66,4-7.96,8.37-9.69l305.7-.44c22.36,2.95,45.93,9.62,65.14,21.69,9.77,6.14,17.66,18.13,1.46,24.8l-293.87.16c-18.13,4.23-14.31,33.12,2.83,37.8h226.37c62.42,0,113.88,49.09,116.68,111.44Z"/>
      <path class="cls-2" d="M346.88,586.82v-2.45c0-.38.19-.57.57-.57h5.24c.38,0,.57.19.57.57v18.42c0,1.14.22,1.92.65,2.36.44.44,1.13.65,2.08.65h2.17c1.52,0,2.28.96,2.28,2.88,0,1.15-.18,1.91-.54,2.27-.36.36-.94.55-1.74.55h-4.62c-1.86,0-3.31-.33-4.36-.98-1.04-.65-1.74-1.8-2.08-3.46-.8.7-1.75,1.22-2.85,1.57-1.1.35-2.26.52-3.48.52-1.48,0-2.88-.21-4.19-.63-1.31-.42-2.45-1.06-3.42-1.94-.97-.87-1.74-1.99-2.31-3.34-.57-1.35-.86-2.97-.86-4.87,0-2.2.31-4.05.94-5.53.63-1.48,1.46-2.67,2.51-3.56,1.04-.89,2.23-1.53,3.56-1.91,1.33-.38,2.72-.57,4.16-.57h5.7ZM335.99,579.87c-.38,0-.57-.19-.57-.58v-4.95c0-.38.19-.58.57-.58h4.79c.38,0,.57.19.57.58v4.95c0,.38-.19.58-.57.58h-4.79ZM341.52,603.46c1.82,0,3.17-.52,4.05-1.56.87-1.04,1.31-2.56,1.31-4.56v-4.82h-5.07c-1.63,0-2.94.42-3.93,1.25-.99.83-1.48,2.36-1.48,4.59,0,1.74.46,3.02,1.37,3.86.91.83,2.16,1.25,3.76,1.25ZM343.4,579.87c-.38,0-.57-.19-.57-.58v-4.95c0-.38.19-.58.57-.58h4.79c.38,0,.57.19.57.58v4.95c0,.38-.19.58-.57.58h-4.79ZM371.17,608.56c-.53,1.11-1.33,1.88-2.4,2.3-1.08.42-2.52.63-4.33.63h-5.3c-.76,0-1.33-.18-1.71-.55-.38-.36-.57-1.08-.57-2.16s.18-1.89.54-2.33c.36-.44.94-.66,1.74-.66h3.7c.68,0,1.21-.1,1.57-.31.36-.21.63-.53.8-.97.17-.44.28-1,.31-1.7.04-.7.06-1.56.06-2.59v-11.82c0-.23.1-.38.31-.45.21-.07.42-.11.65-.11h4.86c.38,0,.57.19.57.57v13.86c0,1.14.43,2.01,1.28,2.61.86.61,2,.91,3.45.91h.97c.76,0,1.33.21,1.71.63.38.42.57,1.13.57,2.13,0,1.11-.18,1.88-.54,2.3-.36.42-.94.63-1.74.63-1.48,0-2.77-.18-3.88-.55-1.1-.36-1.97-1.16-2.61-2.39ZM362.33,622.44c-.38,0-.57-.19-.57-.58v-4.95c0-.38.19-.57.57-.57h4.79c.38,0,.57.19.57.57v4.95c0,.38-.19.58-.57.58h-4.79ZM369.73,622.44c-.38,0-.57-.19-.57-.58v-4.95c0-.38.19-.57.57-.57h4.79c.38,0,.57.19.57.57v4.95c0,.38-.19.58-.57.58h-4.79ZM383.24,605.8c-.76-.87-1.39-1.89-1.88-3.07-.49-1.17-.74-2.59-.74-4.26,0-1.33.21-2.68.63-4.06.42-1.38,1.11-2.63,2.08-3.75.97-1.12,2.24-2.04,3.82-2.76,1.58-.72,3.52-1.08,5.84-1.08,2.51,0,4.64.43,6.38,1.28,1.75.85,3.11,1.93,4.1,3.22.19.3.13.57-.17.8l-3.08,3.19c-.27.27-.53.25-.8-.06-1.67-1.82-3.69-2.74-6.04-2.74-1.94,0-3.43.57-4.47,1.7-1.05,1.14-1.57,2.67-1.57,4.6,0,1.14.18,2.11.54,2.92.36.81.78,1.5,1.25,2.07.47.57.97,1.01,1.48,1.33.51.32.92.54,1.22.65h12.37c.38,0,.57.19.57.58v4.55c0,.38-.19.58-.57.58h-26.5c-.76,0-1.33-.22-1.71-.66-.38-.44-.57-1.18-.57-2.22,0-1.11.18-1.86.54-2.25.36-.38.94-.58,1.74-.58h5.53ZM410.94,573.31c0-.38.19-.57.57-.57h5.25c.38,0,.56.19.56.57v29.47c0,1.14.22,1.93.66,2.36.44.44,1.13.65,2.08.65h1.99c.76,0,1.33.22,1.71.66.38.44.57,1.2.57,2.27,0,1.19-.18,1.95-.54,2.27-.36.33-.94.49-1.74.49h-4.5c-2.37,0-4.07-.58-5.09-1.74-1.02-1.16-1.52-2.97-1.52-5.44v-31ZM434.31,602.28c0,1.14.43,2.01,1.28,2.61.85.61,2,.91,3.45.91h.97c.76,0,1.33.21,1.71.63.38.42.57,1.13.57,2.13,0,1.11-.18,1.88-.54,2.3-.36.42-.94.63-1.74.63-1.48,0-2.77-.18-3.88-.55s-1.97-1.16-2.61-2.39c-.53,1.11-1.31,1.88-2.34,2.3-1.04.42-2.46.63-4.27.63h-4.5c-.76,0-1.33-.12-1.71-.37-.38-.25-.57-.8-.57-1.64,0-.96.18-1.81.54-2.56.36-.75.96-1.12,1.79-1.12h2.74c.65,0,1.16-.1,1.54-.28.38-.19.65-.49.83-.91.17-.42.28-.97.31-1.65.04-.68.06-1.51.06-2.5v-12.05c0-.38.19-.57.56-.57h5.26c.37,0,.56.19.56.57v13.86ZM428.44,582.15c-.38,0-.57-.19-.57-.57v-4.95c0-.38.19-.58.57-.58h5.47c.38,0,.57.19.57.58v4.95c0,.38-.19.57-.57.57h-5.47ZM451.64,590.01c1.79-.87,3.77-1.62,5.94-2.25,2.17-.63,4.42-.94,6.74-.94,2.48,0,4.6.32,6.37.97,1.77.64,3.22,1.55,4.34,2.73,1.12,1.17,1.94,2.6,2.46,4.29.51,1.69.77,3.55.77,5.6,0,.38-.01.73-.03,1.05s-.03.6-.03.82c.04,1.14.47,2.01,1.31,2.61.83.61,1.97.91,3.42.91h.97c.76,0,1.33.21,1.71.63.38.42.57,1.13.57,2.13,0,1.11-.18,1.88-.54,2.3-.36.42-.94.63-1.74.63-1.63,0-3.07-.24-4.3-.72-1.23-.48-2.16-1.45-2.76-2.91-.8,1.53-1.97,2.52-3.5,2.96-1.54.44-3.56.66-6.07.66h-11.23c-.61,0-1.23,0-1.88-.03-.65-.02-1.27-.07-1.88-.14-.61-.07-1.19-.17-1.74-.28-.55-.11-1.02-.29-1.4-.51-.61.42-1.28.68-2.02.8s-1.61.17-2.59.17h-4.73c-.76,0-1.33-.18-1.71-.55-.38-.36-.57-1.08-.57-2.16,0-1.23.18-2.03.54-2.42.36-.38.94-.58,1.74-.58h2.62c.72,0,1.27-.15,1.65-.45.38-.3.66-.73.83-1.28.17-.55.27-1.18.31-1.9.04-.72.06-1.48.06-2.27v-11.71c0-.38.19-.57.56-.57h5.25c.38,0,.57.19.57.57v1.82ZM463.41,592.52c-2.13,0-4.23.32-6.29.97-2.06.64-3.89,1.34-5.49,2.1v7.72c0,.45-.02.89-.06,1.31-.04.42-.1.81-.17,1.19h12.4c1.64,0,2.96-.03,3.97-.08,1.01-.06,1.79-.27,2.34-.62.55-.36.92-.93,1.11-1.7.19-.77.29-1.86.29-3.26,0-1.21-.12-2.29-.37-3.23-.25-.95-.69-1.74-1.31-2.38-.63-.64-1.46-1.14-2.49-1.48-1.03-.34-2.34-.51-3.94-.51ZM483.89,611.5c-.76,0-1.33-.18-1.71-.55-.38-.36-.57-1.1-.57-2.22s.18-1.83.54-2.27c.36-.44.94-.66,1.74-.66h2.79c.95,0,1.64-.22,2.08-.65.44-.44.65-1.22.65-2.36v-29.47c0-.38.19-.57.57-.57h5.25c.38,0,.57.19.57.57v31c0,2.47-.51,4.28-1.53,5.44-1.02,1.16-2.71,1.74-5.09,1.74h-5.3ZM509.65,610.93c0,.38-.19.57-.56.57h-5.25c-.38,0-.57-.19-.57-.57v-37.62c0-.38.19-.57.57-.57h5.25c.38,0,.56.19.56.57v37.62ZM546.02,586.82v-2.45c0-.38.19-.57.57-.57h5.24c.38,0,.57.19.57.57v18.42c0,1.14.22,1.92.65,2.36.44.44,1.13.65,2.08.65h2.17c1.52,0,2.28.96,2.28,2.88,0,1.15-.18,1.91-.54,2.27-.36.36-.94.55-1.74.55h-4.62c-1.86,0-3.31-.33-4.36-.98-1.04-.65-1.74-1.8-2.08-3.46-.8.7-1.75,1.22-2.85,1.57-1.1.35-2.26.52-3.48.52-1.48,0-2.88-.21-4.19-.63-1.31-.42-2.45-1.06-3.42-1.94-.97-.87-1.74-1.99-2.31-3.34-.57-1.35-.86-2.97-.86-4.87,0-2.2.31-4.05.94-5.53.63-1.48,1.46-2.67,2.51-3.56,1.04-.89,2.23-1.53,3.56-1.91,1.33-.38,2.72-.57,4.16-.57h5.7ZM535.13,579.87c-.38,0-.57-.19-.57-.58v-4.95c0-.38.19-.58.57-.58h4.79c.38,0,.57.19.57.58v4.95c0,.38-.19.58-.57.58h-4.79ZM540.66,603.46c1.82,0,3.17-.52,4.05-1.56.87-1.04,1.31-2.56,1.31-4.56v-4.82h-5.07c-1.63,0-2.94.42-3.93,1.25-.99.83-1.48,2.36-1.48,4.59,0,1.74.46,3.02,1.37,3.86.91.83,2.16,1.25,3.76,1.25ZM542.54,579.87c-.38,0-.57-.19-.57-.58v-4.95c0-.38.19-.58.57-.58h4.79c.38,0,.57.19.57.58v4.95c0,.38-.19.58-.57.58h-4.79ZM570.3,608.56c-.53,1.11-1.33,1.88-2.4,2.3-1.08.42-2.52.63-4.33.63h-5.3c-.76,0-1.33-.18-1.71-.55-.38-.36-.57-1.08-.57-2.16s.18-1.89.54-2.33c.36-.44.94-.66,1.74-.66h3.7c.68,0,1.21-.1,1.57-.31.36-.21.63-.53.8-.97.17-.44.28-1,.31-1.7.04-.7.06-1.56.06-2.59v-11.82c0-.23.1-.38.31-.45.21-.07.42-.11.65-.11h4.86c.38,0,.57.19.57.57v13.86c0,1.14.43,2.01,1.28,2.61.86.61,2,.91,3.45.91h.97c.76,0,1.33.21,1.71.63.38.42.57,1.13.57,2.13,0,1.11-.18,1.88-.54,2.3-.36.42-.94.63-1.74.63-1.48,0-2.77-.18-3.88-.55-1.1-.36-1.97-1.16-2.61-2.39ZM561.46,622.44c-.38,0-.57-.19-.57-.58v-4.95c0-.38.19-.57.57-.57h4.79c.38,0,.57.19.57.57v4.95c0,.38-.19.58-.57.58h-4.79ZM568.87,622.44c-.38,0-.57-.19-.57-.58v-4.95c0-.38.19-.57.57-.57h4.79c.38,0,.57.19.57.57v4.95c0,.38-.19.58-.57.58h-4.79ZM589.05,602.28c0,1.14.43,2.01,1.28,2.61.85.61,2,.91,3.45.91h.97c.76,0,1.33.21,1.71.63.38.42.57,1.13.57,2.13,0,1.11-.18,1.88-.54,2.3-.36.42-.94.63-1.74.63-1.48,0-2.77-.18-3.88-.55-1.1-.36-1.97-1.16-2.61-2.39-.53,1.11-1.31,1.88-2.34,2.3-1.04.42-2.46.63-4.27.63h-4.5c-.76,0-1.33-.12-1.71-.37-.38-.25-.57-.8-.57-1.64,0-.96.18-1.81.54-2.56.36-.75.96-1.12,1.79-1.12h2.74c.65,0,1.16-.1,1.54-.28.38-.19.65-.49.83-.91.17-.42.28-.97.31-1.65.04-.68.06-1.51.06-2.5v-12.05c0-.38.19-.57.56-.57h5.26c.37,0,.56.19.56.57v13.86ZM583.18,582.15c-.38,0-.57-.19-.57-.57v-4.95c0-.38.19-.58.57-.58h5.47c.38,0,.57.19.57.58v4.95c0,.38-.19.57-.57.57h-5.47ZM609.85,586.82c3.88,0,6.84.92,8.89,2.76,2.05,1.84,3.08,4.29,3.08,7.36,0,1.86-.43,3.55-1.28,5.09-.85,1.53-2,2.79-3.45,3.78h8.09c.76,0,1.33.18,1.71.55.38.36.57,1.09.57,2.16s-.18,1.89-.54,2.33c-.36.44-.94.66-1.74.66h-7.92c-1.37,0-2.66-.06-3.88-.17-1.22-.11-2.38-.51-3.48-1.2-1.25.68-2.59,1.08-4.02,1.2-1.43.11-2.69.17-3.79.17h-7.58c-.76,0-1.33-.23-1.71-.69-.38-.46-.57-1.21-.57-2.25,0-1.11.18-1.85.54-2.22.36-.36.94-.55,1.74-.55h8.04c-1.41-.99-2.54-2.24-3.39-3.78-.85-1.53-1.28-3.23-1.28-5.09,0-3.07,1.03-5.52,3.08-7.36,2.05-1.84,5.02-2.76,8.89-2.76ZM603.98,582.15c-.38,0-.57-.19-.57-.57v-4.95c0-.38.19-.58.57-.58h4.79c.38,0,.57.19.57.58v4.95c0,.38-.19.57-.57.57h-4.79ZM609.85,591.89c-1.48,0-2.76.47-3.85,1.4-1.08.93-1.62,2.31-1.62,4.13,0,1.94.53,3.5,1.6,4.7,1.06,1.2,2.36,2.12,3.88,2.76,1.48-.65,2.76-1.57,3.82-2.76,1.06-1.2,1.6-2.76,1.6-4.7,0-1.82-.53-3.2-1.6-4.13-1.06-.93-2.34-1.4-3.82-1.4ZM611.39,582.15c-.38,0-.57-.19-.57-.57v-4.95c0-.38.19-.58.57-.58h4.79c.38,0,.57.19.57.58v4.95c0,.38-.19.57-.57.57h-4.79ZM637.5,608.56c-.53,1.11-1.33,1.88-2.4,2.3-1.08.42-2.52.63-4.33.63h-5.3c-.76,0-1.33-.18-1.71-.55-.38-.36-.57-1.08-.57-2.16s.18-1.89.54-2.33c.36-.44.94-.66,1.74-.66h3.7c.68,0,1.21-.1,1.57-.31.36-.21.63-.53.8-.97.17-.44.28-1,.31-1.7.04-.7.06-1.56.06-2.59v-11.82c0-.23.1-.38.31-.45.21-.07.42-.11.65-.11h4.86c.38,0,.57.19.57.57v13.86c0,1.14.43,2.01,1.28,2.61.86.61,2,.91,3.45.91h.97c.76,0,1.33.21,1.71.63.38.42.57,1.13.57,2.13,0,1.11-.18,1.88-.54,2.3-.36.42-.94.63-1.74.63-1.48,0-2.77-.18-3.88-.55-1.1-.36-1.97-1.16-2.61-2.39ZM629.06,582.15c-.38,0-.57-.19-.57-.57v-4.95c0-.38.19-.58.57-.58h4.79c.38,0,.57.19.57.58v4.95c0,.38-.19.57-.57.57h-4.79ZM636.47,582.15c-.38,0-.57-.19-.57-.57v-4.95c0-.38.19-.58.57-.58h4.79c.38,0,.57.19.57.58v4.95c0,.38-.19.57-.57.57h-4.79ZM644.05,611.5c-.76,0-1.33-.18-1.71-.55s-.57-1.1-.57-2.22.18-1.83.54-2.27c.36-.44.94-.66,1.74-.66h2.79c.95,0,1.64-.22,2.08-.65.44-.44.65-1.22.65-2.36v-29.47c0-.38.19-.57.57-.57h5.25c.38,0,.57.19.57.57v31c0,2.47-.51,4.28-1.53,5.44-1.02,1.16-2.71,1.74-5.09,1.74h-5.3ZM669.81,610.93c0,.38-.19.57-.56.57h-5.25c-.38,0-.57-.19-.57-.57v-37.62c0-.38.19-.57.57-.57h5.25c.38,0,.56.19.56.57v37.62ZM706.17,586.82v-2.45c0-.38.19-.57.57-.57h5.24c.38,0,.57.19.57.57v18.42c0,1.14.22,1.92.65,2.36.44.44,1.13.65,2.08.65h2.17c1.52,0,2.28.96,2.28,2.88,0,1.15-.18,1.91-.54,2.27-.36.36-.94.55-1.74.55h-4.62c-1.86,0-3.31-.33-4.36-.98-1.04-.65-1.74-1.8-2.08-3.46-.8.7-1.75,1.22-2.85,1.57-1.1.35-2.26.52-3.48.52-1.48,0-2.88-.21-4.19-.63-1.31-.42-2.45-1.06-3.42-1.94-.97-.87-1.74-1.99-2.31-3.34-.57-1.35-.86-2.97-.86-4.87,0-2.2.31-4.05.94-5.53.63-1.48,1.46-2.67,2.51-3.56,1.04-.89,2.23-1.53,3.56-1.91,1.33-.38,2.72-.57,4.16-.57h5.7ZM695.28,579.87c-.38,0-.57-.19-.57-.58v-4.95c0-.38.19-.58.57-.58h4.79c.38,0,.57.19.57.58v4.95c0,.38-.19.58-.57.58h-4.79ZM700.81,603.46c1.82,0,3.17-.52,4.05-1.56.87-1.04,1.31-2.56,1.31-4.56v-4.82h-5.07c-1.63,0-2.94.42-3.93,1.25-.99.83-1.48,2.36-1.48,4.59,0,1.74.46,3.02,1.37,3.86.91.83,2.16,1.25,3.76,1.25ZM702.69,579.87c-.38,0-.57-.19-.57-.58v-4.95c0-.38.19-.58.57-.58h4.79c.38,0,.57.19.57.58v4.95c0,.38-.19.58-.57.58h-4.79ZM730.45,608.56c-.53,1.11-1.33,1.88-2.4,2.3-1.08.42-2.52.63-4.33.63h-5.3c-.76,0-1.33-.18-1.71-.55-.38-.36-.57-1.08-.57-2.16s.18-1.89.54-2.33c.36-.44.94-.66,1.74-.66h3.7c.68,0,1.21-.1,1.57-.31.36-.21.63-.53.8-.97.17-.44.28-1,.31-1.7.04-.7.06-1.56.06-2.59v-11.82c0-.23.1-.38.31-.45.21-.07.42-.11.65-.11h4.86c.38,0,.57.19.57.57v13.86c0,1.14.43,2.01,1.28,2.61.86.61,2,.91,3.45.91h.97c.76,0,1.33.21,1.71.63.38.42.57,1.13.57,2.13,0,1.11-.18,1.88-.54,2.3-.36.42-.94.63-1.74.63-1.48,0-2.77-.18-3.88-.55-1.1-.36-1.97-1.16-2.61-2.39ZM721.61,622.44c-.38,0-.57-.19-.57-.58v-4.95c0-.38.19-.57.57-.57h4.79c.38,0,.57.19.57.57v4.95c0,.38-.19.58-.57.58h-4.79ZM729.02,622.44c-.38,0-.57-.19-.57-.58v-4.95c0-.38.19-.57.57-.57h4.79c.38,0,.57.19.57.57v4.95c0,.38-.19.58-.57.58h-4.79ZM739.8,605.8c.95,0,1.64-.22,2.08-.65.44-.44.65-1.22.65-2.36v-29.47c0-.38.19-.57.57-.57h5.25c.38,0,.57.19.57.57v28.96c0,1.14.43,2.01,1.28,2.62.86.61,2,.91,3.45.91h.97c.76,0,1.33.21,1.71.63.38.42.57,1.13.57,2.13,0,1.11-.18,1.88-.54,2.3-.36.42-.94.63-1.74.63-1.48,0-2.77-.18-3.88-.55-1.1-.36-1.97-1.16-2.61-2.39-.53,1.08-1.29,1.83-2.29,2.27-1,.44-2.35.66-4.05.66h-4.79c-.76,0-1.33-.18-1.71-.55s-.57-1.16-.57-2.39c0-1.04.18-1.75.54-2.16.36-.4.94-.6,1.74-.6h2.79ZM766.35,587.56c2.01.04,3.86.18,5.52.43,1.67.25,3.09.74,4.25,1.49,1.17.74,2.07,1.82,2.71,3.23.64,1.41.96,3.28.96,5.6v3.43c0,1.91-.17,3.48-.51,4.71-.34,1.24-.85,2.24-1.52,3-.68.76-1.55,1.29-2.6,1.6-1.05.3-2.3.46-3.75.46h-16.76c-.76,0-1.33-.22-1.71-.66-.38-.44-.57-1.22-.57-2.33s.18-1.84.54-2.19c.36-.35.94-.52,1.74-.52h14.13c1.03,0,1.84-.08,2.45-.23.61-.15,1.07-.4,1.4-.74.32-.34.53-.79.63-1.36.09-.57.14-1.29.14-2.16v-3.06c0-1.7-.47-2.96-1.4-3.77-.93-.81-2.4-1.22-4.42-1.22h-9.18c-.38,0-.57-.19-.57-.58v-3.97c0-.27.11-.52.34-.75.23-.23.42-.44.57-.63l12.31-14.48c.23-.27.47-.32.74-.17l3.69,3.08c.3.23.38.5.23.8l-9.38,11ZM709.63,413.08c5.91,0,10.7-4.79,10.7-10.7v-23.58c0-19.25-15.6-34.85-34.85-34.85h-60.45c-5.91,0-10.7,4.79-10.7,10.7v47.73c0,5.91,4.79,10.7,10.7,10.7h84.6ZM582.53,402.38v-47.73c0-5.91-4.79-10.7-10.7-10.7h-60.45c-19.25,0-34.85,15.6-34.85,34.85v23.58c0,5.91,4.79,10.7,10.7,10.7h84.6c5.91,0,10.7-4.79,10.7-10.7Z"/>
    </g>
  </g>
</svg>