<svg width="338" height="338" viewBox="0 0 338 338" fill="none" xmlns="http://www.w3.org/2000/svg">
<path d="M56.4444 84.2857L143.111 170M143.111 170L151.573 178.369C162.854 189.526 181.146 189.526 192.427 178.369L200.889 170M143.111 170L54.692 257.447M287.556 84.2857L200.889 170M200.889 170L289.308 257.447M54.692 257.447C46.8503 249.691 42 238.977 42 227.143V98.5714C42 82.7919 54.934 70 70.8889 70H273.111C289.066 70 302 82.7919 302 98.5714V227.143C302 238.977 297.15 249.691 289.308 257.447M54.692 257.447C62.5338 265.203 73.3671 270 85.3333 270H258.667C270.632 270 281.466 265.203 289.308 257.447" stroke="#FE6600" stroke-width="16" stroke-linecap="round"/>
</svg>
