<svg width="340" height="340" viewBox="0 0 340 340" fill="none" xmlns="http://www.w3.org/2000/svg">
<g clip-path="url(#clip0_44_2)">
<path d="M280.489 80.5473L280.496 80.5545C289.455 89.4581 296.557 100.051 301.393 111.719C306.229 123.387 308.701 135.899 308.667 148.529V148.537V269.163C308.645 287.148 301.491 304.39 288.774 317.107C276.057 329.824 258.815 336.978 240.83 337H99.1702C81.1854 336.978 63.9433 329.824 51.2261 317.107C38.5093 304.39 31.3553 287.149 31.3333 269.165V70.8351C31.3553 52.8509 38.5093 35.6095 51.2261 22.8927C63.9429 10.1759 81.1843 3.02197 99.1685 2.99996L163.129 2.99997L163.137 2.99995C175.768 2.96744 188.281 5.43921 199.951 10.2723C211.621 15.1055 222.218 22.2041 231.128 31.1577L231.132 31.1623L280.489 80.5473ZM264.73 96.3673L264.716 96.3523L264.701 96.3376L215.344 46.9526L215.327 46.9354L215.31 46.9184C210.663 42.4173 205.445 38.5453 199.791 35.4014L195.333 32.9226V38.0233V99.1666C195.333 103.72 197.142 108.086 200.361 111.305C203.581 114.525 207.947 116.333 212.5 116.333H273.643H278.746L276.265 111.874C273.118 106.221 269.24 101.007 264.73 96.3673ZM173 28.9991V26.2641L170.277 26.0119C169.535 25.9433 168.831 25.8517 168.068 25.7525C167.708 25.7058 167.336 25.6574 166.94 25.6088C165.764 25.4646 164.476 25.3333 163.129 25.3333H99.1667C87.0993 25.3333 75.5262 30.127 66.9933 38.6599C58.4604 47.1928 53.6667 58.7659 53.6667 70.8333V269.167C53.6667 281.234 58.4604 292.807 66.9933 301.34C75.5262 309.873 87.0993 314.667 99.1667 314.667H240.833C252.901 314.667 264.474 309.873 273.007 301.34C281.54 292.807 286.333 281.234 286.333 269.167V148.537C286.333 147.184 286.202 145.896 286.058 144.72C286.009 144.324 285.961 143.952 285.914 143.593C285.815 142.832 285.723 142.131 285.655 141.39L285.403 138.667H282.667H212.5C202.024 138.667 191.977 134.505 184.569 127.097C177.162 119.69 173 109.643 173 99.1666V28.9991Z" fill="#FE6600" stroke="#F5F5F5" stroke-width="6"/>
</g>
<defs>
<clipPath id="clip0_44_2">
<rect width="340" height="340" fill="white"/>
</clipPath>
</defs>
</svg>
