<svg xmlns="http://www.w3.org/2000/svg" width="933" height="960" fill="none" viewBox="0 0 933 960">
  <path fill="url(#a)" d="M649 96v324.789C649 441.893 631.859 459 610.714 459H381v-38.207c0-21.103 17.141-38.21 38.286-38.21h153.14V96H649Z"/>
  <path fill="url(#b)" d="M649 38.002V76h-77V0h38.501C631.764 0 649 17.015 649 38.002Z"/>
  <path fill="url(#c)" d="M553 0v76.497H361.568V420.75c0 21.125-17.141 38.25-38.286 38.25H285V38.25C285 17.125 302.141 0 323.286 0H553Z"/>
  <path fill="#265F71" d="M145.04 743.16c-1.877.256-3.925.384-6.144.384-8.021 0-14.421-2.987-19.2-8.96-4.011-4.864-6.016-10.752-6.016-17.664 0-9.472 2.603-16.981 7.808-22.528 4.693-4.864 10.837-7.296 18.432-7.296 7.765 0 13.867 2.475 18.304 7.424 3.755 4.352 5.632 9.941 5.632 16.768v27.136c0 11.179-3.072 19.712-9.216 25.6-4.779 4.523-10.837 6.912-18.176 7.168h-1.024c-5.803 0-11.392-1.579-16.768-4.736V750.2c5.035 2.901 9.899 4.352 14.592 4.352.768 0 1.451-.043 2.048-.128 5.632-.597 8.875-4.352 9.728-11.264Zm.256-17.024v-15.36c0-4.181-1.792-6.272-5.376-6.272-5.291 0-7.936 3.925-7.936 11.776 0 7.68 2.688 11.52 8.064 11.52 2.389 0 4.139-.555 5.248-1.664Zm85.414-51.456c-2.901 0-5.248-.896-7.04-2.688-1.707-1.792-2.56-4.139-2.56-7.04 0-2.816.896-5.077 2.688-6.784 1.792-1.707 4.096-2.56 6.912-2.56s5.077.853 6.784 2.56c1.707 1.707 2.56 3.968 2.56 6.784 0 2.987-.853 5.376-2.56 7.168-1.707 1.707-3.968 2.56-6.784 2.56Zm21.376 0c-2.901 0-5.248-.896-7.04-2.688-1.707-1.792-2.56-4.139-2.56-7.04 0-2.816.853-5.077 2.56-6.784 1.792-1.707 4.139-2.56 7.04-2.56 2.816 0 5.077.853 6.784 2.56 1.707 1.707 2.56 3.968 2.56 6.784 0 2.987-.853 5.376-2.56 7.168-1.707 1.707-3.968 2.56-6.784 2.56ZM241.334 747c-8.363 0-14.891-2.816-19.584-8.448-4.011-4.864-6.016-11.008-6.016-18.432 0-8.277 2.603-15.403 7.808-21.376 4.608-5.291 10.752-9.173 18.432-11.648 8.875 2.901 15.616 7.509 20.224 13.824 4.011 5.632 6.016 12.032 6.016 19.2 0 8.619-2.603 15.403-7.808 20.352-4.608 4.352-10.539 6.528-17.792 6.528h-1.28Zm0-17.92h1.408c4.864 0 7.296-2.944 7.296-8.832 0-6.912-2.688-12.117-8.064-15.616-5.205 3.499-7.808 8.619-7.808 15.36 0 6.059 2.389 9.088 7.168 9.088ZM277.405 747l9.344-17.92h19.072c3.413 0 5.12-1.92 5.12-5.76 0-8.448-4.181-15.019-12.544-19.712l9.088-15.616c14.763 8.533 22.144 20.395 22.144 35.584 0 15.616-6.784 23.424-20.352 23.424h-31.872Zm96.807 0c-7.851 0-13.995-2.517-18.432-7.552-3.84-4.437-5.76-10.112-5.76-17.024v-48.128l18.56-9.856v57.216c0 2.731.555 4.651 1.664 5.76s3.029 1.664 5.76 1.664h12.544V747h-14.336Zm7.457 0v-17.92h12.544c2.731 0 4.651-.555 5.76-1.664s1.664-3.029 1.664-5.76v-22.4l18.56-9.856v33.024c0 7.936-2.475 14.165-7.424 18.688-4.267 3.925-9.856 5.888-16.768 5.888h-14.336Zm6.656 30.08c-2.901 0-5.205-.896-6.912-2.688-1.792-1.792-2.688-4.139-2.688-7.04 0-2.816.896-5.077 2.688-6.784 1.707-1.707 4.011-2.56 6.912-2.56 2.816 0 5.077.853 6.784 2.56 1.707 1.707 2.56 3.968 2.56 6.784 0 2.987-.853 5.333-2.56 7.04-1.707 1.792-3.968 2.688-6.784 2.688Zm21.248 0c-2.816 0-5.12-.896-6.912-2.688-1.707-1.792-2.56-4.139-2.56-7.04 0-2.816.853-5.077 2.56-6.784 1.792-1.707 4.096-2.56 6.912-2.56s5.077.853 6.784 2.56c1.792 1.707 2.688 3.968 2.688 6.784 0 2.987-.853 5.333-2.56 7.04-1.707 1.792-4.011 2.688-6.912 2.688Zm74.584-48h12.544V747h-14.336c-1.963 0-4.011-.213-6.144-.64-1.963 11.179-7.467 18.859-16.512 23.04-3.584 1.707-7.467 2.56-11.648 2.56-5.632 0-11.136-1.493-16.512-4.48v-16.128c4.437 2.475 8.747 3.712 12.928 3.712 2.133 0 4.096-.341 5.888-1.024 5.205-1.792 7.808-6.571 7.808-14.336v-40.448l18.56-9.856v.128l.128-.128v34.432c.427 3.499 2.859 5.248 7.296 5.248Zm5.637 17.92v-17.92h8.32c3.584 0 6.059-.725 7.424-2.176 1.451-1.536 2.176-4.181 2.176-7.936v-44.672l18.56-9.856v54.656c0 8.704-2.645 15.616-7.936 20.736-4.864 4.779-11.307 7.168-19.328 7.168h-9.216Zm59.476 0v-72.704l18.56-9.856V747h-18.56Zm89.122-69.12c-2.901 0-5.248-.853-7.04-2.56-1.707-1.792-2.56-4.139-2.56-7.04s.853-5.205 2.56-6.912c1.792-1.707 4.139-2.56 7.04-2.56 2.816 0 5.077.853 6.784 2.56 1.707 1.707 2.56 4.011 2.56 6.912s-.853 5.248-2.56 7.04c-1.707 1.707-3.968 2.56-6.784 2.56Zm16.64 51.2h12.544V747H653.24c-1.963 0-4.011-.213-6.144-.64-1.963 11.179-7.467 18.859-16.512 23.04-3.584 1.707-7.467 2.56-11.648 2.56-5.632 0-11.136-1.493-16.512-4.48v-16.128c4.437 2.475 8.747 3.712 12.928 3.712 2.133 0 4.096-.341 5.888-1.024 5.205-1.792 7.808-6.571 7.808-14.336v-40.448l18.56-9.856v.128l.128-.128v34.432c.427 3.499 2.859 5.248 7.296 5.248Zm37.765-39.552c5.547.768 10.539 2.645 14.976 5.632 9.216 6.059 13.824 14.805 13.824 26.24v1.536c0 7.851-2.517 13.952-7.552 18.304-4.267 3.84-9.813 5.76-16.64 5.76h-36.736v-17.92h34.944c4.864 0 7.296-2.261 7.296-6.784v-.64c0-5.12-2.261-8.96-6.784-11.52-2.987-1.707-6.656-2.56-11.008-2.56-4.267 0-8.832.853-13.696 2.56v-17.92l24.96-27.776h18.688l-22.272 25.088Zm80.485 39.552h12.544V747H771.49c-1.963 0-4.011-.213-6.144-.64-1.963 11.179-7.467 18.859-16.512 23.04-3.584 1.707-7.467 2.56-11.648 2.56-5.632 0-11.136-1.493-16.512-4.48v-16.128c4.437 2.475 8.747 3.712 12.928 3.712 2.133 0 4.096-.341 5.888-1.024 5.205-1.792 7.808-6.571 7.808-14.336v-40.448l18.56-9.856v.128l.128-.128v34.432c.427 3.499 2.859 5.248 7.296 5.248Zm25.605-17.792c0-7.851 2.432-13.995 7.296-18.432 4.267-3.84 9.813-5.76 16.64-5.76 8.619 0 15.317 3.157 20.096 9.472 4.096 5.376 6.144 12.203 6.144 20.48 0 9.472-2.603 16.981-7.808 22.528-4.523 4.949-10.368 7.424-17.536 7.424-6.741 0-12.203-1.28-16.384-3.84-3.84 2.56-8.533 3.84-14.08 3.84h-14.336v-17.92h12.544c2.731 0 4.651-.555 5.76-1.664s1.664-3.029 1.664-5.76v-10.368Zm18.56 12.8c0 3.328 1.792 4.992 5.376 4.992 5.291 0 7.936-4.224 7.936-12.672 0-7.936-2.645-11.904-7.936-11.904-3.584 0-5.376 2.091-5.376 6.272v13.312ZM83.39 889.224c0 11.264-3.882 20.309-11.647 27.136-6.912 6.059-15.531 9.088-25.856 9.088-12.544 0-22.23-4.053-29.056-12.16-5.206-6.315-7.808-13.739-7.808-22.272 0-6.485 1.45-12.245 4.351-17.28l18.305-4.096c-3.243 5.461-4.864 11.691-4.864 18.688 0 5.973 1.663 10.667 4.991 14.08 3.414 3.413 8.107 5.12 14.08 5.12 5.803 0 10.368-1.664 13.697-4.992 3.413-3.243 5.12-7.68 5.12-13.312v-60.928l18.688-9.856v70.784ZM130.65 901c-7.851 0-13.995-2.517-18.432-7.552-3.84-4.437-5.76-10.112-5.76-17.024v-48.128l18.56-9.856v57.216c0 2.731.554 4.651 1.664 5.76 1.109 1.109 3.029 1.664 5.76 1.664h12.544V901H130.65Zm87.841-17.92h12.544V901h-14.209c-5.802 0-10.623-1.365-14.463-4.096-4.438 4.437-10.368 6.656-17.792 6.656-7.339 0-13.227-2.176-17.664-6.528-4.011 2.645-8.832 3.968-14.464 3.968h-14.337v-17.92h12.545c2.73 0 4.65-.555 5.76-1.664 1.109-1.109 1.664-3.029 1.664-5.76v-3.584c0-10.155 2.645-18.005 7.936-23.552 4.693-4.949 10.88-7.424 18.56-7.424 8.789 0 15.573 3.2 20.352 9.6 4.096 5.461 6.186 12.587 6.272 21.376v3.584c0 2.816.512 4.779 1.536 5.888 1.109 1.024 3.029 1.536 5.76 1.536Zm-33.92 2.56c5.376 0 8.064-4.651 8.064-13.952 0-8.789-2.688-13.184-8.064-13.184-5.291 0-7.936 4.395-7.936 13.184 0 9.301 2.645 13.952 7.936 13.952Zm111.085-2.56V901h-71.425v-17.92h17.537c-1.792-4.181-2.688-8.747-2.688-13.696 0-9.045 3.2-16.299 9.6-21.76 5.205-4.352 11.264-6.528 18.176-6.528 9.301 0 16.853 4.053 22.656 12.16v16.128c-6.4-7.253-13.227-10.88-20.48-10.88h-.512c-7.254.171-10.88 4.011-10.88 11.52 0 4.096 1.322 7.296 3.968 9.6 2.645 2.304 6.357 3.456 11.136 3.456h22.912Zm59.271-63.616-4.48 8.32h-25.088l4.48-8.32h3.968c-.939-1.792-1.408-3.627-1.408-5.504 0-2.816 1.024-5.248 3.072-7.296 2.133-2.048 4.65-3.072 7.552-3.072 2.901 0 5.504 1.024 7.808 3.072v8.192c-2.219-1.963-4.352-2.944-6.4-2.944-2.816 0-4.224 1.152-4.224 3.456 0 1.28.554 2.645 1.664 4.096h13.056Zm8.704 8.832 18.688-9.856v54.656c0 8.619-2.646 15.531-7.937 20.736-4.949 4.779-11.391 7.168-19.327 7.168h-50.432l9.344-17.92h16.128v-38.144l18.56-9.856v48h5.504c3.498 0 5.93-.725 7.296-2.176 1.45-1.536 2.176-4.181 2.176-7.936v-44.672ZM405.333 901v-72.704l18.56-9.856V901h-18.56Zm108.45-59.52c-2.902 0-5.248-.896-7.04-2.688-1.707-1.792-2.56-4.139-2.56-7.04 0-2.816.853-5.077 2.56-6.784 1.792-1.707 4.138-2.56 7.04-2.56 2.816 0 5.077.853 6.784 2.56 1.706 1.707 2.56 3.968 2.56 6.784 0 2.987-.854 5.376-2.56 7.168-1.707 1.707-3.968 2.56-6.784 2.56Zm21.376 0c-2.902 0-5.248-.896-7.04-2.688-1.707-1.792-2.56-4.139-2.56-7.04 0-2.816.853-5.077 2.56-6.784 1.792-1.707 4.138-2.56 7.04-2.56 2.816 0 5.077.853 6.784 2.56 1.706 1.707 2.56 3.968 2.56 6.784 0 2.987-.854 5.376-2.56 7.168-1.707 1.707-3.968 2.56-6.784 2.56ZM501.751 901c-7.424 0-13.27-2.517-17.536-7.552-3.755-4.352-5.632-9.984-5.632-16.896v-11.776l18.56-9.856v20.608c0 2.816.512 4.779 1.536 5.888 1.109 1.109 3.029 1.664 5.76 1.664h41.344c2.73 0 4.608-.555 5.632-1.664 1.109-1.109 1.664-3.072 1.664-5.888v-22.272l18.56-9.856v33.152c0 7.936-2.475 14.123-7.424 18.56-4.352 3.925-9.942 5.888-16.768 5.888h-45.696Zm117.149 0c-7.851 0-13.995-2.517-18.432-7.552-3.84-4.437-5.76-10.112-5.76-17.024v-48.128l18.56-9.856v57.216c0 2.731.554 4.651 1.664 5.76 1.109 1.109 3.029 1.664 5.76 1.664h12.544V901H618.9Zm36.513-69.12c-2.902 0-5.248-.853-7.04-2.56-1.707-1.792-2.561-4.139-2.561-7.04s.854-5.205 2.561-6.912c1.792-1.707 4.138-2.56 7.04-2.56 2.816 0 5.077.853 6.784 2.56 1.706 1.707 2.56 4.011 2.56 6.912s-.854 5.248-2.56 7.04c-1.707 1.707-3.968 2.56-6.784 2.56Zm29.312 51.2V901h-14.208c-5.974 0-10.923-1.451-14.848-4.352-4.096 2.901-9.088 4.352-14.976 4.352h-14.337v-17.92h12.545c2.73 0 4.65-.555 5.76-1.664 1.109-1.109 1.664-3.029 1.664-5.76v-22.4l18.56-9.856v32.256c0 2.731.554 4.651 1.664 5.76 1.109 1.109 3.029 1.664 5.76 1.664h12.416Zm88.105-51.2c-2.902 0-5.248-.853-7.04-2.56-1.707-1.792-2.56-4.139-2.56-7.04s.853-5.205 2.56-6.912c1.792-1.707 4.138-2.56 7.04-2.56 2.816 0 5.077.853 6.784 2.56 1.706 1.707 2.56 4.011 2.56 6.912s-.854 5.248-2.56 7.04c-1.707 1.707-3.968 2.56-6.784 2.56Zm-50.56 51.2c4.181-12.117 10.197-21.973 18.048-29.568 8.704-8.277 18.602-12.416 29.696-12.416 10.325 0 18.56 3.584 24.704 10.752 5.205 5.973 7.808 13.355 7.808 22.144v2.56c0 7.936-2.475 14.123-7.424 18.56-4.352 3.925-9.942 5.888-16.768 5.888h-56.192c-5.974 0-10.923-1.451-14.848-4.352-4.096 2.901-9.088 4.352-14.976 4.352h-14.337v-17.92h12.545c2.73 0 4.65-.555 5.76-1.664 1.109-1.109 1.664-3.029 1.664-5.76v-16.384l18.56-9.856v26.24c0 4.608 1.92 7.083 5.76 7.424Zm61.696-7.552v-1.536c0-4.608-1.28-8.32-3.84-11.136-2.56-2.901-5.888-4.352-9.984-4.352-5.888 0-11.478 2.219-16.768 6.656-5.206 4.352-9.387 10.325-12.544 17.92h36.864c2.56 0 4.224-.469 4.992-1.408.853-.939 1.28-2.987 1.28-6.144ZM846.275 901c-7.851 0-13.995-2.517-18.432-7.552-3.84-4.437-5.76-10.112-5.76-17.024v-48.128l18.56-9.856v57.216c0 2.731.554 4.651 1.664 5.76 1.109 1.109 3.029 1.664 5.76 1.664h12.544V901h-14.336Zm7.456 0v-17.92h19.329c13.909 0 25.045-3.925 33.408-11.776-5.376-8.704-11.691-13.056-18.944-13.056-6.571 0-14.166 3.712-22.784 11.136v-16.128c7.253-8.107 15.488-12.16 24.704-12.16h.256c6.826 0 13.44 2.475 19.84 7.424 6.4 4.864 12.074 11.819 17.024 20.864v6.784c-6.23 7.936-13.995 14.08-23.296 18.432-9.302 4.267-19.414 6.4-30.336 6.4h-19.201Z"/>
  <defs>
    <linearGradient id="a" x1="431.94" x2="691.792" y1="478.937" y2="167.225" gradientUnits="userSpaceOnUse">
      <stop offset=".015" stop-color="#141F2A"/>
      <stop offset=".124" stop-color="#17232F"/>
      <stop offset=".292" stop-color="#20303C"/>
      <stop offset=".497" stop-color="#314753"/>
      <stop offset=".731" stop-color="#4D6E7A"/>
      <stop offset=".983" stop-color="#7BA9B2"/>
    </linearGradient>
    <linearGradient id="b" x1="572.929" x2="649.324" y1="42.557" y2="33.048" gradientUnits="userSpaceOnUse">
      <stop offset=".102" stop-color="#D07E2E"/>
      <stop offset=".372" stop-color="#D67E30"/>
      <stop offset=".771" stop-color="#E57D38"/>
      <stop offset=".983" stop-color="#EF7B3D"/>
    </linearGradient>
    <linearGradient id="c" x1="162.576" x2="537.525" y1="365.298" y2="47.879" gradientUnits="userSpaceOnUse">
      <stop offset=".102" stop-color="#141F2A"/>
      <stop offset=".203" stop-color="#17232F"/>
      <stop offset=".352" stop-color="#202F3B"/>
      <stop offset=".532" stop-color="#2F4451"/>
      <stop offset=".735" stop-color="#4A6975"/>
      <stop offset=".955" stop-color="#74A0AA"/>
      <stop offset=".983" stop-color="#7BA9B2"/>
    </linearGradient>
  </defs>
</svg>
