<svg width="1047" height="1029" viewBox="0 0 1047 1029" fill="none" xmlns="http://www.w3.org/2000/svg">
<path d="M705 96V420.789C705 441.893 687.859 459 666.714 459H437V420.793C437 399.69 454.141 382.583 475.286 382.583H628.426V96H705Z" fill="url(#paint0_linear_7_108)"/>
<path d="M705 38.002V76H628V0H666.501C687.764 0 705 17.0145 705 38.002Z" fill="url(#paint1_linear_7_108)"/>
<path d="M609 0V76.4966H417.568V420.75C417.568 441.875 400.427 459 379.282 459H341V38.2503C341 17.125 358.141 0 379.286 0H609Z" fill="url(#paint2_linear_7_108)"/>
<path d="M37.0315 580.976H90.9195V595.312H55.0795V613.104H84.9035V627.44H55.0795V647.664H92.5835V662H37.0315V580.976ZM122.901 609.52C124.522 607.557 127.039 605.893 130.453 604.528C133.951 603.077 137.194 602.352 140.181 602.352C147.605 602.352 152.895 604.315 156.053 608.24C159.295 612.165 160.917 618.736 160.917 627.952V662H143.381V628.592C143.381 620.827 139.925 616.944 133.013 616.944C131.221 616.944 129.343 617.285 127.381 617.968C125.503 618.651 124.223 619.419 123.541 620.272V662H106.133V603.888H120.981L122.901 609.52ZM209.94 647.664L215.7 656.496C209.214 661.616 202.089 664.176 194.324 664.176C183.998 664.176 178.836 658.459 178.836 647.024V617.84H170.9V603.888H178.964V593.904C183.998 591.173 189.844 588.059 196.5 584.56V603.888H212.884V617.84H196.372V645.36C196.372 647.749 196.628 649.328 197.14 650.096C197.652 650.864 198.633 651.248 200.083 651.248C202.473 651.248 205.758 650.053 209.94 647.664ZM242.353 603.888L244.017 608.624C244.785 607.003 246.363 605.552 248.753 604.272C251.142 602.992 253.531 602.352 255.921 602.352C263.857 602.352 269.745 606.235 273.585 614C272.134 614.768 269.702 616.048 266.289 617.84C263.046 619.632 260.614 620.955 258.993 621.808C256.177 618.48 253.19 616.816 250.033 616.816C247.558 616.816 245.809 618.139 244.785 620.784V662H227.633V603.888H242.353ZM334.045 638.576H294.365C294.621 642.075 296.114 645.061 298.845 647.536C301.575 649.925 304.69 651.12 308.189 651.12C313.735 651.12 319.623 649.371 325.853 645.872L330.205 655.088C327.474 657.563 323.89 659.611 319.453 661.232C315.015 662.768 310.749 663.536 306.653 663.536C296.669 663.536 288.903 660.763 283.357 655.216C277.981 649.925 275.293 642.587 275.293 633.2C275.293 624.069 278.322 616.517 284.381 610.544C289.927 605.083 296.925 602.352 305.373 602.352C314.674 602.352 321.927 605.381 327.133 611.44C331.741 616.731 334.045 623.643 334.045 632.176V638.576ZM293.341 625.776H316.637C316.21 618.267 312.37 614.512 305.117 614.512C298.119 614.512 294.194 618.267 293.341 625.776ZM363.91 659.312V684.784H346.758V603.888H359.814L361.478 609.264C364.806 604.656 369.627 602.352 375.942 602.352C385.158 602.352 392.326 605.424 397.446 611.568C401.883 616.773 404.102 623.515 404.102 631.792C404.102 642.544 400.816 650.821 394.246 656.624C389.126 661.232 382.811 663.536 375.302 663.536C373.254 663.536 371.035 663.067 368.646 662.128C366.256 661.275 364.678 660.336 363.91 659.312ZM363.91 640.368C363.91 647.792 367.11 651.504 373.51 651.504C377.008 651.504 379.952 649.755 382.342 646.256C384.731 642.672 385.926 638.277 385.926 633.072C385.926 627.525 384.859 623.088 382.726 619.76C380.678 616.432 377.904 614.768 374.406 614.768C367.408 614.768 363.91 619.077 363.91 627.696V640.368ZM431.478 603.888L433.142 608.624C433.91 607.003 435.488 605.552 437.878 604.272C440.267 602.992 442.656 602.352 445.046 602.352C452.982 602.352 458.87 606.235 462.71 614C461.259 614.768 458.827 616.048 455.414 617.84C452.171 619.632 449.739 620.955 448.118 621.808C445.302 618.48 442.315 616.816 439.158 616.816C436.683 616.816 434.934 618.139 433.91 620.784V662H416.758V603.888H431.478ZM523.17 638.576H483.49C483.746 642.075 485.239 645.061 487.97 647.536C490.7 649.925 493.815 651.12 497.314 651.12C502.86 651.12 508.748 649.371 514.978 645.872L519.33 655.088C516.599 657.563 513.015 659.611 508.578 661.232C504.14 662.768 499.874 663.536 495.778 663.536C485.794 663.536 478.028 660.763 472.482 655.216C467.106 649.925 464.418 642.587 464.418 633.2C464.418 624.069 467.447 616.517 473.506 610.544C479.052 605.083 486.05 602.352 494.498 602.352C503.799 602.352 511.052 605.381 516.258 611.44C520.866 616.731 523.17 623.643 523.17 632.176V638.576ZM482.466 625.776H505.762C505.335 618.267 501.495 614.512 494.242 614.512C487.244 614.512 483.319 618.267 482.466 625.776ZM552.651 609.52C554.272 607.557 556.789 605.893 560.203 604.528C563.701 603.077 566.944 602.352 569.931 602.352C577.355 602.352 582.645 604.315 585.803 608.24C589.045 612.165 590.667 618.736 590.667 627.952V662H573.131V628.592C573.131 620.827 569.675 616.944 562.763 616.944C560.971 616.944 559.093 617.285 557.131 617.968C555.253 618.651 553.973 619.419 553.291 620.272V662H535.883V603.888H550.731L552.651 609.52ZM661.42 638.576H621.74C621.996 642.075 623.489 645.061 626.22 647.536C628.95 649.925 632.065 651.12 635.564 651.12C641.11 651.12 646.998 649.371 653.228 645.872L657.58 655.088C654.849 657.563 651.265 659.611 646.828 661.232C642.39 662.768 638.124 663.536 634.028 663.536C624.044 663.536 616.278 660.763 610.732 655.216C605.356 649.925 602.668 642.587 602.668 633.2C602.668 624.069 605.697 616.517 611.756 610.544C617.302 605.083 624.3 602.352 632.748 602.352C642.049 602.352 649.302 605.381 654.508 611.44C659.116 616.731 661.42 623.643 661.42 632.176V638.576ZM620.716 625.776H644.012C643.585 618.267 639.745 614.512 632.492 614.512C625.494 614.512 621.569 618.267 620.716 625.776ZM711.893 655.344C707.882 660.805 702.079 663.536 694.485 663.536C686.975 663.536 681.685 661.701 678.613 658.032C675.626 654.277 674.133 647.835 674.133 638.704V603.888H691.285V633.968C691.285 639.771 691.967 643.781 693.333 646C694.698 648.133 697.215 649.2 700.885 649.2C702.25 649.2 703.871 648.859 705.749 648.176C707.626 647.408 708.693 646.64 708.949 645.872V603.888H726.357V662H713.429L711.893 655.344ZM757.603 603.888L759.267 608.624C760.035 607.003 761.613 605.552 764.003 604.272C766.392 602.992 768.781 602.352 771.171 602.352C779.107 602.352 784.995 606.235 788.835 614C787.384 614.768 784.952 616.048 781.539 617.84C778.296 619.632 775.864 620.955 774.243 621.808C771.427 618.48 768.44 616.816 765.283 616.816C762.808 616.816 761.059 618.139 760.035 620.784V662H742.883V603.888H757.603ZM791.918 655.344L798.318 645.616C802.499 649.285 807.832 651.12 814.318 651.12C816.451 651.12 818.2 650.565 819.566 649.456C821.016 648.347 821.742 646.939 821.742 645.232C821.742 641.819 818.968 639.643 813.422 638.704C807.192 637.68 802.371 635.504 798.958 632.176C795.544 628.848 793.838 624.667 793.838 619.632C793.838 614.683 795.843 610.587 799.854 607.344C803.864 604.016 808.899 602.352 814.958 602.352C823.235 602.352 830.488 604.784 836.718 609.648L830.318 618.864C826.136 616.048 821.315 614.64 815.854 614.64C812.27 614.64 810.478 616.219 810.478 619.376C810.478 622.363 812.995 624.453 818.03 625.648C825.027 627.355 829.763 629.275 832.238 631.408C835.907 634.48 837.742 639.173 837.742 645.488C837.742 650.949 835.779 655.344 831.854 658.672C827.928 661.915 822.638 663.536 815.982 663.536C806.424 663.536 798.403 660.805 791.918 655.344ZM850.383 589.04L867.791 579.44V610.928C868.985 608.283 871.759 605.979 876.111 604.016C878.927 602.821 881.487 602.224 883.791 602.224C891.215 602.224 896.591 604.229 899.919 608.24C903.332 612.251 905.039 618.821 905.039 627.952V662H887.631V628.592C887.631 620.827 884.345 616.944 877.775 616.944C872.74 616.944 869.412 618.224 867.791 620.784V662H850.383V589.04ZM939.955 603.888V662H922.419V603.888H939.955ZM930.739 599.664C927.667 599.664 925.149 598.64 923.187 596.592C921.224 594.544 920.243 591.899 920.243 588.656C920.243 585.669 921.267 583.109 923.315 580.976C925.448 578.757 927.923 577.648 930.739 577.648C933.896 577.648 936.541 578.715 938.675 580.848C940.808 582.981 941.875 585.584 941.875 588.656C941.875 591.899 940.851 594.544 938.803 596.592C936.755 598.64 934.067 599.664 930.739 599.664ZM974.785 659.312V684.784H957.633V603.888H970.689L972.353 609.264C975.681 604.656 980.502 602.352 986.817 602.352C996.033 602.352 1003.2 605.424 1008.32 611.568C1012.76 616.773 1014.98 623.515 1014.98 631.792C1014.98 642.544 1011.69 650.821 1005.12 656.624C1000 661.232 993.686 663.536 986.177 663.536C984.129 663.536 981.91 663.067 979.521 662.128C977.131 661.275 975.553 660.336 974.785 659.312ZM974.785 640.368C974.785 647.792 977.985 651.504 984.385 651.504C987.883 651.504 990.827 649.755 993.217 646.256C995.606 642.672 996.801 638.277 996.801 633.072C996.801 627.525 995.734 623.088 993.601 619.76C991.553 616.432 988.779 614.768 985.281 614.768C978.283 614.768 974.785 619.077 974.785 627.696V640.368ZM205.999 816H191.919L190.639 810.624C190.468 810.709 190.212 810.923 189.871 811.264C184.921 815.445 179.588 817.536 173.871 817.536C160.985 817.536 154.543 811.221 154.543 798.592C154.543 792.363 157.188 787.541 162.479 784.128C168.111 780.459 176.388 778.624 187.311 778.624H188.975V778.496C188.975 775.083 188.292 772.779 186.927 771.584C185.561 770.389 182.959 769.792 179.119 769.792C173.487 769.792 168.367 771.584 163.759 775.168C162.052 772.096 160.516 769.109 159.151 766.208C164.441 762.283 168.836 759.68 172.335 758.4C175.919 757.035 180.313 756.352 185.519 756.352C199.172 756.352 205.999 764.971 205.999 782.208V816ZM188.335 789.12H187.439C182.916 789.12 179.204 789.931 176.303 791.552C173.401 793.173 171.951 795.264 171.951 797.824C171.951 802.688 173.956 805.12 177.967 805.12C180.697 805.12 183.044 804.309 185.007 802.688C186.969 801.067 188.079 799.019 188.335 796.544V789.12ZM238.901 763.52C240.522 761.557 243.039 759.893 246.453 758.528C249.951 757.077 253.194 756.352 256.181 756.352C263.605 756.352 268.895 758.315 272.053 762.24C275.295 766.165 276.917 772.736 276.917 781.952V816H259.381V782.592C259.381 774.827 255.925 770.944 249.013 770.944C247.221 770.944 245.343 771.285 243.381 771.968C241.503 772.651 240.223 773.419 239.541 774.272V816H222.133V757.888H236.981L238.901 763.52ZM330.774 760.832V743.296L348.182 733.696V816H334.23L331.67 809.856C330.39 812.075 328.214 813.909 325.142 815.36C322.155 816.811 319.083 817.536 315.926 817.536C306.624 817.536 299.584 814.507 294.806 808.448C290.88 803.499 288.918 797.099 288.918 789.248C288.918 777.813 292.203 769.109 298.774 763.136C303.638 758.613 309.44 756.352 316.182 756.352C321.984 756.352 326.848 757.845 330.774 760.832ZM330.774 778.368C330.176 775.467 328.896 773.12 326.934 771.328C324.971 769.536 322.667 768.64 320.022 768.64C315.84 768.64 312.555 770.261 310.166 773.504C307.862 776.747 306.71 781.184 306.71 786.816C306.71 799.019 310.464 805.12 317.974 805.12C320.96 805.12 323.776 803.883 326.422 801.408C329.067 798.848 330.518 795.989 330.774 792.832V778.368ZM397.794 815.872V735.104C404.108 733.995 412.13 733.44 421.858 733.44C432.61 733.44 440.631 736 445.922 741.12C450.103 745.216 452.194 750.549 452.194 757.12C452.194 761.045 450.487 764.629 447.074 767.872C443.746 771.115 440.119 772.736 436.194 772.736C436.108 772.736 436.023 772.736 435.938 772.736H435.81V772.864C441.527 773.461 446.05 775.637 449.378 779.392C452.706 783.061 454.37 787.755 454.37 793.472C454.37 801.579 450.914 807.723 444.002 811.904C438.028 815.659 430.007 817.536 419.938 817.536C411.148 817.536 403.767 816.981 397.794 815.872ZM415.842 748.544V765.952H424.674C431.244 765.952 434.53 763.093 434.53 757.376C434.53 750.891 430.476 747.648 422.37 747.648C420.407 747.648 418.231 747.947 415.842 748.544ZM415.842 780.416V802.304C417.804 803.072 420.492 803.456 423.906 803.456H424.29C431.884 803.456 435.682 800.085 435.682 793.344C435.682 784.725 431.714 780.416 423.778 780.416H415.842ZM505.018 809.344C501.007 814.805 495.204 817.536 487.61 817.536C480.1 817.536 474.81 815.701 471.738 812.032C468.751 808.277 467.258 801.835 467.258 792.704V757.888H484.41V787.968C484.41 793.771 485.092 797.781 486.458 800C487.823 802.133 490.34 803.2 494.01 803.2C495.375 803.2 496.996 802.859 498.874 802.176C500.751 801.408 501.818 800.64 502.074 799.872V757.888H519.482V816H506.554L505.018 809.344ZM532.168 809.344L538.568 799.616C542.749 803.285 548.082 805.12 554.568 805.12C556.701 805.12 558.45 804.565 559.816 803.456C561.266 802.347 561.992 800.939 561.992 799.232C561.992 795.819 559.218 793.643 553.672 792.704C547.442 791.68 542.621 789.504 539.208 786.176C535.794 782.848 534.088 778.667 534.088 773.632C534.088 768.683 536.093 764.587 540.104 761.344C544.114 758.016 549.149 756.352 555.208 756.352C563.485 756.352 570.738 758.784 576.968 763.648L570.568 772.864C566.386 770.048 561.565 768.64 556.104 768.64C552.52 768.64 550.728 770.219 550.728 773.376C550.728 776.363 553.245 778.453 558.28 779.648C565.277 781.355 570.013 783.275 572.488 785.408C576.157 788.48 577.992 793.173 577.992 799.488C577.992 804.949 576.029 809.344 572.104 812.672C568.178 815.915 562.888 817.536 556.232 817.536C546.674 817.536 538.653 814.805 532.168 809.344ZM609.705 757.888V816H592.169V757.888H609.705ZM600.489 753.664C597.417 753.664 594.899 752.64 592.937 750.592C590.974 748.544 589.993 745.899 589.993 742.656C589.993 739.669 591.017 737.109 593.065 734.976C595.198 732.757 597.673 731.648 600.489 731.648C603.646 731.648 606.291 732.715 608.425 734.848C610.558 736.981 611.625 739.584 611.625 742.656C611.625 745.899 610.601 748.544 608.553 750.592C606.505 752.64 603.817 753.664 600.489 753.664ZM644.151 763.52C645.772 761.557 648.289 759.893 651.703 758.528C655.201 757.077 658.444 756.352 661.431 756.352C668.855 756.352 674.145 758.315 677.303 762.24C680.545 766.165 682.167 772.736 682.167 781.952V816H664.631V782.592C664.631 774.827 661.175 770.944 654.263 770.944C652.471 770.944 650.593 771.285 648.631 771.968C646.753 772.651 645.473 773.419 644.791 774.272V816H627.383V757.888H642.231L644.151 763.52ZM752.92 792.576H713.24C713.496 796.075 714.989 799.061 717.72 801.536C720.45 803.925 723.565 805.12 727.064 805.12C732.61 805.12 738.498 803.371 744.728 799.872L749.08 809.088C746.349 811.563 742.765 813.611 738.328 815.232C733.89 816.768 729.624 817.536 725.528 817.536C715.544 817.536 707.778 814.763 702.232 809.216C696.856 803.925 694.168 796.587 694.168 787.2C694.168 778.069 697.197 770.517 703.256 764.544C708.802 759.083 715.8 756.352 724.248 756.352C733.549 756.352 740.802 759.381 746.008 765.44C750.616 770.731 752.92 777.643 752.92 786.176V792.576ZM712.216 779.776H735.512C735.085 772.267 731.245 768.512 723.992 768.512C716.994 768.512 713.069 772.267 712.216 779.776ZM761.793 809.344L768.193 799.616C772.374 803.285 777.707 805.12 784.193 805.12C786.326 805.12 788.075 804.565 789.441 803.456C790.891 802.347 791.617 800.939 791.617 799.232C791.617 795.819 788.843 793.643 783.297 792.704C777.067 791.68 772.246 789.504 768.833 786.176C765.419 782.848 763.713 778.667 763.713 773.632C763.713 768.683 765.718 764.587 769.729 761.344C773.739 758.016 778.774 756.352 784.833 756.352C793.11 756.352 800.363 758.784 806.593 763.648L800.193 772.864C796.011 770.048 791.19 768.64 785.729 768.64C782.145 768.64 780.353 770.219 780.353 773.376C780.353 776.363 782.87 778.453 787.905 779.648C794.902 781.355 799.638 783.275 802.113 785.408C805.782 788.48 807.617 793.173 807.617 799.488C807.617 804.949 805.654 809.344 801.729 812.672C797.803 815.915 792.513 817.536 785.857 817.536C776.299 817.536 768.278 814.805 761.793 809.344ZM815.168 809.344L821.568 799.616C825.749 803.285 831.082 805.12 837.568 805.12C839.701 805.12 841.45 804.565 842.816 803.456C844.266 802.347 844.992 800.939 844.992 799.232C844.992 795.819 842.218 793.643 836.672 792.704C830.442 791.68 825.621 789.504 822.208 786.176C818.794 782.848 817.088 778.667 817.088 773.632C817.088 768.683 819.093 764.587 823.104 761.344C827.114 758.016 832.149 756.352 838.208 756.352C846.485 756.352 853.738 758.784 859.968 763.648L853.568 772.864C849.386 770.048 844.565 768.64 839.104 768.64C835.52 768.64 833.728 770.219 833.728 773.376C833.728 776.363 836.245 778.453 841.28 779.648C848.277 781.355 853.013 783.275 855.488 785.408C859.157 788.48 860.992 793.173 860.992 799.488C860.992 804.949 859.029 809.344 855.104 812.672C851.178 815.915 845.888 817.536 839.232 817.536C829.674 817.536 821.653 814.805 815.168 809.344ZM45.2075 888.976V970H27.5435V888.976H45.2075ZM80.1505 917.52C81.7718 915.557 84.2892 913.893 87.7025 912.528C91.2012 911.077 94.4438 910.352 97.4305 910.352C104.855 910.352 110.145 912.315 113.303 916.24C116.545 920.165 118.167 926.736 118.167 935.952V970H100.631V936.592C100.631 928.827 97.1745 924.944 90.2625 924.944C88.4705 924.944 86.5932 925.285 84.6305 925.968C82.7532 926.651 81.4732 927.419 80.7905 928.272V970H63.3825V911.888H78.2305L80.1505 917.52ZM182.904 919.184L177.528 928.528C173.176 924.517 168.482 922.512 163.448 922.512C158.925 922.512 155.213 924.304 152.312 927.888C149.41 931.387 147.96 935.952 147.96 941.584C147.96 946.789 149.368 951.056 152.184 954.384C155 957.627 158.626 959.248 163.064 959.248C168.696 959.248 173.474 957.072 177.4 952.72L183.416 962.192C177.016 968.421 169.72 971.536 161.528 971.536C151.544 971.536 143.608 968.379 137.72 962.064C132.685 956.517 130.168 949.563 130.168 941.2C130.168 931.813 133.41 924.133 139.896 918.16C145.613 912.955 152.568 910.352 160.76 910.352C170.146 910.352 177.528 913.296 182.904 919.184ZM233.018 963.344C229.007 968.805 223.204 971.536 215.61 971.536C208.1 971.536 202.81 969.701 199.738 966.032C196.751 962.277 195.258 955.835 195.258 946.704V911.888H212.41V941.968C212.41 947.771 213.092 951.781 214.458 954C215.823 956.133 218.34 957.2 222.01 957.2C223.375 957.2 224.996 956.859 226.874 956.176C228.751 955.408 229.818 954.64 230.074 953.872V911.888H247.482V970H234.554L233.018 963.344ZM264.008 970V897.296L281.416 887.44V918.544C283.208 915.643 285.81 913.424 289.224 911.888C291.698 910.779 294.386 910.224 297.288 910.224C305.906 910.224 312.605 913.083 317.384 918.8C321.736 924.091 323.912 931.088 323.912 939.792C323.912 951.056 320.712 959.504 314.312 965.136C309.448 969.403 303.346 971.536 296.008 971.536C289.01 971.536 283.506 969.104 279.496 964.24L278.216 970H264.008ZM281.416 948.112C281.672 951.355 282.909 954.085 285.128 956.304C287.346 958.437 290.034 959.504 293.192 959.504C297.032 959.504 300.018 957.883 302.152 954.64C304.37 951.397 305.48 946.875 305.48 941.072C305.48 935.355 304.413 930.875 302.28 927.632C300.232 924.389 297.458 922.768 293.96 922.768C285.597 922.768 281.416 927.333 281.416 936.464V948.112ZM384.249 970H370.169L368.889 964.624C368.718 964.709 368.462 964.923 368.121 965.264C363.171 969.445 357.838 971.536 352.121 971.536C339.235 971.536 332.793 965.221 332.793 952.592C332.793 946.363 335.438 941.541 340.729 938.128C346.361 934.459 354.638 932.624 365.561 932.624H367.225V932.496C367.225 929.083 366.542 926.779 365.177 925.584C363.811 924.389 361.209 923.792 357.369 923.792C351.737 923.792 346.617 925.584 342.009 929.168C340.302 926.096 338.766 923.109 337.401 920.208C342.691 916.283 347.086 913.68 350.585 912.4C354.169 911.035 358.563 910.352 363.769 910.352C377.422 910.352 384.249 918.971 384.249 936.208V970ZM366.585 943.12H365.689C361.166 943.12 357.454 943.931 354.553 945.552C351.651 947.173 350.201 949.264 350.201 951.824C350.201 956.688 352.206 959.12 356.217 959.12C358.947 959.12 361.294 958.309 363.257 956.688C365.219 955.067 366.329 953.019 366.585 950.544V943.12ZM434.815 955.664L440.575 964.496C434.089 969.616 426.964 972.176 419.199 972.176C408.873 972.176 403.711 966.459 403.711 955.024V925.84H395.775V911.888H403.839V901.904C408.873 899.173 414.719 896.059 421.375 892.56V911.888H437.759V925.84H421.247V953.36C421.247 955.749 421.503 957.328 422.015 958.096C422.527 958.864 423.508 959.248 424.958 959.248C427.348 959.248 430.633 958.053 434.815 955.664ZM476.474 910.352C486.116 910.352 493.626 913.723 499.002 920.464C503.439 926.011 505.658 932.88 505.658 941.072C505.658 950.544 502.287 958.267 495.546 964.24C490.084 969.104 483.727 971.536 476.474 971.536C468.111 971.536 461.071 968.379 455.354 962.064C450.063 956.347 447.418 949.349 447.418 941.072C447.418 931.6 450.276 924.005 455.994 918.288C461.284 912.997 468.111 910.352 476.474 910.352ZM465.21 941.072C465.21 952.763 469.007 958.608 476.602 958.608C484.111 958.608 487.866 952.763 487.866 941.072C487.866 928.784 484.068 922.64 476.474 922.64C468.964 922.64 465.21 928.784 465.21 941.072ZM533.103 911.888L534.767 916.624C535.535 915.003 537.113 913.552 539.503 912.272C541.892 910.992 544.281 910.352 546.671 910.352C554.607 910.352 560.495 914.235 564.335 922C562.884 922.768 560.452 924.048 557.039 925.84C553.796 927.632 551.364 928.955 549.743 929.808C546.927 926.48 543.94 924.816 540.783 924.816C538.308 924.816 536.559 926.139 535.535 928.784V970H518.383V911.888H533.103ZM567.418 963.344L573.818 953.616C577.999 957.285 583.332 959.12 589.818 959.12C591.951 959.12 593.7 958.565 595.066 957.456C596.516 956.347 597.242 954.939 597.242 953.232C597.242 949.819 594.468 947.643 588.922 946.704C582.692 945.68 577.871 943.504 574.458 940.176C571.044 936.848 569.338 932.667 569.338 927.632C569.338 922.683 571.343 918.587 575.354 915.344C579.364 912.016 584.399 910.352 590.458 910.352C598.735 910.352 605.988 912.784 612.218 917.648L605.818 926.864C601.636 924.048 596.815 922.64 591.354 922.64C587.77 922.64 585.978 924.219 585.978 927.376C585.978 930.363 588.495 932.453 593.53 933.648C600.527 935.355 605.263 937.275 607.738 939.408C611.407 942.48 613.242 947.173 613.242 953.488C613.242 958.949 611.279 963.344 607.354 966.672C603.428 969.915 598.138 971.536 591.482 971.536C581.924 971.536 573.903 968.805 567.418 963.344ZM716.644 898.192L709.732 909.712C703.502 905.104 697.956 902.8 693.092 902.8C686.777 902.8 681.785 905.275 678.116 910.224C674.446 915.173 672.612 921.872 672.612 930.32C672.612 936.976 674.446 942.779 678.116 947.728C682.126 953.104 687.588 955.792 694.5 955.792C698.937 955.792 704.356 953.787 710.756 949.776L717.668 960.528C710.585 967.867 702.137 971.536 692.324 971.536C678.244 971.536 667.79 966.331 660.964 955.92C656.27 948.667 653.924 940.133 653.924 930.32C653.924 917.179 657.252 906.768 663.908 899.088C670.564 891.323 679.95 887.44 692.068 887.44C700.089 887.44 708.281 891.024 716.644 898.192ZM782.295 946.576H742.615C742.871 950.075 744.364 953.061 747.095 955.536C749.825 957.925 752.94 959.12 756.439 959.12C761.985 959.12 767.873 957.371 774.103 953.872L778.455 963.088C775.724 965.563 772.14 967.611 767.703 969.232C763.265 970.768 758.999 971.536 754.903 971.536C744.919 971.536 737.153 968.763 731.607 963.216C726.231 957.925 723.543 950.587 723.543 941.2C723.543 932.069 726.572 924.517 732.631 918.544C738.177 913.083 745.175 910.352 753.623 910.352C762.924 910.352 770.177 913.381 775.383 919.44C779.991 924.731 782.295 931.643 782.295 940.176V946.576ZM741.591 933.776H764.887C764.46 926.267 760.62 922.512 753.367 922.512C746.369 922.512 742.444 926.267 741.591 933.776ZM811.776 917.52C813.397 915.557 815.914 913.893 819.328 912.528C822.826 911.077 826.069 910.352 829.056 910.352C836.48 910.352 841.77 912.315 844.928 916.24C848.17 920.165 849.792 926.736 849.792 935.952V970H832.256V936.592C832.256 928.827 828.8 924.944 821.888 924.944C820.096 924.944 818.218 925.285 816.256 925.968C814.378 926.651 813.098 927.419 812.416 928.272V970H795.008V911.888H809.856L811.776 917.52ZM898.815 955.664L904.575 964.496C898.089 969.616 890.964 972.176 883.199 972.176C872.873 972.176 867.711 966.459 867.711 955.024V925.84H859.775V911.888H867.839V901.904C872.873 899.173 878.719 896.059 885.375 892.56V911.888H901.759V925.84H885.247V953.36C885.247 955.749 885.503 957.328 886.015 958.096C886.527 958.864 887.508 959.248 888.958 959.248C891.348 959.248 894.633 958.053 898.815 955.664ZM970.17 946.576H930.49C930.746 950.075 932.239 953.061 934.97 955.536C937.7 957.925 940.815 959.12 944.314 959.12C949.86 959.12 955.748 957.371 961.978 953.872L966.33 963.088C963.599 965.563 960.015 967.611 955.578 969.232C951.14 970.768 946.874 971.536 942.778 971.536C932.794 971.536 925.028 968.763 919.482 963.216C914.106 957.925 911.418 950.587 911.418 941.2C911.418 932.069 914.447 924.517 920.506 918.544C926.052 913.083 933.05 910.352 941.498 910.352C950.799 910.352 958.052 913.381 963.258 919.44C967.866 924.731 970.17 931.643 970.17 940.176V946.576ZM929.466 933.776H952.762C952.335 926.267 948.495 922.512 941.242 922.512C934.244 922.512 930.319 926.267 929.466 933.776ZM997.603 911.888L999.267 916.624C1000.03 915.003 1001.61 913.552 1004 912.272C1006.39 910.992 1008.78 910.352 1011.17 910.352C1019.11 910.352 1024.99 914.235 1028.83 922C1027.38 922.768 1024.95 924.048 1021.54 925.84C1018.3 927.632 1015.86 928.955 1014.24 929.808C1011.43 926.48 1008.44 924.816 1005.28 924.816C1002.81 924.816 1001.06 926.139 1000.03 928.784V970H982.883V911.888H997.603Z" fill="#265F71"/>
<defs>
<linearGradient id="paint0_linear_7_108" x1="487.94" y1="478.937" x2="747.792" y2="167.225" gradientUnits="userSpaceOnUse">
<stop offset="0.0145" stop-color="#141F2A"/>
<stop offset="0.1241" stop-color="#17232F"/>
<stop offset="0.2919" stop-color="#20303C"/>
<stop offset="0.4967" stop-color="#314753"/>
<stop offset="0.7308" stop-color="#4D6E7A"/>
<stop offset="0.9828" stop-color="#7BA9B2"/>
</linearGradient>
<linearGradient id="paint1_linear_7_108" x1="628.929" y1="42.5567" x2="705.324" y2="33.048" gradientUnits="userSpaceOnUse">
<stop offset="0.1025" stop-color="#D07E2E"/>
<stop offset="0.3718" stop-color="#D67E30"/>
<stop offset="0.7708" stop-color="#E57D38"/>
<stop offset="0.9828" stop-color="#EF7B3D"/>
</linearGradient>
<linearGradient id="paint2_linear_7_108" x1="218.576" y1="365.298" x2="593.525" y2="47.8792" gradientUnits="userSpaceOnUse">
<stop offset="0.1025" stop-color="#141F2A"/>
<stop offset="0.2029" stop-color="#17232F"/>
<stop offset="0.3521" stop-color="#202F3B"/>
<stop offset="0.5317" stop-color="#2F4451"/>
<stop offset="0.7349" stop-color="#4A6975"/>
<stop offset="0.9554" stop-color="#74A0AA"/>
<stop offset="0.9828" stop-color="#7BA9B2"/>
</linearGradient>
</defs>
</svg>
