<svg xmlns="http://www.w3.org/2000/svg" width="1816" height="462" fill="none" viewBox="0 0 1816 462">
  <path fill="url(#a)" d="M364 97v324.789C364 442.893 346.859 460 325.714 460H96v-38.207c0-21.103 17.141-38.21 38.286-38.21h153.14V97H364Z"/>
  <path fill="url(#b)" d="M364 39.002V77h-77V1h38.501C346.764 1 364 18.015 364 39.002Z"/>
  <path fill="url(#c)" d="M268 1v76.497H76.567V421.75c0 21.125-17.14 38.25-38.285 38.25H0V39.25C0 18.125 17.14 1 38.286 1H268Z"/>
  <path fill="#265F71" d="M532.344 13.976h53.888v14.336h-35.84v17.792h29.824V60.44h-29.824v20.224h37.504V95h-55.552V13.976Zm85.869 28.544c1.621-1.963 4.139-3.627 7.552-4.992 3.499-1.45 6.741-2.176 9.728-2.176 7.424 0 12.715 1.963 15.872 5.888 3.243 3.925 4.864 10.496 4.864 19.712V95h-17.536V61.592c0-7.765-3.456-11.648-10.368-11.648-1.792 0-3.669.341-5.632 1.024-1.877.683-3.157 1.45-3.84 2.304V95h-17.408V36.888h14.848l1.92 5.632Zm87.039 38.144 5.76 8.832c-6.485 5.12-13.611 7.68-21.376 7.68-10.325 0-15.488-5.717-15.488-17.152V50.84h-7.936V36.888h8.064v-9.984a1550.42 1550.42 0 0 1 17.536-9.344v19.328h16.384V50.84h-16.512v27.52c0 2.39.256 3.968.768 4.736.512.768 1.493 1.152 2.944 1.152 2.389 0 5.675-1.195 9.856-3.584Zm32.413-43.776 1.664 4.736c.768-1.621 2.347-3.072 4.736-4.352 2.389-1.28 4.779-1.92 7.168-1.92 7.936 0 13.824 3.883 17.664 11.648-1.451.768-3.883 2.048-7.296 3.84-3.243 1.792-5.675 3.115-7.296 3.968-2.816-3.328-5.803-4.992-8.96-4.992-2.475 0-4.224 1.323-5.248 3.968V95h-17.152V36.888h14.72Zm91.692 34.688h-39.68c.256 3.499 1.749 6.485 4.48 8.96 2.731 2.39 5.845 3.584 9.344 3.584 5.547 0 11.435-1.75 17.664-5.248l4.352 9.216c-2.731 2.475-6.315 4.523-10.752 6.144-4.437 1.536-8.704 2.304-12.8 2.304-9.984 0-17.749-2.773-23.296-8.32-5.376-5.29-8.064-12.63-8.064-22.016 0-9.13 3.029-16.683 9.088-22.656 5.547-5.461 12.544-8.192 20.992-8.192 9.301 0 16.555 3.03 21.76 9.088 4.608 5.29 6.912 12.203 6.912 20.736v6.4Zm-40.704-12.8h23.296c-.427-7.51-4.267-11.264-11.52-11.264-6.997 0-10.923 3.755-11.776 11.264Zm70.569 33.536v25.472H842.07V36.888h13.056l1.664 5.376c3.328-4.608 8.149-6.912 14.464-6.912 9.216 0 16.384 3.072 21.504 9.216 4.437 5.205 6.656 11.947 6.656 20.224 0 10.752-3.285 19.03-9.856 24.832-5.12 4.608-11.435 6.912-18.944 6.912-2.048 0-4.267-.47-6.656-1.408-2.389-.853-3.968-1.792-4.736-2.816Zm0-18.944c0 7.424 3.2 11.136 9.6 11.136 3.499 0 6.443-1.75 8.832-5.248 2.389-3.584 3.584-7.979 3.584-13.184 0-5.547-1.067-9.984-3.2-13.312-2.048-3.328-4.821-4.992-8.32-4.992-6.997 0-10.496 4.31-10.496 12.928v12.672Zm67.568-36.48 1.664 4.736c.768-1.621 2.347-3.072 4.736-4.352 2.389-1.28 4.779-1.92 7.168-1.92 7.936 0 13.824 3.883 17.664 11.648-1.451.768-3.883 2.048-7.296 3.84-3.243 1.792-5.675 3.115-7.296 3.968-2.816-3.328-5.803-4.992-8.96-4.992-2.475 0-4.224 1.323-5.248 3.968V95H912.07V36.888h14.72Zm91.69 34.688h-39.678c.256 3.499 1.749 6.485 4.48 8.96 2.731 2.39 5.845 3.584 9.344 3.584 5.547 0 11.434-1.75 17.664-5.248l4.35 9.216c-2.73 2.475-6.31 4.523-10.75 6.144-4.437 1.536-8.704 2.304-12.8 2.304-9.984 0-17.749-2.773-23.296-8.32-5.376-5.29-8.064-12.63-8.064-22.016 0-9.13 3.029-16.683 9.088-22.656 5.547-5.461 12.544-8.192 20.992-8.192 9.301 0 16.55 3.03 21.76 9.088 4.61 5.29 6.91 12.203 6.91 20.736v6.4Zm-40.702-12.8h23.292c-.42-7.51-4.263-11.264-11.516-11.264-6.997 0-10.923 3.755-11.776 11.264Zm70.182-16.256c1.62-1.963 4.14-3.627 7.56-4.992 3.49-1.45 6.74-2.176 9.72-2.176 7.43 0 12.72 1.963 15.88 5.888 3.24 3.925 4.86 10.496 4.86 19.712V95h-17.54V61.592c0-7.765-3.45-11.648-10.36-11.648-1.8 0-3.67.341-5.64 1.024-1.87.683-3.15 1.45-3.84 2.304V95h-17.4V36.888h14.84l1.92 5.632Zm108.77 29.056h-39.68c.26 3.499 1.75 6.485 4.48 8.96 2.73 2.39 5.85 3.584 9.35 3.584 5.54 0 11.43-1.75 17.66-5.248l4.35 9.216c-2.73 2.475-6.31 4.523-10.75 6.144-4.44 1.536-8.7 2.304-12.8 2.304-9.98 0-17.75-2.773-23.3-8.32-5.37-5.29-8.06-12.63-8.06-22.016 0-9.13 3.03-16.683 9.09-22.656 5.54-5.461 12.54-8.192 20.99-8.192 9.3 0 16.55 3.03 21.76 9.088 4.61 5.29 6.91 12.203 6.91 20.736v6.4Zm-40.7-12.8h23.29c-.42-7.51-4.26-11.264-11.52-11.264-6.99 0-10.92 3.755-11.77 11.264Zm91.18 29.568c-4.02 5.461-9.82 8.192-17.41 8.192-7.51 0-12.8-1.835-15.87-5.504-2.99-3.755-4.48-10.197-4.48-19.328V36.888h17.15v30.08c0 5.803.68 9.813 2.05 12.032 1.36 2.133 3.88 3.2 7.55 3.2 1.36 0 2.98-.341 4.86-1.024 1.88-.768 2.95-1.536 3.2-2.304V36.888h17.41V95h-12.93l-1.53-6.656Zm45.71-51.456 1.66 4.736c.77-1.621 2.35-3.072 4.74-4.352 2.38-1.28 4.77-1.92 7.16-1.92 7.94 0 13.83 3.883 17.67 11.648-1.45.768-3.89 2.048-7.3 3.84-3.24 1.792-5.67 3.115-7.29 3.968-2.82-3.328-5.81-4.992-8.96-4.992-2.48 0-4.23 1.323-5.25 3.968V95h-17.15V36.888h14.72Zm34.31 51.456 6.4-9.728c4.18 3.67 9.51 5.504 16 5.504 2.13 0 3.88-.555 5.25-1.664 1.45-1.11 2.17-2.517 2.17-4.224 0-3.413-2.77-5.59-8.32-6.528-6.23-1.024-11.05-3.2-14.46-6.528-3.41-3.328-5.12-7.51-5.12-12.544 0-4.95 2.01-9.045 6.02-12.288 4.01-3.328 9.04-4.992 15.1-4.992 8.28 0 15.53 2.432 21.76 7.296l-6.4 9.216c-4.18-2.816-9-4.224-14.46-4.224-3.59 0-5.38 1.579-5.38 4.736 0 2.987 2.52 5.077 7.55 6.272 7 1.707 11.74 3.627 14.21 5.76 3.67 3.072 5.5 7.765 5.5 14.08 0 5.461-1.96 9.856-5.88 13.184-3.93 3.243-9.22 4.864-15.88 4.864-9.55 0-17.57-2.73-24.06-8.192Zm58.47-66.304 17.4-9.6v31.488c1.2-2.645 3.97-4.95 8.32-6.912 2.82-1.195 5.38-1.792 7.68-1.792 7.43 0 12.8 2.005 16.13 6.016 3.41 4.01 5.12 10.581 5.12 19.712V95h-17.41V61.592c0-7.765-3.28-11.648-9.85-11.648-5.04 0-8.37 1.28-9.99 3.84V95h-17.4V22.04Zm89.57 14.848V95h-17.54V36.888h17.54Zm-9.22-4.224c-3.07 0-5.59-1.024-7.55-3.072s-2.94-4.693-2.94-7.936c0-2.987 1.02-5.547 3.07-7.68 2.13-2.219 4.61-3.328 7.42-3.328 3.16 0 5.8 1.067 7.94 3.2 2.13 2.133 3.2 4.736 3.2 7.808 0 3.243-1.03 5.888-3.07 7.936-2.05 2.048-4.74 3.072-8.07 3.072Zm44.05 59.648v25.472h-17.15V36.888H1466l1.67 5.376c3.32-4.608 8.14-6.912 14.46-6.912 9.22 0 16.38 3.072 21.5 9.216 4.44 5.205 6.66 11.947 6.66 20.224 0 10.752-3.29 19.03-9.86 24.832-5.12 4.608-11.43 6.912-18.94 6.912-2.05 0-4.27-.47-6.66-1.408-2.39-.853-3.96-1.792-4.73-2.816Zm0-18.944c0 7.424 3.2 11.136 9.6 11.136 3.5 0 6.44-1.75 8.83-5.248 2.39-3.584 3.58-7.979 3.58-13.184 0-5.547-1.06-9.984-3.2-13.312-2.04-3.328-4.82-4.992-8.32-4.992-6.99 0-10.49 4.31-10.49 12.928v12.672ZM578.936 249h-14.08l-1.28-5.376c-.171.085-.427.299-.768.64-4.949 4.181-10.283 6.272-16 6.272-12.885 0-19.328-6.315-19.328-18.944 0-6.229 2.645-11.051 7.936-14.464 5.632-3.669 13.909-5.504 24.832-5.504h1.664v-.128c0-3.413-.683-5.717-2.048-6.912-1.365-1.195-3.968-1.792-7.808-1.792-5.632 0-10.752 1.792-15.36 5.376a149.737 149.737 0 0 1-4.608-8.96c5.291-3.925 9.685-6.528 13.184-7.808 3.584-1.365 7.979-2.048 13.184-2.048 13.653 0 20.48 8.619 20.48 25.856V249Zm-17.664-26.88h-.896c-4.523 0-8.235.811-11.136 2.432s-4.352 3.712-4.352 6.272c0 4.864 2.005 7.296 6.016 7.296 2.731 0 5.077-.811 7.04-2.432s3.072-3.669 3.328-6.144v-7.424Zm50.566-25.6c1.621-1.963 4.139-3.627 7.552-4.992 3.499-1.451 6.741-2.176 9.728-2.176 7.424 0 12.715 1.963 15.872 5.888 3.243 3.925 4.864 10.496 4.864 19.712V249h-17.536v-33.408c0-7.765-3.456-11.648-10.368-11.648-1.792 0-3.669.341-5.632 1.024-1.877.683-3.157 1.451-3.84 2.304V249H595.07v-58.112h14.848l1.92 5.632Zm91.873-2.688v-17.536l17.408-9.6V249h-13.952l-2.56-6.144c-1.28 2.219-3.456 4.053-6.528 5.504-2.987 1.451-6.059 2.176-9.216 2.176-9.301 0-16.341-3.029-21.12-9.088-3.925-4.949-5.888-11.349-5.888-19.2 0-11.435 3.285-20.139 9.856-26.112 4.864-4.523 10.667-6.784 17.408-6.784 5.803 0 10.667 1.493 14.592 4.48Zm0 17.536c-.597-2.901-1.877-5.248-3.84-7.04-1.963-1.792-4.267-2.688-6.912-2.688-4.181 0-7.467 1.621-9.856 4.864-2.304 3.243-3.456 7.68-3.456 13.312 0 12.203 3.755 18.304 11.264 18.304 2.987 0 5.803-1.237 8.448-3.712 2.645-2.56 4.096-5.419 4.352-8.576v-14.464Zm67.02 37.504v-80.768c6.315-1.109 14.336-1.664 24.064-1.664 10.752 0 18.773 2.56 24.064 7.68 4.181 4.096 6.272 9.429 6.272 16 0 3.925-1.707 7.509-5.12 10.752-3.328 3.243-6.955 4.864-10.88 4.864h-.384v.128c5.717.597 10.24 2.773 13.568 6.528 3.328 3.669 4.992 8.363 4.992 14.08 0 8.107-3.456 14.251-10.368 18.432-5.973 3.755-13.995 5.632-24.064 5.632-8.789 0-16.171-.555-22.144-1.664Zm18.048-67.328v17.408h8.832c6.571 0 9.856-2.859 9.856-8.576 0-6.485-4.053-9.728-12.16-9.728-1.963 0-4.139.299-6.528.896Zm0 31.872v21.888c1.963.768 4.651 1.152 8.064 1.152h.384c7.595 0 11.392-3.371 11.392-10.112 0-8.619-3.968-12.928-11.904-12.928h-7.936Zm89.176 28.928c-4.011 5.461-9.813 8.192-17.408 8.192-7.509 0-12.8-1.835-15.872-5.504-2.987-3.755-4.48-10.197-4.48-19.328v-34.816h17.152v30.08c0 5.803.683 9.813 2.048 12.032 1.365 2.133 3.883 3.2 7.552 3.2 1.365 0 2.987-.341 4.864-1.024 1.877-.768 2.944-1.536 3.2-2.304v-41.984h17.408V249h-12.928l-1.536-6.656Zm27.15 0 6.4-9.728c4.181 3.669 9.515 5.504 16 5.504 2.133 0 3.883-.555 5.248-1.664 1.451-1.109 2.176-2.517 2.176-4.224 0-3.413-2.773-5.589-8.32-6.528-6.229-1.024-11.051-3.2-14.464-6.528-3.413-3.328-5.12-7.509-5.12-12.544 0-4.949 2.005-9.045 6.016-12.288 4.011-3.328 9.045-4.992 15.104-4.992 8.277 0 15.531 2.432 21.76 7.296l-6.4 9.216c-4.181-2.816-9.003-4.224-14.464-4.224-3.584 0-5.376 1.579-5.376 4.736 0 2.987 2.517 5.077 7.552 6.272 6.997 1.707 11.733 3.627 14.208 5.76 3.669 3.072 5.504 7.765 5.504 14.08 0 5.461-1.963 9.856-5.888 13.184-3.925 3.243-9.216 4.864-15.872 4.864-9.557 0-17.579-2.731-24.064-8.192Zm77.537-51.456V249h-17.536v-58.112h17.536Zm-9.216-4.224c-3.072 0-5.589-1.024-7.552-3.072-1.963-2.048-2.944-4.693-2.944-7.936 0-2.987 1.024-5.547 3.072-7.68 2.133-2.219 4.608-3.328 7.424-3.328 3.157 0 5.803 1.067 7.936 3.2s3.2 4.736 3.2 7.808c0 3.243-1.024 5.888-3.072 7.936s-4.736 3.072-8.064 3.072Zm43.664 9.856c1.62-1.963 4.14-3.627 7.55-4.992 3.5-1.451 6.74-2.176 9.73-2.176 7.42 0 12.71 1.963 15.87 5.888 3.24 3.925 4.86 10.496 4.86 19.712V249h-17.53v-33.408c0-7.765-3.46-11.648-10.37-11.648-1.79 0-3.67.341-5.63 1.024-1.88.683-3.16 1.451-3.84 2.304V249h-17.41v-58.112h14.85l1.92 5.632Zm108.77 29.056h-39.68c.25 3.499 1.75 6.485 4.48 8.96 2.73 2.389 5.84 3.584 9.34 3.584 5.55 0 11.44-1.749 17.67-5.248l4.35 9.216c-2.73 2.475-6.32 4.523-10.75 6.144-4.44 1.536-8.71 2.304-12.8 2.304-9.99 0-17.75-2.773-23.3-8.32-5.38-5.291-8.06-12.629-8.06-22.016 0-9.131 3.02-16.683 9.08-22.656 5.55-5.461 12.55-8.192 21-8.192 9.3 0 16.55 3.029 21.76 9.088 4.6 5.291 6.91 12.203 6.91 20.736v6.4Zm-40.71-12.8h23.3c-.43-7.509-4.27-11.264-11.52-11.264-7 0-10.92 3.755-11.78 11.264Zm49.58 29.568 6.4-9.728c4.18 3.669 9.51 5.504 16 5.504 2.13 0 3.88-.555 5.25-1.664 1.45-1.109 2.17-2.517 2.17-4.224 0-3.413-2.77-5.589-8.32-6.528-6.23-1.024-11.05-3.2-14.46-6.528-3.41-3.328-5.12-7.509-5.12-12.544 0-4.949 2.01-9.045 6.02-12.288 4.01-3.328 9.04-4.992 15.1-4.992 8.28 0 15.53 2.432 21.76 7.296l-6.4 9.216c-4.18-2.816-9-4.224-14.46-4.224-3.59 0-5.38 1.579-5.38 4.736 0 2.987 2.52 5.077 7.55 6.272 7 1.707 11.74 3.627 14.21 5.76 3.67 3.072 5.5 7.765 5.5 14.08 0 5.461-1.96 9.856-5.88 13.184-3.93 3.243-9.22 4.864-15.88 4.864-9.55 0-17.57-2.731-24.06-8.192Zm53.38 0 6.4-9.728c4.18 3.669 9.51 5.504 16 5.504 2.13 0 3.88-.555 5.24-1.664 1.45-1.109 2.18-2.517 2.18-4.224 0-3.413-2.77-5.589-8.32-6.528-6.23-1.024-11.05-3.2-14.46-6.528-3.42-3.328-5.12-7.509-5.12-12.544 0-4.949 2-9.045 6.01-12.288 4.01-3.328 9.05-4.992 15.11-4.992 8.27 0 15.53 2.432 21.76 7.296l-6.4 9.216c-4.19-2.816-9.01-4.224-14.47-4.224-3.58 0-5.37 1.579-5.37 4.736 0 2.987 2.51 5.077 7.55 6.272 6.99 1.707 11.73 3.627 14.21 5.76 3.66 3.072 5.5 7.765 5.5 14.08 0 5.461-1.96 9.856-5.89 13.184-3.92 3.243-9.21 4.864-15.87 4.864-9.56 0-17.58-2.731-24.06-8.192Zm-637.59 79.632V403h-17.664v-81.024h17.664Zm34.943 28.544c1.621-1.963 4.139-3.627 7.552-4.992 3.499-1.451 6.741-2.176 9.728-2.176 7.424 0 12.715 1.963 15.872 5.888 3.243 3.925 4.864 10.496 4.864 19.712V403h-17.536v-33.408c0-7.765-3.456-11.648-10.368-11.648-1.792 0-3.669.341-5.632 1.024-1.877.683-3.157 1.451-3.84 2.304V403h-17.408v-58.112h14.848l1.92 5.632Zm102.753 1.664-5.376 9.344c-4.352-4.011-9.045-6.016-14.08-6.016-4.523 0-8.235 1.792-11.136 5.376-2.901 3.499-4.352 8.064-4.352 13.696 0 5.205 1.408 9.472 4.224 12.8 2.816 3.243 6.443 4.864 10.88 4.864 5.632 0 10.411-2.176 14.336-6.528l6.016 9.472c-6.4 6.229-13.696 9.344-21.888 9.344-9.984 0-17.92-3.157-23.808-9.472-5.035-5.547-7.552-12.501-7.552-20.864 0-9.387 3.243-17.067 9.728-23.04 5.717-5.205 12.672-7.808 20.864-7.808 9.387 0 16.768 2.944 22.144 8.832Zm50.114 44.16c-4.011 5.461-9.813 8.192-17.408 8.192-7.509 0-12.8-1.835-15.872-5.504-2.987-3.755-4.48-10.197-4.48-19.328v-34.816h17.152v30.08c0 5.803.683 9.813 2.048 12.032 1.365 2.133 3.883 3.2 7.552 3.2 1.365 0 2.987-.341 4.864-1.024 1.877-.768 2.944-1.536 3.2-2.304v-41.984h17.408V403h-12.928l-1.536-6.656ZM769.32 403v-72.704l17.408-9.856v31.104c1.792-2.901 4.395-5.12 7.808-6.656 2.475-1.109 5.163-1.664 8.064-1.664 8.619 0 15.317 2.859 20.096 8.576 4.352 5.291 6.528 12.288 6.528 20.992 0 11.264-3.2 19.712-9.6 25.344-4.864 4.267-10.965 6.4-18.304 6.4-6.997 0-12.501-2.432-16.512-7.296l-1.28 5.76H769.32Zm17.408-21.888c.256 3.243 1.493 5.973 3.712 8.192 2.219 2.133 4.907 3.2 8.064 3.2 3.84 0 6.827-1.621 8.96-4.864 2.219-3.243 3.328-7.765 3.328-13.568 0-5.717-1.067-10.197-3.2-13.44-2.048-3.243-4.821-4.864-8.32-4.864-8.363 0-12.544 4.565-12.544 13.696v11.648ZM889.561 403h-14.08l-1.28-5.376c-.171.085-.427.299-.768.64-4.949 4.181-10.283 6.272-16 6.272-12.885 0-19.328-6.315-19.328-18.944 0-6.229 2.645-11.051 7.936-14.464 5.632-3.669 13.909-5.504 24.832-5.504h1.664v-.128c0-3.413-.683-5.717-2.048-6.912-1.365-1.195-3.968-1.792-7.808-1.792-5.632 0-10.752 1.792-15.36 5.376a149.737 149.737 0 0 1-4.608-8.96c5.291-3.925 9.685-6.528 13.184-7.808 3.584-1.365 7.979-2.048 13.184-2.048 13.653 0 20.48 8.619 20.48 25.856V403Zm-17.664-26.88h-.896c-4.523 0-8.235.811-11.136 2.432s-4.352 3.712-4.352 6.272c0 4.864 2.005 7.296 6.016 7.296 2.731 0 5.077-.811 7.04-2.432s3.072-3.669 3.328-6.144v-7.424Zm68.23 12.544 5.76 8.832c-6.485 5.12-13.611 7.68-21.376 7.68-10.325 0-15.488-5.717-15.488-17.152V358.84h-7.936v-13.952h8.064v-9.984a1550.42 1550.42 0 0 1 17.536-9.344v19.328h16.384v13.952h-16.512v27.52c0 2.389.256 3.968.768 4.736.512.768 1.493 1.152 2.944 1.152 2.389 0 5.675-1.195 9.856-3.584Zm41.659-45.312c9.643 0 17.152 3.371 22.524 10.112 4.44 5.547 6.66 12.416 6.66 20.608 0 9.472-3.37 17.195-10.11 23.168-5.463 4.864-11.821 7.296-19.074 7.296-8.363 0-15.403-3.157-21.12-9.472-5.291-5.717-7.936-12.715-7.936-20.992 0-9.472 2.859-17.067 8.576-22.784 5.291-5.291 12.117-7.936 20.48-7.936Zm-11.264 30.72c0 11.691 3.797 17.536 11.392 17.536 7.509 0 11.264-5.845 11.264-17.536 0-12.288-3.797-18.432-11.392-18.432-7.509 0-11.264 6.144-11.264 18.432Zm67.898-29.184 1.66 4.736c.77-1.621 2.35-3.072 4.74-4.352 2.38-1.28 4.77-1.92 7.16-1.92 7.94 0 13.83 3.883 17.67 11.648-1.45.768-3.89 2.048-7.3 3.84-3.24 1.792-5.67 3.115-7.29 3.968-2.82-3.328-5.81-4.992-8.96-4.992-2.48 0-4.23 1.323-5.25 3.968V403h-17.15v-58.112h14.72Zm34.31 51.456 6.4-9.728c4.18 3.669 9.51 5.504 16 5.504 2.13 0 3.88-.555 5.25-1.664 1.45-1.109 2.17-2.517 2.17-4.224 0-3.413-2.77-5.589-8.32-6.528-6.23-1.024-11.05-3.2-14.46-6.528-3.41-3.328-5.12-7.509-5.12-12.544 0-4.949 2.01-9.045 6.02-12.288 4.01-3.328 9.04-4.992 15.1-4.992 8.28 0 15.53 2.432 21.76 7.296l-6.4 9.216c-4.18-2.816-9-4.224-14.46-4.224-3.59 0-5.38 1.579-5.38 4.736 0 2.987 2.52 5.077 7.55 6.272 7 1.707 11.74 3.627 14.21 5.76 3.67 3.072 5.5 7.765 5.5 14.08 0 5.461-1.96 9.856-5.88 13.184-3.93 3.243-9.22 4.864-15.88 4.864-9.55 0-17.57-2.731-24.06-8.192Zm149.23-65.152-6.92 11.52c-6.23-4.608-11.77-6.912-16.64-6.912-6.31 0-11.3 2.475-14.97 7.424s-5.51 11.648-5.51 20.096c0 6.656 1.84 12.459 5.51 17.408 4.01 5.376 9.47 8.064 16.38 8.064 4.44 0 9.86-2.005 16.26-6.016l6.91 10.752c-7.08 7.339-15.53 11.008-25.34 11.008-14.08 0-24.54-5.205-31.36-15.616-4.7-7.253-7.04-15.787-7.04-25.6 0-13.141 3.32-23.552 9.98-31.232 6.66-7.765 16.04-11.648 28.16-11.648 8.02 0 16.21 3.584 24.58 10.752Zm65.65 48.384h-39.68c.25 3.499 1.75 6.485 4.48 8.96 2.73 2.389 5.84 3.584 9.34 3.584 5.55 0 11.44-1.749 17.67-5.248l4.35 9.216c-2.73 2.475-6.32 4.523-10.75 6.144-4.44 1.536-8.71 2.304-12.8 2.304-9.99 0-17.75-2.773-23.3-8.32-5.38-5.291-8.06-12.629-8.06-22.016 0-9.131 3.02-16.683 9.08-22.656 5.55-5.461 12.55-8.192 21-8.192 9.3 0 16.55 3.029 21.76 9.088 4.6 5.291 6.91 12.203 6.91 20.736v6.4Zm-40.71-12.8h23.3c-.43-7.509-4.27-11.264-11.52-11.264-7 0-10.92 3.755-11.78 11.264Zm70.19-16.256c1.62-1.963 4.14-3.627 7.55-4.992 3.5-1.451 6.74-2.176 9.73-2.176 7.42 0 12.71 1.963 15.87 5.888 3.24 3.925 4.86 10.496 4.86 19.712V403h-17.53v-33.408c0-7.765-3.46-11.648-10.37-11.648-1.79 0-3.67.341-5.63 1.024-1.88.683-3.16 1.451-3.84 2.304V403h-17.41v-58.112h14.85l1.92 5.632Zm87.04 38.144 5.76 8.832c-6.49 5.12-13.61 7.68-21.38 7.68-10.32 0-15.49-5.717-15.49-17.152V358.84h-7.93v-13.952h8.06v-9.984c5.04-2.731 10.88-5.845 17.54-9.344v19.328h16.38v13.952h-16.51v27.52c0 2.389.26 3.968.77 4.736.51.768 1.49 1.152 2.94 1.152 2.39 0 5.68-1.195 9.86-3.584Zm71.35-9.088h-39.68c.26 3.499 1.75 6.485 4.48 8.96 2.73 2.389 5.85 3.584 9.35 3.584 5.54 0 11.43-1.749 17.66-5.248l4.35 9.216c-2.73 2.475-6.31 4.523-10.75 6.144-4.44 1.536-8.7 2.304-12.8 2.304-9.98 0-17.75-2.773-23.3-8.32-5.37-5.291-8.06-12.629-8.06-22.016 0-9.131 3.03-16.683 9.09-22.656 5.54-5.461 12.54-8.192 20.99-8.192 9.3 0 16.55 3.029 21.76 9.088 4.61 5.291 6.91 12.203 6.91 20.736v6.4Zm-40.7-12.8h23.29c-.42-7.509-4.26-11.264-11.52-11.264-6.99 0-10.92 3.755-11.77 11.264Zm68.14-21.888 1.66 4.736c.77-1.621 2.35-3.072 4.74-4.352 2.38-1.28 4.77-1.92 7.16-1.92 7.94 0 13.83 3.883 17.67 11.648-1.45.768-3.89 2.048-7.3 3.84-3.24 1.792-5.67 3.115-7.29 3.968-2.82-3.328-5.81-4.992-8.96-4.992-2.48 0-4.23 1.323-5.25 3.968V403h-17.15v-58.112h14.72Z"/>
  <defs>
    <linearGradient id="a" x1="146.94" x2="406.792" y1="479.937" y2="168.225" gradientUnits="userSpaceOnUse">
      <stop offset=".015" stop-color="#141F2A"/>
      <stop offset=".124" stop-color="#17232F"/>
      <stop offset=".292" stop-color="#20303C"/>
      <stop offset=".497" stop-color="#314753"/>
      <stop offset=".731" stop-color="#4D6E7A"/>
      <stop offset=".983" stop-color="#7BA9B2"/>
    </linearGradient>
    <linearGradient id="b" x1="287.929" x2="364.324" y1="43.557" y2="34.048" gradientUnits="userSpaceOnUse">
      <stop offset=".102" stop-color="#D07E2E"/>
      <stop offset=".372" stop-color="#D67E30"/>
      <stop offset=".771" stop-color="#E57D38"/>
      <stop offset=".983" stop-color="#EF7B3D"/>
    </linearGradient>
    <linearGradient id="c" x1="-122.424" x2="252.525" y1="366.298" y2="48.879" gradientUnits="userSpaceOnUse">
      <stop offset=".102" stop-color="#141F2A"/>
      <stop offset=".203" stop-color="#17232F"/>
      <stop offset=".352" stop-color="#202F3B"/>
      <stop offset=".532" stop-color="#2F4451"/>
      <stop offset=".735" stop-color="#4A6975"/>
      <stop offset=".955" stop-color="#74A0AA"/>
      <stop offset=".983" stop-color="#7BA9B2"/>
    </linearGradient>
  </defs>
</svg>
