<svg width="289" height="289" viewBox="0 0 289 289" fill="none" xmlns="http://www.w3.org/2000/svg">
<g clip-path="url(#clip0_40_2)">
<mask id="path-1-inside-1_40_2" fill="white">
<path fill-rule="evenodd" clip-rule="evenodd" d="M117.407 82.1175C125.328 76.8249 134.64 74 144.167 74C156.941 74 169.193 79.0747 178.226 88.1077C187.259 97.1407 192.333 109.392 192.333 122.167C192.333 131.693 189.508 141.006 184.216 148.927C178.923 156.848 171.401 163.021 162.599 166.667C153.798 170.312 144.113 171.266 134.77 169.408C125.426 167.549 116.844 162.962 110.108 156.226C103.371 149.489 98.7841 140.907 96.9255 131.564C95.067 122.22 96.0209 112.535 99.6665 103.734C103.312 94.9328 109.486 87.4102 117.407 82.1175ZM124.555 96.393C130.311 92.8768 137.078 91 144 91C153.283 91 162.185 94.3714 168.749 100.373C175.313 106.374 179 114.513 179 123C179 129.329 176.947 135.516 173.101 140.778C169.256 146.041 163.789 150.142 157.394 152.564C150.999 154.986 143.961 155.62 137.172 154.385C130.383 153.15 124.146 150.103 119.251 145.627C114.356 141.152 111.023 135.45 109.673 129.243C108.322 123.035 109.015 116.601 111.664 110.754C114.313 104.907 118.799 99.9092 124.555 96.393Z"/>
</mask>
<path fill-rule="evenodd" clip-rule="evenodd" d="M117.407 82.1175C125.328 76.8249 134.64 74 144.167 74C156.941 74 169.193 79.0747 178.226 88.1077C187.259 97.1407 192.333 109.392 192.333 122.167C192.333 131.693 189.508 141.006 184.216 148.927C178.923 156.848 171.401 163.021 162.599 166.667C153.798 170.312 144.113 171.266 134.77 169.408C125.426 167.549 116.844 162.962 110.108 156.226C103.371 149.489 98.7841 140.907 96.9255 131.564C95.067 122.22 96.0209 112.535 99.6665 103.734C103.312 94.9328 109.486 87.4102 117.407 82.1175ZM124.555 96.393C130.311 92.8768 137.078 91 144 91C153.283 91 162.185 94.3714 168.749 100.373C175.313 106.374 179 114.513 179 123C179 129.329 176.947 135.516 173.101 140.778C169.256 146.041 163.789 150.142 157.394 152.564C150.999 154.986 143.961 155.62 137.172 154.385C130.383 153.15 124.146 150.103 119.251 145.627C114.356 141.152 111.023 135.45 109.673 129.243C108.322 123.035 109.015 116.601 111.664 110.754C114.313 104.907 118.799 99.9092 124.555 96.393Z" fill="#FE6600"/>
<path d="M117.407 82.1175L24.6265 -56.7379L24.6265 -56.7379L117.407 82.1175ZM184.216 148.927L45.3604 56.1463L45.3604 56.1464L184.216 148.927ZM134.77 169.408L102.19 333.199L102.19 333.199L134.77 169.408ZM110.108 156.226L228.195 38.1388L228.195 38.1388L110.108 156.226ZM96.9255 131.564L260.717 98.9834L96.9255 131.564ZM99.6665 103.734L-54.6214 39.8259L-54.6214 39.8259L99.6665 103.734ZM124.555 96.393L37.4942 -46.1181L37.4942 -46.1181L124.555 96.393ZM168.749 100.373L56.0623 223.623L56.0623 223.623L168.749 100.373ZM173.101 140.778L38.2704 42.2409L38.2704 42.241L173.101 140.778ZM157.394 152.564L216.539 308.74L216.539 308.74L157.394 152.564ZM109.673 129.243L272.855 93.7408L272.855 93.7408L109.673 129.243ZM111.664 110.754L263.781 179.67L263.781 179.67L111.664 110.754ZM144.167 -93C101.611 -93 60.0105 -80.3807 24.6265 -56.7379L210.187 220.973C190.645 234.031 167.67 241 144.167 241V-93ZM296.312 -29.9792C255.961 -70.3307 201.232 -93 144.167 -93V241C112.65 241 82.4244 228.48 60.1389 206.195L296.312 -29.9792ZM359.333 122.167C359.333 65.101 336.664 10.3725 296.312 -29.9792L60.1389 206.195C37.8532 183.909 25.3334 153.683 25.3334 122.167H359.333ZM323.071 241.707C346.714 206.323 359.333 164.723 359.333 122.167H25.3334C25.3334 98.6637 32.3028 75.6884 45.3604 56.1463L323.071 241.707ZM226.507 320.955C265.824 304.669 299.429 277.091 323.071 241.707L45.3604 56.1464C58.4179 36.6045 76.9771 21.3733 98.6911 12.379L226.507 320.955ZM102.19 333.199C143.928 341.501 187.191 337.24 226.507 320.955L98.6911 12.379C120.405 3.38475 144.299 1.03149 167.35 5.61668L102.19 333.199ZM-7.97912 274.312C22.1125 304.404 60.4515 324.897 102.19 333.199L167.35 5.61669C190.401 10.2019 211.575 21.5197 228.195 38.1388L-7.97912 274.312ZM-66.8656 164.144C-58.5634 205.882 -38.0707 244.221 -7.97911 274.312L228.195 38.1388C244.814 54.7579 256.131 75.932 260.717 98.9834L-66.8656 164.144ZM-54.6214 39.8259C-70.9068 79.1425 -75.1679 122.405 -66.8656 164.144L260.717 98.9834C265.302 122.035 262.949 145.928 253.954 167.642L-54.6214 39.8259ZM24.6265 -56.7379C-10.7574 -33.0951 -38.3359 0.509275 -54.6214 39.8259L253.954 167.642C244.96 189.356 229.729 207.915 210.187 220.973L24.6265 -56.7379ZM144 -76C107.208 -76 70.1821 -66.0873 37.4942 -46.1181L211.616 238.904C190.439 251.841 166.947 258 144 258V-76ZM281.435 -22.8782C242.641 -58.3468 192.985 -76 144 -76V258C113.581 258 81.7285 247.09 56.0623 223.623L281.435 -22.8782ZM346 123C346 65.147 320.729 13.0477 281.435 -22.8783L56.0623 223.623C29.8959 199.7 12 163.879 12 123H346ZM307.932 239.316C332.013 206.365 346 165.871 346 123H12C12 92.7865 21.8814 64.6664 38.2704 42.2409L307.932 239.316ZM216.539 308.74C251.649 295.443 284.014 272.044 307.933 239.315L38.2704 42.241C54.4976 20.0369 75.9295 4.84096 98.2487 -3.61153L216.539 308.74ZM107.291 318.69C143.657 325.304 181.488 322.014 216.539 308.74L98.2487 -3.61155C120.509 -12.0417 144.265 -14.0641 167.053 -9.91987L107.291 318.69ZM6.5648 268.878C35.6165 295.44 70.902 312.072 107.291 318.69L167.053 -9.91987C189.863 -5.77153 212.676 4.76559 231.938 22.3766L6.5648 268.878ZM-53.5102 164.745C-44.476 206.27 -22.6419 242.175 6.5648 268.878L231.938 22.3766C251.355 40.1293 266.522 64.6307 272.855 93.7408L-53.5102 164.745ZM-40.4528 41.8381C-57.7535 80.0257 -62.581 123.052 -53.5102 164.745L272.855 93.7408C279.225 123.019 275.784 153.177 263.781 179.67L-40.4528 41.8381ZM37.4942 -46.1181C4.6968 -26.082 -23.2641 3.89779 -40.4528 41.8381L263.781 179.67C251.891 205.916 232.902 225.9 211.616 238.904L37.4942 -46.1181Z" fill="#FE6600" mask="url(#path-1-inside-1_40_2)"/>
<mask id="path-3-inside-2_40_2" fill="white">
<path fill-rule="evenodd" clip-rule="evenodd" d="M114.903 282.089C123.935 286.698 133.939 289.076 144.079 289.024C154.219 289.076 164.223 286.698 173.255 282.089C182.287 277.48 190.083 270.774 195.991 262.532C241.881 199.229 265.158 151.641 265.158 121.079C265.158 88.9668 252.401 58.1699 229.695 35.4632C206.988 12.7565 176.191 0 144.079 0C111.967 0 81.1699 12.7565 58.4632 35.4632C35.7565 58.1699 23 88.9668 23 121.079C23 151.641 46.2765 199.229 92.1673 262.532C98.0749 270.774 105.871 277.48 114.903 282.089ZM118.355 267.784C126.448 271.915 135.414 274.046 144.5 273.999C153.586 274.046 162.552 271.915 170.645 267.784C178.739 263.654 185.725 257.645 191.019 250.26C232.142 193.533 253 150.888 253 123.501C253 94.7246 241.569 67.127 221.221 46.7792C200.873 26.4313 173.276 15 144.5 15C115.724 15 88.1266 26.4313 67.7789 46.7792C47.4312 67.127 36 94.7246 36 123.501C36 150.888 56.8583 193.533 97.9815 250.26C103.275 257.645 110.261 263.654 118.355 267.784Z"/>
</mask>
<path fill-rule="evenodd" clip-rule="evenodd" d="M114.903 282.089C123.935 286.698 133.939 289.076 144.079 289.024C154.219 289.076 164.223 286.698 173.255 282.089C182.287 277.48 190.083 270.774 195.991 262.532C241.881 199.229 265.158 151.641 265.158 121.079C265.158 88.9668 252.401 58.1699 229.695 35.4632C206.988 12.7565 176.191 0 144.079 0C111.967 0 81.1699 12.7565 58.4632 35.4632C35.7565 58.1699 23 88.9668 23 121.079C23 151.641 46.2765 199.229 92.1673 262.532C98.0749 270.774 105.871 277.48 114.903 282.089ZM118.355 267.784C126.448 271.915 135.414 274.046 144.5 273.999C153.586 274.046 162.552 271.915 170.645 267.784C178.739 263.654 185.725 257.645 191.019 250.26C232.142 193.533 253 150.888 253 123.501C253 94.7246 241.569 67.127 221.221 46.7792C200.873 26.4313 173.276 15 144.5 15C115.724 15 88.1266 26.4313 67.7789 46.7792C47.4312 67.127 36 94.7246 36 123.501C36 150.888 56.8583 193.533 97.9815 250.26C103.275 257.645 110.261 263.654 118.355 267.784Z" fill="#FE6600"/>
<path d="M144.079 289.024L147.082 -297.968L144.079 -297.984L141.076 -297.968L144.079 289.024ZM114.903 282.089L381.726 -240.763L381.725 -240.764L114.903 282.089ZM173.255 282.089L-93.5671 -240.764L-93.5681 -240.763L173.255 282.089ZM195.991 262.532L-279.265 -81.9984L-280.183 -80.7309L-281.096 -79.4586L195.991 262.532ZM229.695 35.4632L644.766 -379.608L644.766 -379.608L229.695 35.4632ZM58.4632 35.4632L-356.608 -379.608L-356.609 -379.608L58.4632 35.4632ZM92.1673 262.532L569.254 -79.4583L568.341 -80.7308L567.423 -81.9984L92.1673 262.532ZM144.5 273.999L147.505 -312.993L144.5 -313.008L141.495 -312.993L144.5 273.999ZM191.019 250.26L-284.238 -94.2693L-285.157 -93.002L-286.069 -91.7299L191.019 250.26ZM221.221 46.7792L636.294 -368.291L636.294 -368.291L221.221 46.7792ZM67.7789 46.7792L-347.294 -368.291L-347.294 -368.291L67.7789 46.7792ZM97.9815 250.26L575.068 -91.7303L574.157 -93.0022L573.238 -94.2693L97.9815 250.26ZM141.076 -297.968C224.71 -298.396 307.23 -278.781 381.726 -240.763L-151.921 804.941C-59.3605 852.176 43.1688 876.548 147.082 876.016L141.076 -297.968ZM-93.5681 -240.763C-19.0718 -278.781 63.4482 -298.396 147.082 -297.968L141.076 876.016C244.989 876.548 347.518 852.176 440.078 804.941L-93.5681 -240.763ZM-281.096 -79.4586C-232.369 -147.434 -168.064 -202.746 -93.5671 -240.764L440.077 804.941C532.638 757.706 612.535 688.981 673.077 604.523L-281.096 -79.4586ZM-321.842 121.079C-321.842 56.7393 -310.052 7.44923 -301.84 -20.1624C-293.255 -49.0266 -284.105 -69.0104 -279.543 -78.341C-271.039 -95.7311 -267.651 -98.0181 -279.265 -81.9984L671.246 607.063C705.523 559.78 743.494 502.047 775.109 437.396C801.28 383.878 852.158 268.649 852.158 121.079H-321.842ZM-185.377 450.535C-272.754 363.158 -321.842 244.649 -321.842 121.079H852.158C852.158 -66.7153 777.557 -246.818 644.766 -379.608L-185.377 450.535ZM144.079 587C20.509 587 -97.9998 537.912 -185.377 450.535L644.766 -379.608C511.976 -512.399 331.873 -587 144.079 -587V587ZM473.535 450.535C386.158 537.912 267.649 587 144.079 587V-587C-43.7152 -587 -223.818 -512.399 -356.608 -379.608L473.535 450.535ZM610 121.079C610 244.649 560.912 363.158 473.535 450.535L-356.609 -379.608C-489.399 -246.818 -564 -66.7152 -564 121.079H610ZM567.423 -81.9984C555.809 -98.0181 559.197 -95.7311 567.701 -78.3411C572.263 -69.0105 581.413 -49.0267 589.998 -20.1624C598.21 7.44921 610 56.7393 610 121.079H-564C-564 268.649 -513.122 383.878 -486.951 437.396C-455.336 502.047 -417.365 559.78 -383.088 607.063L567.423 -81.9984ZM381.725 -240.764C456.222 -202.746 520.527 -147.434 569.254 -79.4583L-384.919 604.523C-324.377 688.981 -244.48 757.706 -151.919 804.941L381.725 -240.764ZM141.495 -312.993C226.185 -313.427 309.745 -293.563 385.18 -255.067L-148.47 790.636C-56.8484 837.392 44.6423 861.518 147.505 860.992L141.495 -312.993ZM-96.1796 -255.067C-20.7452 -293.563 62.815 -313.427 147.505 -312.993L141.495 860.992C244.358 861.518 345.848 837.392 437.47 790.636L-96.1796 -255.067ZM-286.069 -91.7299C-236.728 -160.561 -171.615 -216.57 -96.1796 -255.067L437.47 790.636C529.092 743.878 608.178 675.851 668.106 592.249L-286.069 -91.7299ZM-334 123.501C-334 58.3681 -322.059 8.17413 -313.546 -20.4499C-304.66 -50.3267 -295.059 -71.4314 -289.896 -81.9893C-280.192 -101.834 -275.008 -107.001 -284.238 -94.2693L666.275 594.789C698.169 550.793 734.343 495.94 764.757 433.745C789.728 382.681 840 269.482 840 123.501H-334ZM-193.852 461.849C-283.588 372.113 -334 250.405 -334 123.501H840C840 -60.9559 766.725 -237.859 636.294 -368.291L-193.852 461.849ZM144.5 602C17.5924 602 -104.116 551.586 -193.852 461.849L636.294 -368.291C505.863 -498.723 328.96 -572 144.5 -572V602ZM482.852 461.849C393.116 551.586 271.408 602 144.5 602V-572C-39.9596 -572 -216.863 -498.723 -347.294 -368.291L482.852 461.849ZM623 123.501C623 250.405 572.588 372.113 482.852 461.849L-347.294 -368.291C-477.725 -237.859 -551 -60.9559 -551 123.501H623ZM573.238 -94.2693C564.008 -107.001 569.192 -101.834 578.896 -81.9894C584.059 -71.4315 593.66 -50.3267 602.546 -20.45C611.059 8.17411 623 58.3681 623 123.501H-551C-551 269.482 -500.728 382.681 -475.757 433.745C-445.343 495.941 -409.169 550.793 -377.275 594.789L573.238 -94.2693ZM385.18 -255.067C460.615 -216.57 525.728 -160.561 575.068 -91.7303L-379.105 592.25C-319.178 675.85 -240.092 743.878 -148.47 790.636L385.18 -255.067Z" fill="#FE6600" mask="url(#path-3-inside-2_40_2)"/>
</g>
<defs>
<clipPath id="clip0_40_2">
<rect width="289" height="289" fill="white"/>
</clipPath>
</defs>
</svg>
