<?xml version="1.0" encoding="utf-8"?>
<!-- Generator: Adobe Illustrator 26.0.1, SVG Export Plug-In . SVG Version: 6.00 Build 0)  -->
<svg version="1.1" id="Layer_1" xmlns="http://www.w3.org/2000/svg" xmlns:xlink="http://www.w3.org/1999/xlink" x="0px" y="0px"
	 viewBox="0 0 2806.299 2806.299" enable-background="new 0 0 2806.299 2806.299" xml:space="preserve">
<g>
	<g>
		<linearGradient id="SVGID_1_" gradientUnits="userSpaceOnUse" x1="2151.4194" y1="1772.5928" x2="2537.0952" y2="1310.8525">
			<stop  offset="0.0145" style="stop-color:#141F2A"/>
			<stop  offset="0.1241" style="stop-color:#17232F"/>
			<stop  offset="0.2919" style="stop-color:#20303C"/>
			<stop  offset="0.4967" style="stop-color:#314753"/>
			<stop  offset="0.7308" style="stop-color:#4D6E7A"/>
			<stop  offset="0.9828" style="stop-color:#7BA9B2"/>
		</linearGradient>
		<path fill="url(#SVGID_1_)" d="M2472.838,1204.433v481.887c0,31.311-25.382,56.693-56.693,56.693h-340.157v-56.687
			c0-31.311,25.382-56.693,56.693-56.693h226.767v-425.2H2472.838z"/>
		
			<linearGradient id="SVGID_00000083086820795487864150000005566920958351333023_" gradientUnits="userSpaceOnUse" x1="2360.8154" y1="1126.1909" x2="2473.3594" y2="1112.3636">
			<stop  offset="0.1025" style="stop-color:#D07E2E"/>
			<stop  offset="0.3718" style="stop-color:#D67E30"/>
			<stop  offset="0.7708" style="stop-color:#E57D38"/>
			<stop  offset="0.9828" style="stop-color:#EF7B3D"/>
		</linearGradient>
		<path fill="url(#SVGID_00000083086820795487864150000005566920958351333023_)" d="M2472.838,1119.396v56.687h-113.39v-113.38
			h56.697C2447.456,1062.703,2472.838,1088.086,2472.838,1119.396z"/>
		
			<linearGradient id="SVGID_00000013886377999817190170000016744912408944265151_" gradientUnits="userSpaceOnUse" x1="1752.9745" y1="1604.1318" x2="2308.623" y2="1134.1754">
			<stop  offset="0.1025" style="stop-color:#141F2A"/>
			<stop  offset="0.2029" style="stop-color:#17232F"/>
			<stop  offset="0.3521" style="stop-color:#202F3B"/>
			<stop  offset="0.5317" style="stop-color:#2F4451"/>
			<stop  offset="0.7349" style="stop-color:#4A6975"/>
			<stop  offset="0.9554" style="stop-color:#74A0AA"/>
			<stop  offset="0.9828" style="stop-color:#7BA9B2"/>
		</linearGradient>
		<path fill="url(#SVGID_00000013886377999817190170000016744912408944265151_)" d="M2331.108,1062.703v113.38h-283.47v510.237
			c0,31.311-25.382,56.693-56.693,56.693h-56.687v-623.617c0-31.311,25.382-56.693,56.693-56.693H2331.108z"/>
	</g>
	<g>
		<path fill="#265F71" d="M564.144,1170.83l51.677-18.781v131.967h-74.113c-11.513,0-20.167-3.108-25.965-9.327
			c-5.798-6.217-8.697-13.613-8.697-22.184c0-11.763,6.091-23.066,18.276-33.905c12.183-10.84,29.368-19.033,51.552-24.579v-13.991
			l-12.73,4.664V1170.83z M539.943,1099.111c5.881,0,10.922,2.08,15.125,6.239c4.201,4.16,6.302,9.138,6.302,14.936
			c0,5.883-2.123,10.924-6.365,15.125c-4.244,4.203-9.264,6.302-15.062,6.302c-5.883,0-10.903-2.099-15.062-6.302
			c-4.16-4.201-6.239-9.243-6.239-15.125c0-5.798,2.08-10.776,6.239-14.936C529.041,1101.191,534.061,1099.111,539.943,1099.111z
			 M577,1220.49c-7.562,0.252-13.467,1.702-17.709,4.349c-4.244,2.646-6.365,5.819-6.365,9.516c0,3.109,1.302,5.126,3.907,6.05
			c2.604,0.926,9.327,1.387,20.167,1.387V1220.49z M596.537,1099.489c5.88,0,10.944,2.08,15.188,6.239
			c4.242,4.159,6.365,9.181,6.365,15.062c0,5.798-2.123,10.776-6.365,14.936c-4.244,4.159-9.308,6.239-15.188,6.239
			c-5.883,0-10.903-2.08-15.062-6.239c-4.159-4.16-6.239-9.138-6.239-14.936c0-5.881,2.08-10.903,6.239-15.062
			C585.634,1101.569,590.654,1099.489,596.537,1099.489z"/>
		<path fill="#265F71" d="M746.775,1284.016H631.824l25.965-53.316l9.706,1.26c2.017,6.554,7.226,9.832,15.629,9.832h21.175
			c0.419-11.596-9.412-23.148-29.494-34.662c13.108-21.847,25.166-36.72,36.174-44.619l8.319,6.05
			c-3.11,2.605-4.664,5.757-4.664,9.453c0,3.529,2.436,7.396,7.311,11.596c16.553,14.538,24.831,31.932,24.831,52.182V1284.016z"/>
		<path fill="#265F71" d="M825.678,1094.826l-0.126,147.218h3.529v42.098h-45.88v-159.57l-12.856,4.538v-13.991L825.678,1094.826z"
			/>
		<path fill="#265F71" d="M907.856,1202.214l54.829-16.764v98.565H822.399v-42.224h97.936v-29.494l-12.479,3.781V1202.214z
			 M877.354,1298.258c5.881,0,10.922,2.1,15.125,6.302c4.201,4.201,6.302,9.201,6.302,14.999c0,5.881-2.101,10.922-6.302,15.125
			c-4.203,4.201-9.245,6.302-15.125,6.302c-5.882,0-10.924-2.101-15.125-6.302c-4.203-4.203-6.302-9.244-6.302-15.125
			c0-5.883,2.08-10.903,6.239-15.062C866.326,1300.338,871.387,1298.258,877.354,1298.258z M936.594,1298.511
			c5.965,0,11.048,2.08,15.251,6.239c4.201,4.16,6.302,9.138,6.302,14.936c0,5.881-2.102,10.903-6.302,15.062
			c-4.203,4.16-9.286,6.239-15.251,6.239c-5.883,0-10.924-2.08-15.125-6.239c-4.203-4.159-6.302-9.181-6.302-15.062
			c0-5.798,2.1-10.776,6.302-14.936C925.67,1300.59,930.711,1298.511,936.594,1298.511z"/>
		<path fill="#265F71" d="M1047.888,1193.769c22.436,19.663,33.653,46.09,33.653,79.281c0,21.091-5.841,37.75-17.52,49.976
			c-11.681,12.226-25.419,18.339-41.216,18.339c-12.017,0-22.101-2.773-30.25-8.319c-8.151-5.546-12.226-9.749-12.226-12.604
			c0-2.186,1.091-3.277,3.277-3.277c1.343,0,3.234,0.252,5.672,0.756c4.201,0.924,8.192,1.387,11.974,1.387
			c11.931,0,21.301-4.37,28.108-13.108c6.806-8.74,10.209-19.874,10.209-33.401c0-18.654-4.033-27.981-12.1-27.981
			c-2.69,0-4.916,0.8-6.68,2.395l-7.688-6.555L1047.888,1193.769z"/>
		<path fill="#265F71" d="M1154.645,1083.23v200.786h-80.163v-42.224h38.191v-129.32l-12.856,4.79v-13.991L1154.645,1083.23z"/>
		<path fill="#265F71" d="M1233.67,1094.826v189.19h-42.477v-159.444l-12.856,4.538v-13.991L1233.67,1094.826z"/>
		<path fill="#265F71" d="M1367.021,1193.769c22.436,19.58,33.653,46.006,33.653,79.281c0,21.006-5.841,37.644-17.52,49.913
			c-11.681,12.268-25.419,18.402-41.216,18.402c-12.018,0-22.101-2.773-30.25-8.319c-8.152-5.546-12.227-9.749-12.227-12.604
			c0-2.186,1.091-3.277,3.277-3.277c1.343,0,3.234,0.252,5.672,0.756c4.201,0.924,8.193,1.387,11.974,1.387
			c12.52,0,22.036-4.538,28.548-13.613c6.511-9.075,9.769-20.041,9.769-32.897c0-18.654-4.033-27.981-12.1-27.981
			c-2.69,0-4.916,0.8-6.68,2.395l-7.688-6.555L1367.021,1193.769z M1356.434,1142.47c5.965,0,11.07,2.08,15.314,6.239
			c4.242,4.159,6.365,9.138,6.365,14.936c0,5.883-2.123,10.903-6.365,15.062c-4.244,4.159-9.349,6.239-15.314,6.239
			c-5.883,0-10.946-2.08-15.188-6.239c-4.244-4.159-6.365-9.179-6.365-15.062c0-5.798,2.121-10.777,6.365-14.936
			C1345.488,1144.549,1350.551,1142.47,1356.434,1142.47z"/>
		<path fill="#265F71" d="M1422.605,1187.845l92.893-84.07c4.285-3.864,8.066-5.798,11.344-5.798c1.68,0,3.234,0.693,4.664,2.08
			c1.428,1.386,2.143,3.005,2.143,4.853c0,2.605-1.178,5.294-3.529,8.067l-60.122,72.222h138.144v98.817H1394.75v-42.224h174.444
			v-17.016h-133.732L1422.605,1187.845z"/>
		<path fill="#265F71" d="M1693.218,1193.769c22.436,19.663,33.653,46.09,33.653,79.281c0,21.091-5.842,37.75-17.521,49.976
			c-11.681,12.226-25.419,18.339-41.216,18.339c-12.018,0-22.101-2.773-30.25-8.319c-8.151-5.546-12.227-9.749-12.227-12.604
			c0-2.186,1.092-3.277,3.277-3.277c1.344,0,3.234,0.252,5.672,0.756c4.201,0.924,8.193,1.387,11.975,1.387
			c11.931,0,21.301-4.37,28.107-13.108c6.806-8.74,10.209-19.874,10.209-33.401c0-18.654-4.033-27.981-12.1-27.981
			c-2.69,0-4.916,0.8-6.681,2.395l-7.688-6.555L1693.218,1193.769z"/>
		<path fill="#265F71" d="M1738.34,1241.666c5.209-13.528,13.254-24.661,24.137-33.401c10.881-8.738,19.348-13.108,25.397-13.108
			c7.73,0,18.34,6.282,31.826,18.843c13.486,12.563,20.229,27.332,20.229,44.304c0,9.832-1.891,18.824-5.672,26.973
			s-10,14.578-18.654,19.285c-8.655,4.705-17.52,7.059-26.595,7.059c-23.024,0-38.906-9.245-47.645-27.729h-20.797v-42.224H1738.34z
			 M1788.757,1238.01c-3.277,0-6.429,2.08-9.453,6.239c-3.025,4.16-4.538,8.173-4.538,12.037c0,8.823,4.831,13.234,14.495,13.234
			c3.277,0,6.133-1.175,8.571-3.529c2.436-2.352,3.655-5.587,3.655-9.706c0-4.116-1.43-8.193-4.286-12.226
			C1794.344,1240.027,1791.529,1238.01,1788.757,1238.01z"/>
		<path fill="#265F71" d="M302.49,1433.703v202.299c0,8.738-3.403,16.952-10.209,24.641c-6.806,7.689-16.681,15.713-29.62,24.074
			c-12.941,8.36-21.89,12.542-26.847,12.542c-4.79,0-13.76-4.56-26.91-13.676c-13.152-9.118-22.688-17.521-28.612-25.209
			s-8.677-15.566-8.256-23.633h-10.713v-7.185l34.788-37.561h10.461v39.451c0,5.377,4.579,11.386,13.739,18.024
			c9.158,6.637,14.41,9.957,15.755,9.957c1.595,0,5.735-2.479,12.415-7.437c6.68-4.959,10.903-8.655,12.667-11.092
			c1.765-2.438,2.647-5.672,2.647-9.705v-167.259l-14.999,5.42v-13.99L302.49,1433.703z"/>
		<path fill="#265F71" d="M381.515,1445.426l-0.126,147.217h3.529v42.099h-45.88v-159.57l-12.856,4.538v-13.991L381.515,1445.426z"
			/>
		<path fill="#265F71" d="M396.135,1592.265c5.209-13.527,13.254-24.661,24.137-33.401c10.881-8.738,19.347-13.108,25.397-13.108
			c7.73,0,18.339,6.283,31.826,18.844c13.486,12.562,20.23,27.331,20.23,44.304c0,9.831-1.891,18.824-5.672,26.974
			s-10.001,14.577-18.654,19.284c-8.656,4.705-17.52,7.059-26.595,7.059c-23.024,0-38.906-9.244-47.644-27.729h-20.797v-42.225
			H396.135z M446.552,1588.609c-3.277,0-6.428,2.08-9.453,6.239c-3.025,4.159-4.538,8.173-4.538,12.037
			c0,8.823,4.831,13.234,14.495,13.234c3.277,0,6.133-1.176,8.571-3.529c2.436-2.352,3.655-5.587,3.655-9.705
			c0-4.116-1.43-8.192-4.285-12.226C452.139,1590.626,449.325,1588.609,446.552,1588.609z"/>
		<path fill="#265F71" d="M490.917,1634.615v-42.225h36.426c-1.43-4.452-2.143-9.746-2.143-15.881
			c0-13.528,5.125-25.628,15.377-36.301c10.251-10.67,22.981-16.007,38.191-16.007c1.176,0,3.864,0.252,8.067,0.756
			c3.359,0.422,5.419,0.631,6.176,0.631c5.546,0,9.914-2.478,13.108-7.437l9.579,3.907l-21.427,49.156
			c-5.211-4.201-10-6.302-14.369-6.302c-4.118,0-7.48,1.281-10.083,3.844c-2.605,2.564-3.907,5.778-3.907,9.643
			c0,4.622,1.639,8.192,4.916,10.714c3.277,2.521,7.141,3.781,11.596,3.781c6.217,0,12.478-2.899,18.78-8.697
			c3.108-2.855,5.42-4.285,6.932-4.285c1.932,0,3.781,2.605,5.546,7.814c3.949,11.681,9.662,23.109,17.142,34.283
			c3.025,4.455,4.538,7.354,4.538,8.697c0,2.605-1.891,3.907-5.672,3.907H490.917z"/>
		<path fill="#265F71" d="M760.897,1449.585v110.287l-18.78,6.302c7.226,4.875,12.856,9.854,16.89,14.937
			c4.034,5.085,6.05,9.434,6.05,13.045v40.46h-88.104l-11.722-41.973c6.637-6.721,16.301-13.568,28.99-20.545l-19.285-11.344
			v-62.013l-12.478,4.916v-13.865l54.702-22.436v85.079l8.949,4.537l9.579-4.285v-78.65l-8.193,3.277v-14.369L760.897,1449.585z
			 M674.936,1450.972c-5.126-4.873-7.688-10.377-7.688-16.512c0-10.251,7.226-16.973,21.679-20.167
			c7.814-1.68,13.024-4.159,15.629-7.437c1.428-1.765,2.521-2.647,3.277-2.647c2.269,0,3.403,2.27,3.403,6.807
			c0,2.857-0.841,5.546-2.521,8.066c-1.682,2.521-5.715,5.042-12.1,7.562c-7.143,2.773-10.713,5.883-10.713,9.327
			c0,5.294,3.277,7.941,9.831,7.941c5.376,0,11.679-3.234,18.907-9.705c2.351-2.185,3.822-3.277,4.411-3.277
			c1.68,0,2.604,1.219,2.773,3.655l0.882,11.218c0,2.017-1.386,3.529-4.159,4.537l-53.442,18.906v-14.873L674.936,1450.972z
			 M706.195,1580.291c-8.319,4.455-14.791,8.444-19.411,11.974h31.511C716.278,1589.324,712.245,1585.333,706.195,1580.291z"/>
		<path fill="#265F71" d="M844.083,1445.426v189.189h-42.477v-159.444l-12.856,4.538v-13.991L844.083,1445.426z"/>
		<path fill="#265F71" d="M1023.692,1553.065l54.829-17.016v98.565h-164.99l24.326-53.316h12.604
			c-0.085,0.757-0.126,1.472-0.126,2.144c0,5.967,3.529,8.948,10.587,8.948h75.248v-29.367l-12.479,3.781V1553.065z
			 M990.543,1489.54c5.881,0,10.944,2.102,15.188,6.303c4.242,4.202,6.365,9.201,6.365,14.999c0,5.882-2.123,10.924-6.365,15.125
			c-4.244,4.202-9.307,6.302-15.188,6.302c-5.967,0-11.05-2.1-15.251-6.302c-4.203-4.201-6.302-9.243-6.302-15.125
			c0-5.798,2.099-10.797,6.302-14.999C979.493,1491.642,984.576,1489.54,990.543,1489.54z M1047.388,1489.414
			c5.965,0,11.07,2.08,15.314,6.239c4.242,4.159,6.365,9.182,6.365,15.062c0,5.882-2.123,10.945-6.365,15.188
			c-4.244,4.244-9.349,6.365-15.314,6.365c-5.883,0-10.946-2.121-15.188-6.365c-4.244-4.242-6.365-9.306-6.365-15.188
			c0-5.881,2.121-10.903,6.365-15.062C1036.442,1491.494,1041.505,1489.414,1047.388,1489.414z"/>
		<path fill="#265F71" d="M1157.547,1445.426l-0.126,147.217h3.529v42.099h-45.88v-159.57l-12.856,4.538v-13.991L1157.547,1445.426z
			"/>
		<path fill="#265F71" d="M1239.726,1552.813l54.829-16.764v98.565h-140.286v-42.225h97.936v-29.493l-12.479,3.781V1552.813z
			 M1268.589,1490.044c5.965,0,11.029,2.061,15.188,6.177c4.16,4.118,6.239,9.118,6.239,14.999c0,5.883-2.08,10.883-6.239,14.999
			c-4.159,4.118-9.223,6.176-15.188,6.176c-5.883,0-10.903-2.058-15.062-6.176c-4.16-4.116-6.239-9.116-6.239-14.999
			c0-5.798,2.08-10.776,6.239-14.937C1257.687,1492.124,1262.707,1490.044,1268.589,1490.044z"/>
		<path fill="#265F71" d="M1363.246,1571.09c11.259-16.216,21.153-27.414,29.683-33.591c8.527-6.176,17.875-9.264,28.044-9.264
			c9.242,0,17.058,2.521,23.444,7.562c6.385,5.042,10.418,11.261,12.1,18.654c1.68,7.396,2.521,17.73,2.521,31.007v49.03h-167.636
			v-42.099h29.872v-30.124l-10.462,3.403v-13.738l52.434-15.882V1571.09z M1383.413,1476.432c5.881,0,10.922,2.08,15.125,6.239
			c4.201,4.159,6.302,9.138,6.302,14.937c0,5.882-2.101,10.902-6.302,15.062c-4.203,4.159-9.245,6.239-15.125,6.239
			c-5.882,0-10.924-2.08-15.125-6.239c-4.203-4.159-6.302-9.18-6.302-15.062c0-5.799,2.1-10.777,6.302-14.937
			C1372.488,1478.512,1377.53,1476.432,1383.413,1476.432z M1362.868,1592.391h53.695v-7.94c0-11.092-5.379-16.638-16.134-16.638
			C1389.167,1567.812,1376.648,1576.006,1362.868,1592.391z"/>
		<path fill="#265F71" d="M1538.064,1445.426l-0.127,147.217h3.529v42.099h-45.879v-159.57l-12.855,4.538v-13.991L1538.064,1445.426
			z"/>
		<path fill="#265F71" d="M1559.869,1553.065c6.554-16.972,17.854-25.46,33.905-25.46c23.696,0,42.685,21.597,56.971,64.785h12.227
			v42.099c0,1.261,0.335,3.612,1.009,7.059c0.419,2.269,0.63,3.696,0.63,4.285c0,4.957-2.061,7.437-6.176,7.437
			c-3.025,0-5.379-1.997-7.059-5.987c-1.682-3.992-3.403-8.214-5.168-12.667h-111.296v-42.225h91.003
			c-8.655-15.629-17.353-23.443-26.091-23.443c-6.554,0-10.546,5.126-11.974,15.377h-10.084L1559.869,1553.065z"/>
		<path fill="#265F71" d="M1794.177,1540.966c16.049,10.587,27.834,21.868,35.355,33.842c7.519,11.975,11.28,27.206,11.28,45.69
			c0,22.604-6.071,40.165-18.213,52.687c-12.144,12.52-26.323,18.78-42.539,18.78c-10.336,0-19.265-3.025-26.784-9.075
			c-7.521-6.05-11.281-10.462-11.281-13.234c0-1.682,0.798-2.521,2.396-2.521c0.587,0,1.595,0.209,3.024,0.631
			c3.444,1.26,7.185,1.891,11.218,1.891c9.747,0,18.402-3.236,25.965-9.705c7.562-6.472,11.638-14.958,12.227-25.461h-55.711
			C1741.365,1594.829,1759.053,1563.653,1794.177,1540.966z M1772.372,1594.912h21.175c-3.025-7.479-6.428-12.562-10.209-15.251
			C1778.548,1582.855,1774.893,1587.938,1772.372,1594.912z"/>
	</g>
</g>
<g>
</g>
<g>
</g>
<g>
</g>
<g>
</g>
<g>
</g>
<g>
</g>
</svg>
