<?xml version="1.0" encoding="utf-8"?>
<!-- Generator: Adobe Illustrator 26.0.1, SVG Export Plug-In . SVG Version: 6.00 Build 0)  -->
<svg version="1.1" id="Layer_1" xmlns="http://www.w3.org/2000/svg" xmlns:xlink="http://www.w3.org/1999/xlink" x="0px" y="0px"
	 viewBox="0 0 2806.3 2806.3" style="enable-background:new 0 0 2806.3 2806.3;" xml:space="preserve">
<style type="text/css">
	.st0{fill:url(#SVGID_1_);}
	.st1{fill:url(#SVGID_00000054970067931792609910000007565955929778891705_);}
	.st2{fill:url(#SVGID_00000159463986597402513310000017542103900517973928_);}
	.st3{fill:#2E5F7F;}
</style>
<g>
	<g>
		<linearGradient id="SVGID_1_" gradientUnits="userSpaceOnUse" x1="575.6703" y1="1738.0894" x2="961.3461" y2="1276.349">
			<stop  offset="1.445747e-02" style="stop-color:#141F2A"/>
			<stop  offset="0.1241" style="stop-color:#17232F"/>
			<stop  offset="0.2919" style="stop-color:#20303C"/>
			<stop  offset="0.4967" style="stop-color:#314753"/>
			<stop  offset="0.7308" style="stop-color:#4D6E7A"/>
			<stop  offset="0.9828" style="stop-color:#7BA9B2"/>
		</linearGradient>
		<path class="st0" d="M897.1,1169.9v481.9c0,31.3-25.4,56.7-56.7,56.7H500.2v-56.7c0-31.3,25.4-56.7,56.7-56.7h226.8v-425.2H897.1z
			"/>
		
			<linearGradient id="SVGID_00000183214942925489836810000012140690923209558660_" gradientUnits="userSpaceOnUse" x1="785.0663" y1="1091.6874" x2="897.6102" y2="1077.8601">
			<stop  offset="0.1025" style="stop-color:#D07E2E"/>
			<stop  offset="0.3718" style="stop-color:#D67E30"/>
			<stop  offset="0.7708" style="stop-color:#E57D38"/>
			<stop  offset="0.9828" style="stop-color:#EF7B3D"/>
		</linearGradient>
		<path style="fill:url(#SVGID_00000183214942925489836810000012140690923209558660_);" d="M897.1,1084.9v56.7H783.7v-113.4h56.7
			C871.7,1028.2,897.1,1053.6,897.1,1084.9z"/>
		
			<linearGradient id="SVGID_00000165225219371967822830000013458252024905139635_" gradientUnits="userSpaceOnUse" x1="177.2253" y1="1569.6283" x2="732.8738" y2="1099.672">
			<stop  offset="0.1025" style="stop-color:#141F2A"/>
			<stop  offset="0.2029" style="stop-color:#17232F"/>
			<stop  offset="0.3521" style="stop-color:#202F3B"/>
			<stop  offset="0.5317" style="stop-color:#2F4451"/>
			<stop  offset="0.7349" style="stop-color:#4A6975"/>
			<stop  offset="0.9554" style="stop-color:#74A0AA"/>
			<stop  offset="0.9828" style="stop-color:#7BA9B2"/>
		</linearGradient>
		<path style="fill:url(#SVGID_00000165225219371967822830000013458252024905139635_);" d="M755.4,1028.2v113.4H471.9v510.2
			c0,31.3-25.4,56.7-56.7,56.7h-56.7v-623.6c0-31.3,25.4-56.7,56.7-56.7H755.4z"/>
	</g>
	<g>
		<path class="st3" d="M1099.8,1130.2h-50.4v46.7h56.2v14h-72.9v-129.6h70v14h-53.3v41h50.4V1130.2z"/>
		<path class="st3" d="M1126.8,1123c0-9.6-0.2-17.5-0.8-25.2h15l1,15.4h0.4c4.6-8.8,15.4-17.5,30.8-17.5c12.9,0,32.9,7.7,32.9,39.6
			v55.6h-16.9v-53.7c0-15-5.6-27.5-21.5-27.5c-11.2,0-19.8,7.9-22.7,17.3c-0.8,2.1-1.2,5-1.2,7.9v56h-16.9V1123z"/>
		<path class="st3" d="M1253.9,1071.1v26.7h24.2v12.9h-24.2v50.2c0,11.5,3.3,18.1,12.7,18.1c4.4,0,7.7-0.6,9.8-1.2l0.8,12.7
			c-3.3,1.3-8.5,2.3-15,2.3c-7.9,0-14.2-2.5-18.3-7.1c-4.8-5-6.5-13.3-6.5-24.2v-50.8h-14.4v-12.9h14.4v-22.3L1253.9,1071.1z"/>
		<path class="st3" d="M1297.2,1126.9c0-11-0.2-20.4-0.8-29h14.8l0.6,18.3h0.8c4.2-12.5,14.4-20.4,25.8-20.4c1.9,0,3.3,0.2,4.8,0.6
			v16c-1.7-0.4-3.5-0.6-5.8-0.6c-11.9,0-20.4,9-22.7,21.7c-0.4,2.3-0.8,5-0.8,7.9v49.6h-16.7V1126.9z"/>
		<path class="st3" d="M1369.5,1147.5c0.4,22.9,15,32.3,31.9,32.3c12.1,0,19.4-2.1,25.8-4.8l2.9,12.1c-6,2.7-16.2,5.8-31,5.8
			c-28.7,0-45.8-18.8-45.8-46.9s16.5-50.2,43.7-50.2c30.4,0,38.5,26.7,38.5,43.9c0,3.5-0.4,6.2-0.6,7.9H1369.5z M1419.1,1135.3
			c0.2-10.8-4.4-27.5-23.5-27.5c-17.1,0-24.6,15.8-26,27.5H1419.1z"/>
		<path class="st3" d="M1456.4,1128.2c0-11.9-0.4-21.5-0.8-30.4h15.2l0.8,16h0.4c6.9-11.3,17.9-18.1,33.1-18.1
			c22.5,0,39.4,19,39.4,47.3c0,33.5-20.4,50-42.3,50c-12.3,0-23.1-5.4-28.7-14.6h-0.4v50.6h-16.7V1128.2z M1473.2,1153
			c0,2.5,0.4,4.8,0.8,6.9c3.1,11.7,13.3,19.8,25.4,19.8c17.9,0,28.3-14.6,28.3-36c0-18.7-9.8-34.6-27.7-34.6
			c-11.5,0-22.3,8.3-25.6,21c-0.6,2.1-1.2,4.6-1.2,6.9V1153z"/>
		<path class="st3" d="M1565.9,1126.9c0-11-0.2-20.4-0.8-29h14.8l0.6,18.3h0.8c4.2-12.5,14.4-20.4,25.8-20.4c1.9,0,3.3,0.2,4.8,0.6
			v16c-1.7-0.4-3.5-0.6-5.8-0.6c-11.9,0-20.4,9-22.7,21.7c-0.4,2.3-0.8,5-0.8,7.9v49.6h-16.7V1126.9z"/>
		<path class="st3" d="M1638.2,1147.5c0.4,22.9,15,32.3,31.9,32.3c12.1,0,19.4-2.1,25.8-4.8l2.9,12.1c-6,2.7-16.2,5.8-31,5.8
			c-28.7,0-45.8-18.8-45.8-46.9s16.5-50.2,43.7-50.2c30.4,0,38.5,26.7,38.5,43.9c0,3.5-0.4,6.2-0.6,7.9H1638.2z M1687.8,1135.3
			c0.2-10.8-4.4-27.5-23.5-27.5c-17.1,0-24.6,15.8-26,27.5H1687.8z"/>
		<path class="st3" d="M1725.1,1123c0-9.6-0.2-17.5-0.8-25.2h15l1,15.4h0.4c4.6-8.8,15.4-17.5,30.8-17.5c12.9,0,32.9,7.7,32.9,39.6
			v55.6h-16.9v-53.7c0-15-5.6-27.5-21.5-27.5c-11.2,0-19.8,7.9-22.7,17.3c-0.8,2.1-1.2,5-1.2,7.9v56h-16.9V1123z"/>
		<path class="st3" d="M1841.3,1147.5c0.4,22.9,15,32.3,31.9,32.3c12.1,0,19.4-2.1,25.8-4.8l2.9,12.1c-6,2.7-16.2,5.8-31,5.8
			c-28.7,0-45.8-18.8-45.8-46.9s16.5-50.2,43.7-50.2c30.4,0,38.5,26.7,38.5,43.9c0,3.5-0.4,6.2-0.6,7.9H1841.3z M1890.9,1135.3
			c0.2-10.8-4.4-27.5-23.5-27.5c-17.1,0-24.6,15.8-26,27.5H1890.9z"/>
		<path class="st3" d="M2006.1,1165.5c0,9.6,0.2,18.1,0.8,25.4h-15l-1-15.2h-0.4c-4.4,7.5-14.2,17.3-30.8,17.3
			c-14.6,0-32.1-8.1-32.1-40.8v-54.4h16.9v51.5c0,17.7,5.4,29.6,20.8,29.6c11.3,0,19.2-7.9,22.3-15.4c1-2.5,1.5-5.6,1.5-8.7v-57.1
			h16.9V1165.5z"/>
		<path class="st3" d="M2034.2,1126.9c0-11-0.2-20.4-0.8-29h14.8l0.6,18.3h0.8c4.2-12.5,14.4-20.4,25.8-20.4c1.9,0,3.3,0.2,4.8,0.6
			v16c-1.7-0.4-3.5-0.6-5.8-0.6c-11.9,0-20.4,9-22.7,21.7c-0.4,2.3-0.8,5-0.8,7.9v49.6h-16.7V1126.9z"/>
		<path class="st3" d="M2094.8,1173.6c5,3.3,13.8,6.7,22.3,6.7c12.3,0,18.1-6.2,18.1-13.8c0-8.1-4.8-12.5-17.3-17.1
			c-16.7-6-24.6-15.2-24.6-26.4c0-15,12.1-27.3,32.1-27.3c9.4,0,17.7,2.7,22.9,5.8l-4.2,12.3c-3.7-2.3-10.4-5.4-19-5.4
			c-10,0-15.6,5.8-15.6,12.7c0,7.7,5.6,11.2,17.7,15.8c16.2,6.2,24.4,14.2,24.4,28.1c0,16.3-12.7,27.9-34.8,27.9
			c-10.2,0-19.6-2.5-26.2-6.3L2094.8,1173.6z"/>
		<path class="st3" d="M2173.2,1054.4h16.9v58.1h0.4c2.7-4.8,6.9-9,12.1-11.9c5-2.9,11-4.8,17.3-4.8c12.5,0,32.5,7.7,32.5,39.8v55.4
			h-16.9v-53.5c0-15-5.6-27.7-21.5-27.7c-11,0-19.6,7.7-22.7,16.9c-1,2.3-1.2,4.8-1.2,8.1v56.2h-16.9V1054.4z"/>
		<path class="st3" d="M2298.8,1071.7c0.2,5.8-4,10.4-10.8,10.4c-6,0-10.2-4.6-10.2-10.4c0-6,4.4-10.6,10.6-10.6
			C2294.8,1061.1,2298.8,1065.7,2298.8,1071.7z M2280,1190.9v-93.1h16.9v93.1H2280z"/>
		<path class="st3" d="M2325,1128.2c0-11.9-0.4-21.5-0.8-30.4h15.2l0.8,16h0.4c6.9-11.3,17.9-18.1,33.1-18.1
			c22.5,0,39.4,19,39.4,47.3c0,33.5-20.4,50-42.3,50c-12.3,0-23.1-5.4-28.7-14.6h-0.4v50.6H2325V1128.2z M2341.7,1153
			c0,2.5,0.4,4.8,0.8,6.9c3.1,11.7,13.3,19.8,25.4,19.8c17.9,0,28.3-14.6,28.3-36c0-18.7-9.8-34.6-27.7-34.6
			c-11.5,0-22.3,8.3-25.6,21c-0.6,2.1-1.2,4.6-1.2,6.9V1153z"/>
		<path class="st3" d="M1083.7,1421.7l-1.3-11.7h-0.6c-5.2,7.3-15.2,13.8-28.5,13.8c-18.8,0-28.5-13.3-28.5-26.7
			c0-22.5,20-34.8,56-34.6v-1.9c0-7.7-2.1-21.5-21.2-21.5c-8.7,0-17.7,2.7-24.2,6.9l-3.8-11.2c7.7-5,18.8-8.3,30.6-8.3
			c28.5,0,35.4,19.4,35.4,38.1v34.8c0,8.1,0.4,16,1.5,22.3H1083.7z M1081.2,1374.2c-18.5-0.4-39.4,2.9-39.4,21
			c0,11,7.3,16.2,16,16.2c12.1,0,19.8-7.7,22.5-15.6c0.6-1.7,1-3.7,1-5.4V1374.2z"/>
		<path class="st3" d="M1124.8,1353.8c0-9.6-0.2-17.5-0.8-25.2h15l1,15.4h0.4c4.6-8.8,15.4-17.5,30.8-17.5
			c12.9,0,32.9,7.7,32.9,39.6v55.6h-16.9v-53.7c0-15-5.6-27.5-21.5-27.5c-11.2,0-19.8,7.9-22.7,17.3c-0.8,2.1-1.2,5-1.2,7.9v56
			h-16.9V1353.8z"/>
		<path class="st3" d="M1312,1285.2v112.5c0,8.3,0.2,17.7,0.8,24h-15.2l-0.8-16.2h-0.4c-5.2,10.4-16.5,18.3-31.7,18.3
			c-22.5,0-39.8-19-39.8-47.3c-0.2-31,19-50,41.7-50c14.2,0,23.8,6.7,28.1,14.2h0.4v-55.6H1312z M1295.1,1366.5c0-2.1-0.2-5-0.8-7.1
			c-2.5-10.8-11.7-19.6-24.4-19.6c-17.5,0-27.9,15.4-27.9,36c0,18.8,9.2,34.4,27.5,34.4c11.3,0,21.7-7.5,24.8-20.2
			c0.6-2.3,0.8-4.6,0.8-7.3V1366.5z"/>
		<path class="st3" d="M1372.7,1293.8c7.3-1.5,18.8-2.7,30.6-2.7c16.7,0,27.5,2.9,35.6,9.4c6.7,5,10.8,12.7,10.8,22.9
			c0,12.5-8.3,23.5-21.9,28.5v0.4c12.3,3.1,26.7,13.3,26.7,32.5c0,11.2-4.4,19.6-11,26c-9,8.3-23.7,12.1-44.8,12.1
			c-11.5,0-20.4-0.8-26-1.5V1293.8z M1389.4,1346.9h15.2c17.7,0,28.1-9.2,28.1-21.7c0-15.2-11.5-21.2-28.5-21.2
			c-7.7,0-12.1,0.6-14.8,1.2V1346.9z M1389.4,1409c3.3,0.6,8.1,0.8,14,0.8c17.3,0,33.3-6.3,33.3-25.2c0-17.7-15.2-25-33.5-25h-13.8
			V1409z"/>
		<path class="st3" d="M1554.2,1396.3c0,9.6,0.2,18.1,0.8,25.4h-15l-1-15.2h-0.4c-4.4,7.5-14.2,17.3-30.8,17.3
			c-14.6,0-32.1-8.1-32.1-40.8v-54.4h16.9v51.5c0,17.7,5.4,29.6,20.8,29.6c11.3,0,19.2-7.9,22.3-15.4c1-2.5,1.5-5.6,1.5-8.7v-57.1
			h16.9V1396.3z"/>
		<path class="st3" d="M1580,1404.4c5,3.3,13.8,6.7,22.3,6.7c12.3,0,18.1-6.2,18.1-13.8c0-8.1-4.8-12.5-17.3-17.1
			c-16.7-6-24.6-15.2-24.6-26.4c0-15,12.1-27.3,32.1-27.3c9.4,0,17.7,2.7,22.9,5.8l-4.2,12.3c-3.7-2.3-10.4-5.4-19-5.4
			c-10,0-15.6,5.8-15.6,12.7c0,7.7,5.6,11.2,17.7,15.8c16.2,6.2,24.4,14.2,24.4,28.1c0,16.3-12.7,27.9-34.8,27.9
			c-10.2,0-19.6-2.5-26.2-6.3L1580,1404.4z"/>
		<path class="st3" d="M1677.3,1302.5c0.2,5.8-4,10.4-10.8,10.4c-6,0-10.2-4.6-10.2-10.4c0-6,4.4-10.6,10.6-10.6
			C1673.3,1291.9,1677.3,1296.5,1677.3,1302.5z M1658.5,1421.7v-93.1h16.9v93.1H1658.5z"/>
		<path class="st3" d="M1703.5,1353.8c0-9.6-0.2-17.5-0.8-25.2h15l1,15.4h0.4c4.6-8.8,15.4-17.5,30.8-17.5
			c12.9,0,32.9,7.7,32.9,39.6v55.6h-16.9v-53.7c0-15-5.6-27.5-21.5-27.5c-11.2,0-19.8,7.9-22.7,17.3c-0.8,2.1-1.2,5-1.2,7.9v56
			h-16.9V1353.8z"/>
		<path class="st3" d="M1819.6,1378.3c0.4,22.9,15,32.3,31.9,32.3c12.1,0,19.4-2.1,25.8-4.8l2.9,12.1c-6,2.7-16.2,5.8-31,5.8
			c-28.7,0-45.8-18.8-45.8-46.9s16.5-50.2,43.7-50.2c30.4,0,38.5,26.7,38.5,43.9c0,3.5-0.4,6.2-0.6,7.9H1819.6z M1869.3,1366.1
			c0.2-10.8-4.4-27.5-23.5-27.5c-17.1,0-24.6,15.8-26,27.5H1869.3z"/>
		<path class="st3" d="M1904.3,1404.4c5,3.3,13.8,6.7,22.3,6.7c12.3,0,18.1-6.2,18.1-13.8c0-8.1-4.8-12.5-17.3-17.1
			c-16.7-6-24.6-15.2-24.6-26.4c0-15,12.1-27.3,32.1-27.3c9.4,0,17.7,2.7,22.9,5.8l-4.2,12.3c-3.7-2.3-10.4-5.4-19-5.4
			c-10,0-15.6,5.8-15.6,12.7c0,7.7,5.6,11.2,17.7,15.8c16.2,6.2,24.4,14.2,24.4,28.1c0,16.3-12.7,27.9-34.8,27.9
			c-10.2,0-19.6-2.5-26.2-6.3L1904.3,1404.4z"/>
		<path class="st3" d="M1980.4,1404.4c5,3.3,13.8,6.7,22.3,6.7c12.3,0,18.1-6.2,18.1-13.8c0-8.1-4.8-12.5-17.3-17.1
			c-16.7-6-24.6-15.2-24.6-26.4c0-15,12.1-27.3,32.1-27.3c9.4,0,17.7,2.7,22.9,5.8l-4.2,12.3c-3.7-2.3-10.4-5.4-19-5.4
			c-10,0-15.6,5.8-15.6,12.7c0,7.7,5.6,11.2,17.7,15.8c16.2,6.2,24.4,14.2,24.4,28.1c0,16.3-12.7,27.9-34.8,27.9
			c-10.2,0-19.6-2.5-26.2-6.3L1980.4,1404.4z"/>
		<path class="st3" d="M1049.5,1522.9v129.6h-16.7v-129.6H1049.5z"/>
		<path class="st3" d="M1078.1,1584.6c0-9.6-0.2-17.5-0.8-25.2h15l1,15.4h0.4c4.6-8.8,15.4-17.5,30.8-17.5
			c12.9,0,32.9,7.7,32.9,39.6v55.6h-16.9v-53.7c0-15-5.6-27.5-21.5-27.5c-11.2,0-19.8,7.9-22.7,17.3c-0.8,2.1-1.2,5-1.2,7.9v56
			h-16.9V1584.6z"/>
		<path class="st3" d="M1251.2,1649.1c-4.4,2.3-14.2,5.4-26.7,5.4c-28.1,0-46.4-19-46.4-47.5c0-28.7,19.6-49.4,50-49.4
			c10,0,18.8,2.5,23.5,4.8l-3.8,13.1c-4-2.3-10.4-4.4-19.6-4.4c-21.3,0-32.9,15.8-32.9,35.2c0,21.5,13.8,34.8,32.3,34.8
			c9.6,0,16-2.5,20.8-4.6L1251.2,1649.1z"/>
		<path class="st3" d="M1348.9,1627.1c0,9.6,0.2,18.1,0.8,25.4h-15l-1-15.2h-0.4c-4.4,7.5-14.2,17.3-30.8,17.3
			c-14.6,0-32.1-8.1-32.1-40.8v-54.4h16.9v51.5c0,17.7,5.4,29.6,20.8,29.6c11.3,0,19.2-7.9,22.3-15.4c1-2.5,1.5-5.6,1.5-8.7v-57.1
			h16.9V1627.1z"/>
		<path class="st3" d="M1376.2,1652.5c0.4-6.3,0.8-15.8,0.8-24V1516h16.7v58.5h0.4c6-10.4,16.7-17.1,31.7-17.1
			c23.1,0,39.4,19.2,39.2,47.5c0,33.3-21,49.8-41.7,49.8c-13.5,0-24.2-5.2-31.2-17.5h-0.6l-0.8,15.4H1376.2z M1393.7,1615.2
			c0,2.1,0.4,4.2,0.8,6.2c3.3,11.7,13.1,19.8,25.4,19.8c17.7,0,28.3-14.4,28.3-35.8c0-18.7-9.6-34.6-27.7-34.6
			c-11.5,0-22.3,7.9-25.8,20.8c-0.4,1.9-1,4.2-1,6.9V1615.2z"/>
		<path class="st3" d="M1538,1652.5l-1.3-11.7h-0.6c-5.2,7.3-15.2,13.8-28.5,13.8c-18.8,0-28.5-13.3-28.5-26.7
			c0-22.5,20-34.8,56-34.6v-1.9c0-7.7-2.1-21.5-21.2-21.5c-8.7,0-17.7,2.7-24.2,6.9l-3.8-11.2c7.7-5,18.8-8.3,30.6-8.3
			c28.5,0,35.4,19.4,35.4,38.1v34.8c0,8.1,0.4,16,1.5,22.3H1538z M1535.5,1605c-18.5-0.4-39.4,2.9-39.4,21c0,11,7.3,16.2,16,16.2
			c12.1,0,19.8-7.7,22.5-15.6c0.6-1.7,1-3.7,1-5.4V1605z"/>
		<path class="st3" d="M1599.5,1532.7v26.7h24.2v12.9h-24.2v50.2c0,11.5,3.3,18.1,12.7,18.1c4.4,0,7.7-0.6,9.8-1.2l0.8,12.7
			c-3.3,1.3-8.5,2.3-15,2.3c-7.9,0-14.2-2.5-18.3-7.1c-4.8-5-6.5-13.3-6.5-24.2v-50.8h-14.4v-12.9h14.4v-22.3L1599.5,1532.7z"/>
		<path class="st3" d="M1727,1605.2c0,34.4-23.8,49.4-46.4,49.4c-25.2,0-44.6-18.5-44.6-47.9c0-31.2,20.4-49.4,46.2-49.4
			C1709,1557.3,1727,1576.7,1727,1605.2z M1653.2,1606.2c0,20.4,11.7,35.8,28.3,35.8c16.2,0,28.3-15.2,28.3-36.2
			c0-15.8-7.9-35.8-27.9-35.8S1653.2,1588.5,1653.2,1606.2z"/>
		<path class="st3" d="M1748.4,1588.5c0-11-0.2-20.4-0.8-29h14.8l0.6,18.3h0.8c4.2-12.5,14.4-20.4,25.8-20.4c1.9,0,3.3,0.2,4.8,0.6
			v16c-1.7-0.4-3.5-0.6-5.8-0.6c-11.9,0-20.4,9-22.7,21.7c-0.4,2.3-0.8,5-0.8,7.9v49.6h-16.7V1588.5z"/>
		<path class="st3" d="M1809,1635.2c5,3.3,13.8,6.7,22.3,6.7c12.3,0,18.1-6.2,18.1-13.8c0-8.1-4.8-12.5-17.3-17.1
			c-16.7-6-24.6-15.2-24.6-26.3c0-15,12.1-27.3,32.1-27.3c9.4,0,17.7,2.7,22.9,5.8l-4.2,12.3c-3.7-2.3-10.4-5.4-19-5.4
			c-10,0-15.6,5.8-15.6,12.7c0,7.7,5.6,11.2,17.7,15.8c16.2,6.2,24.4,14.2,24.4,28.1c0,16.3-12.7,27.9-34.8,27.9
			c-10.2,0-19.6-2.5-26.2-6.3L1809,1635.2z"/>
		<path class="st3" d="M2010.6,1648.3c-6.2,3.1-18.5,6.2-34.2,6.2c-36.5,0-64-23.1-64-65.6c0-40.6,27.5-68.1,67.7-68.1
			c16.2,0,26.3,3.5,30.8,5.8l-4,13.7c-6.3-3.1-15.4-5.4-26.2-5.4c-30.4,0-50.6,19.4-50.6,53.5c0,31.7,18.3,52.1,49.8,52.1
			c10.2,0,20.6-2.1,27.3-5.4L2010.6,1648.3z"/>
		<path class="st3" d="M2040.4,1609.1c0.4,22.9,15,32.3,31.9,32.3c12.1,0,19.4-2.1,25.8-4.8l2.9,12.1c-6,2.7-16.2,5.8-31,5.8
			c-28.7,0-45.8-18.8-45.8-46.9s16.5-50.2,43.7-50.2c30.4,0,38.5,26.7,38.5,43.9c0,3.5-0.4,6.2-0.6,7.9H2040.4z M2090.1,1596.9
			c0.2-10.8-4.4-27.5-23.5-27.5c-17.1,0-24.6,15.8-26,27.5H2090.1z"/>
		<path class="st3" d="M2127.4,1584.6c0-9.6-0.2-17.5-0.8-25.2h15l1,15.4h0.4c4.6-8.8,15.4-17.5,30.8-17.5
			c12.9,0,32.9,7.7,32.9,39.6v55.6h-16.9v-53.7c0-15-5.6-27.5-21.5-27.5c-11.2,0-19.8,7.9-22.7,17.3c-0.8,2.1-1.2,5-1.2,7.9v56
			h-16.9V1584.6z"/>
		<path class="st3" d="M2254.5,1532.7v26.7h24.2v12.9h-24.2v50.2c0,11.5,3.3,18.1,12.7,18.1c4.4,0,7.7-0.6,9.8-1.2l0.8,12.7
			c-3.3,1.3-8.5,2.3-15,2.3c-7.9,0-14.2-2.5-18.3-7.1c-4.8-5-6.5-13.3-6.5-24.2v-50.8h-14.4v-12.9h14.4v-22.3L2254.5,1532.7z"/>
		<path class="st3" d="M2307.2,1609.1c0.4,22.9,15,32.3,31.9,32.3c12.1,0,19.4-2.1,25.8-4.8l2.9,12.1c-6,2.7-16.2,5.8-31,5.8
			c-28.7,0-45.8-18.8-45.8-46.9s16.5-50.2,43.7-50.2c30.4,0,38.5,26.7,38.5,43.9c0,3.5-0.4,6.2-0.6,7.9H2307.2z M2356.8,1596.9
			c0.2-10.8-4.4-27.5-23.5-27.5c-17.1,0-24.6,15.8-26,27.5H2356.8z"/>
		<path class="st3" d="M2394.1,1588.5c0-11-0.2-20.4-0.8-29h14.8l0.6,18.3h0.8c4.2-12.5,14.4-20.4,25.8-20.4c1.9,0,3.3,0.2,4.8,0.6
			v16c-1.7-0.4-3.5-0.6-5.8-0.6c-11.9,0-20.4,9-22.7,21.7c-0.4,2.3-0.8,5-0.8,7.9v49.6h-16.7V1588.5z"/>
	</g>
</g>
</svg>
