<?xml version="1.0" encoding="utf-8"?>
<!-- Generator: Adobe Illustrator 26.0.1, SVG Export Plug-In . SVG Version: 6.00 Build 0)  -->
<svg version="1.1" id="Layer_1" xmlns="http://www.w3.org/2000/svg" xmlns:xlink="http://www.w3.org/1999/xlink" x="0px" y="0px"
	 viewBox="0 0 2806.3 2806.3" style="enable-background:new 0 0 2806.3 2806.3;" xml:space="preserve">
<style type="text/css">
	.st0{fill:url(#SVGID_1_);}
	.st1{fill:url(#SVGID_00000059277692350435932790000013273382320886572468_);}
	.st2{fill:url(#SVGID_00000080890462035847399630000015695595370910046860_);}
	.st3{fill:#2E5F7F;}
</style>
<g>
	<g>
		<linearGradient id="SVGID_1_" gradientUnits="userSpaceOnUse" x1="2187.3804" y1="1738.0894" x2="2573.0562" y2="1276.349">
			<stop  offset="1.445747e-02" style="stop-color:#141F2A"/>
			<stop  offset="0.1241" style="stop-color:#17232F"/>
			<stop  offset="0.2919" style="stop-color:#20303C"/>
			<stop  offset="0.4967" style="stop-color:#314753"/>
			<stop  offset="0.7308" style="stop-color:#4D6E7A"/>
			<stop  offset="0.9828" style="stop-color:#7BA9B2"/>
		</linearGradient>
		<path class="st0" d="M2508.8,1169.9v481.9c0,31.3-25.4,56.7-56.7,56.7h-340.2v-56.7c0-31.3,25.4-56.7,56.7-56.7h226.8v-425.2
			H2508.8z"/>
		
			<linearGradient id="SVGID_00000044174479050575565510000004147436917299079854_" gradientUnits="userSpaceOnUse" x1="2396.7761" y1="1091.6874" x2="2509.3201" y2="1077.8601">
			<stop  offset="0.1025" style="stop-color:#D07E2E"/>
			<stop  offset="0.3718" style="stop-color:#D67E30"/>
			<stop  offset="0.7708" style="stop-color:#E57D38"/>
			<stop  offset="0.9828" style="stop-color:#EF7B3D"/>
		</linearGradient>
		<path style="fill:url(#SVGID_00000044174479050575565510000004147436917299079854_);" d="M2508.8,1084.9v56.7h-113.4v-113.4h56.7
			C2483.4,1028.2,2508.8,1053.6,2508.8,1084.9z"/>
		
			<linearGradient id="SVGID_00000085251472294525692720000011097207039958536079_" gradientUnits="userSpaceOnUse" x1="1788.9353" y1="1569.6283" x2="2344.5837" y2="1099.672">
			<stop  offset="0.1025" style="stop-color:#141F2A"/>
			<stop  offset="0.2029" style="stop-color:#17232F"/>
			<stop  offset="0.3521" style="stop-color:#202F3B"/>
			<stop  offset="0.5317" style="stop-color:#2F4451"/>
			<stop  offset="0.7349" style="stop-color:#4A6975"/>
			<stop  offset="0.9554" style="stop-color:#74A0AA"/>
			<stop  offset="0.9828" style="stop-color:#7BA9B2"/>
		</linearGradient>
		<path style="fill:url(#SVGID_00000085251472294525692720000011097207039958536079_);" d="M2367.1,1028.2v113.4h-283.5v510.2
			c0,31.3-25.4,56.7-56.7,56.7h-56.7v-623.6c0-31.3,25.4-56.7,56.7-56.7H2367.1z"/>
	</g>
	<g>
		<path class="st3" d="M646.9,1151.5l48.2-17.5v123.1h-69.1c-10.7,0-18.8-2.9-24.2-8.7c-5.4-5.8-8.1-12.7-8.1-20.7
			c0-11,5.7-21.5,17.1-31.6c11.4-10.1,27.4-17.8,48.1-22.9v-13.1l-11.9,4.4V1151.5z M624.3,1084.6c5.5,0,10.2,1.9,14.1,5.8
			c3.9,3.9,5.9,8.5,5.9,13.9c0,5.5-2,10.2-5.9,14.1c-4,3.9-8.6,5.9-14.1,5.9c-5.5,0-10.2-2-14.1-5.9c-3.9-3.9-5.8-8.6-5.8-14.1
			c0-5.4,1.9-10.1,5.8-13.9C614.1,1086.5,618.8,1084.6,624.3,1084.6z M658.9,1197.8c-7.1,0.2-12.6,1.6-16.5,4.1
			c-4,2.5-5.9,5.4-5.9,8.9c0,2.9,1.2,4.8,3.6,5.6c2.4,0.9,8.7,1.3,18.8,1.3V1197.8z M677.1,1084.9c5.5,0,10.2,1.9,14.2,5.8
			c4,3.9,5.9,8.6,5.9,14.1c0,5.4-2,10.1-5.9,13.9c-4,3.9-8.7,5.8-14.2,5.8c-5.5,0-10.2-1.9-14.1-5.8c-3.9-3.9-5.8-8.5-5.8-13.9
			c0-5.5,1.9-10.2,5.8-14.1C666.9,1086.9,671.6,1084.9,677.1,1084.9z"/>
		<path class="st3" d="M817.3,1257.1H710l24.2-49.7l9.1,1.2c1.9,6.1,6.7,9.2,14.6,9.2h19.8c0.4-10.8-8.8-21.6-27.5-32.3
			c12.2-20.4,23.5-34.3,33.8-41.6l7.8,5.6c-2.9,2.4-4.4,5.4-4.4,8.8c0,3.3,2.3,6.9,6.8,10.8c15.4,13.6,23.2,29.8,23.2,48.7V1257.1z"
			/>
		<path class="st3" d="M890.9,1080.6l-0.1,137.4h3.3v39.3h-42.8v-148.9l-12,4.2v-13.1L890.9,1080.6z"/>
		<path class="st3" d="M967.6,1180.8l51.2-15.6v92H887.8v-39.4h91.4v-27.5l-11.6,3.5V1180.8z M939.1,1270.4c5.5,0,10.2,2,14.1,5.9
			c3.9,3.9,5.9,8.6,5.9,14c0,5.5-2,10.2-5.9,14.1c-3.9,3.9-8.6,5.9-14.1,5.9c-5.5,0-10.2-2-14.1-5.9c-3.9-3.9-5.9-8.6-5.9-14.1
			c0-5.5,1.9-10.2,5.8-14.1S933.5,1270.4,939.1,1270.4z M994.4,1270.6c5.6,0,10.3,1.9,14.2,5.8c3.9,3.9,5.9,8.5,5.9,13.9
			c0,5.5-2,10.2-5.9,14.1c-3.9,3.9-8.7,5.8-14.2,5.8c-5.5,0-10.2-1.9-14.1-5.8c-3.9-3.9-5.9-8.6-5.9-14.1c0-5.4,2-10.1,5.9-13.9
			C984.2,1272.5,988.9,1270.6,994.4,1270.6z"/>
		<path class="st3" d="M1098.2,1172.9c20.9,18.3,31.4,43,31.4,74c0,19.7-5.5,35.2-16.3,46.6c-10.9,11.4-23.7,17.1-38.5,17.1
			c-11.2,0-20.6-2.6-28.2-7.8c-7.6-5.2-11.4-9.1-11.4-11.8c0-2,1-3.1,3.1-3.1c1.3,0,3,0.2,5.3,0.7c3.9,0.9,7.6,1.3,11.2,1.3
			c11.1,0,19.9-4.1,26.2-12.2c6.4-8.2,9.5-18.5,9.5-31.2c0-17.4-3.8-26.1-11.3-26.1c-2.5,0-4.6,0.7-6.2,2.2l-7.2-6.1L1098.2,1172.9z
			"/>
		<path class="st3" d="M1197.8,1069.7v187.3H1123v-39.4h35.6V1097l-12,4.5v-13.1L1197.8,1069.7z"/>
		<path class="st3" d="M1271.6,1080.6v176.5h-39.6v-148.8l-12,4.2v-13.1L1271.6,1080.6z"/>
		<path class="st3" d="M1396,1172.9c20.9,18.3,31.4,42.9,31.4,74c0,19.6-5.5,35.1-16.3,46.6c-10.9,11.4-23.7,17.2-38.5,17.2
			c-11.2,0-20.6-2.6-28.2-7.8c-7.6-5.2-11.4-9.1-11.4-11.8c0-2,1-3.1,3.1-3.1c1.3,0,3,0.2,5.3,0.7c3.9,0.9,7.6,1.3,11.2,1.3
			c11.7,0,20.6-4.2,26.6-12.7c6.1-8.5,9.1-18.7,9.1-30.7c0-17.4-3.8-26.1-11.3-26.1c-2.5,0-4.6,0.7-6.2,2.2l-7.2-6.1L1396,1172.9z
			 M1386.1,1125c5.6,0,10.3,1.9,14.3,5.8c4,3.9,5.9,8.5,5.9,13.9c0,5.5-2,10.2-5.9,14.1c-4,3.9-8.7,5.8-14.3,5.8
			c-5.5,0-10.2-1.9-14.2-5.8c-4-3.9-5.9-8.6-5.9-14.1c0-5.4,2-10.1,5.9-13.9C1375.9,1127,1380.6,1125,1386.1,1125z"/>
		<path class="st3" d="M1447.8,1167.4l86.7-78.4c4-3.6,7.5-5.4,10.6-5.4c1.6,0,3,0.6,4.4,1.9c1.3,1.3,2,2.8,2,4.5
			c0,2.4-1.1,4.9-3.3,7.5l-56.1,67.4h128.9v92.2h-199.1v-39.4h162.8v-15.9h-124.8L1447.8,1167.4z"/>
		<path class="st3" d="M1700.3,1172.9c20.9,18.3,31.4,43,31.4,74c0,19.7-5.5,35.2-16.3,46.6c-10.9,11.4-23.7,17.1-38.5,17.1
			c-11.2,0-20.6-2.6-28.2-7.8c-7.6-5.2-11.4-9.1-11.4-11.8c0-2,1-3.1,3.1-3.1c1.3,0,3,0.2,5.3,0.7c3.9,0.9,7.6,1.3,11.2,1.3
			c11.1,0,19.9-4.1,26.2-12.2c6.4-8.2,9.5-18.5,9.5-31.2c0-17.4-3.8-26.1-11.3-26.1c-2.5,0-4.6,0.7-6.2,2.2l-7.2-6.1L1700.3,1172.9z
			"/>
		<path class="st3" d="M1742.4,1217.6c4.9-12.6,12.4-23,22.5-31.2c10.2-8.2,18.1-12.2,23.7-12.2c7.2,0,17.1,5.9,29.7,17.6
			c12.6,11.7,18.9,25.5,18.9,41.3c0,9.2-1.8,17.6-5.3,25.2s-9.3,13.6-17.4,18c-8.1,4.4-16.3,6.6-24.8,6.6
			c-21.5,0-36.3-8.6-44.5-25.9h-19.4v-39.4H1742.4z M1789.5,1214.2c-3.1,0-6,1.9-8.8,5.8s-4.2,7.6-4.2,11.2
			c0,8.2,4.5,12.3,13.5,12.3c3.1,0,5.7-1.1,8-3.3c2.3-2.2,3.4-5.2,3.4-9.1c0-3.8-1.3-7.6-4-11.4
			C1794.7,1216,1792,1214.2,1789.5,1214.2z"/>
		<path class="st3" d="M448.1,1396.7v188.7c0,8.2-3.2,15.8-9.5,23c-6.4,7.2-15.6,14.7-27.6,22.5c-12.1,7.8-20.4,11.7-25,11.7
			c-4.5,0-12.8-4.3-25.1-12.8c-12.3-8.5-21.2-16.3-26.7-23.5c-5.5-7.2-8.1-14.5-7.7-22.1h-10v-6.7l32.5-35h9.8v36.8
			c0,5,4.3,10.6,12.8,16.8c8.5,6.2,13.4,9.3,14.7,9.3c1.5,0,5.4-2.3,11.6-6.9c6.2-4.6,10.2-8.1,11.8-10.3c1.6-2.3,2.5-5.3,2.5-9.1
			v-156.1l-14,5.1v-13.1L448.1,1396.7z"/>
		<path class="st3" d="M521.9,1407.7l-0.1,137.4h3.3v39.3h-42.8v-148.9l-12,4.2v-13.1L521.9,1407.7z"/>
		<path class="st3" d="M535.5,1544.7c4.9-12.6,12.4-23,22.5-31.2c10.2-8.2,18.1-12.2,23.7-12.2c7.2,0,17.1,5.9,29.7,17.6
			c12.6,11.7,18.9,25.5,18.9,41.3c0,9.2-1.8,17.6-5.3,25.2s-9.3,13.6-17.4,18c-8.1,4.4-16.3,6.6-24.8,6.6
			c-21.5,0-36.3-8.6-44.5-25.9h-19.4v-39.4H535.5z M582.6,1541.3c-3.1,0-6,1.9-8.8,5.8s-4.2,7.6-4.2,11.2c0,8.2,4.5,12.3,13.5,12.3
			c3.1,0,5.7-1.1,8-3.3c2.3-2.2,3.4-5.2,3.4-9.1c0-3.8-1.3-7.6-4-11.4C587.8,1543.2,585.1,1541.3,582.6,1541.3z"/>
		<path class="st3" d="M623.9,1584.2v-39.4h34c-1.3-4.2-2-9.1-2-14.8c0-12.6,4.8-23.9,14.3-33.9c9.6-10,21.4-14.9,35.6-14.9
			c1.1,0,3.6,0.2,7.5,0.7c3.1,0.4,5.1,0.6,5.8,0.6c5.2,0,9.2-2.3,12.2-6.9l8.9,3.6l-20,45.9c-4.9-3.9-9.3-5.9-13.4-5.9
			c-3.8,0-7,1.2-9.4,3.6c-2.4,2.4-3.6,5.4-3.6,9c0,4.3,1.5,7.6,4.6,10c3.1,2.4,6.7,3.5,10.8,3.5c5.8,0,11.6-2.7,17.5-8.1
			c2.9-2.7,5.1-4,6.5-4c1.8,0,3.5,2.4,5.2,7.3c3.7,10.9,9,21.6,16,32c2.8,4.2,4.2,6.9,4.2,8.1c0,2.4-1.8,3.6-5.3,3.6H623.9z"/>
		<path class="st3" d="M875.8,1411.6v102.9l-17.5,5.9c6.7,4.5,12,9.2,15.8,13.9c3.8,4.7,5.6,8.8,5.6,12.2v37.7h-82.2l-10.9-39.2
			c6.2-6.3,15.2-12.7,27-19.2l-18-10.6v-57.9L784,1462v-12.9l51-20.9v79.4l8.3,4.2l8.9-4v-73.4l-7.6,3.1V1424L875.8,1411.6z
			 M795.6,1412.9c-4.8-4.5-7.2-9.7-7.2-15.4c0-9.6,6.7-15.8,20.2-18.8c7.3-1.6,12.2-3.9,14.6-6.9c1.3-1.6,2.4-2.5,3.1-2.5
			c2.1,0,3.2,2.1,3.2,6.4c0,2.7-0.8,5.2-2.4,7.5c-1.6,2.4-5.3,4.7-11.3,7.1c-6.7,2.6-10,5.5-10,8.7c0,4.9,3.1,7.4,9.2,7.4
			c5,0,10.9-3,17.6-9.1c2.2-2,3.6-3.1,4.1-3.1c1.6,0,2.4,1.1,2.6,3.4l0.8,10.5c0,1.9-1.3,3.3-3.9,4.2l-49.9,17.6V1416L795.6,1412.9z
			 M824.8,1533.5c-7.8,4.2-13.8,7.9-18.1,11.2h29.4C834.2,1541.9,830.5,1538.2,824.8,1533.5z"/>
		<path class="st3" d="M953.5,1407.7v176.5h-39.6v-148.8l-12,4.2v-13.1L953.5,1407.7z"/>
		<path class="st3" d="M1121,1508.1l51.2-15.9v92h-153.9l22.7-49.7h11.8c-0.1,0.7-0.1,1.4-0.1,2c0,5.6,3.3,8.3,9.9,8.3h70.2v-27.4
			l-11.6,3.5V1508.1z M1090.1,1448.8c5.5,0,10.2,2,14.2,5.9c4,3.9,5.9,8.6,5.9,14c0,5.5-2,10.2-5.9,14.1c-4,3.9-8.7,5.9-14.2,5.9
			c-5.6,0-10.3-2-14.2-5.9c-3.9-3.9-5.9-8.6-5.9-14.1c0-5.4,2-10.1,5.9-14C1079.8,1450.8,1084.5,1448.8,1090.1,1448.8z
			 M1143.1,1448.7c5.6,0,10.3,1.9,14.3,5.8c4,3.9,5.9,8.6,5.9,14.1c0,5.5-2,10.2-5.9,14.2c-4,4-8.7,5.9-14.3,5.9
			c-5.5,0-10.2-2-14.2-5.9c-4-4-5.9-8.7-5.9-14.2c0-5.5,2-10.2,5.9-14.1C1132.9,1450.7,1137.7,1448.7,1143.1,1448.7z"/>
		<path class="st3" d="M1245.9,1407.7l-0.1,137.4h3.3v39.3h-42.8v-148.9l-12,4.2v-13.1L1245.9,1407.7z"/>
		<path class="st3" d="M1322.6,1507.9l51.2-15.6v92h-130.9v-39.4h91.4v-27.5l-11.6,3.5V1507.9z M1349.5,1449.3
			c5.6,0,10.3,1.9,14.2,5.8c3.9,3.8,5.8,8.5,5.8,14c0,5.5-1.9,10.2-5.8,14c-3.9,3.8-8.6,5.8-14.2,5.8c-5.5,0-10.2-1.9-14.1-5.8
			c-3.9-3.8-5.8-8.5-5.8-14c0-5.4,1.9-10.1,5.8-13.9C1339.4,1451.3,1344,1449.3,1349.5,1449.3z"/>
		<path class="st3" d="M1437.8,1524.9c10.5-15.1,19.7-25.6,27.7-31.3c8-5.8,16.7-8.6,26.2-8.6c8.6,0,15.9,2.4,21.9,7.1
			c6,4.7,9.7,10.5,11.3,17.4c1.6,6.9,2.4,16.5,2.4,28.9v45.7h-156.4v-39.3h27.9v-28.1l-9.8,3.2v-12.8l48.9-14.8V1524.9z
			 M1456.7,1436.6c5.5,0,10.2,1.9,14.1,5.8c3.9,3.9,5.9,8.5,5.9,13.9c0,5.5-2,10.2-5.9,14.1c-3.9,3.9-8.6,5.8-14.1,5.8
			c-5.5,0-10.2-1.9-14.1-5.8c-3.9-3.9-5.9-8.6-5.9-14.1c0-5.4,2-10.1,5.9-13.9C1446.5,1438.6,1451.2,1436.6,1456.7,1436.6z
			 M1437.5,1544.8h50.1v-7.4c0-10.3-5-15.5-15.1-15.5C1462,1521.9,1450.3,1529.5,1437.5,1544.8z"/>
		<path class="st3" d="M1601,1407.7l-0.1,137.4h3.3v39.3h-42.8v-148.9l-12,4.2v-13.1L1601,1407.7z"/>
		<path class="st3" d="M1621.3,1508.1c6.1-15.8,16.7-23.8,31.6-23.8c22.1,0,39.8,20.1,53.2,60.4h11.4v39.3c0,1.2,0.3,3.4,0.9,6.6
			c0.4,2.1,0.6,3.4,0.6,4c0,4.6-1.9,6.9-5.8,6.9c-2.8,0-5-1.9-6.6-5.6c-1.6-3.7-3.2-7.7-4.8-11.8H1598v-39.4h84.9
			c-8.1-14.6-16.2-21.9-24.3-21.9c-6.1,0-9.8,4.8-11.2,14.3h-9.4L1621.3,1508.1z"/>
		<path class="st3" d="M1794.5,1496.8c15,9.9,26,20.4,33,31.6c7,11.2,10.5,25.4,10.5,42.6c0,21.1-5.7,37.5-17,49.2
			c-11.3,11.7-24.6,17.5-39.7,17.5c-9.6,0-18-2.8-25-8.5c-7-5.6-10.5-9.8-10.5-12.3c0-1.6,0.7-2.4,2.2-2.4c0.5,0,1.5,0.2,2.8,0.6
			c3.2,1.2,6.7,1.8,10.5,1.8c9.1,0,17.2-3,24.2-9.1c7.1-6,10.9-14,11.4-23.8h-52C1745.2,1547.1,1761.7,1518,1794.5,1496.8z
			 M1774.2,1547.2h19.8c-2.8-7-6-11.7-9.5-14.2C1779.9,1535.9,1776.5,1540.6,1774.2,1547.2z"/>
	</g>
</g>
</svg>
