<?xml version="1.0" encoding="utf-8"?>
<!-- Generator: Adobe Illustrator 26.0.1, SVG Export Plug-In . SVG Version: 6.00 Build 0)  -->
<svg version="1.1" id="Layer_1" xmlns="http://www.w3.org/2000/svg" xmlns:xlink="http://www.w3.org/1999/xlink" x="0px" y="0px"
	 viewBox="0 0 2806.3 2806.3" style="enable-background:new 0 0 2806.3 2806.3;" xml:space="preserve">
<style type="text/css">
	.st0{fill:url(#SVGID_1_);}
	.st1{fill:url(#SVGID_00000181795716479741829230000005091529022693294994_);}
	.st2{fill:url(#SVGID_00000158746608500992479650000011197266843300250763_);}
</style>
<g>
	<linearGradient id="SVGID_1_" gradientUnits="userSpaceOnUse" x1="1351.4194" y1="1774.0894" x2="1737.0953" y2="1312.349">
		<stop  offset="1.445747e-02" style="stop-color:#141F2A"/>
		<stop  offset="0.1241" style="stop-color:#17232F"/>
		<stop  offset="0.2919" style="stop-color:#20303C"/>
		<stop  offset="0.4967" style="stop-color:#314753"/>
		<stop  offset="0.7308" style="stop-color:#4D6E7A"/>
		<stop  offset="0.9828" style="stop-color:#7BA9B2"/>
	</linearGradient>
	<path class="st0" d="M1672.8,1205.9v481.9c0,31.3-25.4,56.7-56.7,56.7H1276v-56.7c0-31.3,25.4-56.7,56.7-56.7h226.8v-425.2H1672.8z
		"/>
	
		<linearGradient id="SVGID_00000069367875659698102270000010425855480464595597_" gradientUnits="userSpaceOnUse" x1="1560.8154" y1="1127.6874" x2="1673.3594" y2="1113.8601">
		<stop  offset="0.1025" style="stop-color:#D07E2E"/>
		<stop  offset="0.3718" style="stop-color:#D67E30"/>
		<stop  offset="0.7708" style="stop-color:#E57D38"/>
		<stop  offset="0.9828" style="stop-color:#EF7B3D"/>
	</linearGradient>
	<path style="fill:url(#SVGID_00000069367875659698102270000010425855480464595597_);" d="M1672.8,1120.9v56.7h-113.4v-113.4h56.7
		C1647.5,1064.2,1672.8,1089.6,1672.8,1120.9z"/>
	
		<linearGradient id="SVGID_00000138557225380149086380000010173180610738775449_" gradientUnits="userSpaceOnUse" x1="952.9745" y1="1605.6283" x2="1508.6229" y2="1135.672">
		<stop  offset="0.1025" style="stop-color:#141F2A"/>
		<stop  offset="0.2029" style="stop-color:#17232F"/>
		<stop  offset="0.3521" style="stop-color:#202F3B"/>
		<stop  offset="0.5317" style="stop-color:#2F4451"/>
		<stop  offset="0.7349" style="stop-color:#4A6975"/>
		<stop  offset="0.9554" style="stop-color:#74A0AA"/>
		<stop  offset="0.9828" style="stop-color:#7BA9B2"/>
	</linearGradient>
	<path style="fill:url(#SVGID_00000138557225380149086380000010173180610738775449_);" d="M1531.1,1064.2v113.4h-283.5v510.2
		c0,31.3-25.4,56.7-56.7,56.7h-56.7v-623.6c0-31.3,25.4-56.7,56.7-56.7H1531.1z"/>
</g>
</svg>
