<?xml version="1.0" encoding="utf-8"?>
<!-- Generator: Adobe Illustrator 26.0.1, SVG Export Plug-In . SVG Version: 6.00 Build 0)  -->
<svg version="1.1" id="Layer_1" xmlns="http://www.w3.org/2000/svg" xmlns:xlink="http://www.w3.org/1999/xlink" x="0px" y="0px"
	 viewBox="0 0 2806.299 2806.299" enable-background="new 0 0 2806.299 2806.299" xml:space="preserve">
<g>
	<linearGradient id="SVGID_1_" gradientUnits="userSpaceOnUse" x1="508.4195" y1="1761.7993" x2="894.0953" y2="1300.0591">
		<stop  offset="0.0145" style="stop-color:#141F2A"/>
		<stop  offset="0.1241" style="stop-color:#17232F"/>
		<stop  offset="0.2919" style="stop-color:#20303C"/>
		<stop  offset="0.4967" style="stop-color:#314753"/>
		<stop  offset="0.7308" style="stop-color:#4D6E7A"/>
		<stop  offset="0.9828" style="stop-color:#7BA9B2"/>
	</linearGradient>
	<path fill="url(#SVGID_1_)" d="M829.838,1193.64v481.887c0,31.311-25.382,56.693-56.693,56.693H432.988v-56.687
		c0-31.311,25.382-56.693,56.693-56.693h226.767v-425.2H829.838z"/>
	
		<linearGradient id="SVGID_00000029755129837804264970000011375140134329379987_" gradientUnits="userSpaceOnUse" x1="717.8154" y1="1115.3975" x2="830.3593" y2="1101.5702">
		<stop  offset="0.1025" style="stop-color:#D07E2E"/>
		<stop  offset="0.3718" style="stop-color:#D67E30"/>
		<stop  offset="0.7708" style="stop-color:#E57D38"/>
		<stop  offset="0.9828" style="stop-color:#EF7B3D"/>
	</linearGradient>
	<path fill="url(#SVGID_00000029755129837804264970000011375140134329379987_)" d="M829.838,1108.603v56.687h-113.39v-113.38h56.697
		C804.456,1051.91,829.838,1077.292,829.838,1108.603z"/>
	
		<linearGradient id="SVGID_00000047748245600044251420000014355076469955242634_" gradientUnits="userSpaceOnUse" x1="109.9745" y1="1593.3384" x2="665.623" y2="1123.382">
		<stop  offset="0.1025" style="stop-color:#141F2A"/>
		<stop  offset="0.2029" style="stop-color:#17232F"/>
		<stop  offset="0.3521" style="stop-color:#202F3B"/>
		<stop  offset="0.5317" style="stop-color:#2F4451"/>
		<stop  offset="0.7349" style="stop-color:#4A6975"/>
		<stop  offset="0.9554" style="stop-color:#74A0AA"/>
		<stop  offset="0.9828" style="stop-color:#7BA9B2"/>
	</linearGradient>
	<path fill="url(#SVGID_00000047748245600044251420000014355076469955242634_)" d="M688.108,1051.91v113.38h-283.47v510.237
		c0,31.311-25.382,56.693-56.693,56.693h-56.687v-623.617c0-31.311,25.382-56.693,56.693-56.693H688.108z"/>
</g>
<g>
	<path fill="#265F71" d="M1045.793,1158.76l-8.304,38.412h61.888l-4.35,20.758h-86.604l29.264-135.8h83.439l-4.35,20.758h-58.725
		l-7.711,35.114h46.07l-4.548,20.758H1045.793z"/>
	<path fill="#265F71" d="M1173.521,1174.474c1.316-6.078,1.152-10.894-0.495-14.453c-1.65-3.556-5.175-5.335-10.578-5.335
		c-5.407,0-9.688,1.779-12.852,5.335c-3.164,3.559-5.407,8.375-6.723,14.453l-9.293,43.456h-22.541l9.293-43.65
		c1.186-5.302,2.734-10.379,4.646-15.229c1.909-4.85,4.479-9.085,7.711-12.707c3.229-3.619,7.248-6.499,12.062-8.633
		c4.81-2.134,10.776-3.201,17.894-3.201s13.081,1.067,17.894,3.201c4.81,2.134,8.567,5.014,11.271,8.633
		c2.7,3.622,4.381,7.857,5.042,12.707c0.658,4.85,0.395,9.927-0.791,15.229l-9.293,43.65h-22.541L1173.521,1174.474z"/>
	<path fill="#265F71" d="M1225.521,1117.05h21.157l-4.152,19.4h15.62l-3.757,17.266h-15.62l-6.525,30.07
		c-0.791,3.623-1.087,6.532-0.89,8.73c0.198,2.201,0.757,3.88,1.681,5.044c0.92,1.164,2.076,1.94,3.46,2.328
		c1.384,0.388,2.867,0.582,4.449,0.582c1.316,0,2.669-0.097,4.053-0.291c1.384-0.194,2.997-0.612,4.844-1.261l-3.559,16.878
		c-2.638,0.906-5.011,1.488-7.118,1.746c-2.11,0.261-4.087,0.388-5.932,0.388c-5.932,0-10.612-0.903-14.039-2.716
		c-3.429-1.81-5.901-4.365-7.415-7.663c-1.517-3.298-2.175-7.305-1.978-12.028c0.198-4.719,0.955-10.054,2.274-16.005
		L1225.521,1117.05z"/>
	<path fill="#265F71" d="M1316.077,1134.51c1.054,0,2.141,0.066,3.263,0.194c1.118,0.13,2.274,0.261,3.46,0.388l-4.35,20.176
		c-1.978-0.388-4.22-0.582-6.723-0.582c-4.616,0-8.799,1.746-12.556,5.238c-3.757,3.492-6.361,8.603-7.81,15.326l-9.095,42.68
		h-22.541l9.096-42.874c3.031-14.095,8.567-24.377,16.609-30.846C1293.469,1137.744,1303.686,1134.51,1316.077,1134.51z"/>
	<path fill="#265F71" d="M1365.111,1188.248c-3.954,0-7.878-0.321-11.764-0.97c-3.89-0.646-7.35-1.746-10.381-3.298
		c-0.133,6.727,1.978,11.416,6.327,14.065c4.35,2.652,9.818,3.977,16.411,3.977c1.316,0,2.602,0,3.856,0
		c1.251,0,2.536-0.127,3.855-0.388c4.612-0.646,8.533-1.455,11.765-2.425c3.229-0.97,6.358-2.164,9.392-3.589l-3.757,17.654
		c-4.22,1.812-8.635,3.364-13.248,4.656c-4.616,1.292-10.282,1.94-17.004,1.94c-15.027,0-25.902-3.91-32.625-11.737
		c-6.723-7.824-8.833-18.591-6.327-32.301c1.053-5.947,2.867-11.446,5.437-16.49c2.571-5.044,5.833-9.409,9.788-13.095
		s8.632-6.562,14.039-8.633c5.403-2.067,11.598-3.104,18.586-3.104c4.875,0,9.556,0.552,14.039,1.649
		c4.479,1.1,8.335,2.88,11.567,5.335c3.229,2.458,5.601,5.562,7.118,9.312c1.514,3.753,1.681,8.215,0.494,13.386
		c-1.847,8.796-6.197,15.004-13.05,18.624C1382.773,1186.438,1374.602,1188.248,1365.111,1188.248z M1369.263,1150.612
		c-5.932,0-10.844,1.779-14.73,5.335c-3.89,3.559-6.889,8.245-8.997,14.065c2.373,1.552,4.844,2.686,7.415,3.395
		c2.57,0.712,5.567,1.067,8.996,1.067c5.008,0,9.259-0.97,12.753-2.91c3.491-1.94,5.7-4.85,6.624-8.73
		c0.791-3.88,0.064-6.887-2.175-9.021C1376.907,1151.679,1373.613,1150.612,1369.263,1150.612z"/>
	<path fill="#265F71" d="M1416.32,1177.966c1.316-6.208,3.361-11.961,6.129-17.266c2.769-5.302,6.229-9.894,10.381-13.774
		s8.996-6.917,14.533-9.118c5.535-2.198,11.73-3.298,18.586-3.298c6.195,0,11.795,0.97,16.807,2.91
		c5.008,1.94,9.127,4.723,12.357,8.342c3.229,3.622,5.438,8.084,6.625,13.386c1.186,5.305,1.053,11.252-0.396,17.848
		c-1.318,6.208-3.361,11.931-6.129,17.169c-2.768,5.238-6.129,9.767-10.084,13.58c-3.955,3.816-8.537,6.79-13.742,8.924
		c-5.209,2.134-10.908,3.201-17.104,3.201c-6.197,0-11.172-1.037-14.928-3.104c-3.757-2.067-6.559-4.977-8.403-8.73l-8.503,39.964
		h-21.156L1416.32,1177.966z M1439.256,1177.189c-1.451,6.984-0.924,12.677,1.582,17.072c2.503,4.398,6.853,6.596,13.051,6.596
		c6.061,0,11.27-2.198,15.619-6.596c4.35-4.396,7.248-10.088,8.701-17.072c1.447-6.984,0.988-12.673-1.385-17.072
		c-2.373-4.396-6.658-6.596-12.852-6.596c-6.197,0-11.502,2.201-15.918,6.596
		C1443.637,1164.516,1440.705,1170.206,1439.256,1177.189z"/>
	<path fill="#265F71" d="M1564.021,1134.51c1.053,0,2.141,0.066,3.262,0.194c1.119,0.13,2.274,0.261,3.461,0.388l-4.351,20.176
		c-1.977-0.388-4.22-0.582-6.723-0.582c-4.615,0-8.799,1.746-12.555,5.238c-3.757,3.492-6.361,8.603-7.811,15.326l-9.096,42.68
		h-22.54l9.095-42.874c3.031-14.095,8.567-24.377,16.609-30.846C1541.413,1137.744,1551.63,1134.51,1564.021,1134.51z"/>
	<path fill="#265F71" d="M1613.054,1188.248c-3.954,0-7.878-0.321-11.765-0.97c-3.89-0.646-7.35-1.746-10.38-3.298
		c-0.133,6.727,1.977,11.416,6.327,14.065c4.35,2.652,9.818,3.977,16.411,3.977c1.315,0,2.601,0,3.855,0
		c1.251,0,2.536-0.127,3.855-0.388c4.612-0.646,8.533-1.455,11.765-2.425c3.229-0.97,6.358-2.164,9.392-3.589l-3.757,17.654
		c-4.22,1.812-8.635,3.364-13.247,4.656c-4.616,1.292-10.282,1.94-17.005,1.94c-15.026,0-25.901-3.91-32.624-11.737
		c-6.723-7.824-8.833-18.591-6.327-32.301c1.054-5.947,2.867-11.446,5.438-16.49s5.833-9.409,9.787-13.095s8.632-6.562,14.038-8.633
		c5.404-2.067,11.599-3.104,18.587-3.104c4.875,0,9.556,0.552,14.038,1.649c4.479,1.1,8.335,2.88,11.566,5.335
		c3.229,2.458,5.602,5.562,7.118,9.312c1.515,3.753,1.681,8.215,0.495,13.386c-1.848,8.796-6.198,15.004-13.05,18.624
		C1630.717,1186.438,1622.545,1188.248,1613.054,1188.248z M1617.206,1150.612c-5.932,0-10.844,1.779-14.73,5.335
		c-3.89,3.559-6.89,8.245-8.996,14.065c2.372,1.552,4.844,2.686,7.414,3.395c2.57,0.712,5.567,1.067,8.997,1.067
		c5.008,0,9.259-0.97,12.753-2.91c3.491-1.94,5.7-4.85,6.624-8.73c0.791-3.88,0.064-6.887-2.175-9.021
		C1624.85,1151.679,1621.556,1150.612,1617.206,1150.612z"/>
	<path fill="#265F71" d="M1718.836,1174.474c1.316-6.078,1.152-10.894-0.494-14.453c-1.649-3.556-5.175-5.335-10.578-5.335
		c-5.406,0-9.688,1.779-12.853,5.335c-3.163,3.559-5.406,8.375-6.723,14.453l-9.293,43.456h-22.54l9.293-43.65
		c1.187-5.302,2.734-10.379,4.646-15.229c1.909-4.85,4.479-9.085,7.711-12.707c3.229-3.619,7.248-6.499,12.062-8.633
		c4.811-2.134,10.775-3.201,17.894-3.201s13.081,1.067,17.895,3.201c4.811,2.134,8.567,5.014,11.271,8.633
		c2.7,3.622,4.381,7.857,5.042,12.707c0.658,4.85,0.396,9.927-0.791,15.229l-9.293,43.65h-22.541L1718.836,1174.474z"/>
	<path fill="#265F71" d="M1799.703,1188.248c-3.954,0-7.878-0.321-11.765-0.97c-3.89-0.646-7.35-1.746-10.38-3.298
		c-0.133,6.727,1.977,11.416,6.327,14.065c4.35,2.652,9.818,3.977,16.411,3.977c1.315,0,2.601,0,3.855,0
		c1.251,0,2.536-0.127,3.855-0.388c4.612-0.646,8.533-1.455,11.765-2.425c3.229-0.97,6.358-2.164,9.392-3.589l-3.757,17.654
		c-4.22,1.812-8.635,3.364-13.247,4.656c-4.616,1.292-10.282,1.94-17.005,1.94c-15.026,0-25.901-3.91-32.624-11.737
		c-6.723-7.824-8.833-18.591-6.327-32.301c1.054-5.947,2.867-11.446,5.438-16.49s5.833-9.409,9.787-13.095s8.632-6.562,14.038-8.633
		c5.404-2.067,11.599-3.104,18.587-3.104c4.875,0,9.556,0.552,14.038,1.649c4.479,1.1,8.335,2.88,11.566,5.335
		c3.229,2.458,5.602,5.562,7.118,9.312c1.515,3.753,1.681,8.215,0.495,13.386c-1.848,8.796-6.198,15.004-13.05,18.624
		C1817.366,1186.438,1809.194,1188.248,1799.703,1188.248z M1803.855,1150.612c-5.932,0-10.844,1.779-14.73,5.335
		c-3.89,3.559-6.89,8.245-8.996,14.065c2.372,1.552,4.844,2.686,7.414,3.395c2.57,0.712,5.567,1.067,8.997,1.067
		c5.008,0,9.259-0.97,12.753-2.91c3.491-1.94,5.7-4.85,6.624-8.73c0.791-3.88,0.064-6.887-2.175-9.021
		C1811.499,1151.679,1808.205,1150.612,1803.855,1150.612z"/>
	<path fill="#265F71" d="M1913.79,1136.45h22.343l-9.49,43.65c-3.034,13.841-8.175,23.929-15.423,30.264
		c-7.251,6.338-16.742,9.506-28.473,9.506c-5.802,0-11.041-0.776-15.719-2.328c-4.681-1.552-8.472-3.943-11.369-7.178
		c-2.901-3.231-4.845-7.372-5.833-12.416s-0.76-10.991,0.692-17.848l9.49-43.65h22.541l-9.688,44.62
		c-2.769,13.192,0.988,19.788,11.27,19.788c10.545,0,17.202-6.596,19.971-19.788L1913.79,1136.45z"/>
	<path fill="#265F71" d="M1993.473,1134.51c1.053,0,2.141,0.066,3.262,0.194c1.119,0.13,2.274,0.261,3.461,0.388l-4.351,20.176
		c-1.977-0.388-4.22-0.582-6.723-0.582c-4.615,0-8.799,1.746-12.555,5.238c-3.757,3.492-6.361,8.603-7.811,15.326l-9.096,42.68
		h-22.54l9.095-42.874c3.031-14.095,8.567-24.377,16.609-30.846C1970.864,1137.744,1981.081,1134.51,1993.473,1134.51z"/>
	<path fill="#265F71" d="M2060.5,1192.904c-1.319,5.95-3.461,10.703-6.427,14.259c-2.966,3.559-6.327,6.275-10.084,8.148
		c-3.757,1.876-7.779,3.104-12.061,3.686c-4.285,0.582-8.339,0.873-12.16,0.873c-4.616,0-9.624-0.261-15.027-0.776
		c-5.406-0.519-10.35-1.552-14.829-3.104l3.757-17.654c4.479,1.683,8.765,2.88,12.852,3.589c4.085,0.712,8.502,1.067,13.248,1.067
		c10.939,0,17.069-3.037,18.388-9.118c0.396-2.067,0.164-3.686-0.691-4.85c-0.859-1.164-2.11-2.101-3.757-2.813
		c-1.649-0.709-3.658-1.228-6.03-1.552c-2.373-0.321-4.813-0.743-7.316-1.261c-2.768-0.515-5.438-1.291-8.008-2.328
		c-2.57-1.034-4.745-2.522-6.524-4.462c-1.78-1.94-3-4.365-3.658-7.275c-0.661-2.91-0.528-6.499,0.396-10.767
		c1.187-5.56,3.163-9.958,5.932-13.192c2.769-3.231,5.997-5.656,9.688-7.275c3.688-1.616,7.678-2.619,11.962-3.007
		c4.282-0.388,8.533-0.582,12.754-0.582c2.635,0,6.392,0.164,11.271,0.485c4.875,0.324,9.886,1.003,15.026,2.037l-3.757,17.072
		c-5.536-1.94-12.92-2.91-22.145-2.91c-4.746,0-8.799,0.485-12.16,1.455c-3.361,0.97-5.373,2.943-6.031,5.917
		c-0.395,1.552-0.166,2.813,0.692,3.783c0.855,0.97,2.076,1.746,3.658,2.328s3.491,1.1,5.733,1.552
		c2.24,0.455,4.613,0.94,7.118,1.455c2.503,0.519,5.042,1.231,7.612,2.134c2.571,0.906,4.811,2.264,6.723,4.074
		c1.91,1.813,3.294,4.238,4.152,7.275C2061.652,1184.207,2061.553,1188.121,2060.5,1192.904z"/>
	<path fill="#265F71" d="M2110.128,1145.568h0.594c2.239-2.974,5.567-5.56,9.984-7.76c4.415-2.198,9.457-3.298,15.126-3.298
		c9.096,0,15.686,2.879,19.772,8.633c4.085,5.756,4.746,14.972,1.978,27.645l-10.084,47.142h-22.343l9.293-43.456
		c2.898-13.58-0.726-20.37-10.875-20.37c-5.011,0-9.163,1.716-12.456,5.141c-3.297,3.428-5.67,8.182-7.118,14.259l-9.491,44.426
		h-22.54l29.263-135.8h22.541L2110.128,1145.568z"/>
	<path fill="#265F71" d="M2195.15,1191.352c-0.661,2.847-0.825,5.044-0.494,6.596c0.327,1.552,1.612,2.328,3.855,2.328
		c1.187,0,2.768-0.321,4.745-0.97l-3.559,16.684c-1.848,0.648-3.89,1.134-6.13,1.455c-2.243,0.324-4.548,0.485-6.92,0.485
		c-3.164,0-5.901-0.321-8.206-0.97c-2.308-0.646-4.121-1.776-5.438-3.395c-1.319-1.615-2.11-3.846-2.373-6.693
		c-0.266-2.843,0.13-6.465,1.187-10.864l12.853-59.558h22.343L2195.15,1191.352z M2198.709,1125.004
		c-3.824,0-6.691-1.164-8.601-3.492c-1.912-2.328-2.407-5.56-1.483-9.7c0.791-3.75,2.67-6.854,5.636-9.312
		c2.966-2.455,6.357-3.686,10.183-3.686c3.688,0,6.524,1.231,8.502,3.686c1.978,2.458,2.57,5.562,1.779,9.312
		c-0.924,4.141-2.9,7.372-5.932,9.7C2205.76,1123.84,2202.398,1125.004,2198.709,1125.004z"/>
	<path fill="#265F71" d="M2219.47,1177.966c1.315-6.208,3.361-11.961,6.129-17.266c2.769-5.302,6.229-9.894,10.381-13.774
		s8.996-6.917,14.532-9.118c5.536-2.198,11.731-3.298,18.587-3.298c6.194,0,11.795,0.97,16.806,2.91
		c5.009,1.94,9.127,4.723,12.358,8.342c3.229,3.622,5.438,8.084,6.624,13.386c1.186,5.305,1.053,11.252-0.396,17.848
		c-1.319,6.208-3.361,11.931-6.13,17.169c-2.768,5.238-6.129,9.767-10.084,13.58c-3.954,3.816-8.536,6.79-13.742,8.924
		c-5.208,2.134-10.908,3.201-17.103,3.201c-6.197,0-11.172-1.037-14.929-3.104s-6.559-4.977-8.403-8.73l-8.502,39.964h-21.156
		L2219.47,1177.966z M2242.405,1177.189c-1.452,6.984-0.924,12.677,1.582,17.072c2.502,4.398,6.853,6.596,13.05,6.596
		c6.062,0,11.271-2.198,15.62-6.596c4.35-4.396,7.248-10.088,8.7-17.072c1.448-6.984,0.988-12.673-1.385-17.072
		c-2.372-4.396-6.657-6.596-12.852-6.596c-6.197,0-11.502,2.201-15.917,6.596
		C2246.786,1164.516,2243.854,1170.206,2242.405,1177.189z"/>
	<path fill="#265F71" d="M1097.795,1313.96c6.589,0,12.685,0.552,18.289,1.649c5.602,1.101,10.906,2.556,15.917,4.365l-5.141,23.086
		c-3.559-2.198-7.612-4.007-12.16-5.432c-4.548-1.421-9.855-2.134-15.917-2.134c-7.384,0-14.106,1.133-20.168,3.395
		c-6.064,2.264-11.437,5.499-16.114,9.7c-4.681,4.205-8.635,9.249-11.864,15.132c-3.231,5.887-5.635,12.386-7.217,19.497
		c-1.582,7.244-2.011,13.807-1.285,19.69c0.723,5.887,2.57,10.898,5.536,15.036c2.966,4.141,7.084,7.372,12.358,9.7
		c5.271,2.328,11.795,3.492,19.575,3.492c4.612,0,9.521-0.452,14.73-1.358c5.206-0.903,10.115-2.392,14.73-4.462l-4.745,22.116
		c-3.297,0.906-6.164,1.683-8.601,2.328c-2.441,0.648-4.746,1.194-6.92,1.648c-2.175,0.452-4.319,0.776-6.426,0.971
		c-2.11,0.193-4.483,0.291-7.118,0.291c-10.282,0-19.575-1.455-27.879-4.365c-8.305-2.91-15.061-7.306-20.267-13.192
		c-5.208-5.884-8.7-13.319-10.479-22.31c-1.779-8.989-1.353-19.625,1.286-31.914c2.502-12.155,6.358-22.471,11.567-30.943
		c5.206-8.469,11.301-15.356,18.29-20.661c6.985-5.302,14.761-9.182,23.332-11.64
		C1079.669,1315.19,1088.566,1313.96,1097.795,1313.96z"/>
	<path fill="#265F71" d="M1167.392,1421.049c-3.954,0-7.878-0.321-11.764-0.971c-3.89-0.646-7.35-1.746-10.381-3.298
		c-0.133,6.727,1.978,11.416,6.327,14.065c4.35,2.652,9.818,3.977,16.411,3.977c1.316,0,2.602,0,3.856,0
		c1.251,0,2.536-0.127,3.855-0.388c4.612-0.646,8.533-1.455,11.765-2.425c3.229-0.971,6.358-2.165,9.392-3.589l-3.757,17.653
		c-4.22,1.812-8.635,3.365-13.248,4.656c-4.616,1.291-10.282,1.94-17.004,1.94c-15.027,0-25.902-3.911-32.625-11.737
		c-6.723-7.824-8.833-18.591-6.327-32.301c1.053-5.948,2.867-11.447,5.437-16.491c2.571-5.044,5.833-9.409,9.788-13.095
		c3.955-3.687,8.632-6.563,14.039-8.634c5.403-2.067,11.598-3.104,18.586-3.104c4.875,0,9.556,0.552,14.039,1.648
		c4.479,1.101,8.335,2.88,11.567,5.336c3.229,2.458,5.601,5.562,7.118,9.312c1.514,3.753,1.681,8.215,0.494,13.386
		c-1.847,8.797-6.197,15.005-13.05,18.625C1185.055,1419.239,1176.883,1421.049,1167.392,1421.049z M1171.544,1383.412
		c-5.932,0-10.844,1.779-14.73,5.335c-3.89,3.56-6.889,8.245-8.997,14.065c2.373,1.552,4.844,2.686,7.415,3.395
		c2.57,0.713,5.567,1.067,8.996,1.067c5.008,0,9.259-0.97,12.753-2.91c3.491-1.94,5.7-4.85,6.624-8.73
		c0.791-3.88,0.064-6.888-2.175-9.021C1179.188,1384.479,1175.895,1383.412,1171.544,1383.412z"/>
	<path fill="#265F71" d="M1273.174,1407.274c1.316-6.078,1.152-10.895-0.495-14.454c-1.65-3.556-5.175-5.335-10.578-5.335
		c-5.407,0-9.688,1.779-12.852,5.335c-3.164,3.559-5.407,8.376-6.723,14.454l-9.293,43.456h-22.541l9.293-43.65
		c1.186-5.301,2.734-10.379,4.646-15.229c1.909-4.85,4.479-9.085,7.711-12.707c3.229-3.619,7.248-6.499,12.062-8.633
		c4.81-2.134,10.776-3.201,17.894-3.201s13.081,1.067,17.894,3.201c4.81,2.134,8.567,5.014,11.271,8.633
		c2.7,3.622,4.381,7.857,5.042,12.707c0.658,4.85,0.395,9.928-0.791,15.229l-9.293,43.65h-22.541L1273.174,1407.274z"/>
	<path fill="#265F71" d="M1325.173,1349.85h21.157l-4.152,19.399h15.62l-3.757,17.267h-15.62l-6.525,30.071
		c-0.791,3.622-1.087,6.532-0.89,8.729c0.198,2.201,0.757,3.88,1.681,5.044c0.92,1.164,2.076,1.94,3.46,2.328
		c1.384,0.388,2.867,0.582,4.449,0.582c1.316,0,2.669-0.097,4.053-0.291c1.384-0.194,2.997-0.612,4.844-1.261l-3.559,16.878
		c-2.638,0.906-5.011,1.488-7.118,1.746c-2.11,0.261-4.087,0.388-5.932,0.388c-5.932,0-10.612-0.903-14.039-2.716
		c-3.429-1.81-5.901-4.365-7.415-7.663c-1.517-3.298-2.175-7.306-1.978-12.028c0.198-4.72,0.955-10.055,2.274-16.005
		L1325.173,1349.85z"/>
	<path fill="#265F71" d="M1408.219,1421.049c-3.955,0-7.878-0.321-11.765-0.971c-3.89-0.646-7.35-1.746-10.381-3.298
		c-0.133,6.727,1.978,11.416,6.327,14.065c4.35,2.652,9.818,3.977,16.411,3.977c1.316,0,2.602,0,3.856,0
		c1.25,0,2.535-0.127,3.855-0.388c4.611-0.646,8.533-1.455,11.764-2.425c3.229-0.971,6.358-2.165,9.393-3.589l-3.757,17.653
		c-4.22,1.812-8.636,3.365-13.247,4.656c-4.616,1.291-10.282,1.94-17.005,1.94c-15.027,0-25.902-3.911-32.625-11.737
		c-6.723-7.824-8.833-18.591-6.327-32.301c1.053-5.948,2.867-11.447,5.437-16.491c2.571-5.044,5.833-9.409,9.788-13.095
		c3.955-3.687,8.632-6.563,14.039-8.634c5.403-2.067,11.598-3.104,18.586-3.104c4.875,0,9.556,0.552,14.039,1.648
		c4.479,1.101,8.335,2.88,11.566,5.336c3.229,2.458,5.602,5.562,7.118,9.312c1.514,3.753,1.681,8.215,0.494,13.386
		c-1.847,8.797-6.197,15.005-13.05,18.625C1425.881,1419.239,1417.709,1421.049,1408.219,1421.049z M1412.371,1383.412
		c-5.932,0-10.844,1.779-14.731,5.335c-3.89,3.56-6.889,8.245-8.997,14.065c2.373,1.552,4.844,2.686,7.415,3.395
		c2.57,0.713,5.567,1.067,8.996,1.067c5.008,0,9.26-0.97,12.754-2.91c3.49-1.94,5.699-4.85,6.623-8.73
		c0.791-3.88,0.064-6.888-2.175-9.021C1420.014,1384.479,1416.721,1383.412,1412.371,1383.412z"/>
	<path fill="#265F71" d="M1507.871,1367.31c1.053,0,2.141,0.066,3.262,0.194c1.119,0.13,2.274,0.261,3.461,0.388l-4.351,20.176
		c-1.977-0.388-4.22-0.582-6.723-0.582c-4.615,0-8.799,1.746-12.555,5.238c-3.757,3.492-6.361,8.603-7.811,15.327l-9.096,42.68
		h-22.54l9.095-42.874c3.031-14.096,8.567-24.377,16.609-30.846C1485.263,1370.544,1495.479,1367.31,1507.871,1367.31z"/>
	<path fill="#265F71" d="M1636.19,1424.929c-0.661,2.846-0.858,4.946-0.593,6.305c0.262,1.358,1.384,2.037,3.361,2.037
		c0.92,0,1.711-0.097,2.372-0.291c0.658-0.194,1.514-0.485,2.57-0.873l-3.559,16.49c-1.057,0.388-2.076,0.712-3.064,0.97
		c-0.989,0.261-2.046,0.485-3.164,0.679c-1.121,0.194-2.373,0.324-3.757,0.389c-1.384,0.066-3.064,0.097-5.042,0.097
		c-7.909,0-12.524-2.455-13.841-7.372c-2.9,2.977-6.296,5.271-10.183,6.887c-3.89,1.616-8.536,2.426-13.939,2.426
		c-6.327,0-11.833-1.067-16.51-3.201c-4.681-2.134-8.472-5.108-11.369-8.924c-2.901-3.813-4.813-8.343-5.734-13.58
		c-0.924-5.238-0.727-10.961,0.593-17.169c2.898-13.32,8.567-23.733,17.005-31.235c8.434-7.499,18.913-11.252,31.438-11.252
		c6.852,0,12.852,1.101,17.992,3.298c5.142,2.201,9.293,5.238,12.457,9.118c3.163,3.88,5.271,8.473,6.327,13.773
		c1.054,5.305,0.921,11.059-0.396,17.267L1636.19,1424.929z M1616.418,1409.99c1.449-6.984,0.955-12.674-1.483-17.072
		c-2.44-4.396-6.756-6.597-12.95-6.597c-6.198,0-11.469,2.201-15.818,6.597c-4.35,4.397-7.251,10.088-8.7,17.072
		c-1.452,6.984-0.988,12.677,1.385,17.072c2.372,4.398,6.654,6.596,12.852,6.596c6.194,0,11.499-2.197,15.917-6.596
		C1612.034,1422.667,1614.966,1416.975,1616.418,1409.99z"/>
	<path fill="#265F71" d="M1715.278,1407.274c1.316-6.078,1.152-10.895-0.494-14.454c-1.649-3.556-5.175-5.335-10.578-5.335
		c-5.406,0-9.688,1.779-12.853,5.335c-3.163,3.559-5.406,8.376-6.723,14.454l-9.293,43.456h-22.54l9.293-43.65
		c1.187-5.301,2.734-10.379,4.646-15.229c1.909-4.85,4.479-9.085,7.711-12.707c3.229-3.619,7.248-6.499,12.062-8.633
		c4.811-2.134,10.775-3.201,17.894-3.201s13.081,1.067,17.895,3.201c4.811,2.134,8.567,5.014,11.271,8.633
		c2.7,3.622,4.381,7.857,5.042,12.707c0.658,4.85,0.396,9.928-0.791,15.229l-9.293,43.65h-22.541L1715.278,1407.274z"/>
	<path fill="#265F71" d="M1837.273,1409.215c-1.319,6.208-3.361,11.964-6.13,17.266c-2.768,5.305-6.262,9.894-10.479,13.774
		c-4.221,3.88-9.096,6.92-14.632,9.117c-5.536,2.198-11.734,3.299-18.586,3.299c-6.198,0-11.799-0.971-16.807-2.91
		c-5.012-1.94-9.13-4.72-12.358-8.342c-3.231-3.62-5.438-8.082-6.624-13.387c-1.186-5.302-1.056-11.252,0.396-17.848
		c1.316-6.208,3.427-11.931,6.327-17.169c2.898-5.238,6.427-9.764,10.579-13.58c4.151-3.813,8.897-6.79,14.235-8.924
		c5.339-2.134,11.104-3.201,17.302-3.201c5.536,0,10.05,0.873,13.544,2.619c3.491,1.746,6.16,4.171,8.008,7.274l14.434-66.154
		h22.541l-21.354,98.165H1837.273z M1814.14,1409.99c1.449-6.984,0.955-12.674-1.482-17.072c-2.441-4.396-6.757-6.597-12.951-6.597
		c-6.197,0-11.469,2.201-15.818,6.597c-4.35,4.397-7.251,10.088-8.7,17.072c-1.451,6.984-0.988,12.677,1.385,17.072
		c2.372,4.398,6.654,6.596,12.852,6.596c6.194,0,11.499-2.197,15.917-6.596C1809.756,1422.667,1812.688,1416.975,1814.14,1409.99z"
		/>
	<path fill="#265F71" d="M1037.687,1547.73h41.72c5.932,0,11.765,0.388,17.499,1.164c5.734,0.775,10.677,2.425,14.83,4.946
		c4.152,2.522,7.183,6.111,9.095,10.768c1.909,4.656,2.008,10.931,0.296,18.818c-1.847,8.535-5.011,15.034-9.491,19.496
		c-4.482,4.463-10.217,7.406-17.202,8.827c7.513,0.649,13.114,3.525,16.806,8.633c3.689,5.111,4.415,13.032,2.175,23.766
		c-1.978,8.797-5.042,15.78-9.194,20.952c-4.152,5.174-8.833,9.118-14.039,11.834c-5.208,2.716-10.745,4.495-16.609,5.335
		c-5.867,0.843-11.437,1.261-16.708,1.261h-48.443L1037.687,1547.73z M1046.188,1622.42l-8.897,41.517h19.377
		c7.909,0,14.563-1.389,19.97-4.171c5.403-2.78,8.897-7.921,10.479-15.424c0.92-4.395,1.152-7.983,0.692-10.767
		c-0.463-2.779-1.582-5.011-3.361-6.693c-1.779-1.679-4.121-2.843-7.019-3.491c-2.901-0.646-6.198-0.971-9.886-0.971H1046.188z
		 M1071.893,1602.826c6.457,0,11.598-1.261,15.423-3.783c3.821-2.521,6.457-7.274,7.909-14.259
		c1.449-6.596,0.723-11.155-2.175-13.677c-2.901-2.522-7.909-3.783-15.027-3.783h-19.772l-7.711,35.502H1071.893z"/>
	<path fill="#265F71" d="M1191.118,1602.05h22.343l-9.491,43.65c-3.034,13.841-8.175,23.929-15.422,30.264
		c-7.251,6.339-16.742,9.507-28.473,9.507c-5.802,0-11.042-0.776-15.719-2.328c-4.681-1.553-8.472-3.944-11.369-7.179
		c-2.901-3.23-4.844-7.372-5.833-12.416s-0.76-10.991,0.692-17.848l9.491-43.65h22.541l-9.688,44.62
		c-2.768,13.192,0.989,19.788,11.271,19.788c10.544,0,17.202-6.596,19.97-19.788L1191.118,1602.05z"/>
	<path fill="#265F71" d="M1281.28,1658.504c-1.319,5.951-3.46,10.704-6.426,14.26c-2.966,3.559-6.327,6.274-10.084,8.147
		c-3.757,1.877-7.779,3.104-12.062,3.687c-4.285,0.582-8.338,0.873-12.16,0.873c-4.616,0-9.624-0.261-15.027-0.776
		c-5.407-0.519-10.35-1.552-14.829-3.104l3.756-17.653c4.48,1.682,8.765,2.88,12.853,3.589c4.084,0.712,8.502,1.066,13.248,1.066
		c10.939,0,17.069-3.037,18.388-9.117c0.396-2.067,0.164-3.687-0.692-4.851c-0.859-1.164-2.11-2.101-3.757-2.812
		c-1.65-0.71-3.658-1.228-6.031-1.553c-2.373-0.321-4.813-0.742-7.316-1.261c-2.768-0.515-5.438-1.291-8.008-2.328
		c-2.57-1.033-4.745-2.521-6.525-4.462c-1.779-1.939-3-4.364-3.658-7.274c-0.661-2.91-0.528-6.499,0.396-10.768
		c1.186-5.559,3.164-9.957,5.932-13.191c2.768-3.231,5.997-5.656,9.688-7.275c3.689-1.615,7.677-2.619,11.962-3.007
		c4.282-0.388,8.533-0.582,12.753-0.582c2.635,0,6.392,0.164,11.27,0.485c4.875,0.324,9.886,1.003,15.027,2.036l-3.757,17.072
		c-5.537-1.939-12.92-2.91-22.146-2.91c-4.745,0-8.798,0.485-12.16,1.455c-3.361,0.971-5.373,2.943-6.031,5.917
		c-0.396,1.553-0.167,2.813,0.692,3.783c0.856,0.97,2.076,1.746,3.658,2.328c1.582,0.582,3.491,1.101,5.734,1.552
		c2.24,0.455,4.612,0.939,7.118,1.455c2.502,0.519,5.042,1.23,7.612,2.134c2.57,0.906,4.81,2.265,6.723,4.074
		c1.909,1.812,3.293,4.237,4.152,7.275C1282.432,1649.808,1282.333,1653.721,1281.28,1658.504z"/>
	<path fill="#265F71" d="M1321.418,1656.952c-0.661,2.847-0.825,5.044-0.495,6.596c0.328,1.553,1.613,2.328,3.856,2.328
		c1.186,0,2.768-0.321,4.745-0.97l-3.559,16.684c-1.848,0.649-3.89,1.134-6.129,1.455c-2.243,0.324-4.548,0.485-6.92,0.485
		c-3.164,0-5.901-0.321-8.206-0.97c-2.308-0.646-4.121-1.776-5.438-3.396c-1.319-1.615-2.11-3.847-2.373-6.692
		c-0.266-2.844,0.13-6.466,1.187-10.864l12.852-59.559h22.343L1321.418,1656.952z M1324.977,1590.604
		c-3.825,0-6.691-1.164-8.601-3.492c-1.913-2.328-2.407-5.56-1.483-9.7c0.791-3.749,2.669-6.854,5.635-9.312
		c2.966-2.456,6.358-3.687,10.183-3.687c3.688,0,6.525,1.23,8.502,3.687c1.978,2.458,2.57,5.562,1.78,9.312
		c-0.924,4.141-2.901,7.372-5.932,9.7C1332.027,1589.44,1328.666,1590.604,1324.977,1590.604z"/>
	<path fill="#265F71" d="M1400.309,1640.074c1.316-6.077,1.152-10.895-0.495-14.453c-1.65-3.556-5.175-5.335-10.578-5.335
		c-5.407,0-9.688,1.779-12.852,5.335c-3.164,3.559-5.407,8.376-6.723,14.453l-9.293,43.456h-22.541l9.293-43.65
		c1.186-5.301,2.734-10.379,4.646-15.229c1.909-4.85,4.479-9.085,7.711-12.707c3.229-3.619,7.248-6.499,12.062-8.633
		c4.81-2.134,10.776-3.201,17.894-3.201s13.081,1.067,17.894,3.201c4.811,2.134,8.566,5.014,11.271,8.633
		c2.7,3.622,4.381,7.857,5.042,12.707c0.658,4.85,0.395,9.928-0.791,15.229l-9.293,43.65h-22.541L1400.309,1640.074z"/>
	<path fill="#265F71" d="M1481.176,1653.849c-3.953,0-7.877-0.321-11.764-0.971c-3.891-0.646-7.35-1.746-10.381-3.298
		c-0.133,6.727,1.977,11.416,6.328,14.065c4.35,2.652,9.818,3.977,16.41,3.977c1.316,0,2.602,0,3.855,0
		c1.252,0,2.537-0.127,3.855-0.388c4.613-0.646,8.533-1.455,11.766-2.425c3.229-0.971,6.357-2.165,9.391-3.589l-3.756,17.653
		c-4.221,1.812-8.635,3.365-13.248,4.656c-4.615,1.291-10.281,1.94-17.004,1.94c-15.027,0-25.902-3.911-32.625-11.737
		c-6.723-7.824-8.832-18.591-6.326-32.301c1.053-5.947,2.866-11.446,5.437-16.49c2.571-5.044,5.833-9.409,9.788-13.095
		c3.953-3.687,8.631-6.563,14.037-8.634c5.404-2.067,11.6-3.104,18.588-3.104c4.875,0,9.555,0.552,14.037,1.648
		c4.48,1.101,8.336,2.88,11.566,5.336c3.229,2.458,5.602,5.562,7.119,9.312c1.514,3.753,1.68,8.215,0.494,13.386
		c-1.848,8.797-6.197,15.005-13.049,18.624C1498.84,1652.039,1490.668,1653.849,1481.176,1653.849z M1485.328,1616.212
		c-5.932,0-10.844,1.779-14.73,5.335c-3.889,3.56-6.889,8.245-8.996,14.065c2.373,1.552,4.844,2.686,7.414,3.395
		c2.57,0.713,5.568,1.067,8.998,1.067c5.008,0,9.258-0.97,12.752-2.91c3.492-1.939,5.701-4.85,6.625-8.729
		c0.791-3.88,0.064-6.888-2.176-9.021C1492.973,1617.279,1489.678,1616.212,1485.328,1616.212z"/>
	<path fill="#265F71" d="M1591.309,1658.504c-1.319,5.951-3.461,10.704-6.427,14.26c-2.966,3.559-6.327,6.274-10.084,8.147
		c-3.757,1.877-7.779,3.104-12.061,3.687c-4.285,0.582-8.339,0.873-12.16,0.873c-4.616,0-9.624-0.261-15.027-0.776
		c-5.406-0.519-10.35-1.552-14.829-3.104l3.757-17.653c4.479,1.682,8.765,2.88,12.852,3.589c4.085,0.712,8.502,1.066,13.248,1.066
		c10.939,0,17.069-3.037,18.388-9.117c0.396-2.067,0.164-3.687-0.691-4.851c-0.859-1.164-2.11-2.101-3.757-2.812
		c-1.649-0.71-3.658-1.228-6.03-1.553c-2.373-0.321-4.813-0.742-7.316-1.261c-2.768-0.515-5.438-1.291-8.008-2.328
		c-2.57-1.033-4.745-2.521-6.524-4.462c-1.78-1.939-3-4.364-3.658-7.274c-0.661-2.91-0.528-6.499,0.396-10.768
		c1.187-5.559,3.163-9.957,5.932-13.191c2.769-3.231,5.997-5.656,9.688-7.275c3.688-1.615,7.678-2.619,11.962-3.007
		c4.282-0.388,8.533-0.582,12.754-0.582c2.635,0,6.392,0.164,11.271,0.485c4.875,0.324,9.886,1.003,15.026,2.036l-3.757,17.072
		c-5.536-1.939-12.92-2.91-22.145-2.91c-4.746,0-8.799,0.485-12.16,1.455c-3.361,0.971-5.373,2.943-6.031,5.917
		c-0.395,1.553-0.166,2.813,0.692,3.783c0.855,0.97,2.076,1.746,3.658,2.328s3.491,1.101,5.733,1.552
		c2.24,0.455,4.613,0.939,7.118,1.455c2.503,0.519,5.042,1.23,7.612,2.134c2.571,0.906,4.811,2.265,6.723,4.074
		c1.91,1.812,3.294,4.237,4.152,7.275C1592.461,1649.808,1592.361,1653.721,1591.309,1658.504z"/>
	<path fill="#265F71" d="M1668.816,1658.504c-1.319,5.951-3.461,10.704-6.427,14.26c-2.966,3.559-6.327,6.274-10.084,8.147
		c-3.757,1.877-7.779,3.104-12.061,3.687c-4.285,0.582-8.339,0.873-12.16,0.873c-4.616,0-9.624-0.261-15.027-0.776
		c-5.406-0.519-10.35-1.552-14.829-3.104l3.757-17.653c4.479,1.682,8.765,2.88,12.852,3.589c4.085,0.712,8.502,1.066,13.248,1.066
		c10.939,0,17.069-3.037,18.388-9.117c0.396-2.067,0.164-3.687-0.691-4.851c-0.859-1.164-2.11-2.101-3.757-2.812
		c-1.649-0.71-3.658-1.228-6.03-1.553c-2.373-0.321-4.813-0.742-7.316-1.261c-2.768-0.515-5.438-1.291-8.008-2.328
		c-2.57-1.033-4.745-2.521-6.524-4.462c-1.78-1.939-3-4.364-3.658-7.274c-0.661-2.91-0.528-6.499,0.396-10.768
		c1.187-5.559,3.163-9.957,5.932-13.191c2.769-3.231,5.997-5.656,9.688-7.275c3.688-1.615,7.678-2.619,11.962-3.007
		c4.282-0.388,8.533-0.582,12.754-0.582c2.635,0,6.392,0.164,11.271,0.485c4.875,0.324,9.886,1.003,15.026,2.036l-3.757,17.072
		c-5.536-1.939-12.92-2.91-22.145-2.91c-4.746,0-8.799,0.485-12.16,1.455c-3.361,0.971-5.373,2.943-6.031,5.917
		c-0.395,1.553-0.166,2.813,0.692,3.783c0.855,0.97,2.076,1.746,3.658,2.328s3.491,1.101,5.733,1.552
		c2.24,0.455,4.613,0.939,7.118,1.455c2.503,0.519,5.042,1.23,7.612,2.134c2.571,0.906,4.811,2.265,6.723,4.074
		c1.91,1.812,3.294,4.237,4.152,7.275C1669.969,1649.808,1669.869,1653.721,1668.816,1658.504z"/>
	<path fill="#265F71" d="M1745.927,1683.53h-25.111l29.264-135.8h25.111L1745.927,1683.53z"/>
	<path fill="#265F71" d="M1830.75,1640.074c1.316-6.077,1.152-10.895-0.494-14.453c-1.649-3.556-5.175-5.335-10.578-5.335
		c-5.406,0-9.688,1.779-12.853,5.335c-3.163,3.559-5.406,8.376-6.723,14.453l-9.293,43.456h-22.54l9.293-43.65
		c1.187-5.301,2.734-10.379,4.646-15.229c1.909-4.85,4.479-9.085,7.711-12.707c3.229-3.619,7.248-6.499,12.062-8.633
		c4.811-2.134,10.775-3.201,17.894-3.201s13.081,1.067,17.895,3.201c4.811,2.134,8.567,5.014,11.271,8.633
		c2.7,3.622,4.381,7.857,5.042,12.707c0.658,4.85,0.396,9.928-0.791,15.229l-9.293,43.65h-22.541L1830.75,1640.074z"/>
	<path fill="#265F71" d="M1919.329,1600.11c3.821,0,7.217,0.291,10.183,0.873s5.635,1.327,8.008,2.23l-4.152,19.595
		c-1.715-1.034-3.791-1.874-6.229-2.522c-2.44-0.646-5.109-0.97-8.008-0.97c-6.855,0-12.654,2.007-17.399,6.014
		c-4.746,4.011-7.978,9.895-9.688,17.654c-1.582,7.244-1.022,12.968,1.681,17.169c2.7,4.204,7.875,6.305,15.521,6.305
		c2.635,0,5.304-0.16,8.008-0.484c2.7-0.321,5.172-1.001,7.414-2.037l-4.152,18.817c-2.9,0.903-5.604,1.583-8.106,2.037
		c-2.506,0.452-5.472,0.68-8.897,0.68c-13.974,0-24.19-3.75-30.647-11.252c-6.46-7.5-8.175-18.3-5.141-32.398
		c1.582-7.241,3.985-13.483,7.217-18.721c3.229-5.238,7.084-9.57,11.567-12.998c4.479-3.426,9.521-5.947,15.126-7.566
		C1907.233,1600.92,1913.131,1600.11,1919.329,1600.11z"/>
	<path fill="#265F71" d="M2007.909,1602.05h22.343l-9.49,43.65c-3.034,13.841-8.175,23.929-15.423,30.264
		c-7.251,6.339-16.742,9.507-28.473,9.507c-5.802,0-11.041-0.776-15.719-2.328c-4.681-1.553-8.472-3.944-11.369-7.179
		c-2.901-3.23-4.845-7.372-5.833-12.416s-0.76-10.991,0.692-17.848l9.49-43.65h22.541l-9.688,44.62
		c-2.769,13.192,0.988,19.788,11.27,19.788c10.545,0,17.202-6.596,19.971-19.788L2007.909,1602.05z"/>
	<path fill="#265F71" d="M2059.911,1547.73h22.54l-13.05,60.14c2.898-2.455,6.26-4.365,10.084-5.723
		c3.822-1.358,8.237-2.037,13.248-2.037c6.194,0,11.566,1.067,16.114,3.201s8.172,5.11,10.875,8.924
		c2.7,3.816,4.449,8.342,5.24,13.58c0.79,5.238,0.524,10.961-0.791,17.169c-2.901,13.322-8.472,23.734-16.708,31.234
		c-8.239,7.502-18.883,11.252-31.933,11.252c-6.723,0-12.59-1.134-17.598-3.396c-5.011-2.262-9.095-5.398-12.259-9.409
		c-3.163-4.007-5.273-8.76-6.327-14.259c-1.057-5.496-0.924-11.413,0.396-17.751L2059.911,1547.73z M2062.284,1642.79
		c-1.452,6.984-1.057,12.677,1.186,17.072c2.24,4.398,6.525,6.596,12.853,6.596s11.666-2.197,16.016-6.596
		c4.35-4.396,7.248-10.088,8.7-17.072c1.448-6.983,0.988-12.674-1.385-17.071c-2.372-4.396-6.593-6.597-12.654-6.597
		c-6.197,0-11.502,2.201-15.917,6.597C2066.664,1630.116,2063.732,1635.807,2062.284,1642.79z"/>
	<path fill="#265F71" d="M2219.472,1657.729c-0.661,2.846-0.858,4.946-0.593,6.305c0.262,1.358,1.384,2.037,3.361,2.037
		c0.92,0,1.711-0.097,2.372-0.291c0.658-0.194,1.514-0.485,2.57-0.873l-3.559,16.49c-1.057,0.388-2.076,0.712-3.064,0.97
		c-0.989,0.261-2.046,0.485-3.164,0.679c-1.121,0.194-2.373,0.324-3.757,0.389c-1.384,0.066-3.064,0.097-5.042,0.097
		c-7.909,0-12.524-2.455-13.841-7.372c-2.9,2.977-6.296,5.271-10.183,6.887c-3.89,1.616-8.536,2.426-13.939,2.426
		c-6.327,0-11.833-1.067-16.51-3.201c-4.681-2.134-8.472-5.108-11.369-8.924c-2.901-3.813-4.813-8.343-5.734-13.58
		c-0.924-5.238-0.727-10.961,0.593-17.169c2.898-13.319,8.567-23.732,17.005-31.234c8.434-7.499,18.913-11.252,31.438-11.252
		c6.852,0,12.852,1.101,17.992,3.298c5.142,2.201,9.293,5.238,12.457,9.118c3.163,3.88,5.271,8.473,6.327,13.773
		c1.054,5.305,0.921,11.059-0.396,17.267L2219.472,1657.729z M2199.699,1642.79c1.449-6.983,0.955-12.674-1.483-17.071
		c-2.44-4.396-6.756-6.597-12.95-6.597c-6.198,0-11.469,2.201-15.818,6.597c-4.35,4.397-7.251,10.088-8.7,17.071
		c-1.452,6.984-0.988,12.677,1.385,17.072c2.372,4.398,6.654,6.596,12.852,6.596c6.194,0,11.499-2.197,15.917-6.596
		C2195.315,1655.467,2198.247,1649.774,2199.699,1642.79z"/>
	<path fill="#265F71" d="M2256.644,1582.65h21.156l-4.152,19.399h15.62l-3.757,17.267h-15.62l-6.524,30.07
		c-0.791,3.622-1.088,6.532-0.891,8.729c0.198,2.201,0.758,3.88,1.681,5.044c0.921,1.164,2.076,1.94,3.461,2.328
		c1.384,0.388,2.867,0.582,4.448,0.582c1.316,0,2.67-0.097,4.054-0.291s2.997-0.612,4.844-1.261l-3.559,16.878
		c-2.639,0.906-5.011,1.488-7.118,1.746c-2.11,0.261-4.087,0.388-5.932,0.388c-5.932,0-10.612-0.903-14.038-2.716
		c-3.43-1.81-5.901-4.365-7.415-7.663c-1.517-3.298-2.175-7.306-1.978-12.028c0.198-4.72,0.955-10.055,2.274-16.005
		L2256.644,1582.65z"/>
	<path fill="#265F71" d="M2381.21,1642.597c-1.319,6.338-3.396,12.125-6.229,17.362c-2.836,5.238-6.327,9.767-10.479,13.58
		c-4.152,3.816-8.965,6.76-14.434,8.827c-5.472,2.067-11.438,3.104-17.895,3.104c-6.593,0-12.426-1.037-17.498-3.104
		c-5.076-2.067-9.229-5.011-12.457-8.827c-3.231-3.813-5.406-8.342-6.524-13.58c-1.122-5.237-1.023-11.024,0.296-17.362
		c1.316-6.208,3.393-11.932,6.229-17.169c2.833-5.238,6.327-9.73,10.479-13.483c4.152-3.75,8.929-6.66,14.335-8.73
		c5.403-2.067,11.4-3.104,17.993-3.104c6.59,0,12.423,1.036,17.499,3.104c5.072,2.07,9.225,4.98,12.456,8.73
		c3.229,3.753,5.403,8.245,6.525,13.483C2382.625,1630.665,2382.526,1636.389,2381.21,1642.597z M2358.076,1642.79
		c1.449-6.983,0.921-12.707-1.582-17.169c-2.505-4.462-6.723-6.692-12.654-6.692c-6.197,0-11.502,2.23-15.917,6.692
		c-4.418,4.462-7.35,10.186-8.799,17.169c-1.452,6.984-0.957,12.707,1.483,17.169c2.438,4.462,6.753,6.693,12.951,6.693
		c5.932,0,11.137-2.231,15.62-6.693C2353.658,1655.497,2356.624,1649.774,2358.076,1642.79z"/>
	<path fill="#265F71" d="M2443.887,1600.11c1.053,0,2.141,0.066,3.262,0.194c1.119,0.13,2.274,0.261,3.461,0.388l-4.351,20.176
		c-1.977-0.388-4.22-0.582-6.723-0.582c-4.615,0-8.799,1.746-12.555,5.238c-3.757,3.492-6.361,8.603-7.811,15.326l-9.096,42.68
		h-22.54l9.095-42.874c3.031-14.096,8.567-24.377,16.609-30.846C2421.278,1603.345,2431.495,1600.11,2443.887,1600.11z"/>
	<path fill="#265F71" d="M2510.915,1658.504c-1.319,5.951-3.461,10.704-6.427,14.26c-2.966,3.559-6.327,6.274-10.084,8.147
		c-3.757,1.877-7.779,3.104-12.061,3.687c-4.285,0.582-8.339,0.873-12.16,0.873c-4.616,0-9.624-0.261-15.027-0.776
		c-5.406-0.519-10.35-1.552-14.829-3.104l3.757-17.653c4.479,1.682,8.765,2.88,12.852,3.589c4.085,0.712,8.502,1.066,13.248,1.066
		c10.939,0,17.069-3.037,18.388-9.117c0.396-2.067,0.164-3.687-0.691-4.851c-0.859-1.164-2.11-2.101-3.757-2.812
		c-1.649-0.71-3.658-1.228-6.03-1.553c-2.373-0.321-4.813-0.742-7.316-1.261c-2.768-0.515-5.438-1.291-8.008-2.328
		c-2.57-1.033-4.745-2.521-6.524-4.462c-1.78-1.939-3-4.364-3.658-7.274c-0.661-2.91-0.528-6.499,0.396-10.768
		c1.187-5.559,3.163-9.957,5.932-13.191c2.769-3.231,5.997-5.656,9.688-7.275c3.688-1.615,7.678-2.619,11.962-3.007
		c4.282-0.388,8.533-0.582,12.754-0.582c2.635,0,6.392,0.164,11.271,0.485c4.875,0.324,9.886,1.003,15.026,2.036l-3.757,17.072
		c-5.536-1.939-12.92-2.91-22.145-2.91c-4.746,0-8.799,0.485-12.16,1.455c-3.361,0.971-5.373,2.943-6.031,5.917
		c-0.395,1.553-0.166,2.813,0.692,3.783c0.855,0.97,2.076,1.746,3.658,2.328s3.491,1.101,5.733,1.552
		c2.24,0.455,4.613,0.939,7.118,1.455c2.503,0.519,5.042,1.23,7.612,2.134c2.571,0.906,4.811,2.265,6.723,4.074
		c1.91,1.812,3.294,4.237,4.152,7.275C2512.067,1649.808,2511.968,1653.721,2510.915,1658.504z"/>
</g>
<g>
</g>
<g>
</g>
<g>
</g>
<g>
</g>
<g>
</g>
<g>
</g>
</svg>
