<svg width="424" height="424" viewBox="0 0 424 424" fill="none" xmlns="http://www.w3.org/2000/svg">
<path fill-rule="evenodd" clip-rule="evenodd" d="M388.379 388.379C398.381 378.377 404 364.812 404 350.667V73.3333C404 59.1885 398.381 45.6229 388.379 35.621C378.377 25.619 364.812 20 350.667 20H73.3333C59.1885 20 45.6229 25.619 35.621 35.621C25.619 45.6229 20 59.1885 20 73.3333V350.667C20 364.812 25.619 378.377 35.621 388.379C45.6229 398.381 59.1885 404 73.3333 404H350.667C364.812 404 378.377 398.381 388.379 388.379ZM351.961 159.961C357.962 153.96 361.333 145.82 361.333 137.333C361.333 117.531 353.467 98.5387 339.464 84.536C325.461 70.5333 306.47 62.6667 286.667 62.6667H137.333C117.531 62.6667 98.5387 70.5333 84.536 84.536C70.5333 98.5387 62.6667 117.531 62.6667 137.333C62.6667 145.82 66.0381 153.96 72.0392 159.961C78.0404 165.962 86.1797 169.333 94.6667 169.333C103.154 169.333 111.293 165.962 117.294 159.961C123.295 153.96 126.667 145.82 126.667 137.333C126.667 134.504 127.79 131.791 129.791 129.791C131.791 127.79 134.504 126.667 137.333 126.667H180V297.333C171.513 297.333 163.374 300.705 157.373 306.706C151.371 312.707 148 320.846 148 329.333C148 337.82 151.371 345.96 157.373 351.961C163.374 357.962 171.513 361.333 180 361.333H244C252.487 361.333 260.626 357.962 266.627 351.961C272.629 345.96 276 337.82 276 329.333C276 320.846 272.629 312.707 266.627 306.706C260.626 300.705 252.487 297.333 244 297.333V126.667H286.667C289.496 126.667 292.209 127.79 294.209 129.791C296.21 131.791 297.333 134.504 297.333 137.333C297.333 145.82 300.705 153.96 306.706 159.961C312.707 165.962 320.846 169.333 329.333 169.333C337.82 169.333 345.96 165.962 351.961 159.961ZM0 66C0 29.5492 29.5492 0 66 0H358C394.451 0 424 29.5492 424 66V367C424 398.48 398.48 424 367 424H73C32.6832 424 0 391.317 0 351V66Z" fill="#FE6601"/>
</svg>
