<svg width="384" height="384" viewBox="0 0 384 384" fill="none" xmlns="http://www.w3.org/2000/svg">
<g clip-path="url(#clip0_44_4)">
<path d="M282.972 64.705L283.547 67.5H286.4H336C339.315 67.5 342.495 68.817 344.839 71.1612C347.183 73.5054 348.5 76.6848 348.5 80C348.5 83.3152 347.183 86.4946 344.839 88.8388C342.495 91.183 339.315 92.5 336 92.5H320H316.5V96V303.996C316.476 324.279 308.408 343.724 294.066 358.066C279.724 372.408 260.279 380.476 239.996 380.5H144.004C123.721 380.476 104.276 372.408 89.9344 358.066C75.5931 343.724 67.5251 324.281 67.5 303.999C67.5 303.998 67.5 303.997 67.5 303.996L67.5 96V92.5H64H48C44.6848 92.5 41.5054 91.183 39.1612 88.8388C36.817 86.4946 35.5 83.3152 35.5 80C35.5 76.6848 36.817 73.5054 39.1612 71.1612C41.5054 68.817 44.6848 67.5 48 67.5H97.6H100.453L101.028 64.705C104.58 47.4362 113.976 31.9197 127.633 20.7708C141.29 9.62235 158.373 3.52277 176.002 3.5H207.998C225.627 3.52277 242.71 9.62235 256.367 20.7708C270.024 31.9197 279.42 47.4362 282.972 64.705ZM176 28.5L175.996 28.5C165.349 28.513 154.967 31.8192 146.274 37.9652C137.58 44.1111 131.001 52.796 127.438 62.8287L125.779 67.5H130.736H253.264H258.221L256.562 62.8287C252.999 52.796 246.42 44.1111 237.726 37.9652C229.033 31.8192 218.651 28.513 208.004 28.5H208L176 28.5ZM96 92.5H92.5V96V304C92.5 317.659 97.9259 330.758 107.584 340.416C117.242 350.074 130.341 355.5 144 355.5H240C253.659 355.5 266.758 350.074 276.416 340.416C286.074 330.758 291.5 317.659 291.5 304V96V92.5H288H96Z" fill="#FE6600" stroke="#F5F5F5" stroke-width="7"/>
<path d="M169.546 281.546C167.014 284.078 163.58 285.5 160 285.5C156.42 285.5 152.986 284.078 150.454 281.546C147.922 279.014 146.5 275.58 146.5 272V176C146.5 172.42 147.922 168.986 150.454 166.454C152.986 163.922 156.42 162.5 160 162.5C163.58 162.5 167.014 163.922 169.546 166.454C172.078 168.986 173.5 172.42 173.5 176V272C173.5 275.58 172.078 279.014 169.546 281.546Z" fill="#FE6600" stroke="#F5F5F5" stroke-width="5"/>
<path d="M233.546 281.546C231.014 284.078 227.58 285.5 224 285.5C220.42 285.5 216.986 284.078 214.454 281.546C211.922 279.014 210.5 275.58 210.5 272V176C210.5 172.42 211.922 168.986 214.454 166.454C216.986 163.922 220.42 162.5 224 162.5C227.58 162.5 231.014 163.922 233.546 166.454C236.078 168.986 237.5 172.42 237.5 176V272C237.5 275.58 236.078 279.014 233.546 281.546Z" fill="#FE6600" stroke="#F5F5F5" stroke-width="5"/>
</g>
<defs>
<clipPath id="clip0_44_4">
<rect width="384" height="384" fill="white"/>
</clipPath>
</defs>
</svg>
