<svg width="650" height="650" viewBox="0 0 650 650" fill="none" xmlns="http://www.w3.org/2000/svg">
<g clip-path="url(#clip0_36_2)">
<path d="M650 325C650 145.507 504.493 0 325 0C145.507 0 0 145.507 0 325C0 504.493 145.507 650 325 650C504.493 650 650 504.493 650 325Z" fill="#F9E3D5"/>
<path d="M270.831 379.166L324.997 325M324.997 325L379.164 379.166M324.997 325V446.875M433.331 389.227C449.871 375.565 460.414 354.898 460.414 331.771C460.414 290.638 427.068 257.291 385.934 257.291C382.975 257.291 380.208 255.747 378.705 253.198C361.046 223.233 328.443 203.125 291.143 203.125C235.051 203.125 189.581 248.596 189.581 304.688C189.581 332.667 200.894 358.002 219.196 376.371" stroke="#FE7923" stroke-width="16" stroke-linecap="round" stroke-linejoin="round"/>
</g>
<defs>
<clipPath id="clip0_36_2">
<rect width="650" height="650" fill="white"/>
</clipPath>
</defs>
</svg>
