<svg width="512" height="512" viewBox="0 0 512 512" fill="none" xmlns="http://www.w3.org/2000/svg">
<g clip-path="url(#clip0_2_10)">
<path fill-rule="evenodd" clip-rule="evenodd" d="M256 0C114.624 0 0 114.624 0 256C0 397.376 114.624 512 256 512C397.376 512 512 397.376 512 256C512 114.624 397.376 0 256 0ZM374.656 174.101C370.816 214.571 354.133 312.811 345.664 358.144C342.08 377.344 334.997 383.765 328.171 384.384C313.301 385.749 302.016 374.549 287.616 365.12C265.088 350.357 252.352 341.163 230.485 326.741C205.205 310.08 221.589 300.928 235.989 285.973C239.765 282.048 305.259 222.464 306.539 217.067C306.688 216.384 306.859 213.867 305.344 212.544C303.829 211.221 301.632 211.669 300.053 212.032C297.792 212.544 261.803 236.331 192.064 283.392C181.845 290.411 172.587 293.824 164.288 293.653C155.157 293.461 137.579 288.491 124.501 284.224C108.48 279.019 95.7227 276.245 96.832 267.413C97.408 262.805 103.744 258.091 115.861 253.269C190.485 220.757 240.256 199.317 265.152 188.949C336.256 159.381 351.019 154.24 360.661 154.069C372.736 153.899 375.637 163.861 374.656 174.101Z" fill="#01B6FE"/>
</g>
<defs>
<clipPath id="clip0_2_10">
<rect width="512" height="512" fill="white"/>
</clipPath>
</defs>
</svg>
