<svg width="512" height="512" viewBox="0 0 512 512" fill="none" xmlns="http://www.w3.org/2000/svg">
<path d="M0 256C0 397.385 114.615 512 256 512C397.385 512 512 397.385 512 256C512 114.615 397.385 0 256 0C114.615 0 0 114.615 0 256Z" fill="#25D366"/>
<path fill-rule="evenodd" clip-rule="evenodd" d="M345.6 164.8C321.6 140.8 289.6 128 256 128C185.6 128 128 185.6 128 256C128 278.4 134.4 300.8 145.6 320L128 384L195.2 366.4C214.4 376 235.2 382.4 256 382.4C326.4 382.4 384 324.8 384 254.4C384 220.8 369.6 188.8 345.6 164.8ZM256 361.6C236.8 361.6 217.6 356.8 201.6 347.2L198.4 345.6L158.4 356.8L169.6 318.4L166.4 313.6C155.2 296 150.4 276.8 150.4 257.6C150.4 200 198.4 152 256 152C284.8 152 310.4 163.2 331.2 182.4C352 203.2 361.6 228.8 361.6 257.6C361.6 313.6 315.2 361.6 256 361.6ZM313.6 281.6C310.4 280 294.4 272 291.2 272C288 270.4 286.4 270.4 284.8 273.6C283.2 276.8 276.8 283.2 275.2 286.4C273.6 288 272 288 268.8 288C265.6 286.4 256 283.2 243.2 272C233.6 264 227.2 252.8 225.6 249.6C224 246.4 225.6 244.8 227.2 243.2C228.8 241.6 230.4 240 232 238.4C233.6 236.8 233.6 235.2 235.2 233.6C236.8 232 235.2 230.4 235.2 228.8C235.2 227.2 228.8 211.2 225.6 204.8C224 200 220.8 200 219.2 200C217.6 200 216 200 212.8 200C211.2 200 208 200 204.8 203.2C201.6 206.4 193.6 214.4 193.6 230.4C193.6 246.4 204.8 260.8 206.4 264C208 265.6 228.8 299.2 260.8 312C288 323.2 292.8 320 299.2 320C305.6 320 318.4 312 320 305.6C323.2 297.6 323.2 291.2 321.6 291.2C320 283.2 316.8 283.2 313.6 281.6Z" fill="white"/>
</svg>
